M48
;Layer_Color=9474304
;FILE_FORMAT=2:4
INCH,LZ
;TYPE=PLATED
T1F00S00C0.0157
T2F00S00C0.0310
T3F00S00C0.0350
T4F00S00C0.0390
T5F00S00C0.0400
T6F00S00C0.0402
T7F00S00C0.0450
T9F00S00C0.1378
%
T01
X025106Y01325
X0269Y014699
X0383Y0147
X0447Y01485
X0449Y0155
X0417Y0112
X04885Y0142
X048508Y015596
X0476Y01555
X05115Y01265
X05375Y0142
X0562Y01265
X05375Y01845
Y01925
X0513Y01905
X05085Y018715
X050435Y019365
X0491Y02245
X047Y02215
X04791Y016
X04885Y01605
X046535Y015915
X0449Y01595
Y0164
X04425Y01685
X0442Y018105
Y019655
X043567Y019433
X0432Y0191
X0428Y01875
X042153Y016897
X03935Y017
X046195Y0222
X046595Y022505
X0463Y0237
X046497Y02535
X0251Y025
X02025
X02545Y02975
X026678Y020122
X0275Y0166
X025106Y016806
X05205Y04095
X05605Y04525
X03845Y0483
X03745
X03645
X03545
X03445
X03045
X02945
X02845
X02745
T02
X0383Y01275
X0393
X0403
X0413
Y01575
X0403
X0393
X0383
T03
X03145Y0224
X02945
X03045Y0244
T04
X03145Y04935
X03245
X03345
X03445
X03545
X03645
X03745
X03845
X03945
X03045
X02945
X02845
X02745
X02645
X02545
X02445
T05
X06035Y04425
Y04525
Y04625
Y04725
Y04825
Y04925
T06
X0562Y01785
Y01885
Y01985
X01895Y03145
Y03245
Y03345
Y03445
Y03545
Y03645
Y03745
Y03845
Y03945
X06085Y0394
Y0384
Y0374
Y0364
Y0354
Y0344
Y0334
Y0324
Y0314
T07
X0322Y0115
Y0195
T09
X0577Y0287
X0223Y02875
X0577Y04825
X02225
M30
