G04*
G04 #@! TF.GenerationSoftware,Altium Limited,Altium Designer,21.0.8 (223)*
G04*
G04 Layer_Color=2752767*
%FSTAX24Y24*%
%MOIN*%
G70*
G04*
G04 #@! TF.SameCoordinates,3F40436D-0E53-4E97-8F6E-D988C466AF24*
G04*
G04*
G04 #@! TF.FilePolarity,Positive*
G04*
G01*
G75*
%ADD73C,0.0020*%
%ADD74C,0.0027*%
D73*
X05612Y01777D02*
Y01793D01*
X05628D01*
Y01777D01*
X05612D01*
Y01877D02*
Y01893D01*
X05628D01*
Y01877D01*
X05612D01*
Y01977D02*
Y01993D01*
X05628D01*
Y01977D01*
X05612D01*
X02225Y04817D02*
X02217Y04833D01*
X02233D01*
X02225Y04817D01*
X0223Y02867D02*
X02222Y02883D01*
X02238D01*
X0223Y02867D01*
X03945Y04927D02*
X03949Y04931D01*
X03953D01*
X03949Y04935D01*
X03953Y04939D01*
X03949D01*
X03945Y04943D01*
X03941Y04939D01*
X03937D01*
X03941Y04935D01*
X03937Y04931D01*
X03941D01*
X03945Y04927D01*
X03845D02*
X03849Y04931D01*
X03853D01*
X03849Y04935D01*
X03853Y04939D01*
X03849D01*
X03845Y04943D01*
X03841Y04939D01*
X03837D01*
X03841Y04935D01*
X03837Y04931D01*
X03841D01*
X03845Y04927D01*
X03745D02*
X03749Y04931D01*
X03753D01*
X03749Y04935D01*
X03753Y04939D01*
X03749D01*
X03745Y04943D01*
X03741Y04939D01*
X03737D01*
X03741Y04935D01*
X03737Y04931D01*
X03741D01*
X03745Y04927D01*
X03645D02*
X03649Y04931D01*
X03653D01*
X03649Y04935D01*
X03653Y04939D01*
X03649D01*
X03645Y04943D01*
X03641Y04939D01*
X03637D01*
X03641Y04935D01*
X03637Y04931D01*
X03641D01*
X03645Y04927D01*
X03545D02*
X03549Y04931D01*
X03553D01*
X03549Y04935D01*
X03553Y04939D01*
X03549D01*
X03545Y04943D01*
X03541Y04939D01*
X03537D01*
X03541Y04935D01*
X03537Y04931D01*
X03541D01*
X03545Y04927D01*
X03445D02*
X03449Y04931D01*
X03453D01*
X03449Y04935D01*
X03453Y04939D01*
X03449D01*
X03445Y04943D01*
X03441Y04939D01*
X03437D01*
X03441Y04935D01*
X03437Y04931D01*
X03441D01*
X03445Y04927D01*
X03345D02*
X03349Y04931D01*
X03353D01*
X03349Y04935D01*
X03353Y04939D01*
X03349D01*
X03345Y04943D01*
X03341Y04939D01*
X03337D01*
X03341Y04935D01*
X03337Y04931D01*
X03341D01*
X03345Y04927D01*
X03245D02*
X03249Y04931D01*
X03253D01*
X03249Y04935D01*
X03253Y04939D01*
X03249D01*
X03245Y04943D01*
X03241Y04939D01*
X03237D01*
X03241Y04935D01*
X03237Y04931D01*
X03241D01*
X03245Y04927D01*
X03145D02*
X03149Y04931D01*
X03153D01*
X03149Y04935D01*
X03153Y04939D01*
X03149D01*
X03145Y04943D01*
X03141Y04939D01*
X03137D01*
X03141Y04935D01*
X03137Y04931D01*
X03141D01*
X03145Y04927D01*
X03045D02*
X03049Y04931D01*
X03053D01*
X03049Y04935D01*
X03053Y04939D01*
X03049D01*
X03045Y04943D01*
X03041Y04939D01*
X03037D01*
X03041Y04935D01*
X03037Y04931D01*
X03041D01*
X03045Y04927D01*
X02945D02*
X02949Y04931D01*
X02953D01*
X02949Y04935D01*
X02953Y04939D01*
X02949D01*
X02945Y04943D01*
X02941Y04939D01*
X02937D01*
X02941Y04935D01*
X02937Y04931D01*
X02941D01*
X02945Y04927D01*
X02845D02*
X02849Y04931D01*
X02853D01*
X02849Y04935D01*
X02853Y04939D01*
X02849D01*
X02845Y04943D01*
X02841Y04939D01*
X02837D01*
X02841Y04935D01*
X02837Y04931D01*
X02841D01*
X02845Y04927D01*
X02745D02*
X02749Y04931D01*
X02753D01*
X02749Y04935D01*
X02753Y04939D01*
X02749D01*
X02745Y04943D01*
X02741Y04939D01*
X02737D01*
X02741Y04935D01*
X02737Y04931D01*
X02741D01*
X02745Y04927D01*
X02645D02*
X02649Y04931D01*
X02653D01*
X02649Y04935D01*
X02653Y04939D01*
X02649D01*
X02645Y04943D01*
X02641Y04939D01*
X02637D01*
X02641Y04935D01*
X02637Y04931D01*
X02641D01*
X02645Y04927D01*
X02545D02*
X02549Y04931D01*
X02553D01*
X02549Y04935D01*
X02553Y04939D01*
X02549D01*
X02545Y04943D01*
X02541Y04939D01*
X02537D01*
X02541Y04935D01*
X02537Y04931D01*
X02541D01*
X02545Y04927D01*
X02445D02*
X02449Y04931D01*
X02453D01*
X02449Y04935D01*
X02453Y04939D01*
X02449D01*
X02445Y04943D01*
X02441Y04939D01*
X02437D01*
X02441Y04935D01*
X02437Y04931D01*
X02441D01*
X02445Y04927D01*
X0577Y04817D02*
X05762Y04833D01*
X05778D01*
X0577Y04817D01*
Y02862D02*
X05762Y02878D01*
X05778D01*
X0577Y02862D01*
X01887Y03237D02*
Y03253D01*
X01903D01*
Y03237D01*
X01887D01*
Y03937D02*
Y03953D01*
X01903D01*
Y03937D01*
X01887D01*
Y03837D02*
Y03853D01*
X01903D01*
Y03837D01*
X01887D01*
Y03737D02*
Y03753D01*
X01903D01*
Y03737D01*
X01887D01*
Y03637D02*
Y03653D01*
X01903D01*
Y03637D01*
X01887D01*
Y03537D02*
Y03553D01*
X01903D01*
Y03537D01*
X01887D01*
Y03437D02*
Y03453D01*
X01903D01*
Y03437D01*
X01887D01*
Y03337D02*
Y03353D01*
X01903D01*
Y03337D01*
X01887D01*
Y03137D02*
Y03153D01*
X01903D01*
Y03137D01*
X01887D01*
X06027Y04417D02*
X06031Y04425D01*
X06027Y04433D01*
X06035Y04429D01*
X06043Y04433D01*
X06039Y04425D01*
X06043Y04417D01*
X06035Y04421D01*
X06027Y04417D01*
Y04517D02*
X06031Y04525D01*
X06027Y04533D01*
X06035Y04529D01*
X06043Y04533D01*
X06039Y04525D01*
X06043Y04517D01*
X06035Y04521D01*
X06027Y04517D01*
Y04617D02*
X06031Y04625D01*
X06027Y04633D01*
X06035Y04629D01*
X06043Y04633D01*
X06039Y04625D01*
X06043Y04617D01*
X06035Y04621D01*
X06027Y04617D01*
Y04717D02*
X06031Y04725D01*
X06027Y04733D01*
X06035Y04729D01*
X06043Y04733D01*
X06039Y04725D01*
X06043Y04717D01*
X06035Y04721D01*
X06027Y04717D01*
Y04817D02*
X06031Y04825D01*
X06027Y04833D01*
X06035Y04829D01*
X06043Y04833D01*
X06039Y04825D01*
X06043Y04817D01*
X06035Y04821D01*
X06027Y04817D01*
Y04917D02*
X06031Y04925D01*
X06027Y04933D01*
X06035Y04929D01*
X06043Y04933D01*
X06039Y04925D01*
X06043Y04917D01*
X06035Y04921D01*
X06027Y04917D01*
X06077Y03232D02*
Y03248D01*
X06093D01*
Y03232D01*
X06077D01*
Y03932D02*
Y03948D01*
X06093D01*
Y03932D01*
X06077D01*
Y03832D02*
Y03848D01*
X06093D01*
Y03832D01*
X06077D01*
Y03732D02*
Y03748D01*
X06093D01*
Y03732D01*
X06077D01*
Y03632D02*
Y03648D01*
X06093D01*
Y03632D01*
X06077D01*
Y03532D02*
Y03548D01*
X06093D01*
Y03532D01*
X06077D01*
Y03432D02*
Y03448D01*
X06093D01*
Y03432D01*
X06077D01*
Y03332D02*
Y03348D01*
X06093D01*
Y03332D01*
X06077D01*
Y03132D02*
Y03148D01*
X06093D01*
Y03132D01*
X06077D01*
X03216Y01146D02*
Y01142D01*
X03224D01*
Y01146D01*
X03228D01*
Y01154D01*
X03224D01*
Y01158D01*
X03216D01*
Y01154D01*
X03212D01*
Y01146D01*
X03216D01*
Y01946D02*
Y01942D01*
X03224D01*
Y01946D01*
X03228D01*
Y01954D01*
X03224D01*
Y01958D01*
X03216D01*
Y01954D01*
X03212D01*
Y01946D01*
X03216D01*
X02287Y01157D02*
X02291D01*
X02295Y01161D01*
X02299Y01157D01*
X02303D01*
Y01161D01*
X02299Y01165D01*
X02303Y01169D01*
Y01173D01*
X02299D01*
X02295Y01169D01*
X02291Y01173D01*
X02287D01*
Y01169D01*
X02291Y01165D01*
X02287Y01161D01*
Y01157D01*
X02137Y01357D02*
X02141D01*
X02145Y01361D01*
X02149Y01357D01*
X02153D01*
Y01361D01*
X02149Y01365D01*
X02153Y01369D01*
Y01373D01*
X02149D01*
X02145Y01369D01*
X02141Y01373D01*
X02137D01*
Y01369D01*
X02141Y01365D01*
X02137Y01361D01*
Y01357D01*
X02387D02*
X02391D01*
X02395Y01361D01*
X02399Y01357D01*
X02403D01*
Y01361D01*
X02399Y01365D01*
X02403Y01369D01*
Y01373D01*
X02399D01*
X02395Y01369D01*
X02391Y01373D01*
X02387D01*
Y01369D01*
X02391Y01365D01*
X02387Y01361D01*
Y01357D01*
X03822Y01275D02*
X0383Y01283D01*
X03838Y01275D01*
X0383Y01267D01*
X03822Y01275D01*
X03922D02*
X0393Y01283D01*
X03938Y01275D01*
X0393Y01267D01*
X03922Y01275D01*
X04022D02*
X0403Y01283D01*
X04038Y01275D01*
X0403Y01267D01*
X04022Y01275D01*
X04122D02*
X0413Y01283D01*
X04138Y01275D01*
X0413Y01267D01*
X04122Y01275D01*
X03822Y01575D02*
X0383Y01583D01*
X03838Y01575D01*
X0383Y01567D01*
X03822Y01575D01*
X03922D02*
X0393Y01583D01*
X03938Y01575D01*
X0393Y01567D01*
X03922Y01575D01*
X04022D02*
X0403Y01583D01*
X04038Y01575D01*
X0403Y01567D01*
X04022Y01575D01*
X04122D02*
X0413Y01583D01*
X04138Y01575D01*
X0413Y01567D01*
X04122Y01575D01*
X05367Y01837D02*
Y01853D01*
X05383D01*
Y01837D01*
X05367D01*
X05371Y01841D02*
Y01849D01*
X05379D01*
Y01841D01*
X05371D01*
X05367Y01917D02*
Y01933D01*
X05383D01*
Y01917D01*
X05367D01*
X05371Y01921D02*
Y01929D01*
X05379D01*
Y01921D01*
X05371D01*
X04412Y019575D02*
Y019735D01*
X04428D01*
Y019575D01*
X04412D01*
X04416Y019615D02*
Y019695D01*
X04424D01*
Y019615D01*
X04416D01*
X02537Y02967D02*
Y02983D01*
X02553D01*
Y02967D01*
X02537D01*
X02541Y02971D02*
Y02979D01*
X02549D01*
Y02971D01*
X02541D01*
X02742Y01652D02*
Y01668D01*
X02758D01*
Y01652D01*
X02742D01*
X02746Y01656D02*
Y01664D01*
X02754D01*
Y01656D01*
X02746D01*
X02682Y014619D02*
Y014779D01*
X02698D01*
Y014619D01*
X02682D01*
X02686Y014659D02*
Y014739D01*
X02694D01*
Y014659D01*
X02686D01*
X026598Y020042D02*
Y020202D01*
X026758D01*
Y020042D01*
X026598D01*
X026638Y020082D02*
Y020162D01*
X026718D01*
Y020082D01*
X026638D01*
X02017Y02492D02*
Y02508D01*
X02033D01*
Y02492D01*
X02017D01*
X02021Y02496D02*
Y02504D01*
X02029D01*
Y02496D01*
X02021D01*
X02502Y02492D02*
Y02508D01*
X02518D01*
Y02492D01*
X02502D01*
X02506Y02496D02*
Y02504D01*
X02514D01*
Y02496D01*
X02506D01*
X025026Y016726D02*
Y016886D01*
X025186D01*
Y016726D01*
X025026D01*
X025066Y016766D02*
Y016846D01*
X025146D01*
Y016766D01*
X025066D01*
X025026Y01317D02*
Y01333D01*
X025186D01*
Y01317D01*
X025026D01*
X025066Y01321D02*
Y01329D01*
X025146D01*
Y01321D01*
X025066D01*
X05197Y04087D02*
Y04103D01*
X05213D01*
Y04087D01*
X05197D01*
X05201Y04091D02*
Y04099D01*
X05209D01*
Y04091D01*
X05201D01*
X04692Y02207D02*
Y02223D01*
X04708D01*
Y02207D01*
X04692D01*
X04696Y02211D02*
Y02219D01*
X04704D01*
Y02211D01*
X04696D01*
X046115Y02212D02*
Y02228D01*
X046275D01*
Y02212D01*
X046115D01*
X046155Y02216D02*
Y02224D01*
X046235D01*
Y02216D01*
X046155D01*
X046515Y022425D02*
Y022585D01*
X046675D01*
Y022425D01*
X046515D01*
X046555Y022465D02*
Y022545D01*
X046635D01*
Y022465D01*
X046555D01*
X05597Y04517D02*
Y04533D01*
X05613D01*
Y04517D01*
X05597D01*
X05601Y04521D02*
Y04529D01*
X05609D01*
Y04521D01*
X05601D01*
X03837Y04822D02*
Y04838D01*
X03853D01*
Y04822D01*
X03837D01*
X03841Y04826D02*
Y04834D01*
X03849D01*
Y04826D01*
X03841D01*
X05122Y01897D02*
Y01913D01*
X05138D01*
Y01897D01*
X05122D01*
X05126Y01901D02*
Y01909D01*
X05134D01*
Y01901D01*
X05126D01*
X05077Y018635D02*
Y018795D01*
X05093D01*
Y018635D01*
X05077D01*
X05081Y018675D02*
Y018755D01*
X05089D01*
Y018675D01*
X05081D01*
X02737Y04822D02*
Y04838D01*
X02753D01*
Y04822D01*
X02737D01*
X02741Y04826D02*
Y04834D01*
X02749D01*
Y04826D01*
X02741D01*
X02837Y04822D02*
Y04838D01*
X02853D01*
Y04822D01*
X02837D01*
X02841Y04826D02*
Y04834D01*
X02849D01*
Y04826D01*
X02841D01*
X02937Y04822D02*
Y04838D01*
X02953D01*
Y04822D01*
X02937D01*
X02941Y04826D02*
Y04834D01*
X02949D01*
Y04826D01*
X02941D01*
X03037Y04822D02*
Y04838D01*
X03053D01*
Y04822D01*
X03037D01*
X03041Y04826D02*
Y04834D01*
X03049D01*
Y04826D01*
X03041D01*
X03437Y04822D02*
Y04838D01*
X03453D01*
Y04822D01*
X03437D01*
X03441Y04826D02*
Y04834D01*
X03449D01*
Y04826D01*
X03441D01*
X03537Y04822D02*
Y04838D01*
X03553D01*
Y04822D01*
X03537D01*
X03541Y04826D02*
Y04834D01*
X03549D01*
Y04826D01*
X03541D01*
X03637Y04822D02*
Y04838D01*
X03653D01*
Y04822D01*
X03637D01*
X03641Y04826D02*
Y04834D01*
X03649D01*
Y04826D01*
X03641D01*
X03737Y04822D02*
Y04838D01*
X03753D01*
Y04822D01*
X03737D01*
X03741Y04826D02*
Y04834D01*
X03749D01*
Y04826D01*
X03741D01*
X05612Y01257D02*
Y01273D01*
X05628D01*
Y01257D01*
X05612D01*
X05616Y01261D02*
Y01269D01*
X05624D01*
Y01261D01*
X05616D01*
X05367Y01412D02*
Y01428D01*
X05383D01*
Y01412D01*
X05367D01*
X05371Y01416D02*
Y01424D01*
X05379D01*
Y01416D01*
X05371D01*
X046417Y02527D02*
Y02543D01*
X046577D01*
Y02527D01*
X046417D01*
X046457Y02531D02*
Y02539D01*
X046537D01*
Y02531D01*
X046457D01*
X04902Y02237D02*
Y02253D01*
X04918D01*
Y02237D01*
X04902D01*
X04906Y02241D02*
Y02249D01*
X04914D01*
Y02241D01*
X04906D01*
X04622Y02362D02*
Y02378D01*
X04638D01*
Y02362D01*
X04622D01*
X04626Y02366D02*
Y02374D01*
X04634D01*
Y02366D01*
X04626D01*
X04482Y01632D02*
Y01648D01*
X04498D01*
Y01632D01*
X04482D01*
X04486Y01636D02*
Y01644D01*
X04494D01*
Y01636D01*
X04486D01*
X04482Y01587D02*
Y01603D01*
X04498D01*
Y01587D01*
X04482D01*
X04486Y01591D02*
Y01599D01*
X04494D01*
Y01591D01*
X04486D01*
X04877Y01597D02*
Y01613D01*
X04893D01*
Y01597D01*
X04877D01*
X04881Y01601D02*
Y01609D01*
X04889D01*
Y01601D01*
X04881D01*
X043487Y019353D02*
Y019513D01*
X043647D01*
Y019353D01*
X043487D01*
X043527Y019393D02*
Y019473D01*
X043607D01*
Y019393D01*
X043527D01*
X042073Y016817D02*
Y016977D01*
X042233D01*
Y016817D01*
X042073D01*
X042113Y016857D02*
Y016937D01*
X042193D01*
Y016857D01*
X042113D01*
X04272Y01867D02*
Y01883D01*
X04288D01*
Y01867D01*
X04272D01*
X04276Y01871D02*
Y01879D01*
X04284D01*
Y01871D01*
X04276D01*
X04312Y01902D02*
Y01918D01*
X04328D01*
Y01902D01*
X04312D01*
X04316Y01906D02*
Y01914D01*
X04324D01*
Y01906D01*
X04316D01*
X046455Y015835D02*
Y015995D01*
X046615D01*
Y015835D01*
X046455D01*
X046495Y015875D02*
Y015955D01*
X046575D01*
Y015875D01*
X046495D01*
X04482Y01542D02*
Y01558D01*
X04498D01*
Y01542D01*
X04482D01*
X04486Y01546D02*
Y01554D01*
X04494D01*
Y01546D01*
X04486D01*
X04462Y01477D02*
Y01493D01*
X04478D01*
Y01477D01*
X04462D01*
X04466Y01481D02*
Y01489D01*
X04474D01*
Y01481D01*
X04466D01*
X04417Y01677D02*
Y01693D01*
X04433D01*
Y01677D01*
X04417D01*
X04421Y01681D02*
Y01689D01*
X04429D01*
Y01681D01*
X04421D01*
X04752Y01547D02*
Y01563D01*
X04768D01*
Y01547D01*
X04752D01*
X04756Y01551D02*
Y01559D01*
X04764D01*
Y01551D01*
X04756D01*
X050355Y019285D02*
Y019445D01*
X050515D01*
Y019285D01*
X050355D01*
X050395Y019325D02*
Y019405D01*
X050475D01*
Y019325D01*
X050395D01*
X04783Y01592D02*
Y01608D01*
X04799D01*
Y01592D01*
X04783D01*
X04787Y01596D02*
Y01604D01*
X04795D01*
Y01596D01*
X04787D01*
X048428Y015516D02*
Y015676D01*
X048588D01*
Y015516D01*
X048428D01*
X048468Y015556D02*
Y015636D01*
X048548D01*
Y015556D01*
X048468D01*
X04412Y018025D02*
Y018185D01*
X04428D01*
Y018025D01*
X04412D01*
X04416Y018065D02*
Y018145D01*
X04424D01*
Y018065D01*
X04416D01*
X03822Y01462D02*
Y01478D01*
X03838D01*
Y01462D01*
X03822D01*
X03826Y01466D02*
Y01474D01*
X03834D01*
Y01466D01*
X03826D01*
X04162Y01112D02*
Y01128D01*
X04178D01*
Y01112D01*
X04162D01*
X04166Y01116D02*
Y01124D01*
X04174D01*
Y01116D01*
X04166D01*
X05107Y01257D02*
Y01273D01*
X05123D01*
Y01257D01*
X05107D01*
X05111Y01261D02*
Y01269D01*
X05119D01*
Y01261D01*
X05111D01*
X04877Y01412D02*
Y01428D01*
X04893D01*
Y01412D01*
X04877D01*
X04881Y01416D02*
Y01424D01*
X04889D01*
Y01416D01*
X04881D01*
X03927Y01692D02*
Y01708D01*
X03943D01*
Y01692D01*
X03927D01*
X03931Y01696D02*
Y01704D01*
X03939D01*
Y01696D01*
X03931D01*
D74*
X03153Y0224D02*
G03*
X03153Y0224I-00008J0D01*
G01*
X03053Y0244D02*
G03*
X03053Y0244I-00008J0D01*
G01*
X02953Y0224D02*
G03*
X02953Y0224I-00008J0D01*
G01*
M02*
