G04*
G04 #@! TF.GenerationSoftware,Altium Limited,Altium Designer,21.0.8 (223)*
G04*
G04 Layer_Physical_Order=2*
G04 Layer_Color=16711680*
%FSTAX24Y24*%
%MOIN*%
G70*
G04*
G04 #@! TF.SameCoordinates,3F40436D-0E53-4E97-8F6E-D988C466AF24*
G04*
G04*
G04 #@! TF.FilePolarity,Positive*
G04*
G01*
G75*
%ADD12C,0.0098*%
%ADD55C,0.0114*%
%ADD57C,0.0315*%
%ADD58C,0.0598*%
%ADD59R,0.0598X0.0598*%
%ADD60C,0.0750*%
%ADD61C,0.1575*%
%ADD62O,0.0620X0.0900*%
%ADD63R,0.0620X0.0900*%
%ADD64R,0.1000X0.0700*%
%ADD65O,0.1000X0.0700*%
%ADD66R,0.1000X0.1000*%
%ADD67C,0.1000*%
%ADD68R,0.1600X0.1000*%
%ADD69R,0.1000X0.1600*%
%ADD70R,0.0600X0.0900*%
%ADD71O,0.0600X0.0900*%
%ADD72C,0.0276*%
D12*
X0516Y0165D02*
X053516Y018416D01*
X053716D01*
X05375Y01845D01*
X044195Y019655D02*
X0442D01*
X0439Y01936D02*
X044195Y019655D01*
X05085Y0389D02*
X0602Y04825D01*
X05085Y018715D02*
Y0389D01*
X045288Y04095D02*
X05205D01*
X0412Y036862D02*
X045288Y04095D01*
X0412Y02615D02*
Y036862D01*
X0544Y0403D02*
X05835Y04425D01*
X0544Y0217D02*
Y0403D01*
X051Y0183D02*
X0544Y0217D01*
X0513Y01905D02*
Y03835D01*
X0602Y04725D01*
X0412Y02615D02*
X0469Y02045D01*
Y0157D02*
Y02045D01*
X0415Y04525D02*
X05605D01*
X03845Y0483D02*
X0415Y04525D01*
X048Y01935D02*
X05042D01*
X050435Y019365D01*
X0506Y0183D02*
X051D01*
X05835Y04425D02*
X06035D01*
X050435Y018465D02*
X0506Y0183D01*
X050435Y018465D02*
Y019365D01*
X0602Y04825D02*
X06035D01*
X0602Y04725D02*
X06035D01*
Y04425D02*
X0606Y044D01*
X0609D01*
X04725Y0186D02*
X048Y01935D01*
X04725Y01555D02*
Y0186D01*
X0464Y0152D02*
X0469Y0157D01*
X04455Y0152D02*
X0464D01*
X0471Y0154D02*
X04725Y01555D01*
X04835Y0165D02*
X0516D01*
X04795Y0161D02*
X04835Y0165D01*
X0553Y01265D02*
X0562D01*
X04965Y01205D02*
X0516D01*
X048508Y013192D02*
Y015596D01*
X0516Y01205D02*
X05375Y0142D01*
X0553Y01265D01*
X048508Y013192D02*
X04965Y01205D01*
X04885Y0142D02*
X0504Y01265D01*
X04791Y016D02*
Y016048D01*
X04885Y0142D02*
Y01605D01*
X04791Y016048D02*
X04795Y016088D01*
Y0161D01*
X0439Y01765D02*
Y01936D01*
X04425Y0155D02*
Y01685D01*
Y0155D02*
X04455Y0152D01*
X0396Y01725D02*
X0435D01*
X0439Y01765D01*
X03935Y017D02*
X0396Y01725D01*
X04655Y01485D02*
X0471Y0154D01*
Y0154D01*
X0447Y01485D02*
X04655D01*
X0504Y01265D02*
X05115D01*
D55*
X05155Y01705D02*
X05375Y01925D01*
X02945Y0283D02*
X039Y01875D01*
X0428D01*
X02945Y0283D02*
Y0483D01*
X044095Y019705D02*
X044106D01*
X044156Y019655D01*
X0442D01*
X02745Y02925D02*
X0391Y0176D01*
X02745Y02925D02*
Y0483D01*
X0391Y0176D02*
X0433D01*
X02845Y02875D02*
X0393Y0179D01*
X02845Y02875D02*
Y0483D01*
X0393Y0179D02*
X043D01*
X047Y022106D02*
Y02215D01*
X046808Y021914D02*
X047Y022106D01*
X046655Y021755D02*
X046808Y021908D01*
Y021914D01*
X046195Y023551D02*
X0463Y023656D01*
X046195Y0222D02*
Y023551D01*
X0463Y023656D02*
Y0237D01*
X0459Y0219D02*
Y024753D01*
Y0219D02*
X046045Y021755D01*
X0459Y024753D02*
X046497Y02535D01*
X046622Y022478D02*
X049072D01*
X0491Y02245D01*
X046595Y022505D02*
X046622Y022478D01*
X046045Y021755D02*
X046655D01*
X03745Y02925D02*
X046535Y020165D01*
X03745Y02925D02*
Y0483D01*
X03645Y0296D02*
Y0483D01*
X04555Y01575D02*
Y0205D01*
X046535Y015915D02*
Y020165D01*
X03645Y0296D02*
X04555Y0205D01*
X03545Y02985D02*
Y0483D01*
X03445Y0302D02*
Y0483D01*
X04755Y015698D02*
Y016494D01*
X048106Y01705D01*
X05155D01*
X03545Y02985D02*
X045209Y020091D01*
X03445Y0302D02*
X0449Y01975D01*
X045209Y016026D02*
Y020091D01*
X0449Y0164D02*
Y01975D01*
Y0155D02*
X0453D01*
X04555Y01575D01*
X045142Y015959D02*
X045209Y016026D01*
X0449Y01595D02*
X044909Y015959D01*
X045142D01*
X043567Y017867D02*
Y019433D01*
X043Y0179D02*
X0432Y0181D01*
Y0191D01*
X0433Y0176D02*
X043567Y017867D01*
X043647Y016897D02*
X044173Y017423D01*
X042153Y016897D02*
X043647D01*
X044173Y017423D02*
Y018078D01*
X0442Y018105D01*
D57*
X0562Y01785D02*
X060866D01*
X0347Y0195D02*
X0361Y0181D01*
X0322Y0195D02*
X0347D01*
X03145Y02025D02*
Y0224D01*
Y02025D02*
X0322Y0195D01*
X02645Y02965D02*
X03045Y02565D01*
X02645Y02965D02*
Y04935D01*
X03045Y0244D02*
Y02565D01*
X027395Y026545D02*
Y026805D01*
X02585Y025D02*
X027395Y026545D01*
X02445Y02975D02*
X027395Y026805D01*
X0251Y025D02*
X02585D01*
X02445Y02975D02*
Y04935D01*
X0275Y02045D02*
X02945Y0224D01*
X0275Y0166D02*
Y02045D01*
X0269Y014699D02*
Y0199D01*
X026678Y020122D02*
X0269Y0199D01*
X02025Y025D02*
X0251D01*
X025106Y016806D02*
Y024994D01*
X0251Y025D02*
X025106Y024994D01*
Y01325D02*
Y016806D01*
X0625Y019484D02*
Y04515D01*
X060866Y01785D02*
X0625Y019484D01*
X0614Y04625D02*
X0625Y04515D01*
X02545Y02975D02*
Y04935D01*
X03945D02*
Y049407D01*
X039591Y049548D01*
X039648D01*
X04025Y05015D01*
X06135D01*
X06035Y04625D02*
X06135D01*
X0614D01*
X06135D02*
X06195Y04685D01*
Y04955D01*
X06135Y05015D02*
X06195Y04955D01*
X0562Y01785D02*
X0574Y01665D01*
Y0122D02*
Y01665D01*
X0564Y0112D02*
X0574Y0122D01*
X0417Y0112D02*
X0564D01*
X0361Y0118D02*
Y0181D01*
X0476Y01495D02*
Y01555D01*
X03875Y01425D02*
X0469D01*
X0476Y01495D01*
X0383Y0147D02*
X03875Y01425D01*
X0361Y0118D02*
X0367Y0112D01*
X0417D01*
D58*
X0562Y01785D02*
D03*
Y01885D02*
D03*
X01895Y03245D02*
D03*
Y03945D02*
D03*
Y03845D02*
D03*
Y03745D02*
D03*
Y03645D02*
D03*
Y03545D02*
D03*
Y03445D02*
D03*
Y03345D02*
D03*
X06085Y0324D02*
D03*
Y0394D02*
D03*
Y0384D02*
D03*
Y0374D02*
D03*
Y0364D02*
D03*
Y0354D02*
D03*
Y0344D02*
D03*
Y0334D02*
D03*
D59*
X0562Y01985D02*
D03*
X01895Y03145D02*
D03*
X06085Y0314D02*
D03*
D60*
X03145Y0224D02*
D03*
X03045Y0244D02*
D03*
X02945Y0224D02*
D03*
D61*
X02225Y04825D02*
D03*
X0223Y02875D02*
D03*
X0577Y04825D02*
D03*
Y0287D02*
D03*
D62*
X03945Y04935D02*
D03*
X03845D02*
D03*
X03745D02*
D03*
X03645D02*
D03*
X03545D02*
D03*
X03445D02*
D03*
X03345D02*
D03*
X03245D02*
D03*
X03145D02*
D03*
X03045D02*
D03*
X02945D02*
D03*
X02845D02*
D03*
X02745D02*
D03*
X02645D02*
D03*
X02545D02*
D03*
D63*
X02445D02*
D03*
D64*
X06035Y04425D02*
D03*
D65*
Y04525D02*
D03*
Y04625D02*
D03*
Y04725D02*
D03*
Y04825D02*
D03*
Y04925D02*
D03*
D66*
X0322Y0115D02*
D03*
D67*
Y0195D02*
D03*
D68*
X02295Y01165D02*
D03*
D69*
X02145Y01365D02*
D03*
X02395D02*
D03*
D70*
X0383Y01275D02*
D03*
D71*
X0393D02*
D03*
X0403D02*
D03*
X0413D02*
D03*
X0383Y01575D02*
D03*
X0393D02*
D03*
X0403D02*
D03*
X0413D02*
D03*
D72*
X05375Y01845D02*
D03*
Y01925D02*
D03*
X0442Y019655D02*
D03*
X02545Y02975D02*
D03*
X0275Y0166D02*
D03*
X0269Y014699D02*
D03*
X026678Y020122D02*
D03*
X02025Y025D02*
D03*
X0251D02*
D03*
X025106Y016806D02*
D03*
Y01325D02*
D03*
X05205Y04095D02*
D03*
X047Y02215D02*
D03*
X046195Y0222D02*
D03*
X046595Y022505D02*
D03*
X05605Y04525D02*
D03*
X03845Y0483D02*
D03*
X0513Y01905D02*
D03*
X05085Y018715D02*
D03*
X02745Y0483D02*
D03*
X02845D02*
D03*
X02945D02*
D03*
X03045D02*
D03*
X03445D02*
D03*
X03545D02*
D03*
X03645D02*
D03*
X03745D02*
D03*
X0562Y01265D02*
D03*
X05375Y0142D02*
D03*
X046497Y02535D02*
D03*
X0491Y02245D02*
D03*
X0463Y0237D02*
D03*
X0449Y0164D02*
D03*
Y01595D02*
D03*
X04885Y01605D02*
D03*
X043567Y019433D02*
D03*
X042153Y016897D02*
D03*
X0428Y01875D02*
D03*
X0432Y0191D02*
D03*
X046535Y015915D02*
D03*
X0449Y0155D02*
D03*
X0447Y01485D02*
D03*
X04425Y01685D02*
D03*
X0476Y01555D02*
D03*
X050435Y019365D02*
D03*
X04791Y016D02*
D03*
X048508Y015596D02*
D03*
X0442Y018105D02*
D03*
X0383Y0147D02*
D03*
X0417Y0112D02*
D03*
X05115Y01265D02*
D03*
X04885Y0142D02*
D03*
X03935Y017D02*
D03*
M02*
