G04*
G04 #@! TF.GenerationSoftware,Altium Limited,Altium Designer,21.0.8 (223)*
G04*
G04 Layer_Color=8421504*
%FSTAX24Y24*%
%MOIN*%
G70*
G04*
G04 #@! TF.SameCoordinates,3F40436D-0E53-4E97-8F6E-D988C466AF24*
G04*
G04*
G04 #@! TF.FilePolarity,Positive*
G04*
G01*
G75*
%ADD20R,0.0394X0.0591*%
%ADD21R,0.0551X0.0472*%
%ADD22R,0.0650X0.0600*%
%ADD23R,0.0530X0.0200*%
%ADD24R,0.0200X0.0530*%
%ADD25R,0.2756X0.2559*%
%ADD26R,0.0591X0.1122*%
%ADD27R,0.1614X0.0787*%
%ADD28R,0.0472X0.0551*%
%ADD29R,0.0394X0.0709*%
%ADD30R,0.1575X0.0472*%
D20*
X0447Y014196D02*
D03*
Y011204D02*
D03*
X04975Y014196D02*
D03*
Y011204D02*
D03*
X0589D02*
D03*
Y014196D02*
D03*
X0548Y011204D02*
D03*
Y014196D02*
D03*
D21*
X05115Y012D02*
D03*
Y011252D02*
D03*
X0603Y012D02*
D03*
Y011252D02*
D03*
X056199Y011972D02*
D03*
Y011224D02*
D03*
X046076Y012274D02*
D03*
Y013022D02*
D03*
X05115Y013402D02*
D03*
Y01415D02*
D03*
X054774Y018478D02*
D03*
Y019226D02*
D03*
X026001Y016178D02*
D03*
Y016926D02*
D03*
X025976Y020122D02*
D03*
Y019374D02*
D03*
X0403Y017D02*
D03*
Y017748D02*
D03*
X041374Y016978D02*
D03*
Y017726D02*
D03*
X060326Y014122D02*
D03*
Y013374D02*
D03*
X056176Y014122D02*
D03*
Y013374D02*
D03*
D22*
X026001Y0138D02*
D03*
Y01238D02*
D03*
D23*
X045015Y017475D02*
D03*
Y01779D02*
D03*
Y018105D02*
D03*
Y01842D02*
D03*
Y018735D02*
D03*
Y01905D02*
D03*
Y019365D02*
D03*
Y01968D02*
D03*
Y019995D02*
D03*
Y02031D02*
D03*
Y020625D02*
D03*
X049485D02*
D03*
Y02031D02*
D03*
Y019995D02*
D03*
Y01968D02*
D03*
Y019365D02*
D03*
Y01905D02*
D03*
Y018735D02*
D03*
Y01842D02*
D03*
Y018105D02*
D03*
Y01779D02*
D03*
Y017475D02*
D03*
D24*
X045675Y021285D02*
D03*
X04599D02*
D03*
X046305D02*
D03*
X04662D02*
D03*
X046935D02*
D03*
X04725D02*
D03*
X047565D02*
D03*
X04788D02*
D03*
X048195D02*
D03*
X04851D02*
D03*
X048825D02*
D03*
Y016815D02*
D03*
X04851D02*
D03*
X048195D02*
D03*
X04788D02*
D03*
X047565D02*
D03*
X04725D02*
D03*
X046935D02*
D03*
X04662D02*
D03*
X046305D02*
D03*
X04599D02*
D03*
X045675D02*
D03*
D25*
X02615Y025D02*
D03*
D26*
X027052Y022343D02*
D03*
X025248D02*
D03*
D27*
X022763Y01875D02*
D03*
X019337D02*
D03*
X019287Y02395D02*
D03*
X022713D02*
D03*
D28*
X019124Y027451D02*
D03*
X019872D02*
D03*
X045347Y025753D02*
D03*
X046095D02*
D03*
X049348Y02575D02*
D03*
X0486D02*
D03*
D29*
X038258Y0115D02*
D03*
X039242D02*
D03*
D30*
X0451Y02415D02*
D03*
X0496D02*
D03*
M02*
