G04*
G04 #@! TF.GenerationSoftware,Altium Limited,Altium Designer,21.0.8 (223)*
G04*
G04 Layer_Color=128*
%FSTAX24Y24*%
%MOIN*%
G70*
G04*
G04 #@! TF.SameCoordinates,3F40436D-0E53-4E97-8F6E-D988C466AF24*
G04*
G04*
G04 #@! TF.FilePolarity,Positive*
G04*
G01*
G75*
%ADD73C,0.0020*%
D73*
X055999Y01785D02*
X056401D01*
X0562Y017649D02*
Y018051D01*
X055999Y01885D02*
X056401D01*
X0562Y018649D02*
Y019051D01*
X055999Y01985D02*
X056401D01*
X0562Y019649D02*
Y020051D01*
X031275Y0224D02*
X031625D01*
X03145Y022225D02*
Y022575D01*
X030275Y0244D02*
X030625D01*
X03045Y024225D02*
Y024575D01*
X029275Y0224D02*
X029625D01*
X02945Y022225D02*
Y022575D01*
X021561Y04825D02*
X022939D01*
X02225Y047561D02*
Y048939D01*
X021611Y02875D02*
X022989D01*
X0223Y028061D02*
Y029439D01*
X039255Y04935D02*
X039645D01*
X03945Y049155D02*
Y049545D01*
X038255Y04935D02*
X038645D01*
X03845Y049155D02*
Y049545D01*
X037255Y04935D02*
X037645D01*
X03745Y049155D02*
Y049545D01*
X036255Y04935D02*
X036645D01*
X03645Y049155D02*
Y049545D01*
X035255Y04935D02*
X035645D01*
X03545Y049155D02*
Y049545D01*
X034255Y04935D02*
X034645D01*
X03445Y049155D02*
Y049545D01*
X033255Y04935D02*
X033645D01*
X03345Y049155D02*
Y049545D01*
X032255Y04935D02*
X032645D01*
X03245Y049155D02*
Y049545D01*
X031255Y04935D02*
X031645D01*
X03145Y049155D02*
Y049545D01*
X030255Y04935D02*
X030645D01*
X03045Y049155D02*
Y049545D01*
X029255Y04935D02*
X029645D01*
X02945Y049155D02*
Y049545D01*
X028255Y04935D02*
X028645D01*
X02845Y049155D02*
Y049545D01*
X027255Y04935D02*
X027645D01*
X02745Y049155D02*
Y049545D01*
X026255Y04935D02*
X026645D01*
X02645Y049155D02*
Y049545D01*
X025255Y04935D02*
X025645D01*
X02545Y049155D02*
Y049545D01*
X024255Y04935D02*
X024645D01*
X02445Y049155D02*
Y049545D01*
X057011Y04825D02*
X058389D01*
X0577Y047561D02*
Y048939D01*
X057011Y0287D02*
X058389D01*
X0577Y028011D02*
Y029389D01*
X018749Y03245D02*
X019151D01*
X01895Y032249D02*
Y032651D01*
X018749Y03945D02*
X019151D01*
X01895Y039249D02*
Y039651D01*
X018749Y03845D02*
X019151D01*
X01895Y038249D02*
Y038651D01*
X018749Y03745D02*
X019151D01*
X01895Y037249D02*
Y037651D01*
X018749Y03645D02*
X019151D01*
X01895Y036249D02*
Y036651D01*
X018749Y03545D02*
X019151D01*
X01895Y035249D02*
Y035651D01*
X018749Y03445D02*
X019151D01*
X01895Y034249D02*
Y034651D01*
X018749Y03345D02*
X019151D01*
X01895Y033249D02*
Y033651D01*
X018749Y03145D02*
X019151D01*
X01895Y031249D02*
Y031651D01*
X06015Y04425D02*
X06055D01*
X06035Y04405D02*
Y04445D01*
X06015Y04525D02*
X06055D01*
X06035Y04505D02*
Y04545D01*
X06015Y04625D02*
X06055D01*
X06035Y04605D02*
Y04645D01*
X06015Y04725D02*
X06055D01*
X06035Y04705D02*
Y04745D01*
X06015Y04825D02*
X06055D01*
X06035Y04805D02*
Y04845D01*
X06015Y04925D02*
X06055D01*
X06035Y04905D02*
Y04945D01*
X060649Y0324D02*
X061051D01*
X06085Y032199D02*
Y032601D01*
X060649Y0394D02*
X061051D01*
X06085Y039199D02*
Y039601D01*
X060649Y0384D02*
X061051D01*
X06085Y038199D02*
Y038601D01*
X060649Y0374D02*
X061051D01*
X06085Y037199D02*
Y037601D01*
X060649Y0364D02*
X061051D01*
X06085Y036199D02*
Y036601D01*
X060649Y0354D02*
X061051D01*
X06085Y035199D02*
Y035601D01*
X060649Y0344D02*
X061051D01*
X06085Y034199D02*
Y034601D01*
X060649Y0334D02*
X061051D01*
X06085Y033199D02*
Y033601D01*
X060649Y0314D02*
X061051D01*
X06085Y031199D02*
Y031601D01*
X031975Y0115D02*
X032425D01*
X0322Y011275D02*
Y011725D01*
X031975Y0195D02*
X032425D01*
X0322Y019275D02*
Y019725D01*
X022655Y01165D02*
X023245D01*
X02295Y011355D02*
Y011945D01*
X021155Y01365D02*
X021745D01*
X02145Y013355D02*
Y013945D01*
X023655Y01365D02*
X024245D01*
X02395Y013355D02*
Y013945D01*
X038145Y01275D02*
X038455D01*
X0383Y012595D02*
Y012905D01*
X039145Y01275D02*
X039455D01*
X0393Y012595D02*
Y012905D01*
X040145Y01275D02*
X040455D01*
X0403Y012595D02*
Y012905D01*
X041145Y01275D02*
X041455D01*
X0413Y012595D02*
Y012905D01*
X038145Y01575D02*
X038455D01*
X0383Y015595D02*
Y015905D01*
X039145Y01575D02*
X039455D01*
X0393Y015595D02*
Y015905D01*
X040145Y01575D02*
X040455D01*
X0403Y015595D02*
Y015905D01*
X041145Y01575D02*
X041455D01*
X0413Y015595D02*
Y015905D01*
X053671Y01845D02*
X053829D01*
X05375Y018371D02*
Y018529D01*
X053671Y01925D02*
X053829D01*
X05375Y019171D02*
Y019329D01*
X044121Y019655D02*
X044279D01*
X0442Y019576D02*
Y019734D01*
X025371Y02975D02*
X025529D01*
X02545Y029671D02*
Y029829D01*
X027421Y0166D02*
X027579D01*
X0275Y016521D02*
Y016679D01*
X026821Y014699D02*
X026979D01*
X0269Y014621D02*
Y014778D01*
X026599Y020122D02*
X026756D01*
X026678Y020044D02*
Y020201D01*
X020171Y025D02*
X020329D01*
X02025Y024921D02*
Y025079D01*
X025021Y025D02*
X025179D01*
X0251Y024921D02*
Y025079D01*
X025027Y016806D02*
X025184D01*
X025106Y016727D02*
Y016884D01*
X025027Y01325D02*
X025184D01*
X025106Y013171D02*
Y013329D01*
X051971Y04095D02*
X052129D01*
X05205Y040871D02*
Y041029D01*
X046921Y02215D02*
X047079D01*
X047Y022071D02*
Y022229D01*
X046116Y0222D02*
X046274D01*
X046195Y022121D02*
Y022279D01*
X046516Y022505D02*
X046674D01*
X046595Y022426D02*
Y022584D01*
X055971Y04525D02*
X056129D01*
X05605Y045171D02*
Y045329D01*
X038371Y0483D02*
X038529D01*
X03845Y048221D02*
Y048379D01*
X051221Y01905D02*
X051379D01*
X0513Y018971D02*
Y019129D01*
X050771Y018715D02*
X050929D01*
X05085Y018636D02*
Y018794D01*
X027371Y0483D02*
X027529D01*
X02745Y048221D02*
Y048379D01*
X028371Y0483D02*
X028529D01*
X02845Y048221D02*
Y048379D01*
X029371Y0483D02*
X029529D01*
X02945Y048221D02*
Y048379D01*
X030371Y0483D02*
X030529D01*
X03045Y048221D02*
Y048379D01*
X034371Y0483D02*
X034529D01*
X03445Y048221D02*
Y048379D01*
X035371Y0483D02*
X035529D01*
X03545Y048221D02*
Y048379D01*
X036371Y0483D02*
X036529D01*
X03645Y048221D02*
Y048379D01*
X037371Y0483D02*
X037529D01*
X03745Y048221D02*
Y048379D01*
X056121Y01265D02*
X056279D01*
X0562Y012571D02*
Y012729D01*
X053671Y0142D02*
X053829D01*
X05375Y014121D02*
Y014279D01*
X046418Y02535D02*
X046576D01*
X046497Y025271D02*
Y025429D01*
X049021Y02245D02*
X049179D01*
X0491Y022371D02*
Y022529D01*
X046221Y0237D02*
X046379D01*
X0463Y023621D02*
Y023779D01*
X044821Y0164D02*
X044979D01*
X0449Y016321D02*
Y016479D01*
X044821Y01595D02*
X044979D01*
X0449Y015871D02*
Y016029D01*
X048771Y01605D02*
X048929D01*
X04885Y015971D02*
Y016129D01*
X043488Y019433D02*
X043646D01*
X043567Y019354D02*
Y019512D01*
X042074Y016897D02*
X042232D01*
X042153Y016818D02*
Y016976D01*
X042721Y01875D02*
X042879D01*
X0428Y018671D02*
Y018829D01*
X043121Y0191D02*
X043279D01*
X0432Y019021D02*
Y019179D01*
X046456Y015915D02*
X046614D01*
X046535Y015836D02*
Y015994D01*
X044821Y0155D02*
X044979D01*
X0449Y015421D02*
Y015579D01*
X044621Y01485D02*
X044779D01*
X0447Y014771D02*
Y014929D01*
X044171Y01685D02*
X044329D01*
X04425Y016771D02*
Y016929D01*
X047521Y01555D02*
X047679D01*
X0476Y015471D02*
Y015629D01*
X050356Y019365D02*
X050514D01*
X050435Y019286D02*
Y019444D01*
X047831Y016D02*
X047988D01*
X04791Y015921D02*
Y016079D01*
X048429Y015596D02*
X048587D01*
X048508Y015517D02*
Y015675D01*
X044121Y018105D02*
X044279D01*
X0442Y018026D02*
Y018184D01*
X038221Y0147D02*
X038379D01*
X0383Y014621D02*
Y014779D01*
X041621Y0112D02*
X041779D01*
X0417Y011121D02*
Y011279D01*
X051071Y01265D02*
X051229D01*
X05115Y012571D02*
Y012729D01*
X048771Y0142D02*
X048929D01*
X04885Y014121D02*
Y014279D01*
X039271Y017D02*
X039429D01*
X03935Y016921D02*
Y017079D01*
M02*
