G04*
G04 #@! TF.GenerationSoftware,Altium Limited,Altium Designer,21.0.8 (223)*
G04*
G04 Layer_Color=65535*
%FSTAX24Y24*%
%MOIN*%
G70*
G04*
G04 #@! TF.SameCoordinates,EDDFCF6A-67A3-46E2-8177-59DA37980891*
G04*
G04*
G04 #@! TF.FilePolarity,Positive*
G04*
G01*
G75*
%ADD10C,0.0050*%
%ADD11C,0.0098*%
%ADD12C,0.0070*%
%ADD13C,0.0150*%
%ADD14C,0.0079*%
%ADD15C,0.0250*%
%ADD16C,0.0060*%
%ADD17C,0.0100*%
%ADD18C,0.0040*%
%ADD19C,0.0030*%
%ADD20R,0.1000X0.0500*%
%ADD21R,0.0500X0.1000*%
G36*
X046494Y020528D02*
Y020378D01*
X046394D01*
Y020528D01*
X046494D01*
D02*
G37*
G36*
X04839Y023368D02*
Y023468D01*
X04854D01*
Y023368D01*
X04839D01*
D02*
G37*
G36*
X050279Y018168D02*
Y018068D01*
X050429D01*
Y018168D01*
X050279D01*
D02*
G37*
G36*
X051694Y021788D02*
Y021638D01*
X051794D01*
Y021788D01*
X051694D01*
D02*
G37*
D10*
X052765Y026181D02*
G03*
X052145Y026556I-00062J-000325D01*
G01*
Y025156D02*
G03*
X052765Y025531I0J0007D01*
G01*
X049615Y026556D02*
G03*
X048995Y026181I0J-0007D01*
G01*
Y025531D02*
G03*
X049615Y025156I00062J000325D01*
G01*
X048565Y024906D02*
X053165D01*
X048565D02*
Y026756D01*
X053165D01*
Y024906D02*
Y026756D01*
X049615Y025156D02*
X052165D01*
X049611Y02656D02*
X052165D01*
D11*
X044535Y023759D02*
G03*
X044535Y023759I-000049J0D01*
G01*
D12*
X026202Y026846D02*
G03*
X026827Y028493I-000419J001101D01*
G01*
X02474Y028483D02*
G03*
X025364Y026836I001044J-000547D01*
G01*
X044608Y021316D02*
G03*
X044605Y020316I-000017J-0005D01*
G01*
X037072Y017691D02*
G03*
X033941Y017687I-00157J004271D01*
G01*
X025923Y027817D02*
X026693D01*
X025923Y027557D02*
Y027817D01*
X025653Y027557D02*
X025923D01*
X025653D02*
Y027807D01*
X024863D02*
X025653D01*
X024863D02*
Y028097D01*
X025663D01*
Y028387D01*
X025933D01*
Y028087D02*
Y028387D01*
Y028087D02*
X026703D01*
Y027817D02*
Y028087D01*
X025113Y028657D02*
X026463D01*
X024783Y026577D02*
X025368Y026487D01*
X024483Y026877D02*
X024783Y026577D01*
X024483Y026877D02*
Y028627D01*
X025103Y029247D02*
X026473D01*
X027093Y026887D02*
Y028637D01*
X026783Y026577D02*
X027093Y026887D01*
X026243Y026487D02*
X026783Y026577D01*
X025368Y026487D02*
X026243D01*
X024473Y029387D02*
X024983D01*
X026563D02*
X027073D01*
X026976Y023926D02*
X027156D01*
X026976Y023386D02*
X027156D01*
X028347Y017303D02*
X028527D01*
X028347Y016763D02*
X028527D01*
X055353Y022299D02*
X055533D01*
X055353Y022839D02*
X055533D01*
X055638Y020522D02*
Y020702D01*
X056178Y020522D02*
Y020702D01*
X056918Y020522D02*
Y020702D01*
X057458Y020522D02*
Y020702D01*
X059478Y020522D02*
Y020702D01*
X060018Y020522D02*
Y020702D01*
X042428Y017329D02*
Y017509D01*
X041888Y017329D02*
Y017509D01*
X041277Y017329D02*
Y017509D01*
X040737Y017329D02*
Y017509D01*
X024006Y01853D02*
Y02183D01*
X023306Y01853D02*
X028756D01*
X023306Y02183D02*
X028756D01*
Y01853D02*
Y02183D01*
X023306Y01853D02*
Y02183D01*
X041585Y020316D02*
X043595D01*
Y021316D01*
X041585D02*
X043595D01*
X041585Y020316D02*
Y021316D01*
X040605Y018816D02*
X044605D01*
X040605D02*
Y022816D01*
X044605D01*
Y018816D02*
Y020306D01*
Y021316D02*
Y022816D01*
X054356Y020521D02*
Y020701D01*
X054896Y020521D02*
Y020701D01*
X058195Y020521D02*
Y020701D01*
X058735Y020521D02*
Y020701D01*
X052468Y027728D02*
X052648D01*
X052468Y027188D02*
X052648D01*
X060755Y020521D02*
Y020701D01*
X061295Y020521D02*
Y020701D01*
X049059Y027181D02*
X049239D01*
X049059Y027721D02*
X049239D01*
X030336Y020264D02*
Y020444D01*
X029796Y020264D02*
Y020444D01*
X037052Y016411D02*
Y017691D01*
X033952Y016411D02*
X037052D01*
X033952D02*
Y017675D01*
X034292Y017271D02*
X034912D01*
X034292Y016751D02*
Y017271D01*
Y016751D02*
X036742D01*
Y017281D01*
X036132D02*
X036742D01*
D13*
X044175Y021546D02*
G03*
X044175Y021546I-00008J0D01*
G01*
D14*
X026707Y052049D02*
X042707D01*
X026707D02*
Y053049D01*
X027457D01*
X042707D01*
Y052049D02*
Y053049D01*
X027707Y052049D02*
Y053049D01*
X043442Y023464D02*
X043718D01*
X043442Y024054D02*
X043718D01*
Y023464D02*
Y024054D01*
X043442Y023464D02*
Y024054D01*
X026375Y0233D02*
Y02401D01*
Y0233D02*
X02692D01*
X026375Y02401D02*
X02692D01*
X027225D02*
X027753D01*
Y0233D02*
Y02401D01*
X027225Y0233D02*
X027753D01*
X027746Y016677D02*
Y017387D01*
Y016677D02*
X028291D01*
X027746Y017387D02*
X028291D01*
X028596D02*
X029124D01*
Y016677D02*
Y017387D01*
X028596Y016677D02*
X029124D01*
X056134Y022215D02*
Y022925D01*
X055589D02*
X056134D01*
X055589Y022215D02*
X056134D01*
X054756D02*
X055284D01*
X054756D02*
Y022925D01*
X055284D01*
X055554Y019921D02*
X056264D01*
Y020466D01*
X055554Y019921D02*
Y020466D01*
Y020771D02*
Y021299D01*
X056264D01*
Y020771D02*
Y021299D01*
X056834Y019921D02*
X057544D01*
Y020466D01*
X056834Y019921D02*
Y020466D01*
Y020771D02*
Y021299D01*
X057544D01*
Y020771D02*
Y021299D01*
X059394Y019921D02*
X060104D01*
Y020466D01*
X059394Y019921D02*
Y020466D01*
Y020771D02*
Y021299D01*
X060104D01*
Y020771D02*
Y021299D01*
X041802Y018109D02*
X042512D01*
X041802Y017565D02*
Y018109D01*
X042512Y017565D02*
Y018109D01*
Y016731D02*
Y01726D01*
X041802Y016731D02*
X042512D01*
X041802D02*
Y01726D01*
X040651Y018109D02*
X041361D01*
X040651Y017565D02*
Y018109D01*
X041361Y017565D02*
Y018109D01*
Y016731D02*
Y01726D01*
X040651Y016731D02*
X041361D01*
X040651D02*
Y01726D01*
X041427Y028673D02*
Y029673D01*
X040329D02*
X049526D01*
X040329Y028673D02*
Y029673D01*
Y028673D02*
X049526D01*
Y029673D01*
X059843Y028673D02*
Y029673D01*
X051744Y028673D02*
X060941D01*
Y029673D01*
X051744D02*
X060941D01*
X051744Y028673D02*
Y029673D01*
X024789Y016587D02*
Y017587D01*
X023691Y016587D02*
Y017587D01*
X026888D01*
Y016587D02*
Y017587D01*
X023691Y016587D02*
X026888D01*
X054275Y02077D02*
Y021299D01*
Y019919D02*
Y020465D01*
X054975Y019919D02*
Y020465D01*
Y02077D02*
Y021299D01*
X054275Y019919D02*
X054975D01*
X054275Y021299D02*
X054975D01*
X058114Y02077D02*
Y021299D01*
Y019919D02*
Y020465D01*
X058814Y019919D02*
Y020465D01*
Y02077D02*
Y021299D01*
X058114Y019919D02*
X058814D01*
X058114Y021299D02*
X058814D01*
X052717Y02781D02*
X053246D01*
X051866D02*
X052412D01*
X051866Y02711D02*
X052412D01*
X052717D02*
X053246D01*
X051866D02*
Y02781D01*
X053246Y02711D02*
Y02781D01*
X060674Y02077D02*
Y021299D01*
Y019919D02*
Y020465D01*
X061374Y019919D02*
Y020465D01*
Y02077D02*
Y021299D01*
X060674Y019919D02*
X061374D01*
X060674Y021299D02*
X061374D01*
X048461Y0271D02*
X04899D01*
X049295D02*
X049841D01*
X049295Y0278D02*
X049841D01*
X048461D02*
X04899D01*
X049841Y0271D02*
Y0278D01*
X048461Y0271D02*
Y0278D01*
X030417Y019665D02*
Y020194D01*
Y0205D02*
Y021045D01*
X029717Y0205D02*
Y021045D01*
Y019665D02*
Y020194D01*
Y021045D02*
X030417D01*
X029717Y019665D02*
X030417D01*
D15*
X054754Y024868D02*
Y02712D01*
X061707D01*
Y024868D02*
Y02712D01*
X054754Y024868D02*
X061707D01*
D16*
X047074Y018748D02*
Y018962D01*
Y018748D02*
X047289D01*
X051114D02*
Y018962D01*
X0509Y022788D02*
X051114D01*
X047074Y022574D02*
Y022788D01*
X0509Y018748D02*
X051114D01*
Y022574D02*
Y022788D01*
X047074D02*
X047289D01*
D17*
X059397Y02179D02*
Y02224D01*
Y0228D02*
Y02325D01*
X057177D02*
X059397D01*
X057177Y02179D02*
X059397D01*
X057787Y02227D02*
X058787D01*
X057787D02*
Y02277D01*
X058787D01*
Y02227D02*
Y02277D01*
X057177Y02179D02*
Y02224D01*
Y0228D02*
Y02325D01*
X054359Y016666D02*
X054809D01*
X055369D02*
X055819D01*
Y018886D01*
X054359Y016666D02*
Y018886D01*
X054839Y017276D02*
Y018276D01*
X055339D01*
Y017276D02*
Y018276D01*
X054839Y017276D02*
X055339D01*
X054359Y018886D02*
X054809D01*
X055369D02*
X055819D01*
X057114Y016666D02*
X057564D01*
X058124D02*
X058574D01*
Y018886D01*
X057114Y016666D02*
Y018886D01*
X057594Y017276D02*
Y018276D01*
X058094D01*
Y017276D02*
Y018276D01*
X057594Y017276D02*
X058094D01*
X057114Y018886D02*
X057564D01*
X058124D02*
X058574D01*
X059831Y016666D02*
X060281D01*
X060841D02*
X061291D01*
Y018886D01*
X059831Y016666D02*
Y018886D01*
X060311Y017276D02*
Y018276D01*
X060811D01*
Y017276D02*
Y018276D01*
X060311Y017276D02*
X060811D01*
X059831Y018886D02*
X060281D01*
X060841D02*
X061291D01*
X061504Y023322D02*
X061484Y023921D01*
X061784Y023931D01*
X061887Y023835D01*
X061894Y023635D01*
X061797Y023531D01*
X061498Y023522D01*
X061697Y023528D02*
X061904Y023335D01*
X062483Y023954D02*
X062084Y023941D01*
X062094Y023641D01*
X06229Y023748D01*
X06239Y023751D01*
X062493Y023655D01*
X0625Y023455D01*
X062403Y023351D01*
X062204Y023345D01*
X0621Y023441D01*
X02677Y05339D02*
X02697D01*
X02687D01*
Y05399D01*
X02677D01*
X02767Y05379D02*
X02737D01*
X02727Y05369D01*
Y05349D01*
X02737Y05339D01*
X02767D01*
X02827Y05399D02*
Y05339D01*
X02797D01*
X02787Y05349D01*
Y05369D01*
X02797Y05379D01*
X02827D01*
X028869Y05339D02*
X028469D01*
X028869Y05379D01*
Y05389D01*
X028769Y05399D01*
X028569D01*
X028469Y05389D01*
X029069D02*
X029169Y05399D01*
X029369D01*
X029469Y05389D01*
Y05349D01*
X029369Y05339D01*
X029169D01*
X029069Y05349D01*
Y05389D01*
X029669Y05379D02*
X030069Y05339D01*
X029869Y05359D01*
X030069Y05379D01*
X029669Y05339D01*
X030569D02*
Y05399D01*
X030269Y05369D01*
X030669D01*
X05473Y02755D02*
Y02815D01*
X05503D01*
X05513Y02805D01*
Y02785D01*
X05503Y02775D01*
X05473D01*
X05533Y02815D02*
X05553D01*
X05543D01*
Y02755D01*
X05533D01*
X05553D01*
X05623Y02805D02*
X05613Y02815D01*
X05593D01*
X05583Y02805D01*
Y02765D01*
X05593Y02755D01*
X05613D01*
X05623Y02765D01*
X056429Y02815D02*
Y02755D01*
Y02775D01*
X056829Y02815D01*
X056529Y02785D01*
X056829Y02755D01*
X057029Y02815D02*
X057229D01*
X057129D01*
Y02755D01*
X057029D01*
X057229D01*
X057529Y02815D02*
X057929D01*
X057729D01*
Y02755D01*
X058529D02*
X058129D01*
X058529Y02795D01*
Y02805D01*
X058429Y02815D01*
X058229D01*
X058129Y02805D01*
X04789Y02768D02*
X04829Y02708D01*
Y02768D02*
X04789Y02708D01*
X04889D02*
X04849D01*
X04889Y02748D01*
Y02758D01*
X04879Y02768D01*
X04859D01*
X04849Y02758D01*
X04294Y02506D02*
X04334Y02446D01*
Y02506D02*
X04294Y02446D01*
X04354D02*
X04374D01*
X04364D01*
Y02506D01*
X04354Y02496D01*
X02381Y03032D02*
Y02992D01*
X02401Y02972D01*
X02421Y02992D01*
Y03032D01*
X02441Y02972D02*
Y03032D01*
X02471D01*
X02481Y03022D01*
Y03002D01*
X02471Y02992D01*
X02441D01*
X02461D02*
X02481Y02972D01*
X02501D02*
X02521D01*
X02511D01*
Y03032D01*
X02501Y03022D01*
X04649Y02437D02*
Y02387D01*
X04659Y02377D01*
X04679D01*
X04689Y02387D01*
Y02437D01*
X04749Y02377D02*
X04709D01*
X04749Y02417D01*
Y02427D01*
X04739Y02437D01*
X04719D01*
X04709Y02427D01*
X05696Y0241D02*
X05686Y0242D01*
X05666D01*
X05656Y0241D01*
Y024D01*
X05666Y0239D01*
X05686D01*
X05696Y0238D01*
Y0237D01*
X05686Y0236D01*
X05666D01*
X05656Y0237D01*
X05746Y0236D02*
Y0242D01*
X05716Y0239D01*
X05756D01*
X053906Y01645D02*
X053806Y01655D01*
X053606D01*
X053506Y01645D01*
Y01635D01*
X053606Y01625D01*
X053806D01*
X053906Y01615D01*
Y01605D01*
X053806Y01595D01*
X053606D01*
X053506Y01605D01*
X054106Y01645D02*
X054206Y01655D01*
X054406D01*
X054506Y01645D01*
Y01635D01*
X054406Y01625D01*
X054306D01*
X054406D01*
X054506Y01615D01*
Y01605D01*
X054406Y01595D01*
X054206D01*
X054106Y01605D01*
X056869Y016361D02*
X056769Y016461D01*
X056569D01*
X056469Y016361D01*
Y016261D01*
X056569Y016161D01*
X056769D01*
X056869Y016061D01*
Y015961D01*
X056769Y015862D01*
X056569D01*
X056469Y015961D01*
X057468Y015862D02*
X057068D01*
X057468Y016261D01*
Y016361D01*
X057368Y016461D01*
X057168D01*
X057068Y016361D01*
X059783Y016411D02*
X059683Y016511D01*
X059484D01*
X059384Y016411D01*
Y016311D01*
X059484Y016211D01*
X059683D01*
X059783Y016111D01*
Y016011D01*
X059683Y015911D01*
X059484D01*
X059384Y016011D01*
X059983Y015911D02*
X060183D01*
X060083D01*
Y016511D01*
X059983Y016411D01*
X02644Y02445D02*
Y02505D01*
X02674D01*
X02684Y02495D01*
Y02475D01*
X02674Y02465D01*
X02644D01*
X02664D02*
X02684Y02445D01*
X02704Y02435D02*
X02744D01*
X02764Y02445D02*
X02784D01*
X02774D01*
Y02505D01*
X02764D01*
X028439Y02445D02*
X028239D01*
X028139Y02455D01*
Y02475D01*
X028239Y02485D01*
X028439D01*
X028539Y02475D01*
Y02465D01*
X028139D01*
X029139Y02505D02*
Y02445D01*
X028839D01*
X028739Y02455D01*
Y02475D01*
X028839Y02485D01*
X029139D01*
X029339Y02445D02*
X029539D01*
X029439D01*
Y02505D01*
X029339Y02495D01*
X02781Y01773D02*
Y01833D01*
X02811D01*
X02821Y01823D01*
Y01803D01*
X02811Y01793D01*
X02781D01*
X02801D02*
X02821Y01773D01*
X02841Y01833D02*
X02881D01*
Y01823D01*
X02841Y01783D01*
Y01773D01*
X04186Y01845D02*
Y01905D01*
X04216D01*
X04226Y01895D01*
Y01875D01*
X04216Y01865D01*
X04186D01*
X04206D02*
X04226Y01845D01*
X04286D02*
X04246D01*
X04286Y01885D01*
Y01895D01*
X04276Y01905D01*
X04256D01*
X04246Y01895D01*
X04071Y01845D02*
Y01905D01*
X04101D01*
X04111Y01895D01*
Y01875D01*
X04101Y01865D01*
X04071D01*
X04091D02*
X04111Y01845D01*
X04131D02*
X04151D01*
X04141D01*
Y01905D01*
X04131Y01895D01*
X02396Y02449D02*
X02416D01*
X02406D01*
Y02509D01*
X02396D01*
X02476Y02449D02*
X02456D01*
X02446Y02459D01*
Y02479D01*
X02456Y02489D01*
X02476D01*
X02486Y02479D01*
Y02469D01*
X02446D01*
X02546Y02509D02*
Y02449D01*
X02516D01*
X02506Y02459D01*
Y02479D01*
X02516Y02489D01*
X02546D01*
X025659Y02439D02*
X026059D01*
X026259Y02449D02*
Y02489D01*
X026559D01*
X026659Y02479D01*
Y02449D01*
X026859D02*
X027059D01*
X026959D01*
Y02509D01*
X026859Y02499D01*
X04079Y03061D02*
X04059D01*
X04069D01*
Y03011D01*
X04059Y03001D01*
X04049D01*
X04039Y03011D01*
X04099Y03001D02*
Y03061D01*
X04129D01*
X04139Y03051D01*
Y03031D01*
X04129Y03021D01*
X04099D01*
X041989Y03001D02*
X04159D01*
X041989Y03041D01*
Y03051D01*
X04189Y03061D01*
X04169D01*
X04159Y03051D01*
X0522Y03061D02*
X052D01*
X0521D01*
Y03011D01*
X052Y03001D01*
X0519D01*
X0518Y03011D01*
X0524Y03001D02*
Y03061D01*
X0527D01*
X0528Y03051D01*
Y03031D01*
X0527Y03021D01*
X0524D01*
X053Y03001D02*
X0532D01*
X0531D01*
Y03061D01*
X053Y03051D01*
X02377Y02292D02*
X02357D01*
X02367D01*
Y02242D01*
X02357Y02232D01*
X02347D01*
X02337Y02242D01*
X02397Y02232D02*
Y02272D01*
X02417Y02292D01*
X02437Y02272D01*
Y02232D01*
Y02262D01*
X02397D01*
X024969Y02282D02*
X02487Y02292D01*
X02467D01*
X02457Y02282D01*
Y02242D01*
X02467Y02232D01*
X02487D01*
X024969Y02242D01*
X025169Y02292D02*
Y02232D01*
Y02252D01*
X025569Y02292D01*
X025269Y02262D01*
X025569Y02232D01*
X026369Y02292D02*
Y02232D01*
X026669D01*
X026769Y02242D01*
Y02282D01*
X026669Y02292D01*
X026369D01*
X027369Y02282D02*
X027269Y02292D01*
X027069D01*
X026969Y02282D01*
Y02242D01*
X027069Y02232D01*
X027269D01*
X027369Y02242D01*
X027569Y02232D02*
X027769D01*
X027669D01*
Y02292D01*
X027569Y02282D01*
X04063Y02375D02*
X04083D01*
X04073D01*
Y02315D01*
X04063D01*
X04083D01*
X04153Y02365D02*
X04143Y02375D01*
X04123D01*
X04113Y02365D01*
Y02325D01*
X04123Y02315D01*
X04143D01*
X04153Y02325D01*
X04173Y02315D02*
X04193D01*
X04183D01*
Y02375D01*
X04173Y02365D01*
X02415Y01843D02*
X02405Y01853D01*
X02385D01*
X02375Y01843D01*
Y01803D01*
X02385Y01793D01*
X02405D01*
X02415Y01803D01*
X02435Y01793D02*
X02455D01*
X02445D01*
Y01853D01*
X02435Y01843D01*
X02485D02*
X02495Y01853D01*
X02515D01*
X02525Y01843D01*
Y01803D01*
X02515Y01793D01*
X02495D01*
X02485Y01803D01*
Y01843D01*
X05233Y02865D02*
X05223Y02875D01*
X05203D01*
X05193Y02865D01*
Y02825D01*
X05203Y02815D01*
X05223D01*
X05233Y02825D01*
X05253Y02875D02*
X05293D01*
Y02865D01*
X05253Y02825D01*
Y02815D01*
X04892Y02864D02*
X04882Y02874D01*
X04862D01*
X04852Y02864D01*
Y02824D01*
X04862Y02814D01*
X04882D01*
X04892Y02824D01*
X04952Y02874D02*
X04912D01*
Y02844D01*
X04932Y02854D01*
X04942D01*
X04952Y02844D01*
Y02824D01*
X04942Y02814D01*
X04922D01*
X04912Y02824D01*
X03018Y02188D02*
X03008Y02198D01*
X02988D01*
X02978Y02188D01*
Y02148D01*
X02988Y02138D01*
X03008D01*
X03018Y02148D01*
X03038Y02188D02*
X03048Y02198D01*
X03068D01*
X03078Y02188D01*
Y02178D01*
X03068Y02168D01*
X03058D01*
X03068D01*
X03078Y02158D01*
Y02148D01*
X03068Y02138D01*
X03048D01*
X03038Y02148D01*
X03102Y02833D02*
Y02773D01*
X03132D01*
X03142Y02783D01*
Y02793D01*
X03132Y02803D01*
X03102D01*
X03132D01*
X03142Y02813D01*
Y02823D01*
X03132Y02833D01*
X03102D01*
X03162D02*
X03202D01*
X03182D01*
Y02773D01*
X03222D02*
X03242D01*
X03232D01*
Y02833D01*
X03222Y02823D01*
D18*
X024257Y02327D02*
X025557D01*
X024257Y02407D02*
X025557D01*
X024257Y02327D02*
Y02329D01*
X025557Y02327D02*
Y02329D01*
Y02404D02*
Y02407D01*
X024257Y02405D02*
Y02407D01*
D19*
X047046Y017893D02*
X047379Y018226D01*
Y017893D02*
X047046Y018226D01*
X047212Y017893D02*
Y018226D01*
X047379Y018059D02*
X047046D01*
D20*
X058287Y02252D02*
D03*
D21*
X055089Y017776D02*
D03*
X057845Y017776D02*
D03*
X060561Y017776D02*
D03*
M02*
