G04*
G04 #@! TF.GenerationSoftware,Altium Limited,Altium Designer,21.0.8 (223)*
G04*
G04 Layer_Physical_Order=1*
G04 Layer_Color=255*
%FSTAX24Y24*%
%MOIN*%
G70*
G04*
G04 #@! TF.SameCoordinates,EDDFCF6A-67A3-46E2-8177-59DA37980891*
G04*
G04*
G04 #@! TF.FilePolarity,Positive*
G04*
G01*
G75*
%ADD17C,0.0100*%
%ADD22R,0.1575X0.0472*%
%ADD23R,0.0394X0.0709*%
%ADD24R,0.0200X0.0530*%
%ADD25R,0.0530X0.0200*%
%ADD26R,0.0591X0.0394*%
%ADD27R,0.0394X0.0591*%
%ADD28R,0.0472X0.0551*%
%ADD29R,0.0551X0.0472*%
%ADD30R,0.0600X0.0650*%
%ADD50R,0.0630X0.0630*%
%ADD51C,0.0630*%
%ADD52C,0.0750*%
%ADD53C,0.0598*%
%ADD54R,0.0598X0.0598*%
%ADD55R,0.1600X0.1000*%
%ADD56R,0.1000X0.1600*%
%ADD57R,0.0600X0.0900*%
%ADD58O,0.0600X0.0900*%
%ADD59R,0.1000X0.1000*%
%ADD60C,0.1000*%
%ADD61C,0.0500*%
G36*
X062077Y015433D02*
X023179D01*
Y053858D01*
X062077D01*
Y015433D01*
D02*
G37*
%LPC*%
G36*
X042261Y052964D02*
X042257D01*
Y052599D01*
X042622D01*
Y052604D01*
X042593Y052709D01*
X042539Y052804D01*
X042461Y052881D01*
X042367Y052936D01*
X042261Y052964D01*
D02*
G37*
G36*
X042157D02*
X042152D01*
X042047Y052936D01*
X041952Y052881D01*
X041875Y052804D01*
X04182Y052709D01*
X041792Y052604D01*
Y052599D01*
X042157D01*
Y052964D01*
D02*
G37*
G36*
X036261D02*
X036257D01*
Y052599D01*
X036622D01*
Y052604D01*
X036593Y052709D01*
X036539Y052804D01*
X036461Y052881D01*
X036367Y052936D01*
X036261Y052964D01*
D02*
G37*
G36*
X036157D02*
X036152D01*
X036047Y052936D01*
X035952Y052881D01*
X035875Y052804D01*
X03582Y052709D01*
X035792Y052604D01*
Y052599D01*
X036157D01*
Y052964D01*
D02*
G37*
G36*
X035261D02*
X035257D01*
Y052599D01*
X035622D01*
Y052604D01*
X035593Y052709D01*
X035539Y052804D01*
X035461Y052881D01*
X035367Y052936D01*
X035261Y052964D01*
D02*
G37*
G36*
X035157D02*
X035152D01*
X035047Y052936D01*
X034952Y052881D01*
X034875Y052804D01*
X03482Y052709D01*
X034792Y052604D01*
Y052599D01*
X035157D01*
Y052964D01*
D02*
G37*
G36*
X034261D02*
X034257D01*
Y052599D01*
X034622D01*
Y052604D01*
X034593Y052709D01*
X034539Y052804D01*
X034461Y052881D01*
X034367Y052936D01*
X034261Y052964D01*
D02*
G37*
G36*
X034157D02*
X034152D01*
X034047Y052936D01*
X033952Y052881D01*
X033875Y052804D01*
X03382Y052709D01*
X033792Y052604D01*
Y052599D01*
X034157D01*
Y052964D01*
D02*
G37*
G36*
X033261D02*
X033257D01*
Y052599D01*
X033622D01*
Y052604D01*
X033593Y052709D01*
X033539Y052804D01*
X033461Y052881D01*
X033367Y052936D01*
X033261Y052964D01*
D02*
G37*
G36*
X033157D02*
X033152D01*
X033047Y052936D01*
X032952Y052881D01*
X032875Y052804D01*
X03282Y052709D01*
X032792Y052604D01*
Y052599D01*
X033157D01*
Y052964D01*
D02*
G37*
G36*
X027622D02*
X027257D01*
Y052599D01*
X027622D01*
Y052964D01*
D02*
G37*
G36*
X027157D02*
X026792D01*
Y052599D01*
X027157D01*
Y052964D01*
D02*
G37*
G36*
X042622Y052499D02*
X042257D01*
Y052134D01*
X042261D01*
X042367Y052163D01*
X042461Y052217D01*
X042539Y052294D01*
X042593Y052389D01*
X042622Y052495D01*
Y052499D01*
D02*
G37*
G36*
X042157D02*
X041792D01*
Y052495D01*
X04182Y052389D01*
X041875Y052294D01*
X041952Y052217D01*
X042047Y052163D01*
X042152Y052134D01*
X042157D01*
Y052499D01*
D02*
G37*
G36*
X041261Y052964D02*
X041152D01*
X041047Y052936D01*
X040952Y052881D01*
X040875Y052804D01*
X04082Y052709D01*
X040792Y052604D01*
Y052495D01*
X04082Y052389D01*
X040875Y052294D01*
X040952Y052217D01*
X041047Y052163D01*
X041152Y052134D01*
X041261D01*
X041367Y052163D01*
X041461Y052217D01*
X041539Y052294D01*
X041593Y052389D01*
X041622Y052495D01*
Y052604D01*
X041593Y052709D01*
X041539Y052804D01*
X041461Y052881D01*
X041367Y052936D01*
X041261Y052964D01*
D02*
G37*
G36*
X039261D02*
X039152D01*
X039047Y052936D01*
X038952Y052881D01*
X038875Y052804D01*
X03882Y052709D01*
X038792Y052604D01*
Y052495D01*
X03882Y052389D01*
X038875Y052294D01*
X038952Y052217D01*
X039047Y052163D01*
X039152Y052134D01*
X039261D01*
X039367Y052163D01*
X039461Y052217D01*
X039539Y052294D01*
X039593Y052389D01*
X039622Y052495D01*
Y052604D01*
X039593Y052709D01*
X039539Y052804D01*
X039461Y052881D01*
X039367Y052936D01*
X039261Y052964D01*
D02*
G37*
G36*
X038261D02*
X038152D01*
X038047Y052936D01*
X037952Y052881D01*
X037875Y052804D01*
X03782Y052709D01*
X037792Y052604D01*
Y052495D01*
X03782Y052389D01*
X037875Y052294D01*
X037952Y052217D01*
X038047Y052163D01*
X038152Y052134D01*
X038261D01*
X038367Y052163D01*
X038461Y052217D01*
X038539Y052294D01*
X038593Y052389D01*
X038622Y052495D01*
Y052604D01*
X038593Y052709D01*
X038539Y052804D01*
X038461Y052881D01*
X038367Y052936D01*
X038261Y052964D01*
D02*
G37*
G36*
X036622Y052499D02*
X036257D01*
Y052134D01*
X036261D01*
X036367Y052163D01*
X036461Y052217D01*
X036539Y052294D01*
X036593Y052389D01*
X036622Y052495D01*
Y052499D01*
D02*
G37*
G36*
X036157D02*
X035792D01*
Y052495D01*
X03582Y052389D01*
X035875Y052294D01*
X035952Y052217D01*
X036047Y052163D01*
X036152Y052134D01*
X036157D01*
Y052499D01*
D02*
G37*
G36*
X035622D02*
X035257D01*
Y052134D01*
X035261D01*
X035367Y052163D01*
X035461Y052217D01*
X035539Y052294D01*
X035593Y052389D01*
X035622Y052495D01*
Y052499D01*
D02*
G37*
G36*
X035157D02*
X034792D01*
Y052495D01*
X03482Y052389D01*
X034875Y052294D01*
X034952Y052217D01*
X035047Y052163D01*
X035152Y052134D01*
X035157D01*
Y052499D01*
D02*
G37*
G36*
X034622D02*
X034257D01*
Y052134D01*
X034261D01*
X034367Y052163D01*
X034461Y052217D01*
X034539Y052294D01*
X034593Y052389D01*
X034622Y052495D01*
Y052499D01*
D02*
G37*
G36*
X034157D02*
X033792D01*
Y052495D01*
X03382Y052389D01*
X033875Y052294D01*
X033952Y052217D01*
X034047Y052163D01*
X034152Y052134D01*
X034157D01*
Y052499D01*
D02*
G37*
G36*
X033622D02*
X033257D01*
Y052134D01*
X033261D01*
X033367Y052163D01*
X033461Y052217D01*
X033539Y052294D01*
X033593Y052389D01*
X033622Y052495D01*
Y052499D01*
D02*
G37*
G36*
X033157D02*
X032792D01*
Y052495D01*
X03282Y052389D01*
X032875Y052294D01*
X032952Y052217D01*
X033047Y052163D01*
X033152Y052134D01*
X033157D01*
Y052499D01*
D02*
G37*
G36*
X030261Y052964D02*
X030152D01*
X030047Y052936D01*
X029952Y052881D01*
X029875Y052804D01*
X02982Y052709D01*
X029792Y052604D01*
Y052495D01*
X02982Y052389D01*
X029875Y052294D01*
X029952Y052217D01*
X030047Y052163D01*
X030152Y052134D01*
X030261D01*
X030367Y052163D01*
X030461Y052217D01*
X030539Y052294D01*
X030593Y052389D01*
X030622Y052495D01*
Y052604D01*
X030593Y052709D01*
X030539Y052804D01*
X030461Y052881D01*
X030367Y052936D01*
X030261Y052964D01*
D02*
G37*
G36*
X028627Y053663D02*
X02654D01*
X026481Y053651D01*
X026432Y053618D01*
X026122Y053308D01*
X026089Y053259D01*
X026077Y0532D01*
Y027457D01*
X025994Y027374D01*
X025967Y027389D01*
X025846Y027422D01*
X025721D01*
X0256Y027389D01*
X025492Y027327D01*
X025403Y027239D01*
X025341Y02713D01*
X025308Y027009D01*
Y026884D01*
X025341Y026764D01*
X025403Y026655D01*
X025492Y026567D01*
X0256Y026504D01*
X025721Y026472D01*
X025846D01*
X025967Y026504D01*
X026075Y026567D01*
X026164Y026655D01*
X026226Y026764D01*
X026258Y026884D01*
Y027009D01*
X026226Y02713D01*
X02621Y027157D01*
X026338Y027285D01*
X026371Y027335D01*
X026383Y027393D01*
Y028605D01*
X026433Y028626D01*
X026492Y028567D01*
X0266Y028504D01*
X026721Y028472D01*
X026846D01*
X026967Y028504D01*
X026994Y02852D01*
X027287Y028227D01*
Y024032D01*
X027104D01*
Y023281D01*
X027776D01*
Y023503D01*
X028337D01*
X028653Y023187D01*
Y02123D01*
X028206D01*
Y01943D01*
X028653D01*
Y01893D01*
X027856D01*
Y01833D01*
Y01773D01*
X028658D01*
Y017409D01*
X028475D01*
Y016658D01*
X029147D01*
Y01688D01*
X031933D01*
X032202Y016612D01*
X032251Y016579D01*
X03231Y016567D01*
X038085D01*
X038144Y016579D01*
X038193Y016612D01*
X038473Y016892D01*
X040631D01*
Y016708D01*
X041382D01*
Y016892D01*
X041783D01*
Y016708D01*
X042005D01*
Y016692D01*
X042017Y016634D01*
X04205Y016584D01*
X042103Y016532D01*
X042099Y016507D01*
X042085Y016482D01*
X028397D01*
X028268Y016611D01*
X028287Y016658D01*
X028399D01*
Y017409D01*
X027727D01*
Y017186D01*
X027393D01*
X027335Y017174D01*
X027285Y017141D01*
X026887Y016743D01*
X026581D01*
X02656Y016793D01*
X026609Y016841D01*
X026661Y016933D01*
X026689Y017034D01*
Y017037D01*
X02589D01*
Y017034D01*
X025917Y016933D01*
X02597Y016841D01*
X026018Y016793D01*
X025998Y016743D01*
X025849D01*
X025661Y016932D01*
X025661Y016933D01*
X025689Y017034D01*
Y017139D01*
X025661Y017241D01*
X025609Y017332D01*
X025535Y017406D01*
X025443Y017459D01*
X025342Y017486D01*
X025237D01*
X025135Y017459D01*
X025044Y017406D01*
X02497Y017332D01*
X024917Y017241D01*
X02489Y017139D01*
Y017034D01*
X024917Y016933D01*
X02497Y016841D01*
X025044Y016767D01*
X025135Y016715D01*
X025237Y016687D01*
X025342D01*
X025443Y016715D01*
X025445Y016715D01*
X025678Y016482D01*
X025727Y016449D01*
X025786Y016437D01*
X02695D01*
X027009Y016449D01*
X027058Y016482D01*
X027457Y01688D01*
X027727D01*
Y016658D01*
X02791D01*
Y0166D01*
X027921Y016541D01*
X027955Y016492D01*
X028226Y016221D01*
X028275Y016187D01*
X028334Y016176D01*
X049085D01*
X049143Y016187D01*
X049193Y016221D01*
X049771Y016799D01*
X049821Y016779D01*
Y016148D01*
X049833Y016089D01*
X049866Y01604D01*
X050276Y01563D01*
X050325Y015597D01*
X050384Y015585D01*
X060908D01*
X060967Y015597D01*
X061016Y01563D01*
X061258Y015872D01*
X061291Y015921D01*
X061303Y01598D01*
Y01789D01*
X061291Y017949D01*
X061258Y017998D01*
X060714Y018542D01*
Y018876D01*
X060858D01*
Y019601D01*
X061133Y019876D01*
X06115Y019901D01*
X061401D01*
Y020573D01*
X060649D01*
Y02039D01*
X060385D01*
X06038Y020391D01*
X060123D01*
Y020574D01*
X059383D01*
Y02065D01*
X060123D01*
Y021322D01*
X059372D01*
Y021139D01*
X05937D01*
X059311Y021127D01*
X059262Y021094D01*
X059122Y020954D01*
X059089Y020905D01*
X059077Y020846D01*
Y019313D01*
X058737Y018973D01*
X058141D01*
Y019521D01*
X058521Y019901D01*
X058841D01*
Y020573D01*
X058182D01*
X058166Y020602D01*
X058193Y020649D01*
X058415D01*
Y020935D01*
X05809D01*
Y020751D01*
X05804Y020729D01*
X057975Y020766D01*
X057886Y02079D01*
X057794D01*
X057705Y020766D01*
X05763Y020723D01*
X057564D01*
Y021322D01*
X057463D01*
Y02308D01*
X057451Y023139D01*
X057418Y023188D01*
X056938Y023668D01*
Y025399D01*
X056985Y025426D01*
X057062Y025503D01*
X057117Y025598D01*
X057145Y025703D01*
Y025813D01*
X057117Y025918D01*
X057062Y026013D01*
X056985Y02609D01*
X05689Y026145D01*
X056785Y026173D01*
X056676D01*
X05657Y026145D01*
X056476Y02609D01*
X056398Y026013D01*
X056344Y025918D01*
X056315Y025813D01*
Y025703D01*
X056344Y025598D01*
X056398Y025503D01*
X056476Y025426D01*
X05657Y025371D01*
X056632Y025354D01*
Y023605D01*
X056644Y023546D01*
X056677Y023496D01*
X057157Y023017D01*
Y022817D01*
X056396D01*
Y022722D01*
X05627D01*
X05627Y022722D01*
X056153D01*
Y022944D01*
X05597D01*
Y02347D01*
X055958Y023529D01*
X055938Y023558D01*
Y025343D01*
X056145D01*
Y026173D01*
X055315D01*
Y025343D01*
X055633D01*
Y023501D01*
X055644Y023443D01*
X055664Y023413D01*
Y023193D01*
X054575D01*
X054517Y023181D01*
X054467Y023148D01*
X05249Y021171D01*
X051694D01*
Y021245D01*
X051778D01*
X051836Y021256D01*
X051886Y02129D01*
X051955Y021359D01*
X052024Y02134D01*
X052116D01*
X052205Y021364D01*
X052285Y02141D01*
X05235Y021475D01*
X052396Y021555D01*
X05242Y021644D01*
Y021736D01*
X052396Y021825D01*
X05235Y021905D01*
X052348Y021907D01*
X052367Y021953D01*
X053071D01*
X053129Y021965D01*
X053179Y021998D01*
X055157Y023977D01*
X055191Y024026D01*
X055202Y024085D01*
Y028756D01*
X055242Y028787D01*
X05529Y028774D01*
X055395D01*
X055497Y028801D01*
X055588Y028854D01*
X055662Y028928D01*
X055715Y029019D01*
X055742Y029121D01*
Y029226D01*
X055715Y029327D01*
X055662Y029418D01*
X055588Y029493D01*
X055497Y029545D01*
X055395Y029572D01*
X05529D01*
X055235Y029558D01*
X055217Y029568D01*
X05519Y029597D01*
Y029676D01*
X055166Y029765D01*
X05512Y029845D01*
X055055Y02991D01*
X054975Y029956D01*
X054886Y02998D01*
X054794D01*
X054705Y029956D01*
X054625Y02991D01*
X05456Y029845D01*
X054524Y029783D01*
X05412D01*
X054061Y029771D01*
X054012Y029738D01*
X053782Y029508D01*
X053749Y029459D01*
X053737Y0294D01*
Y029388D01*
X053687Y029375D01*
X053662Y029418D01*
X053588Y029493D01*
X053497Y029545D01*
X053395Y029572D01*
X05329D01*
X053188Y029545D01*
X053097Y029493D01*
X053023Y029418D01*
X052971Y029327D01*
X052943Y029226D01*
Y029121D01*
X052971Y029019D01*
X053023Y028928D01*
X053097Y028854D01*
X053188Y028801D01*
X05319Y028801D01*
Y027834D01*
X052596D01*
Y027083D01*
X052779D01*
Y026743D01*
X052791Y026685D01*
X052824Y026635D01*
X052962Y026497D01*
Y026193D01*
X052228D01*
Y026009D01*
X050418D01*
X050359Y025998D01*
X05031Y025964D01*
X048356Y024011D01*
X048353Y024005D01*
X048303Y02402D01*
Y02552D01*
X049502D01*
Y026193D01*
X048768D01*
Y026507D01*
X048883Y026622D01*
X048916Y026671D01*
X048928Y02673D01*
Y027076D01*
X049111D01*
Y027827D01*
X048943D01*
X048922Y027877D01*
X04897Y027925D01*
X049016Y028005D01*
X04904Y028094D01*
Y028186D01*
X049016Y028275D01*
X04897Y028355D01*
X048905Y02842D01*
X048825Y028466D01*
X048736Y02849D01*
X048644D01*
X048609Y028481D01*
X048549Y028541D01*
Y02893D01*
X048599Y028944D01*
X048608Y028928D01*
X048682Y028854D01*
X048773Y028801D01*
X048875Y028774D01*
X04898D01*
X049081Y028801D01*
X049172Y028854D01*
X049247Y028928D01*
X049299Y029019D01*
X049326Y029121D01*
Y029226D01*
X049299Y029327D01*
X049247Y029418D01*
X049172Y029493D01*
X049081Y029545D01*
X04898Y029572D01*
X048875D01*
X048773Y029545D01*
X048682Y029493D01*
X048608Y029418D01*
X048599Y029403D01*
X048549Y029416D01*
Y042776D01*
X048537Y042834D01*
X048504Y042884D01*
X04033Y051057D01*
Y052153D01*
X040367Y052163D01*
X040461Y052217D01*
X040539Y052294D01*
X040593Y052389D01*
X040622Y052495D01*
Y052604D01*
X040593Y052709D01*
X040539Y052804D01*
X040461Y052881D01*
X040367Y052936D01*
X040261Y052964D01*
X040152D01*
X040047Y052936D01*
X039952Y052881D01*
X039875Y052804D01*
X03982Y052709D01*
X039792Y052604D01*
Y052495D01*
X03982Y052389D01*
X039875Y052294D01*
X039952Y052217D01*
X040024Y052175D01*
Y050994D01*
X040036Y050936D01*
X040069Y050886D01*
X048243Y042712D01*
Y029488D01*
X048197Y029468D01*
X048172Y029493D01*
X048081Y029545D01*
X04798Y029572D01*
X047875D01*
X047773Y029545D01*
X047682Y029493D01*
X047608Y029418D01*
X047555Y029327D01*
X047528Y029226D01*
Y029121D01*
X047555Y029019D01*
X047608Y028928D01*
X047682Y028854D01*
X047773Y028801D01*
X047875Y028774D01*
X04798D01*
X048081Y028801D01*
X048172Y028854D01*
X048197Y028878D01*
X048243Y028859D01*
Y028477D01*
X048254Y028419D01*
X048288Y028369D01*
X04837Y028286D01*
X048364Y028275D01*
X04834Y028186D01*
Y028094D01*
X048364Y028005D01*
X04841Y027925D01*
X048458Y027877D01*
X048439Y027827D01*
X048439D01*
Y027076D01*
X048622D01*
Y026793D01*
X048507Y026678D01*
X048474Y026629D01*
X048462Y02657D01*
Y026193D01*
X047728D01*
X047692Y026228D01*
Y027244D01*
X047755Y02728D01*
X04782Y027345D01*
X047866Y027425D01*
X04789Y027514D01*
Y027606D01*
X047866Y027695D01*
X04782Y027775D01*
X047755Y02784D01*
X047675Y027887D01*
X047586Y02791D01*
X047494D01*
X047405Y027887D01*
X047325Y02784D01*
X04726Y027775D01*
X047214Y027695D01*
X04719Y027606D01*
Y027514D01*
X047214Y027425D01*
X04726Y027345D01*
X047325Y02728D01*
X047386Y027245D01*
Y023715D01*
X047398Y023657D01*
X047431Y023607D01*
X047624Y023414D01*
X047605Y023368D01*
X04732D01*
Y022842D01*
X047273Y022823D01*
X046383Y023713D01*
Y02797D01*
X046372Y028028D01*
X046338Y028078D01*
X045631Y028785D01*
Y02884D01*
X045677Y028859D01*
X045682Y028854D01*
X045773Y028801D01*
X045875Y028774D01*
X04598D01*
X046081Y028801D01*
X046172Y028854D01*
X046247Y028928D01*
X046299Y029019D01*
X046326Y029121D01*
Y029226D01*
X046299Y029327D01*
X046247Y029418D01*
X046172Y029493D01*
X046081Y029545D01*
X04598Y029572D01*
X045875D01*
X045773Y029545D01*
X045682Y029493D01*
X045677Y029488D01*
X045631Y029507D01*
Y04278D01*
X045619Y042838D01*
X045586Y042888D01*
X03733Y051144D01*
Y052153D01*
X037367Y052163D01*
X037461Y052217D01*
X037539Y052294D01*
X037593Y052389D01*
X037622Y052495D01*
Y052604D01*
X037593Y052709D01*
X037539Y052804D01*
X037461Y052881D01*
X037367Y052936D01*
X037261Y052964D01*
X037152D01*
X037047Y052936D01*
X036952Y052881D01*
X036875Y052804D01*
X03682Y052709D01*
X036792Y052604D01*
Y052495D01*
X03682Y052389D01*
X036875Y052294D01*
X036952Y052217D01*
X037024Y052175D01*
Y051081D01*
X037036Y051022D01*
X037069Y050973D01*
X045325Y042717D01*
Y029383D01*
X045275Y029369D01*
X045247Y029418D01*
X045172Y029493D01*
X045081Y029545D01*
X04498Y029572D01*
X044875D01*
X044773Y029545D01*
X044682Y029493D01*
X044608Y029418D01*
X044555Y029327D01*
X044528Y029226D01*
Y029121D01*
X044555Y029019D01*
X044515Y028989D01*
X044326Y029177D01*
Y029226D01*
X044299Y029327D01*
X044247Y029418D01*
X044172Y029493D01*
X044081Y029545D01*
X04398Y029572D01*
X043875D01*
X043773Y029545D01*
X043682Y029493D01*
X043633Y029444D01*
X043583Y029464D01*
Y033364D01*
X043645Y0334D01*
X04371Y033465D01*
X043756Y033545D01*
X04378Y033634D01*
Y033726D01*
X043756Y033815D01*
X04371Y033895D01*
X043645Y03396D01*
X043565Y034006D01*
X043476Y03403D01*
X043384D01*
X043295Y034006D01*
X043215Y03396D01*
X04315Y033895D01*
X043104Y033815D01*
X04308Y033726D01*
Y033634D01*
X043104Y033545D01*
X04315Y033465D01*
X043215Y0334D01*
X043277Y033364D01*
Y029459D01*
X043227Y029438D01*
X043172Y029493D01*
X043081Y029545D01*
X04298Y029572D01*
X042875D01*
X042773Y029545D01*
X042682Y029493D01*
X042608Y029418D01*
X042555Y029327D01*
X04254Y029272D01*
X042485Y029257D01*
X042461Y029281D01*
X042411Y029315D01*
X042352Y029326D01*
X042299D01*
X042299Y029327D01*
X042247Y029418D01*
X042172Y029493D01*
X042081Y029545D01*
X04198Y029572D01*
X041875D01*
X041773Y029545D01*
X041682Y029493D01*
X041608Y029418D01*
X041555Y029327D01*
X041528Y029226D01*
Y029121D01*
X041555Y029019D01*
X041608Y028928D01*
X041682Y028854D01*
X041773Y028801D01*
X041875Y028774D01*
X04198D01*
X042081Y028801D01*
X042172Y028854D01*
X042247Y028928D01*
X042275Y028978D01*
X042325Y028984D01*
X042376Y028933D01*
X042427Y028839D01*
X042501Y028747D01*
X042593Y028673D01*
X042687Y028622D01*
X044384Y026925D01*
Y024257D01*
X044369Y024213D01*
X043775D01*
Y023305D01*
X043919D01*
Y023053D01*
X043931Y022994D01*
X043952Y022963D01*
Y022866D01*
X043705D01*
Y021766D01*
X044241D01*
X044269Y021725D01*
X044268Y021716D01*
X044257Y021659D01*
Y020961D01*
X044268Y020902D01*
X044301Y020852D01*
X044835Y020319D01*
X044815Y020273D01*
X043843D01*
X042743Y021373D01*
Y021898D01*
X042793Y021915D01*
X042819Y021881D01*
X042903Y021817D01*
X043Y021776D01*
X043105Y021763D01*
X043209Y021776D01*
X043306Y021817D01*
X04339Y021881D01*
X043454Y021964D01*
X043494Y022062D01*
X043508Y022166D01*
Y022466D01*
X043494Y022571D01*
X043454Y022668D01*
X04339Y022751D01*
X043306Y022815D01*
X043258Y022836D01*
Y02302D01*
X043246Y023079D01*
X043241Y023086D01*
Y023305D01*
X043385D01*
Y024213D01*
X042791D01*
Y024213D01*
X042743Y024218D01*
Y025235D01*
X042731Y025293D01*
X042698Y025343D01*
X04108Y026961D01*
Y028774D01*
X041326D01*
Y029572D01*
X040528D01*
Y028774D01*
X040774D01*
Y026898D01*
X040786Y026839D01*
X040819Y02679D01*
X042437Y025171D01*
Y022767D01*
X042406Y022757D01*
X042387Y022754D01*
X042306Y022815D01*
X042209Y022856D01*
X042105Y02287D01*
X042Y022856D01*
X041903Y022815D01*
X041853Y022777D01*
X041803Y022802D01*
Y02543D01*
X041791Y025489D01*
X041758Y025538D01*
X040393Y026903D01*
Y047171D01*
X040381Y04723D01*
X040348Y04728D01*
X038133Y049495D01*
X038145Y049541D01*
Y049633D01*
X038121Y049722D01*
X038075Y049802D01*
X03801Y049867D01*
X03793Y049913D01*
X037841Y049937D01*
X037749D01*
X03766Y049913D01*
X03758Y049867D01*
X037515Y049802D01*
X037469Y049722D01*
X037445Y049633D01*
Y049541D01*
X037469Y049452D01*
X037515Y049372D01*
X03758Y049307D01*
X03766Y04926D01*
X037749Y049237D01*
X037841D01*
X03793Y04926D01*
X037933Y049262D01*
X040087Y047108D01*
Y02684D01*
X040099Y026781D01*
X040132Y026732D01*
X041497Y025367D01*
Y02269D01*
X041484Y022683D01*
X041447Y022677D01*
X04139Y022751D01*
X041306Y022815D01*
X041209Y022856D01*
X041155Y022863D01*
Y022316D01*
Y021769D01*
X041209Y021776D01*
X041306Y021817D01*
X04139Y021881D01*
X041447Y021955D01*
X041484Y021949D01*
X041497Y021942D01*
Y021322D01*
X041509Y021264D01*
X041542Y021214D01*
X042895Y019861D01*
X042885Y019807D01*
X042842Y01978D01*
X042797Y019798D01*
X042791Y019829D01*
X042758Y019878D01*
X040816Y02182D01*
X040849Y021858D01*
X040903Y021817D01*
X041Y021776D01*
X041055Y021769D01*
Y022266D01*
X040701D01*
Y022166D01*
X040715Y022062D01*
X040755Y021964D01*
X040797Y02191D01*
X040759Y021877D01*
X037953Y024683D01*
Y048294D01*
X038015Y04833D01*
X03808Y048395D01*
X038126Y048475D01*
X03815Y048564D01*
Y048656D01*
X038126Y048745D01*
X03808Y048825D01*
X038015Y04889D01*
X037935Y048936D01*
X037846Y04896D01*
X037754D01*
X037665Y048936D01*
X037585Y04889D01*
X03752Y048825D01*
X037474Y048745D01*
X03745Y048656D01*
Y048564D01*
X037474Y048475D01*
X03752Y048395D01*
X037585Y04833D01*
X037647Y048294D01*
Y02462D01*
X037659Y024561D01*
X037692Y024512D01*
X042387Y019816D01*
X042354Y019779D01*
X042306Y019815D01*
X042209Y019856D01*
X042105Y01987D01*
X042Y019856D01*
X041903Y019815D01*
X041819Y019751D01*
X041755Y019668D01*
X041715Y01957D01*
X041701Y019466D01*
Y019166D01*
X041715Y019062D01*
X041755Y018964D01*
X041819Y018881D01*
X041903Y018817D01*
X041952Y018796D01*
Y018574D01*
X041963Y018515D01*
X041996Y018465D01*
X042005Y018457D01*
Y018129D01*
X041783D01*
Y017456D01*
X042534D01*
Y018084D01*
X042584Y018104D01*
X043769Y016919D01*
X043818Y016886D01*
X043877Y016875D01*
X048297D01*
X048356Y016886D01*
X048405Y016919D01*
X048573Y017087D01*
X048606Y017136D01*
X048618Y017195D01*
Y018168D01*
X049044D01*
Y018533D01*
Y018898D01*
X048932D01*
Y018927D01*
X048921Y018985D01*
X048888Y019035D01*
X048543Y019379D01*
Y019574D01*
X048605Y01961D01*
X04867Y019675D01*
X048716Y019755D01*
X04874Y019844D01*
Y019936D01*
X048716Y020025D01*
X04867Y020105D01*
X048605Y02017D01*
X048525Y020216D01*
X048436Y02024D01*
X048344D01*
X048255Y020216D01*
X048175Y02017D01*
X04811Y020105D01*
X048064Y020025D01*
X04804Y019936D01*
Y019844D01*
X048053Y019794D01*
X048043Y019779D01*
X048012Y019756D01*
X04794Y019775D01*
Y019426D01*
X04784D01*
Y019775D01*
X047755Y019752D01*
X047693Y019716D01*
X047643Y01974D01*
Y020033D01*
X048348Y020738D01*
X048381Y020788D01*
X048393Y020846D01*
Y02164D01*
X048381Y021699D01*
X048348Y021748D01*
X047505Y022592D01*
X047524Y022638D01*
X04873D01*
Y023003D01*
Y023368D01*
X048618D01*
Y023839D01*
X050481Y025703D01*
X052228D01*
Y02552D01*
X053907D01*
Y024606D01*
X052754Y023453D01*
X050669D01*
X050611Y023441D01*
X050561Y023408D01*
X050557Y023402D01*
X050507Y023418D01*
Y023817D01*
X051415Y024724D01*
X051484Y024706D01*
X051576D01*
X051665Y02473D01*
X051745Y024776D01*
X05181Y024841D01*
X051856Y024921D01*
X05188Y02501D01*
Y025102D01*
X051856Y025191D01*
X05181Y025271D01*
X051745Y025336D01*
X051665Y025382D01*
X051576Y025406D01*
X051484D01*
X051395Y025382D01*
X051315Y025336D01*
X05125Y025271D01*
X051204Y025191D01*
X05118Y025102D01*
Y02501D01*
X051199Y02494D01*
X050417Y024159D01*
X050372Y024185D01*
X050389Y024249D01*
Y024342D01*
X050366Y024431D01*
X050319Y02451D01*
X050254Y024576D01*
X050174Y024622D01*
X050085Y024645D01*
X049993D01*
X049904Y024622D01*
X049824Y024576D01*
X049759Y02451D01*
X049713Y024431D01*
X049689Y024342D01*
Y024249D01*
X049713Y02416D01*
X049759Y024081D01*
X049824Y024015D01*
X049886Y02398D01*
Y023637D01*
X049836Y023622D01*
X049833Y023628D01*
X049678Y023783D01*
X049629Y023816D01*
X04957Y023827D01*
X049456D01*
X04942Y023889D01*
X049355Y023954D01*
X049275Y024001D01*
X049186Y024024D01*
X049094D01*
X049005Y024001D01*
X048925Y023954D01*
X04886Y023889D01*
X048814Y023809D01*
X04879Y02372D01*
Y023628D01*
X048814Y023539D01*
X04886Y023459D01*
X048902Y023418D01*
X048881Y023368D01*
X04883D01*
Y023003D01*
Y022638D01*
X048942D01*
Y019412D01*
X048953Y019353D01*
X048986Y019303D01*
X049257Y019033D01*
Y018898D01*
X049144D01*
Y018533D01*
Y018168D01*
X049257D01*
Y017199D01*
X048844Y016787D01*
X042534D01*
Y017381D01*
X041783D01*
Y017198D01*
X041382D01*
Y017381D01*
X040631D01*
Y017198D01*
X03841D01*
X038351Y017186D01*
X038302Y017153D01*
X038022Y016873D01*
X036102D01*
Y018011D01*
X034902D01*
Y016873D01*
X032373D01*
X032105Y017141D01*
X032055Y017174D01*
X031997Y017186D01*
X029147D01*
Y017409D01*
X028964D01*
Y01867D01*
X028959Y018693D01*
Y01943D01*
X029406D01*
Y020575D01*
X02969D01*
Y020391D01*
X030442D01*
Y021064D01*
X02969D01*
Y02088D01*
X029406D01*
Y02123D01*
X028959D01*
Y02325D01*
X028947Y023309D01*
X028914Y023358D01*
X028508Y023764D01*
X028459Y023798D01*
X0284Y023809D01*
X027776D01*
Y024032D01*
X027593D01*
Y028291D01*
X027581Y028349D01*
X027548Y028399D01*
X02721Y028736D01*
X027226Y028764D01*
X027258Y028884D01*
Y029009D01*
X027226Y02913D01*
X027164Y029239D01*
X027075Y029327D01*
X026967Y029389D01*
X026846Y029422D01*
X026721D01*
X026708Y029418D01*
X026669Y029449D01*
Y046817D01*
X027573Y047721D01*
X027664D01*
X027753Y047745D01*
X027833Y047791D01*
X027898Y047856D01*
X027944Y047936D01*
X027968Y048025D01*
Y048117D01*
X027944Y048206D01*
X027898Y048286D01*
X027833Y048351D01*
X027753Y048397D01*
X027664Y048421D01*
X027572D01*
X027483Y048397D01*
X027403Y048351D01*
X027338Y048286D01*
X027292Y048206D01*
X027268Y048117D01*
Y048025D01*
X027292Y047936D01*
X027315Y047895D01*
X026715Y047295D01*
X026669Y047314D01*
Y052919D01*
X026845Y053095D01*
X028024D01*
Y052923D01*
X027952Y052881D01*
X027875Y052804D01*
X02782Y052709D01*
X027792Y052604D01*
Y052495D01*
X02782Y052389D01*
X027875Y052294D01*
X027952Y052217D01*
X028047Y052163D01*
X028152Y052134D01*
X028261D01*
X028367Y052163D01*
X028461Y052217D01*
X028539Y052294D01*
X028593Y052389D01*
X028622Y052495D01*
Y052604D01*
X028593Y052709D01*
X028539Y052804D01*
X028461Y052881D01*
X028367Y052936D01*
X02833Y052946D01*
Y053189D01*
X028318Y053248D01*
X028285Y053298D01*
X028276Y053307D01*
X028297Y053357D01*
X028564D01*
X028978Y052942D01*
X028972Y052893D01*
X028952Y052881D01*
X028875Y052804D01*
X02882Y052709D01*
X028792Y052604D01*
Y052495D01*
X02882Y052389D01*
X028875Y052294D01*
X028952Y052217D01*
X029047Y052163D01*
X029152Y052134D01*
X029261D01*
X029367Y052163D01*
X029461Y052217D01*
X029539Y052294D01*
X029593Y052389D01*
X029622Y052495D01*
Y052604D01*
X029593Y052709D01*
X029539Y052804D01*
X029461Y052881D01*
X029367Y052936D01*
X02933Y052946D01*
Y05296D01*
X029318Y053019D01*
X029285Y053068D01*
X028735Y053618D01*
X028686Y053651D01*
X028627Y053663D01*
D02*
G37*
G36*
X027622Y052499D02*
X027257D01*
Y052134D01*
X027622D01*
Y052499D01*
D02*
G37*
G36*
X027157D02*
X026792D01*
Y052134D01*
X027157D01*
Y052499D01*
D02*
G37*
G36*
X048331Y051891D02*
X04831D01*
X048299Y051889D01*
X048289Y051891D01*
X048128D01*
X048117Y051889D01*
X048107Y051891D01*
X048085D01*
X048046Y051883D01*
X048021Y051867D01*
X047996Y051883D01*
X047957Y051891D01*
X047807D01*
X047768Y051883D01*
X047754Y051874D01*
X047747Y051873D01*
X047742Y05187D01*
X047679D01*
X04764Y051862D01*
X047607Y05184D01*
X047585Y051807D01*
X047577Y051768D01*
Y051757D01*
X047585Y051718D01*
X047607Y051685D01*
X047613Y051681D01*
X047617Y051674D01*
X04765Y051652D01*
X047654Y051652D01*
X04766Y051642D01*
X047692Y051621D01*
X047707Y051599D01*
X047713Y051568D01*
X047731Y051541D01*
X047734Y051526D01*
X047752Y051499D01*
X047756Y051492D01*
X04776Y051486D01*
X047734Y051446D01*
X047726Y051447D01*
X0477Y051453D01*
X047679D01*
X04764Y051445D01*
X047607Y051423D01*
X047602Y051416D01*
X047596Y051412D01*
X047592Y051406D01*
X047585Y051401D01*
X047563Y051368D01*
X047555Y051329D01*
Y051276D01*
X047559Y051256D01*
X047554Y051228D01*
X047526Y051202D01*
X047511Y051199D01*
X047498Y051189D01*
X04749Y051188D01*
X047457Y051166D01*
X047453Y051159D01*
X047446Y051155D01*
X047424Y051122D01*
X047423Y051114D01*
X047413Y051101D01*
X047412Y051093D01*
X047403Y051079D01*
X047395Y05104D01*
Y051019D01*
X047403Y05098D01*
X047412Y050966D01*
X047413Y050958D01*
X047423Y050945D01*
X047424Y050937D01*
X047446Y050904D01*
X047453Y0509D01*
X047457Y050893D01*
X047463Y050889D01*
X047468Y050883D01*
X047501Y05086D01*
X04754Y050853D01*
X047625D01*
X047664Y05086D01*
X047697Y050883D01*
X047702Y050889D01*
X047708Y050893D01*
X047712Y0509D01*
X047719Y050904D01*
X047741Y050937D01*
X047742Y050945D01*
X047752Y050958D01*
X047759Y050997D01*
Y051072D01*
X047752Y051111D01*
X047745Y051121D01*
X047741Y051159D01*
X047759Y051184D01*
X047759Y051184D01*
X047772Y051193D01*
X047777Y051199D01*
X047783Y051204D01*
X047805Y051237D01*
X047807Y051244D01*
X047816Y051258D01*
X047824Y051297D01*
Y05134D01*
X047816Y051379D01*
X047794Y051412D01*
X047771Y051427D01*
X04779Y05147D01*
X047807Y051467D01*
X047829Y051463D01*
X04785D01*
X047889Y05147D01*
X047922Y051492D01*
X047926Y051499D01*
X047933Y051503D01*
X047946Y051522D01*
X047965Y051535D01*
X047969Y051542D01*
X047976Y051546D01*
X04798Y051552D01*
X047986Y051557D01*
X047991Y051563D01*
X047991Y051564D01*
X048007Y051567D01*
X048034Y051585D01*
X048049Y051588D01*
X048083Y05161D01*
X048084Y051613D01*
X048085Y051612D01*
X048162D01*
X048163Y05161D01*
X048196Y051588D01*
X048211Y051585D01*
X048239Y051567D01*
X048254Y051564D01*
X048268Y051554D01*
X048281Y051535D01*
X048305Y051519D01*
X048312Y051483D01*
X04833Y051455D01*
X048334Y05144D01*
X048343Y051426D01*
X048344Y051419D01*
X048358Y051398D01*
Y051296D01*
X048356Y051294D01*
X048334Y051261D01*
X048326Y051222D01*
Y051201D01*
X048334Y051162D01*
X048356Y051129D01*
X048389Y051107D01*
X048428Y051099D01*
X048465D01*
X048485Y051085D01*
X048524Y051077D01*
X048536D01*
X048538Y051075D01*
X048571Y051053D01*
X04861Y051045D01*
X048614D01*
X048635Y051032D01*
X048663Y051026D01*
X048666Y051022D01*
X048679Y051013D01*
X048687Y051D01*
X04872Y050978D01*
X048736Y050975D01*
X048763Y050957D01*
X048767Y050956D01*
X048773Y050947D01*
X048786Y050938D01*
X048794Y050925D01*
X048814Y050913D01*
X048826Y050893D01*
X048839Y050885D01*
X048848Y050872D01*
X048867Y050859D01*
X04888Y05084D01*
X048886Y050836D01*
X048891Y050829D01*
X04891Y050816D01*
X048922Y050798D01*
X048922Y050798D01*
X048944Y050765D01*
X048963Y050752D01*
X048972Y050738D01*
X048975Y050723D01*
X048997Y050691D01*
X048997Y050691D01*
X049019Y050658D01*
X049023Y050655D01*
X049029Y050627D01*
X049051Y050594D01*
X049055Y050591D01*
X049061Y050563D01*
X049075Y050542D01*
Y050516D01*
X049082Y050477D01*
X049101Y05045D01*
X049102Y050441D01*
X049096Y050409D01*
Y050334D01*
X049104Y050295D01*
X049107Y050291D01*
Y050249D01*
X049104Y050245D01*
X049096Y050206D01*
Y05018D01*
X049082Y050159D01*
X049075Y05012D01*
Y050094D01*
X049061Y050074D01*
X049053Y050035D01*
Y050012D01*
X049051Y05001D01*
X049029Y049977D01*
X049023Y049947D01*
X049008Y049924D01*
X049002Y049896D01*
X048998Y049893D01*
X048975Y04986D01*
X048972Y049844D01*
X048954Y049817D01*
X048948Y049786D01*
X048942Y049777D01*
X048923Y049764D01*
X048901Y049731D01*
X048901Y049731D01*
X048879Y049699D01*
X048876Y049684D01*
X048876Y049683D01*
X048869Y049679D01*
X048861Y049666D01*
X048848Y049657D01*
X048826Y049624D01*
X048818Y049585D01*
Y049553D01*
X048826Y049514D01*
X048848Y049481D01*
Y049453D01*
X048843Y049445D01*
X048803Y049409D01*
X048802D01*
X048763Y049401D01*
X04873Y049379D01*
X048722Y049366D01*
X04871Y049358D01*
X04871Y049358D01*
X048677Y049336D01*
X048675Y049334D01*
X048674Y049334D01*
X048631D01*
X048592Y049326D01*
X048559Y049304D01*
X048555Y049298D01*
X048549Y049294D01*
X048549Y049294D01*
X048516Y049272D01*
X048494Y049239D01*
X048486Y0492D01*
Y049179D01*
X048494Y04914D01*
X048516Y049107D01*
X048523Y049102D01*
X048527Y049096D01*
X04856Y049074D01*
X048599Y049066D01*
X048623Y049026D01*
X048622Y049014D01*
X048615Y048975D01*
Y048922D01*
X048622Y048883D01*
X048644Y04885D01*
X048678Y048828D01*
X048717Y04882D01*
X048727D01*
X048766Y048828D01*
X048798Y048849D01*
X048798Y048849D01*
X048822Y048865D01*
X048834Y048863D01*
X048946D01*
X048966Y048849D01*
X04897Y048848D01*
X048976Y048839D01*
X049009Y048817D01*
X049025Y048814D01*
X049038Y048805D01*
X049051Y048786D01*
X049064Y048777D01*
X049072Y048764D01*
X049079Y04876D01*
X049083Y048753D01*
X049096Y048745D01*
X049101Y048738D01*
X049104Y048722D01*
X049126Y048689D01*
X04913Y048686D01*
X049136Y048658D01*
X04915Y048638D01*
Y048553D01*
X049136Y048533D01*
X04913Y048502D01*
X049115Y048479D01*
X049113Y048472D01*
X049104Y048458D01*
X049104Y048458D01*
X049096Y048446D01*
X049083Y048438D01*
X049079Y048431D01*
X049072Y048427D01*
X049051Y048395D01*
X049019Y048373D01*
X049015Y048367D01*
X049009Y048363D01*
X049009Y048363D01*
X048989Y04835D01*
X048973D01*
X048934Y048342D01*
X048908Y048324D01*
X048888Y048328D01*
X048856D01*
X048845Y048326D01*
X048834Y048328D01*
X048824D01*
X048785Y048321D01*
X048753Y048299D01*
X048752Y048299D01*
X048719Y048277D01*
X048707Y048258D01*
X048688Y048246D01*
X048688Y048246D01*
X048655Y048224D01*
X048651Y048217D01*
X04865Y048217D01*
X048635Y048214D01*
X048603Y048192D01*
X048603Y048192D01*
X048598Y048189D01*
X04856Y048182D01*
X048539Y048168D01*
X048524D01*
X048485Y04816D01*
X048452Y048138D01*
X048435Y048139D01*
X048396Y048146D01*
X048321D01*
X048289Y04814D01*
X048257Y048146D01*
X048252D01*
X048231Y04816D01*
X048192Y048168D01*
X048134D01*
X048114Y048182D01*
X048091Y048186D01*
X048082Y048192D01*
X048066Y048195D01*
X048039Y048214D01*
X048001Y048221D01*
X047996Y048224D01*
X047957Y048232D01*
X047946D01*
X047907Y048224D01*
X047874Y048202D01*
X047852Y048169D01*
X047844Y04813D01*
Y048109D01*
X047852Y04807D01*
X047874Y048037D01*
X0479Y048019D01*
X047917Y047994D01*
X04795Y047972D01*
X04795Y047972D01*
X047955Y047968D01*
X04796Y047962D01*
X047966Y047957D01*
X04797Y047951D01*
X047977Y047947D01*
X047981Y04794D01*
X047988Y047936D01*
X047992Y04793D01*
X047998Y047925D01*
X048003Y047919D01*
X048015Y04791D01*
X048024Y047898D01*
X048057Y047875D01*
X048072Y047872D01*
X048073Y047872D01*
X048077Y047865D01*
X048111Y047843D01*
X048111Y047843D01*
X048143Y047822D01*
X048171Y047816D01*
X048174Y047812D01*
X048207Y04779D01*
X048237Y047784D01*
X04826Y047768D01*
X048299Y047761D01*
X048471D01*
X04851Y047768D01*
X048543Y047791D01*
X048544Y047793D01*
X048545D01*
X048584Y047801D01*
X048607Y047816D01*
X048638Y047822D01*
X04867Y047843D01*
X04867Y047843D01*
X048703Y047865D01*
X048707Y047872D01*
X048714Y047876D01*
X048722Y047889D01*
X048734Y047897D01*
X048734Y047897D01*
X04874Y0479D01*
X048774Y047906D01*
X048798Y047894D01*
X048804Y047889D01*
X048804Y047888D01*
X048805Y047887D01*
X048826Y047856D01*
X048826Y047856D01*
X048848Y047823D01*
X048854Y047818D01*
X048858Y047812D01*
X048892Y04779D01*
X048931Y047782D01*
X048935D01*
X048944Y047769D01*
X048977Y047747D01*
X049016Y047739D01*
X049048D01*
X049052Y047736D01*
X049091Y047729D01*
X049145D01*
X049184Y047736D01*
X049188Y047739D01*
X049219D01*
X049258Y047747D01*
X049279Y047761D01*
X049284D01*
X049323Y047768D01*
X049356Y047791D01*
X049362Y0478D01*
X049365Y047801D01*
X049397Y047822D01*
X049398Y047822D01*
X049431Y047844D01*
X049435Y04785D01*
X04944Y047854D01*
X04944Y047854D01*
X049473Y047876D01*
X049478Y047883D01*
X049484Y047887D01*
X049488Y047893D01*
X049495Y047898D01*
X049517Y047931D01*
X049518Y047938D01*
X049526Y04794D01*
X049559Y047962D01*
X049568Y047975D01*
X04958Y047983D01*
X049603Y048016D01*
X049603Y048016D01*
X049606Y048022D01*
X049613Y048026D01*
X049635Y048059D01*
X049641Y04809D01*
X049656Y048112D01*
X049659Y048128D01*
X049677Y048155D01*
X049685Y048194D01*
Y048226D01*
X049688Y04823D01*
X049696Y048269D01*
Y048333D01*
X049693Y048349D01*
X049696Y048365D01*
Y048387D01*
X049688Y048426D01*
X049685Y04843D01*
Y048494D01*
X049677Y048533D01*
X049664Y048553D01*
Y048612D01*
X049656Y048651D01*
X049638Y048677D01*
X049642Y048697D01*
Y048729D01*
X049635Y048768D01*
X049621Y048789D01*
Y048804D01*
X049613Y048843D01*
X049604Y048857D01*
X049603Y048865D01*
X049589Y048885D01*
Y04889D01*
X049581Y048929D01*
X049559Y048962D01*
X049557Y048963D01*
X049557Y048965D01*
Y048975D01*
X049549Y049014D01*
X049535Y049035D01*
Y04904D01*
X049528Y049079D01*
X049512Y049101D01*
X049506Y049132D01*
X049484Y049165D01*
X049477Y04917D01*
X049474Y049186D01*
X049456Y049213D01*
X049453Y049228D01*
X049434Y049256D01*
X049431Y049271D01*
X049422Y049285D01*
X049421Y049293D01*
X049402Y04932D01*
X049399Y049335D01*
X049378Y049367D01*
X049378Y049367D01*
X049359Y049395D01*
X049356Y04941D01*
X049334Y049443D01*
X049328Y049448D01*
X049324Y049453D01*
X049324Y049453D01*
X049302Y049486D01*
X049296Y04949D01*
X049292Y049496D01*
X049292Y049496D01*
X049271Y049528D01*
X049271Y049528D01*
X049249Y049561D01*
X049239Y049568D01*
X04923Y049578D01*
X049227Y049582D01*
Y049603D01*
X049233Y049639D01*
X049249Y049663D01*
X049281Y049684D01*
X049303Y049717D01*
X049306Y049733D01*
X049324Y04976D01*
X049327Y049776D01*
X049346Y049803D01*
X049346Y049806D01*
X049356Y049813D01*
X049378Y049846D01*
X049386Y049885D01*
Y04989D01*
X049399Y04991D01*
X049399Y04991D01*
X049421Y049942D01*
X049425Y049965D01*
X049431Y049974D01*
X049431Y049974D01*
X049453Y050006D01*
X049459Y050037D01*
X049474Y05006D01*
X049482Y050099D01*
Y050125D01*
X049496Y050145D01*
X049497Y050153D01*
X049506Y050167D01*
X049514Y050206D01*
Y050211D01*
X049528Y050231D01*
X049535Y05027D01*
Y050382D01*
X049549Y050402D01*
X049557Y050441D01*
Y050547D01*
X04956Y050552D01*
X049567Y050591D01*
Y050655D01*
X04956Y050694D01*
X049557Y050699D01*
X049549Y050737D01*
X049533Y050761D01*
X049535Y050773D01*
Y050858D01*
X049528Y050897D01*
X049514Y050918D01*
Y050933D01*
X049506Y050972D01*
X049497Y050986D01*
X049496Y050994D01*
X049482Y051014D01*
Y051019D01*
X049474Y051058D01*
X049461Y051078D01*
Y051083D01*
X049453Y051122D01*
X049431Y051155D01*
X049424Y05116D01*
X049421Y051176D01*
X049402Y051203D01*
X049399Y051218D01*
X049377Y051251D01*
X049371Y051256D01*
X04937Y051257D01*
X049367Y051272D01*
X049345Y051305D01*
X049339Y051309D01*
X049335Y051315D01*
X049335Y051315D01*
X049326Y051328D01*
X049324Y051336D01*
X049302Y051369D01*
X049283Y051382D01*
X04927Y051401D01*
X049257Y05141D01*
X049249Y051422D01*
X049249Y051422D01*
X049228Y051454D01*
X049228Y051454D01*
X049206Y051487D01*
X049173Y051509D01*
X049173Y051509D01*
X049161Y051517D01*
X049152Y05153D01*
X049119Y051552D01*
X049104Y051555D01*
X049097Y05156D01*
X049088Y051572D01*
X049082Y051577D01*
X049078Y051583D01*
X049065Y051592D01*
X049056Y051605D01*
X049023Y051627D01*
X049023Y051627D01*
X049018Y05163D01*
X049013Y051637D01*
X04898Y051659D01*
X048944Y051666D01*
X048928Y05169D01*
X048895Y051712D01*
X048864Y051718D01*
X048841Y051734D01*
X048826Y051737D01*
X048798Y051755D01*
X048759Y051763D01*
X048758D01*
X048757Y051765D01*
X048724Y051787D01*
X048693Y051793D01*
X04867Y051809D01*
X048631Y051816D01*
X048616D01*
X048595Y05183D01*
X048556Y051838D01*
X048525D01*
X04852Y051841D01*
X04852Y051841D01*
X048488Y051862D01*
X048449Y05187D01*
X048391D01*
X04837Y051883D01*
X048331Y051891D01*
D02*
G37*
G36*
X047358Y05172D02*
X047336D01*
X047297Y051712D01*
X047264Y05169D01*
X04726Y051684D01*
X047255Y05168D01*
X047255Y05168D01*
X047221Y051658D01*
X047215Y051649D01*
X047212Y051648D01*
X047184Y05163D01*
X047169Y051627D01*
X047137Y051605D01*
X047137Y051605D01*
X047104Y051583D01*
X047095Y05157D01*
X047082Y051562D01*
X047078Y051555D01*
X047072Y051551D01*
X047067Y051545D01*
X047061Y05154D01*
X047057Y051534D01*
X04705Y05153D01*
X047046Y051523D01*
X04704Y051519D01*
X047035Y051513D01*
X04703Y051509D01*
X04703Y051509D01*
X046997Y051487D01*
X046975Y051454D01*
X046975Y051454D01*
X046953Y051422D01*
X046953Y051418D01*
X046943Y051412D01*
X046921Y051379D01*
X046921Y051379D01*
X0469Y051347D01*
X0469Y051347D01*
X046878Y051315D01*
X046878Y051311D01*
X046868Y051305D01*
X046846Y051272D01*
X04684Y051241D01*
X046825Y051218D01*
X046823Y051211D01*
X046814Y051197D01*
X046808Y051166D01*
X046793Y051143D01*
X046785Y051104D01*
Y051072D01*
X046793Y051033D01*
X046815Y051D01*
X046848Y050978D01*
X046887Y05097D01*
X046898D01*
X046937Y050978D01*
X04697Y051D01*
X046987Y051026D01*
X047013Y051043D01*
X047017Y051049D01*
X047023Y051054D01*
X047036Y051073D01*
X047044Y051074D01*
X047057Y051084D01*
X047065Y051085D01*
X047086Y051099D01*
X04709D01*
X047129Y051107D01*
X047152Y051122D01*
X047183Y051128D01*
X04721Y051146D01*
X047226Y051149D01*
X047235Y051156D01*
X047258Y05116D01*
X047291Y051182D01*
X047313Y051215D01*
X047317Y051238D01*
X047324Y051247D01*
X047331Y051286D01*
Y051345D01*
X047345Y051365D01*
X047353Y051404D01*
Y05142D01*
X047366Y05144D01*
X04737Y051456D01*
X047376Y05146D01*
X047399Y051493D01*
X047399Y051494D01*
X047411Y051512D01*
X04743Y051525D01*
X047452Y051558D01*
X04746Y051597D01*
Y051618D01*
X047452Y051657D01*
X04743Y05169D01*
X047397Y051712D01*
X047358Y05172D01*
D02*
G37*
G36*
X04846Y050201D02*
X048385D01*
X048346Y050193D01*
X048337Y050187D01*
X048328Y050193D01*
X048289Y050201D01*
X048214D01*
X048175Y050193D01*
X048161Y050184D01*
X048153Y050182D01*
X048129Y050166D01*
X048117Y050169D01*
X048085D01*
X048046Y050161D01*
X048013Y050139D01*
X047998Y050116D01*
X047996Y050118D01*
X047957Y050126D01*
X047936D01*
X047897Y050118D01*
X047863Y050096D01*
X047859Y05009D01*
X047854Y050086D01*
X047854Y050086D01*
X047826Y050068D01*
X047811Y050065D01*
X047778Y050042D01*
X047765Y050023D01*
X047747Y050011D01*
X047747Y050011D01*
X047714Y049989D01*
X047709Y049983D01*
X047703Y049978D01*
X047681Y049945D01*
X047681Y049945D01*
X047677Y04994D01*
X047671Y049935D01*
X047658Y049916D01*
X047639Y049903D01*
X047634Y049897D01*
X047628Y049893D01*
X047606Y04986D01*
X047604Y049852D01*
X047595Y049838D01*
X047588Y049799D01*
Y049787D01*
X047585Y049786D01*
X047563Y049753D01*
X047555Y049714D01*
Y049681D01*
X04756Y04966D01*
X047555Y049639D01*
Y049607D01*
X047563Y049568D01*
X047566Y049563D01*
X047574Y049525D01*
X047596Y049492D01*
X047629Y04947D01*
X047629Y04947D01*
X047634Y049466D01*
X047639Y04946D01*
X047672Y049437D01*
X047711Y04943D01*
X047712D01*
X047714Y049427D01*
X047747Y049405D01*
X047786Y049398D01*
X047807D01*
X047845Y049405D01*
X047882Y049398D01*
X047908D01*
X047929Y049384D01*
X047968Y049376D01*
X048021D01*
X04806Y049384D01*
X048093Y049406D01*
X048121Y049437D01*
X04816Y04943D01*
X048203D01*
X048242Y049437D01*
X048265Y049453D01*
X048296Y049459D01*
X048329Y049481D01*
X048351Y049514D01*
X048353Y049526D01*
X048392Y049534D01*
X048425Y049556D01*
X048429Y049562D01*
X048436Y049567D01*
X04844Y049573D01*
X048446Y049577D01*
X048451Y049584D01*
X048457Y049588D01*
X048461Y049594D01*
X048468Y049599D01*
X048476Y049612D01*
X048489Y04962D01*
X048493Y049626D01*
X0485Y049631D01*
X048513Y04965D01*
X048532Y049663D01*
X04854Y049676D01*
X048553Y049684D01*
X048558Y049691D01*
X048564Y049695D01*
X048573Y049708D01*
X048585Y049716D01*
X048608Y049749D01*
X048611Y049765D01*
X048629Y049792D01*
X04863Y049796D01*
X048639Y049802D01*
X048661Y049835D01*
X048661Y049835D01*
X048682Y049867D01*
X048685Y049882D01*
X048704Y04991D01*
X048707Y049925D01*
X048707Y049926D01*
X048714Y04993D01*
X048736Y049963D01*
X048744Y050002D01*
Y050024D01*
X048736Y050063D01*
X048714Y050096D01*
X048681Y050118D01*
X048653Y050124D01*
X04865Y050128D01*
X048617Y05015D01*
X048609Y050152D01*
X048595Y050161D01*
X048587Y050162D01*
X048574Y050172D01*
X048535Y050179D01*
X048524D01*
X04852Y050179D01*
X048499Y050193D01*
X04846Y050201D01*
D02*
G37*
G36*
X04785Y048992D02*
X047818D01*
X047779Y048984D01*
X047746Y048962D01*
X047741Y048955D01*
X047735Y048951D01*
X047713Y048918D01*
X047705Y048879D01*
Y048868D01*
X047713Y048829D01*
X047735Y048796D01*
X047741Y048792D01*
X047746Y048786D01*
X047779Y048763D01*
X047818Y048756D01*
X047839D01*
X047878Y048763D01*
X047911Y048786D01*
X047933Y048819D01*
X047935Y048826D01*
X047944Y04884D01*
X047952Y048879D01*
Y04889D01*
X047944Y048929D01*
X047922Y048962D01*
X047889Y048984D01*
X04785Y048992D01*
D02*
G37*
G36*
X047326Y04943D02*
X047294D01*
X047255Y049423D01*
X047234Y049409D01*
X047208D01*
X047169Y049401D01*
X047136Y049379D01*
X047131Y049372D01*
X047115Y049369D01*
X047084Y049348D01*
X047083Y049348D01*
X04705Y049326D01*
X047046Y049319D01*
X047045Y049319D01*
X04703Y049316D01*
X046998Y049294D01*
X046998Y049294D01*
X046965Y049272D01*
X046952Y049253D01*
X046934Y049241D01*
X046934Y049241D01*
X046902Y049219D01*
X046902Y049219D01*
X046868Y049197D01*
X046846Y049164D01*
X046839Y049125D01*
Y049093D01*
X046846Y049054D01*
X046868Y049021D01*
X046902Y048999D01*
X046926Y048994D01*
X046943Y048967D01*
X046975Y048946D01*
X046993Y04892D01*
X046996Y048904D01*
X047018Y048871D01*
X047023Y048868D01*
X047028Y04884D01*
X047044Y048816D01*
X047048Y048788D01*
X047044Y04876D01*
X047028Y048736D01*
X04702Y048697D01*
Y048686D01*
X047028Y048647D01*
X04705Y048614D01*
X047083Y048592D01*
X047122Y048584D01*
X047165D01*
X047204Y048592D01*
X047227Y048608D01*
X047229Y048608D01*
X04724Y048606D01*
X047304D01*
X047343Y048614D01*
X047365Y048628D01*
X047368Y048627D01*
X04739D01*
X047429Y048635D01*
X047438Y048641D01*
X047461Y048646D01*
X047481Y048659D01*
X047486D01*
X047525Y048667D01*
X047558Y048689D01*
X04758Y048722D01*
X047588Y048761D01*
Y048772D01*
X04758Y048811D01*
X047567Y048831D01*
Y048836D01*
X047559Y048875D01*
X047556Y04888D01*
X047548Y048918D01*
X047547Y04892D01*
X047537Y048967D01*
X047541Y048974D01*
X047548Y048978D01*
X04757Y049011D01*
X047571Y049019D01*
X04758Y049033D01*
X047583Y049048D01*
X047593Y049062D01*
X047612Y049074D01*
X047616Y049081D01*
X047622Y049085D01*
X047645Y049118D01*
X047652Y049157D01*
Y049168D01*
X047645Y049207D01*
X047622Y04924D01*
X047589Y049262D01*
X04755Y04927D01*
X047549D01*
X047548Y049272D01*
X047515Y049294D01*
X047478Y049301D01*
X047462Y049326D01*
X04743Y049347D01*
X047421Y04936D01*
X04742Y049367D01*
X047398Y049401D01*
X047365Y049423D01*
X047326Y04943D01*
D02*
G37*
G36*
X031261Y052964D02*
X031152D01*
X031047Y052936D01*
X030952Y052881D01*
X030875Y052804D01*
X03082Y052709D01*
X030792Y052604D01*
Y052495D01*
X03082Y052389D01*
X030875Y052294D01*
X030952Y052217D01*
X031024Y052175D01*
Y038419D01*
X030962Y038383D01*
X030897Y038318D01*
X030851Y038238D01*
X030827Y038149D01*
Y038057D01*
X030851Y037968D01*
X030897Y037888D01*
X030962Y037823D01*
X031042Y037777D01*
X031131Y037753D01*
X031223D01*
X031312Y037777D01*
X031392Y037823D01*
X031457Y037888D01*
X031503Y037968D01*
X031527Y038057D01*
Y038149D01*
X031503Y038238D01*
X031457Y038318D01*
X031392Y038383D01*
X03133Y038419D01*
Y052153D01*
X031367Y052163D01*
X031461Y052217D01*
X031539Y052294D01*
X031593Y052389D01*
X031622Y052495D01*
Y052604D01*
X031593Y052709D01*
X031539Y052804D01*
X031461Y052881D01*
X031367Y052936D01*
X031261Y052964D01*
D02*
G37*
G36*
X032261D02*
X032152D01*
X032047Y052936D01*
X031952Y052881D01*
X031875Y052804D01*
X03182Y052709D01*
X031792Y052604D01*
Y052495D01*
X03182Y052389D01*
X031875Y052294D01*
X031952Y052217D01*
X032024Y052175D01*
Y036246D01*
X032036Y036188D01*
X032069Y036138D01*
X034719Y033489D01*
X0347Y03342D01*
Y033328D01*
X034724Y033239D01*
X03477Y033159D01*
X034835Y033094D01*
X034915Y033047D01*
X035004Y033024D01*
X035096D01*
X035185Y033047D01*
X035265Y033094D01*
X03533Y033159D01*
X035376Y033239D01*
X0354Y033328D01*
Y03342D01*
X035376Y033509D01*
X03533Y033589D01*
X035265Y033654D01*
X035185Y0337D01*
X035096Y033724D01*
X035004D01*
X034935Y033705D01*
X03233Y03631D01*
Y052153D01*
X032367Y052163D01*
X032461Y052217D01*
X032539Y052294D01*
X032593Y052389D01*
X032622Y052495D01*
Y052604D01*
X032593Y052709D01*
X032539Y052804D01*
X032461Y052881D01*
X032367Y052936D01*
X032261Y052964D01*
D02*
G37*
G36*
X024846Y029422D02*
X024833D01*
Y028997D01*
X025258D01*
Y029009D01*
X025226Y02913D01*
X025164Y029239D01*
X025075Y029327D01*
X024967Y029389D01*
X024846Y029422D01*
D02*
G37*
G36*
X024733D02*
X024721D01*
X0246Y029389D01*
X024492Y029327D01*
X024403Y029239D01*
X024341Y02913D01*
X024308Y029009D01*
Y028997D01*
X024733D01*
Y029422D01*
D02*
G37*
G36*
X060742Y029572D02*
X059943D01*
Y028774D01*
X060742D01*
Y029572D01*
D02*
G37*
G36*
X059395D02*
X05929D01*
X059188Y029545D01*
X059097Y029493D01*
X059023Y029418D01*
X058971Y029327D01*
X058943Y029226D01*
Y029121D01*
X058971Y029019D01*
X059023Y028928D01*
X059097Y028854D01*
X059188Y028801D01*
X05929Y028774D01*
X059395D01*
X059497Y028801D01*
X059588Y028854D01*
X059662Y028928D01*
X059715Y029019D01*
X059742Y029121D01*
Y029226D01*
X059715Y029327D01*
X059662Y029418D01*
X059588Y029493D01*
X059497Y029545D01*
X059395Y029572D01*
D02*
G37*
G36*
X058395D02*
X05829D01*
X058188Y029545D01*
X058097Y029493D01*
X058023Y029418D01*
X057971Y029327D01*
X057943Y029226D01*
Y029121D01*
X057971Y029019D01*
X058023Y028928D01*
X058097Y028854D01*
X058188Y028801D01*
X05829Y028774D01*
X058395D01*
X058497Y028801D01*
X058588Y028854D01*
X058662Y028928D01*
X058715Y029019D01*
X058742Y029121D01*
Y029226D01*
X058715Y029327D01*
X058662Y029418D01*
X058588Y029493D01*
X058497Y029545D01*
X058395Y029572D01*
D02*
G37*
G36*
X057395D02*
X05729D01*
X057188Y029545D01*
X057097Y029493D01*
X057023Y029418D01*
X056971Y029327D01*
X056943Y029226D01*
Y029121D01*
X056971Y029019D01*
X057023Y028928D01*
X057097Y028854D01*
X057188Y028801D01*
X05729Y028774D01*
X057395D01*
X057497Y028801D01*
X057588Y028854D01*
X057662Y028928D01*
X057715Y029019D01*
X057742Y029121D01*
Y029226D01*
X057715Y029327D01*
X057662Y029418D01*
X057588Y029493D01*
X057497Y029545D01*
X057395Y029572D01*
D02*
G37*
G36*
X056395D02*
X05629D01*
X056188Y029545D01*
X056097Y029493D01*
X056023Y029418D01*
X055971Y029327D01*
X055943Y029226D01*
Y029121D01*
X055971Y029019D01*
X056023Y028928D01*
X056097Y028854D01*
X056188Y028801D01*
X05629Y028774D01*
X056395D01*
X056497Y028801D01*
X056588Y028854D01*
X056662Y028928D01*
X056715Y029019D01*
X056742Y029121D01*
Y029226D01*
X056715Y029327D01*
X056662Y029418D01*
X056588Y029493D01*
X056497Y029545D01*
X056395Y029572D01*
D02*
G37*
G36*
X052395D02*
X05229D01*
X052188Y029545D01*
X052097Y029493D01*
X052023Y029418D01*
X051971Y029327D01*
X051943Y029226D01*
Y029121D01*
X051971Y029019D01*
X052023Y028928D01*
X052097Y028854D01*
X052188Y028801D01*
X05229Y028774D01*
X052395D01*
X052497Y028801D01*
X052588Y028854D01*
X052662Y028928D01*
X052715Y029019D01*
X052742Y029121D01*
Y029226D01*
X052715Y029327D01*
X052662Y029418D01*
X052588Y029493D01*
X052497Y029545D01*
X052395Y029572D01*
D02*
G37*
G36*
X04698D02*
X046875D01*
X046773Y029545D01*
X046682Y029493D01*
X046608Y029418D01*
X046555Y029327D01*
X046528Y029226D01*
Y029121D01*
X046555Y029019D01*
X046608Y028928D01*
X046682Y028854D01*
X046773Y028801D01*
X046875Y028774D01*
X04698D01*
X047081Y028801D01*
X047172Y028854D01*
X047247Y028928D01*
X047299Y029019D01*
X047326Y029121D01*
Y029226D01*
X047299Y029327D01*
X047247Y029418D01*
X047172Y029493D01*
X047081Y029545D01*
X04698Y029572D01*
D02*
G37*
G36*
X025258Y028897D02*
X024833D01*
Y028472D01*
X024846D01*
X024967Y028504D01*
X025075Y028567D01*
X025164Y028655D01*
X025226Y028764D01*
X025258Y028884D01*
Y028897D01*
D02*
G37*
G36*
X024733D02*
X024308D01*
Y028884D01*
X024341Y028764D01*
X024403Y028655D01*
X024492Y028567D01*
X0246Y028504D01*
X024721Y028472D01*
X024733D01*
Y028897D01*
D02*
G37*
G36*
X05252Y027834D02*
X052234D01*
Y027508D01*
X05252D01*
Y027834D01*
D02*
G37*
G36*
X052134D02*
X051848D01*
Y027508D01*
X052134D01*
Y027834D01*
D02*
G37*
G36*
X049859Y027827D02*
X049573D01*
Y027501D01*
X049859D01*
Y027827D01*
D02*
G37*
G36*
X049473D02*
X049187D01*
Y027501D01*
X049473D01*
Y027827D01*
D02*
G37*
G36*
X05252Y027408D02*
X052234D01*
Y027083D01*
X05252D01*
Y027408D01*
D02*
G37*
G36*
X052134D02*
X051848D01*
Y027083D01*
X052134D01*
Y027408D01*
D02*
G37*
G36*
X049859Y027401D02*
X049573D01*
Y027076D01*
X049859D01*
Y027401D01*
D02*
G37*
G36*
X049473D02*
X049187D01*
Y027076D01*
X049473D01*
Y027401D01*
D02*
G37*
G36*
X057785Y026173D02*
X05778D01*
Y025808D01*
X058145D01*
Y025813D01*
X058117Y025918D01*
X058062Y026013D01*
X057985Y02609D01*
X05789Y026145D01*
X057785Y026173D01*
D02*
G37*
G36*
X05768D02*
X057676D01*
X05757Y026145D01*
X057476Y02609D01*
X057398Y026013D01*
X057344Y025918D01*
X057315Y025813D01*
Y025808D01*
X05768D01*
Y026173D01*
D02*
G37*
G36*
X035561Y026011D02*
X035552D01*
Y025461D01*
X036102D01*
Y025471D01*
X036079Y025586D01*
X036034Y025696D01*
X035968Y025794D01*
X035884Y025877D01*
X035786Y025943D01*
X035677Y025988D01*
X035561Y026011D01*
D02*
G37*
G36*
X035452D02*
X035443D01*
X035327Y025988D01*
X035218Y025943D01*
X035119Y025877D01*
X035036Y025794D01*
X03497Y025696D01*
X034925Y025586D01*
X034902Y025471D01*
Y025461D01*
X035452D01*
Y026011D01*
D02*
G37*
G36*
X060785Y026173D02*
X060676D01*
X06057Y026145D01*
X060476Y02609D01*
X060398Y026013D01*
X060344Y025918D01*
X060315Y025813D01*
Y025703D01*
X060344Y025598D01*
X060398Y025503D01*
X060476Y025426D01*
X06057Y025371D01*
X060676Y025343D01*
X060785D01*
X06089Y025371D01*
X060985Y025426D01*
X061062Y025503D01*
X061117Y025598D01*
X061145Y025703D01*
Y025813D01*
X061117Y025918D01*
X061062Y026013D01*
X060985Y02609D01*
X06089Y026145D01*
X060785Y026173D01*
D02*
G37*
G36*
X059785D02*
X059676D01*
X05957Y026145D01*
X059476Y02609D01*
X059398Y026013D01*
X059344Y025918D01*
X059315Y025813D01*
Y025703D01*
X059344Y025598D01*
X059398Y025503D01*
X059476Y025426D01*
X05957Y025371D01*
X059676Y025343D01*
X059785D01*
X05989Y025371D01*
X059985Y025426D01*
X060062Y025503D01*
X060117Y025598D01*
X060145Y025703D01*
Y025813D01*
X060117Y025918D01*
X060062Y026013D01*
X059985Y02609D01*
X05989Y026145D01*
X059785Y026173D01*
D02*
G37*
G36*
X058785D02*
X058676D01*
X05857Y026145D01*
X058476Y02609D01*
X058398Y026013D01*
X058344Y025918D01*
X058315Y025813D01*
Y025703D01*
X058344Y025598D01*
X058398Y025503D01*
X058476Y025426D01*
X05857Y025371D01*
X058676Y025343D01*
X058785D01*
X05889Y025371D01*
X058985Y025426D01*
X059062Y025503D01*
X059117Y025598D01*
X059145Y025703D01*
Y025813D01*
X059117Y025918D01*
X059062Y026013D01*
X058985Y02609D01*
X05889Y026145D01*
X058785Y026173D01*
D02*
G37*
G36*
X058145Y025708D02*
X05778D01*
Y025343D01*
X057785D01*
X05789Y025371D01*
X057985Y025426D01*
X058062Y025503D01*
X058117Y025598D01*
X058145Y025703D01*
Y025708D01*
D02*
G37*
G36*
X05768D02*
X057315D01*
Y025703D01*
X057344Y025598D01*
X057398Y025503D01*
X057476Y025426D01*
X05757Y025371D01*
X057676Y025343D01*
X05768D01*
Y025708D01*
D02*
G37*
G36*
X036102Y025361D02*
X035552D01*
Y024811D01*
X035561D01*
X035677Y024834D01*
X035786Y02488D01*
X035884Y024945D01*
X035968Y025029D01*
X036034Y025127D01*
X036079Y025236D01*
X036102Y025352D01*
Y025361D01*
D02*
G37*
G36*
X035452D02*
X034902D01*
Y025352D01*
X034925Y025236D01*
X03497Y025127D01*
X035036Y025029D01*
X035119Y024945D01*
X035218Y02488D01*
X035327Y024834D01*
X035443Y024811D01*
X035452D01*
Y025361D01*
D02*
G37*
G36*
X024597Y024095D02*
X024247D01*
Y02372D01*
X024597D01*
Y024095D01*
D02*
G37*
G36*
X024147D02*
X023797D01*
Y02372D01*
X024147D01*
Y024095D01*
D02*
G37*
G36*
X026017D02*
X025217D01*
Y023245D01*
X026017D01*
Y023517D01*
X026092D01*
X026096Y023515D01*
X026154Y023503D01*
X026356D01*
Y023281D01*
X027028D01*
Y024032D01*
X026356D01*
Y023809D01*
X026202D01*
X026199Y023812D01*
X02614Y023823D01*
X026017D01*
Y024095D01*
D02*
G37*
G36*
X024597Y02362D02*
X024247D01*
Y023245D01*
X024597D01*
Y02362D01*
D02*
G37*
G36*
X024147D02*
X023797D01*
Y023245D01*
X024147D01*
Y02362D01*
D02*
G37*
G36*
X060179Y022817D02*
X059833D01*
Y02257D01*
X060179D01*
Y022817D01*
D02*
G37*
G36*
X059733D02*
X059388D01*
Y02257D01*
X059733D01*
Y022817D01*
D02*
G37*
G36*
X041055Y022863D02*
X041Y022856D01*
X040903Y022815D01*
X040819Y022751D01*
X040755Y022668D01*
X040715Y022571D01*
X040701Y022466D01*
Y022366D01*
X041055D01*
Y022863D01*
D02*
G37*
G36*
X060179Y02247D02*
X059833D01*
Y022223D01*
X060179D01*
Y02247D01*
D02*
G37*
G36*
X059733D02*
X059388D01*
Y022223D01*
X059733D01*
Y02247D01*
D02*
G37*
G36*
X061401Y021321D02*
X061075D01*
Y021035D01*
X061401D01*
Y021321D01*
D02*
G37*
G36*
X058841D02*
X058515D01*
Y021035D01*
X058841D01*
Y021321D01*
D02*
G37*
G36*
X060975D02*
X060649D01*
Y021035D01*
X060975D01*
Y021321D01*
D02*
G37*
G36*
X058415D02*
X05809D01*
Y021035D01*
X058415D01*
Y021321D01*
D02*
G37*
G36*
X061401Y020935D02*
X061075D01*
Y020649D01*
X061401D01*
Y020935D01*
D02*
G37*
G36*
X060975D02*
X060649D01*
Y020649D01*
X060975D01*
Y020935D01*
D02*
G37*
G36*
X058841D02*
X058515D01*
Y020649D01*
X058841D01*
Y020935D01*
D02*
G37*
G36*
X026906Y02123D02*
X026356D01*
Y02038D01*
X026906D01*
Y02123D01*
D02*
G37*
G36*
X026256D02*
X025706D01*
Y02038D01*
X026256D01*
Y02123D01*
D02*
G37*
G36*
X030442Y020316D02*
X030116D01*
Y020029D01*
X030442D01*
Y020316D01*
D02*
G37*
G36*
X030016D02*
X02969D01*
Y020029D01*
X030016D01*
Y020316D01*
D02*
G37*
G36*
X030442Y019929D02*
X030116D01*
Y019643D01*
X030442D01*
Y019929D01*
D02*
G37*
G36*
X030016D02*
X02969D01*
Y019643D01*
X030016D01*
Y019929D01*
D02*
G37*
G36*
X026906Y02028D02*
X026356D01*
Y01943D01*
X026906D01*
Y02028D01*
D02*
G37*
G36*
X026256D02*
X025706D01*
Y01943D01*
X026256D01*
Y02028D01*
D02*
G37*
G36*
X027756Y01893D02*
X026906D01*
Y01838D01*
X027756D01*
Y01893D01*
D02*
G37*
G36*
Y01828D02*
X026906D01*
Y01773D01*
X027756D01*
Y01828D01*
D02*
G37*
G36*
X041105Y01987D02*
X041Y019856D01*
X040903Y019815D01*
X040819Y019751D01*
X040755Y019668D01*
X040715Y01957D01*
X040701Y019466D01*
Y019166D01*
X040715Y019062D01*
X040755Y018964D01*
X040819Y018881D01*
X040903Y018817D01*
X040952Y018796D01*
Y018661D01*
X040899Y018608D01*
X040865Y018559D01*
X040854Y0185D01*
Y018129D01*
X040631D01*
Y017456D01*
X041382D01*
Y018129D01*
X04116D01*
Y018437D01*
X041213Y01849D01*
X041246Y018539D01*
X041258Y018598D01*
Y018796D01*
X041306Y018817D01*
X04139Y018881D01*
X041454Y018964D01*
X041494Y019062D01*
X041508Y019166D01*
Y019466D01*
X041494Y01957D01*
X041454Y019668D01*
X04139Y019751D01*
X041306Y019815D01*
X041209Y019856D01*
X041105Y01987D01*
D02*
G37*
G36*
X026342Y017486D02*
X026339D01*
Y017137D01*
X026689D01*
Y017139D01*
X026661Y017241D01*
X026609Y017332D01*
X026535Y017406D01*
X026443Y017459D01*
X026342Y017486D01*
D02*
G37*
G36*
X026239D02*
X026237D01*
X026135Y017459D01*
X026044Y017406D01*
X02597Y017332D01*
X025917Y017241D01*
X02589Y017139D01*
Y017137D01*
X026239D01*
Y017486D01*
D02*
G37*
G36*
X024689D02*
X02389D01*
Y016687D01*
X024689D01*
Y017486D01*
D02*
G37*
%LPD*%
G36*
X054097Y028854D02*
X054188Y028801D01*
X05429Y028774D01*
X054395D01*
X05444Y028786D01*
X054481Y028757D01*
X054552Y027662D01*
Y027499D01*
X054502Y027484D01*
X054498Y02749D01*
X054043Y027945D01*
Y028843D01*
X054089Y028862D01*
X054097Y028854D01*
D02*
G37*
G36*
X053737Y028958D02*
Y027882D01*
X053749Y027823D01*
X053782Y027774D01*
X054237Y027319D01*
Y027148D01*
X054187Y027132D01*
X054168Y02716D01*
X053495Y027833D01*
Y028801D01*
X053497Y028801D01*
X053588Y028854D01*
X053662Y028928D01*
X053687Y028972D01*
X053737Y028958D01*
D02*
G37*
G36*
X053907Y026989D02*
Y026193D01*
X053268D01*
Y02656D01*
X053256Y026619D01*
X053223Y026668D01*
X053085Y026806D01*
Y027083D01*
X053268D01*
Y027562D01*
X053314Y027582D01*
X053907Y026989D01*
D02*
G37*
G36*
X047997Y023538D02*
X047947Y023522D01*
X047943Y023528D01*
X047692Y023779D01*
Y025485D01*
X047728Y02552D01*
X047997D01*
Y023538D01*
D02*
G37*
G36*
X054522Y024235D02*
X054524Y024228D01*
X052893Y022597D01*
X051771D01*
X051713Y022585D01*
X051663Y022552D01*
X051656Y022545D01*
X051379D01*
X051365Y022543D01*
X051063D01*
Y022603D01*
X051211Y022751D01*
X052904D01*
X052962Y022762D01*
X053012Y022795D01*
X054467Y024251D01*
X054522Y024235D01*
D02*
G37*
G36*
X046122Y023542D02*
X047075Y022589D01*
X047056Y022543D01*
X046494D01*
Y022181D01*
X046096D01*
X046068Y022208D01*
Y023532D01*
X046118Y023547D01*
X046122Y023542D01*
D02*
G37*
G36*
X054733Y022193D02*
X054916D01*
Y021959D01*
X054928Y0219D01*
X054961Y021851D01*
X054995Y021816D01*
X054994Y021806D01*
X054937Y021766D01*
X054931Y021767D01*
X054173D01*
X054115Y021755D01*
X054065Y021722D01*
X052892Y020549D01*
X052859Y020499D01*
X052847Y020441D01*
Y019618D01*
X051912Y018683D01*
X050869D01*
Y018742D01*
X050919Y018782D01*
X050939Y018778D01*
X051854D01*
X051913Y01879D01*
X051962Y018823D01*
X052697Y019557D01*
X05273Y019607D01*
X052742Y019665D01*
Y020478D01*
X054679Y022416D01*
X054733D01*
Y022193D01*
D02*
G37*
G36*
X042406Y021875D02*
X042437Y021865D01*
Y02131D01*
X042449Y021251D01*
X042482Y021202D01*
X043565Y020119D01*
X043545Y020073D01*
X043116D01*
X041803Y021386D01*
Y02183D01*
X041853Y021855D01*
X041903Y021817D01*
X042Y021776D01*
X042105Y021763D01*
X042209Y021776D01*
X042306Y021817D01*
X042387Y021879D01*
X042406Y021875D01*
D02*
G37*
G36*
X050757Y021713D02*
X050769Y021654D01*
X050775Y021645D01*
X050739Y021608D01*
X050725Y021616D01*
X050636Y02164D01*
X050544D01*
X050455Y021616D01*
X050375Y02157D01*
X05031Y021505D01*
X050283Y021458D01*
X050233Y021472D01*
Y021624D01*
X050295Y02166D01*
X05036Y021725D01*
X050406Y021805D01*
X05043Y021894D01*
Y021986D01*
X050406Y022075D01*
X05036Y022155D01*
X050295Y02222D01*
X050215Y022266D01*
X050126Y02229D01*
X050034D01*
X049945Y022266D01*
X049865Y02222D01*
X0498Y022155D01*
X049754Y022075D01*
X04973Y021986D01*
Y021894D01*
X049754Y021805D01*
X0498Y021725D01*
X049865Y02166D01*
X049927Y021624D01*
Y020144D01*
X049877Y02012D01*
X049815Y020156D01*
X049726Y02018D01*
X049634D01*
X049612Y020174D01*
X049562Y020213D01*
Y022638D01*
X050757D01*
Y021713D01*
D02*
G37*
G36*
X055481Y022193D02*
X056153D01*
Y022416D01*
X05627D01*
X05627Y022416D01*
X056396D01*
Y022223D01*
X057157D01*
Y021322D01*
X056813D01*
Y021139D01*
X056284D01*
Y021322D01*
X055836D01*
Y021345D01*
X055824Y021403D01*
X055791Y021453D01*
X055222Y022022D01*
Y022193D01*
X055405D01*
Y022887D01*
X055481D01*
Y022193D01*
D02*
G37*
G36*
X045428Y027643D02*
Y021969D01*
X045439Y02191D01*
X045473Y02186D01*
X045728Y021604D01*
X045778Y021571D01*
X045778Y021571D01*
X045773Y021521D01*
X045741D01*
X045652Y021497D01*
X045573Y021451D01*
X045507Y021386D01*
X045461Y021306D01*
X045437Y021217D01*
Y021125D01*
X045461Y021036D01*
X045507Y020956D01*
X045573Y020891D01*
X045652Y020845D01*
X045741Y020821D01*
X045833D01*
X045922Y020845D01*
X046002Y020891D01*
X046067Y020956D01*
X046114Y021036D01*
X046137Y021125D01*
Y021197D01*
X046185Y021245D01*
X046494D01*
Y021186D01*
X046446D01*
X046388Y021174D01*
X046338Y021141D01*
X04595Y020753D01*
X045634D01*
X045369Y021018D01*
Y027431D01*
X045358Y02749D01*
X045325Y027539D01*
X044106Y028758D01*
X044114Y02882D01*
X044172Y028854D01*
X044195Y028876D01*
X045428Y027643D01*
D02*
G37*
G36*
X054733Y022722D02*
X054616D01*
X054558Y02271D01*
X054508Y022677D01*
X05248Y020649D01*
X052447Y0206D01*
X052436Y020541D01*
Y019729D01*
X051791Y019084D01*
X051694D01*
Y019308D01*
Y019623D01*
Y020094D01*
X051744Y020123D01*
X051795Y020094D01*
X051884Y02007D01*
X051976D01*
X052065Y020094D01*
X052145Y02014D01*
X05221Y020205D01*
X052256Y020285D01*
X05228Y020374D01*
Y020466D01*
X052256Y020555D01*
X05221Y020635D01*
X052145Y0207D01*
X052065Y020746D01*
X051976Y02077D01*
X051884D01*
X051795Y020746D01*
X051744Y020717D01*
X051694Y020746D01*
Y020865D01*
X052553D01*
X052612Y020876D01*
X052661Y02091D01*
X054639Y022887D01*
X054733D01*
Y022722D01*
D02*
G37*
G36*
X049301Y019992D02*
X049349Y019945D01*
X04933Y019876D01*
Y019784D01*
X049354Y019695D01*
X0494Y019615D01*
X049465Y01955D01*
X049545Y019504D01*
X049634Y01948D01*
X049726D01*
X049815Y019504D01*
X049895Y01955D01*
X04996Y019615D01*
X050006Y019695D01*
X050022Y019755D01*
X050061Y019787D01*
X05008Y019789D01*
X050964Y019704D01*
Y019623D01*
Y019133D01*
X050926Y019102D01*
X05092Y019103D01*
X049561D01*
X049551Y019155D01*
X049518Y019205D01*
X049247Y019475D01*
Y019983D01*
X049297Y019998D01*
X049301Y019992D01*
D02*
G37*
G36*
X054958Y021371D02*
X054937Y021321D01*
X054676D01*
Y021035D01*
X055002D01*
Y021226D01*
X055052Y02125D01*
X055073Y021234D01*
Y020612D01*
X055085Y020553D01*
X055118Y020503D01*
X055185Y020437D01*
X055166Y020391D01*
X055037Y020391D01*
X055002Y020426D01*
Y020573D01*
X05425D01*
Y019901D01*
X0545D01*
X054518Y019874D01*
X054792Y019601D01*
Y018876D01*
X055385D01*
Y019667D01*
X055158D01*
X05497Y019855D01*
X05499Y019901D01*
X055002D01*
Y020085D01*
X055261Y020085D01*
X055533D01*
Y019902D01*
X056284D01*
Y020574D01*
X055533D01*
Y020574D01*
X055496Y020559D01*
X055379Y020675D01*
Y021319D01*
X055378Y021325D01*
X055418Y021382D01*
X055428Y021383D01*
X05553Y021281D01*
Y021172D01*
X055533Y021157D01*
Y02065D01*
X056284D01*
Y020833D01*
X056607D01*
Y01926D01*
X056619Y019201D01*
X056652Y019152D01*
X057092Y018712D01*
X057141Y018679D01*
X0572Y018667D01*
X0588D01*
X058859Y018679D01*
X058908Y018712D01*
X059338Y019142D01*
X059371Y019191D01*
X059383Y01925D01*
Y019902D01*
X060123D01*
Y020085D01*
X060376D01*
X060381Y020084D01*
X060649D01*
Y019901D01*
X06066D01*
X060679Y019855D01*
X060492Y019667D01*
X060264D01*
Y018876D01*
X060408D01*
Y018479D01*
X06042Y01842D01*
X060453Y018371D01*
X060997Y017827D01*
Y016043D01*
X060904Y01595D01*
X060858Y015969D01*
Y01623D01*
X060561D01*
X060264D01*
Y015891D01*
X058141D01*
Y01623D01*
X057844D01*
Y01628D01*
D01*
Y01623D01*
X057548D01*
Y015891D01*
X055385D01*
Y01623D01*
X055089D01*
X054792D01*
Y015891D01*
X050447D01*
X050348Y015991D01*
X050374Y016035D01*
X050394Y01603D01*
X050486D01*
X050575Y016054D01*
X050655Y0161D01*
X05072Y016165D01*
X050766Y016245D01*
X05079Y016334D01*
Y016426D01*
X050766Y016515D01*
X05072Y016595D01*
X050655Y01666D01*
X050575Y016706D01*
X050507Y016724D01*
Y018168D01*
X050869D01*
Y018377D01*
X051975D01*
X052033Y018389D01*
X052083Y018422D01*
X053004Y019343D01*
X05305Y019324D01*
Y019304D01*
X053074Y019215D01*
X05312Y019135D01*
X053185Y01907D01*
X053265Y019024D01*
X05335Y019001D01*
Y01935D01*
Y019699D01*
X053265Y019676D01*
X053203Y01964D01*
X053153Y019664D01*
Y020378D01*
X054237Y021461D01*
X054868D01*
X054958Y021371D01*
D02*
G37*
G36*
X057821Y020084D02*
X05809D01*
Y019902D01*
X057855Y019667D01*
X057548D01*
Y018973D01*
X057263D01*
X056913Y019323D01*
Y019902D01*
X057564D01*
Y020085D01*
X057816D01*
X057821Y020084D01*
D02*
G37*
G36*
X043793Y019717D02*
X043755Y019668D01*
X043715Y01957D01*
X043701Y019466D01*
Y019166D01*
X043715Y019062D01*
X043755Y018964D01*
X043819Y018881D01*
X043903Y018817D01*
X044Y018776D01*
X044105Y018763D01*
X044209Y018776D01*
X044306Y018817D01*
X04439Y018881D01*
X044454Y018964D01*
X044494Y019062D01*
X044508Y019166D01*
Y019466D01*
X044495Y019569D01*
X044497Y019572D01*
X044538Y019596D01*
X046904Y01723D01*
X046883Y017181D01*
X04394D01*
X042803Y018318D01*
Y01883D01*
X042853Y018855D01*
X042903Y018817D01*
X043Y018776D01*
X043105Y018763D01*
X043209Y018776D01*
X043306Y018817D01*
X04339Y018881D01*
X043454Y018964D01*
X043494Y019062D01*
X043508Y019166D01*
Y019466D01*
X043494Y01957D01*
X043454Y019668D01*
X043416Y019717D01*
X043441Y019767D01*
X043768D01*
X043793Y019717D01*
D02*
G37*
G36*
X045786Y019085D02*
X045836Y019052D01*
X045894Y01904D01*
X046494D01*
Y018993D01*
X047051D01*
X04707Y018947D01*
X046875Y018751D01*
X046806Y01877D01*
X046714D01*
X046625Y018746D01*
X046545Y0187D01*
X04648Y018635D01*
X046434Y018555D01*
X04641Y018466D01*
Y018374D01*
X046434Y018285D01*
X04648Y018205D01*
X046545Y01814D01*
X046625Y018094D01*
X046714Y01807D01*
X046806D01*
X046895Y018094D01*
X046975Y01814D01*
X04704Y018205D01*
X047086Y018285D01*
X04711Y018374D01*
Y018466D01*
X047091Y018535D01*
X047273Y018717D01*
X04732Y018698D01*
Y018168D01*
X047367D01*
Y018112D01*
X047334Y018055D01*
X04731Y017966D01*
Y017874D01*
X047334Y017785D01*
X04738Y017705D01*
X047445Y01764D01*
X047525Y017594D01*
X047614Y01757D01*
X047706D01*
X047795Y017594D01*
X047875Y01764D01*
X047933Y017698D01*
X047964Y017693D01*
X047985Y017683D01*
X047989Y017655D01*
X047804Y017471D01*
X047096D01*
X044646Y019921D01*
X044665Y019967D01*
X044904D01*
X045786Y019085D01*
D02*
G37*
%LPC*%
G36*
X054576Y021321D02*
X05425D01*
Y021035D01*
X054576D01*
Y021321D01*
D02*
G37*
G36*
X055002Y020935D02*
X054676D01*
Y020649D01*
X055002D01*
Y020935D01*
D02*
G37*
G36*
X054576D02*
X05425D01*
Y020649D01*
X054576D01*
Y020935D01*
D02*
G37*
G36*
X05345Y019699D02*
Y0194D01*
X053749D01*
X053726Y019485D01*
X05368Y019565D01*
X053615Y01963D01*
X053535Y019676D01*
X05345Y019699D01*
D02*
G37*
G36*
X053749Y0193D02*
X05345D01*
Y019001D01*
X053535Y019024D01*
X053615Y01907D01*
X05368Y019135D01*
X053726Y019215D01*
X053749Y0193D01*
D02*
G37*
G36*
X060858Y016675D02*
X060611D01*
Y01633D01*
X060858D01*
Y016675D01*
D02*
G37*
G36*
X058141D02*
X057894D01*
Y01633D01*
X058141D01*
Y016675D01*
D02*
G37*
G36*
X055385D02*
X055139D01*
Y01633D01*
X055385D01*
Y016675D01*
D02*
G37*
G36*
X060511D02*
X060264D01*
Y01633D01*
X060511D01*
Y016675D01*
D02*
G37*
G36*
X057794D02*
X057548D01*
Y01633D01*
X057794D01*
Y016675D01*
D02*
G37*
G36*
X055039D02*
X054792D01*
Y01633D01*
X055039D01*
Y016675D01*
D02*
G37*
%LPD*%
G36*
X048331Y051779D02*
Y051768D01*
X048321D01*
Y051779D01*
X04831D01*
Y051789D01*
X048331D01*
Y051779D01*
D02*
G37*
G36*
X047957D02*
X047968D01*
Y051768D01*
X047946D01*
Y051779D01*
X047914D01*
Y051768D01*
X047903D01*
Y051757D01*
X047936D01*
Y051746D01*
Y051736D01*
Y051725D01*
X047903D01*
Y051736D01*
Y051746D01*
Y051757D01*
X047882D01*
Y051768D01*
X047861D01*
Y051779D01*
X047829D01*
Y051768D01*
X047807D01*
Y051757D01*
X047743D01*
Y051746D01*
X047732D01*
Y051736D01*
X047764D01*
Y051725D01*
Y051714D01*
X047775D01*
Y051704D01*
Y051693D01*
X047764D01*
Y051704D01*
X047754D01*
Y051714D01*
X047732D01*
Y051725D01*
Y051736D01*
X047711D01*
Y051746D01*
X047689D01*
Y051757D01*
X047679D01*
Y051768D01*
X047786D01*
Y051779D01*
X047807D01*
Y051789D01*
X047957D01*
Y051779D01*
D02*
G37*
G36*
X048289D02*
X048299D01*
Y051768D01*
X048289D01*
Y051757D01*
X048257D01*
Y051768D01*
X048139D01*
Y051779D01*
X048128D01*
Y051789D01*
X048289D01*
Y051779D01*
D02*
G37*
G36*
X04831Y051746D02*
Y051736D01*
X048299D01*
Y051746D01*
Y051757D01*
X04831D01*
Y051746D01*
D02*
G37*
G36*
X048D02*
Y051736D01*
X047968D01*
Y051746D01*
Y051757D01*
X048D01*
Y051746D01*
D02*
G37*
G36*
X048631Y051704D02*
Y051693D01*
X048567D01*
Y051704D01*
Y051714D01*
X048631D01*
Y051704D01*
D02*
G37*
G36*
X048449Y051757D02*
X04846D01*
Y051746D01*
X048481D01*
Y051736D01*
X048556D01*
Y051725D01*
X048545D01*
Y051714D01*
X048535D01*
Y051704D01*
Y051693D01*
X048513D01*
Y051704D01*
X048492D01*
Y051714D01*
X048471D01*
Y051725D01*
X04846D01*
Y051736D01*
X048428D01*
Y051746D01*
X048353D01*
Y051757D01*
Y051768D01*
X048449D01*
Y051757D01*
D02*
G37*
G36*
X04785Y051746D02*
X047861D01*
Y051736D01*
Y051725D01*
X047893D01*
Y051714D01*
X047903D01*
Y051704D01*
X047893D01*
Y051693D01*
X047861D01*
Y051704D01*
Y051714D01*
Y051725D01*
X047818D01*
Y051736D01*
Y051746D01*
X047829D01*
Y051757D01*
X04785D01*
Y051746D01*
D02*
G37*
G36*
X048107Y051779D02*
Y051768D01*
Y051757D01*
X048085D01*
Y051746D01*
Y051736D01*
X048117D01*
Y051746D01*
X048128D01*
Y051736D01*
X048171D01*
Y051746D01*
Y051757D01*
X048192D01*
Y051746D01*
Y051736D01*
X048214D01*
Y051746D01*
X048224D01*
Y051736D01*
Y051725D01*
Y051714D01*
X048278D01*
Y051704D01*
X048267D01*
Y051693D01*
X048257D01*
Y051682D01*
X048235D01*
Y051693D01*
X048224D01*
Y051704D01*
X048214D01*
Y051714D01*
X048192D01*
Y051725D01*
X048171D01*
Y051714D01*
X048085D01*
Y051725D01*
X048064D01*
Y051714D01*
X048032D01*
Y051704D01*
X048021D01*
Y051693D01*
X04801D01*
Y051682D01*
X047978D01*
Y051693D01*
Y051704D01*
X04801D01*
Y051714D01*
X048021D01*
Y051725D01*
X048032D01*
Y051736D01*
X048053D01*
Y051746D01*
X048064D01*
Y051757D01*
X048075D01*
Y051768D01*
Y051779D01*
X048085D01*
Y051789D01*
X048107D01*
Y051779D01*
D02*
G37*
G36*
X04831Y051672D02*
X048299D01*
Y051661D01*
X048278D01*
Y051672D01*
Y051682D01*
X04831D01*
Y051672D01*
D02*
G37*
G36*
X047957Y051704D02*
X047946D01*
Y051693D01*
Y051682D01*
X047968D01*
Y051672D01*
Y051661D01*
X047936D01*
Y051672D01*
Y051682D01*
X047914D01*
Y051693D01*
X047936D01*
Y051704D01*
Y051714D01*
X047957D01*
Y051704D01*
D02*
G37*
G36*
X047796Y051682D02*
X047807D01*
Y051672D01*
X047818D01*
Y051661D01*
X047807D01*
Y05165D01*
X047796D01*
Y051661D01*
X047786D01*
Y051672D01*
Y051682D01*
Y051693D01*
X047796D01*
Y051682D01*
D02*
G37*
G36*
X048684D02*
X048695D01*
Y051672D01*
X048706D01*
Y051661D01*
X048759D01*
Y05165D01*
Y051639D01*
X048717D01*
Y05165D01*
X048706D01*
Y051661D01*
X048663D01*
Y051672D01*
X048642D01*
Y051682D01*
X048663D01*
Y051693D01*
X048684D01*
Y051682D01*
D02*
G37*
G36*
X048802Y051629D02*
X048813D01*
Y051618D01*
X048791D01*
Y051607D01*
X04877D01*
Y051618D01*
Y051629D01*
X048781D01*
Y051639D01*
X048802D01*
Y051629D01*
D02*
G37*
G36*
X04861Y051618D02*
X048599D01*
Y051607D01*
X048588D01*
Y051618D01*
X048577D01*
Y051629D01*
X04861D01*
Y051618D01*
D02*
G37*
G36*
X048353Y051661D02*
Y05165D01*
Y051639D01*
Y051629D01*
X048374D01*
Y051618D01*
Y051607D01*
X048353D01*
Y051618D01*
Y051629D01*
X048342D01*
Y051639D01*
X048321D01*
Y05165D01*
Y051661D01*
Y051672D01*
X048353D01*
Y051661D01*
D02*
G37*
G36*
X047839D02*
X04785D01*
Y05165D01*
X047839D01*
Y051639D01*
Y051629D01*
Y051618D01*
X047829D01*
Y051607D01*
Y051597D01*
X047818D01*
Y051607D01*
X047807D01*
Y051618D01*
X047818D01*
Y051629D01*
Y051639D01*
Y05165D01*
X047829D01*
Y051661D01*
Y051672D01*
X047839D01*
Y051661D01*
D02*
G37*
G36*
X04877Y051597D02*
Y051586D01*
X048759D01*
Y051597D01*
Y051607D01*
X04877D01*
Y051597D01*
D02*
G37*
G36*
X048717Y051607D02*
X048706D01*
Y051597D01*
X048674D01*
Y051586D01*
X048652D01*
Y051597D01*
Y051607D01*
X048663D01*
Y051618D01*
X048717D01*
Y051607D01*
D02*
G37*
G36*
X048856D02*
Y051597D01*
Y051586D01*
X048845D01*
Y051575D01*
X048813D01*
Y051586D01*
Y051597D01*
Y051607D01*
X048824D01*
Y051618D01*
X048856D01*
Y051607D01*
D02*
G37*
G36*
X048567Y051586D02*
Y051575D01*
X048556D01*
Y051586D01*
X048545D01*
Y051597D01*
X048567D01*
Y051586D01*
D02*
G37*
G36*
X047903Y05165D02*
X047925D01*
Y051639D01*
X047914D01*
Y051629D01*
X047903D01*
Y051618D01*
X047893D01*
Y051607D01*
X047871D01*
Y051597D01*
X047861D01*
Y051586D01*
Y051575D01*
X04785D01*
Y051565D01*
X047829D01*
Y051575D01*
Y051586D01*
X047839D01*
Y051597D01*
X04785D01*
Y051607D01*
X047861D01*
Y051618D01*
Y051629D01*
X047871D01*
Y051639D01*
X047882D01*
Y05165D01*
Y051661D01*
X047903D01*
Y05165D01*
D02*
G37*
G36*
X048941Y051554D02*
X048952D01*
Y051543D01*
X04892D01*
Y051554D01*
Y051565D01*
X048941D01*
Y051554D01*
D02*
G37*
G36*
X048428Y051597D02*
X04846D01*
Y051586D01*
X048481D01*
Y051575D01*
Y051565D01*
Y051554D01*
X04846D01*
Y051543D01*
X048449D01*
Y051554D01*
Y051565D01*
X048438D01*
Y051575D01*
Y051586D01*
X048417D01*
Y051597D01*
X048406D01*
Y051607D01*
X048428D01*
Y051597D01*
D02*
G37*
G36*
X048513Y051532D02*
X048524D01*
Y051522D01*
Y051511D01*
X048503D01*
Y0515D01*
Y05149D01*
X048492D01*
Y051479D01*
X048471D01*
Y05149D01*
Y0515D01*
X048481D01*
Y051511D01*
X048492D01*
Y051522D01*
X048503D01*
Y051532D01*
Y051543D01*
X048513D01*
Y051532D01*
D02*
G37*
G36*
X048984Y051522D02*
Y051511D01*
X049005D01*
Y0515D01*
X049016D01*
Y05149D01*
Y051479D01*
X049038D01*
Y051468D01*
Y051458D01*
X049005D01*
Y051468D01*
X048995D01*
Y051479D01*
X048973D01*
Y05149D01*
Y0515D01*
X048984D01*
Y051511D01*
X048952D01*
Y051522D01*
Y051532D01*
X048984D01*
Y051522D01*
D02*
G37*
G36*
X048428Y051543D02*
X048438D01*
Y051532D01*
Y051522D01*
X048449D01*
Y051511D01*
Y0515D01*
Y05149D01*
Y051479D01*
Y051468D01*
X04846D01*
Y051458D01*
Y051447D01*
X048449D01*
Y051458D01*
X048438D01*
Y051468D01*
Y051479D01*
X048428D01*
Y05149D01*
Y0515D01*
Y051511D01*
X048417D01*
Y051522D01*
X048406D01*
Y051532D01*
Y051543D01*
Y051554D01*
X048428D01*
Y051543D01*
D02*
G37*
G36*
X048545Y05149D02*
Y051479D01*
Y051468D01*
Y051458D01*
Y051447D01*
Y051436D01*
X048524D01*
Y051447D01*
Y051458D01*
Y051468D01*
Y051479D01*
Y05149D01*
X048535D01*
Y0515D01*
X048545D01*
Y05149D01*
D02*
G37*
G36*
X048973Y051425D02*
Y051415D01*
X048984D01*
Y051404D01*
X049016D01*
Y051393D01*
X049027D01*
Y051383D01*
Y051372D01*
X048995D01*
Y051383D01*
X048984D01*
Y051393D01*
Y051404D01*
X048963D01*
Y051415D01*
Y051425D01*
Y051436D01*
X048973D01*
Y051425D01*
D02*
G37*
G36*
X04908Y051447D02*
Y051436D01*
X049102D01*
Y051425D01*
Y051415D01*
X049134D01*
Y051404D01*
Y051393D01*
X049123D01*
Y051383D01*
X049102D01*
Y051372D01*
Y051361D01*
X04908D01*
Y051372D01*
Y051383D01*
Y051393D01*
X049059D01*
Y051404D01*
X049048D01*
Y051415D01*
X049038D01*
Y051425D01*
X049027D01*
Y051436D01*
Y051447D01*
X049048D01*
Y051458D01*
X04908D01*
Y051447D01*
D02*
G37*
G36*
X049155Y051372D02*
Y051361D01*
X049166D01*
Y051351D01*
X049177D01*
Y05134D01*
X049155D01*
Y051351D01*
Y051361D01*
X049134D01*
Y051372D01*
Y051383D01*
X049155D01*
Y051372D01*
D02*
G37*
G36*
X048545Y051329D02*
Y051318D01*
X048524D01*
Y051329D01*
Y05134D01*
X048545D01*
Y051329D01*
D02*
G37*
G36*
X049198Y051318D02*
Y051308D01*
X049187D01*
Y051297D01*
X049177D01*
Y051286D01*
X049166D01*
Y051297D01*
X049155D01*
Y051308D01*
Y051318D01*
X049177D01*
Y051329D01*
X049198D01*
Y051318D01*
D02*
G37*
G36*
X048471Y051393D02*
X048481D01*
Y051383D01*
Y051372D01*
Y051361D01*
Y051351D01*
Y05134D01*
Y051329D01*
Y051318D01*
Y051308D01*
Y051297D01*
Y051286D01*
Y051276D01*
X048471D01*
Y051265D01*
X04846D01*
Y051276D01*
Y051286D01*
Y051297D01*
Y051308D01*
Y051318D01*
Y051329D01*
Y05134D01*
Y051351D01*
Y051361D01*
Y051372D01*
Y051383D01*
Y051393D01*
Y051404D01*
X048471D01*
Y051393D01*
D02*
G37*
G36*
X0477Y05134D02*
X047722D01*
Y051329D01*
Y051318D01*
Y051308D01*
Y051297D01*
X047711D01*
Y051286D01*
Y051276D01*
X0477D01*
Y051265D01*
X047668D01*
Y051276D01*
X047657D01*
Y051286D01*
Y051297D01*
Y051308D01*
Y051318D01*
Y051329D01*
X047668D01*
Y05134D01*
X047679D01*
Y051351D01*
X0477D01*
Y05134D01*
D02*
G37*
G36*
X048524Y051265D02*
Y051254D01*
Y051244D01*
X048513D01*
Y051233D01*
Y051222D01*
X048524D01*
Y051211D01*
X048513D01*
Y051201D01*
X048428D01*
Y051211D01*
Y051222D01*
X048438D01*
Y051233D01*
X048449D01*
Y051222D01*
X048503D01*
Y051233D01*
Y051244D01*
Y051254D01*
Y051265D01*
Y051276D01*
X048524D01*
Y051265D01*
D02*
G37*
G36*
X049177Y051211D02*
Y051201D01*
X049155D01*
Y051211D01*
X049166D01*
Y051222D01*
X049177D01*
Y051211D01*
D02*
G37*
G36*
X049252Y051201D02*
X049241D01*
Y05119D01*
Y051179D01*
X049209D01*
Y05119D01*
Y051201D01*
X049219D01*
Y051211D01*
X049252D01*
Y051201D01*
D02*
G37*
G36*
X048556Y05119D02*
X048588D01*
Y051179D01*
X048524D01*
Y05119D01*
Y051201D01*
X048556D01*
Y05119D01*
D02*
G37*
G36*
X048652Y051158D02*
Y051147D01*
X04861D01*
Y051158D01*
Y051169D01*
X048652D01*
Y051158D01*
D02*
G37*
G36*
X049177Y051147D02*
Y051137D01*
X049166D01*
Y051147D01*
Y051158D01*
X049177D01*
Y051147D01*
D02*
G37*
G36*
X048888D02*
X04892D01*
Y051137D01*
X048931D01*
Y051126D01*
X048898D01*
Y051137D01*
X048888D01*
Y051126D01*
X048866D01*
Y051137D01*
Y051147D01*
X048856D01*
Y051158D01*
X048888D01*
Y051147D01*
D02*
G37*
G36*
X048813Y051137D02*
X048824D01*
Y051126D01*
Y051115D01*
X048802D01*
Y051104D01*
X048791D01*
Y051115D01*
Y051126D01*
Y051137D01*
X048802D01*
Y051147D01*
X048813D01*
Y051137D01*
D02*
G37*
G36*
X04923Y051286D02*
Y051276D01*
X049241D01*
Y051265D01*
Y051254D01*
X049252D01*
Y051244D01*
X049262D01*
Y051233D01*
X049273D01*
Y051222D01*
Y051211D01*
Y051201D01*
X049284D01*
Y05119D01*
X049294D01*
Y051179D01*
X049305D01*
Y051169D01*
X049294D01*
Y051158D01*
X049284D01*
Y051147D01*
Y051137D01*
X049326D01*
Y051126D01*
Y051115D01*
Y051104D01*
X049316D01*
Y051094D01*
X049284D01*
Y051104D01*
Y051115D01*
Y051126D01*
Y051137D01*
X049252D01*
Y051147D01*
X049241D01*
Y051158D01*
X049252D01*
Y051169D01*
Y051179D01*
X049273D01*
Y05119D01*
Y051201D01*
X049262D01*
Y051211D01*
X049252D01*
Y051222D01*
X049241D01*
Y051233D01*
Y051244D01*
Y051254D01*
X049209D01*
Y051265D01*
X049198D01*
Y051276D01*
Y051286D01*
X049209D01*
Y051297D01*
X04923D01*
Y051286D01*
D02*
G37*
G36*
X048727Y051137D02*
Y051126D01*
X048749D01*
Y051115D01*
X048759D01*
Y051104D01*
X048781D01*
Y051094D01*
Y051083D01*
Y051072D01*
X048759D01*
Y051083D01*
Y051094D01*
X048738D01*
Y051104D01*
X048727D01*
Y051115D01*
X048717D01*
Y051126D01*
X048674D01*
Y051137D01*
X048684D01*
Y051147D01*
X048727D01*
Y051137D01*
D02*
G37*
G36*
X049219Y051115D02*
Y051104D01*
X049209D01*
Y051094D01*
X049198D01*
Y051083D01*
Y051072D01*
X049187D01*
Y051062D01*
X049166D01*
Y051072D01*
X049155D01*
Y051083D01*
X049166D01*
Y051094D01*
X049177D01*
Y051104D01*
X049187D01*
Y051115D01*
X049198D01*
Y051126D01*
X049219D01*
Y051115D01*
D02*
G37*
G36*
X049359Y051072D02*
Y051062D01*
Y051051D01*
X049337D01*
Y051062D01*
Y051072D01*
Y051083D01*
X049359D01*
Y051072D01*
D02*
G37*
G36*
X049273Y051062D02*
Y051051D01*
X049262D01*
Y051062D01*
X049252D01*
Y051072D01*
X049273D01*
Y051062D01*
D02*
G37*
G36*
X048856Y051094D02*
Y051083D01*
X048834D01*
Y051072D01*
Y051062D01*
Y051051D01*
X048802D01*
Y051062D01*
X048813D01*
Y051072D01*
Y051083D01*
X048824D01*
Y051094D01*
X048834D01*
Y051104D01*
X048856D01*
Y051094D01*
D02*
G37*
G36*
X048931Y051072D02*
Y051062D01*
Y051051D01*
X04892D01*
Y05104D01*
X048898D01*
Y05103D01*
X048888D01*
Y051019D01*
Y051008D01*
Y050997D01*
X048866D01*
Y051008D01*
Y051019D01*
X048845D01*
Y05103D01*
Y05104D01*
X048877D01*
Y051051D01*
X048898D01*
Y051062D01*
X048909D01*
Y051072D01*
Y051083D01*
X048931D01*
Y051072D01*
D02*
G37*
G36*
X04938Y051008D02*
Y050997D01*
Y050987D01*
Y050976D01*
Y050965D01*
X049369D01*
Y050976D01*
X049337D01*
Y050965D01*
Y050955D01*
X049294D01*
Y050965D01*
Y050976D01*
X049305D01*
Y050987D01*
X049337D01*
Y050997D01*
X049348D01*
Y051008D01*
X049359D01*
Y051019D01*
X04938D01*
Y051008D01*
D02*
G37*
G36*
X047615Y051094D02*
X047636D01*
Y051083D01*
X047647D01*
Y051072D01*
X047657D01*
Y051062D01*
Y051051D01*
Y05104D01*
Y05103D01*
Y051019D01*
Y051008D01*
Y050997D01*
X047647D01*
Y050987D01*
Y050976D01*
X047636D01*
Y050965D01*
X047625D01*
Y050955D01*
X04754D01*
Y050965D01*
X047529D01*
Y050976D01*
X047518D01*
Y050987D01*
Y050997D01*
X047508D01*
Y051008D01*
Y051019D01*
X047497D01*
Y05103D01*
Y05104D01*
X047508D01*
Y051051D01*
Y051062D01*
X047518D01*
Y051072D01*
Y051083D01*
X047529D01*
Y051094D01*
X04755D01*
Y051104D01*
X047615D01*
Y051094D01*
D02*
G37*
G36*
X049091Y050933D02*
Y050923D01*
Y050912D01*
X049059D01*
Y050923D01*
Y050933D01*
X04907D01*
Y050944D01*
X049091D01*
Y050933D01*
D02*
G37*
G36*
X04892Y050976D02*
X048941D01*
Y050965D01*
X048952D01*
Y050955D01*
X048963D01*
Y050944D01*
X048973D01*
Y050933D01*
X048995D01*
Y050923D01*
Y050912D01*
Y050901D01*
X048963D01*
Y050912D01*
X048952D01*
Y050923D01*
Y050933D01*
X048941D01*
Y050944D01*
X04892D01*
Y050955D01*
Y050965D01*
X048898D01*
Y050976D01*
Y050987D01*
X04892D01*
Y050976D01*
D02*
G37*
G36*
X049059Y050901D02*
Y05089D01*
Y05088D01*
X04908D01*
Y050869D01*
X049091D01*
Y050858D01*
X04908D01*
Y050848D01*
X04907D01*
Y050858D01*
X049059D01*
Y050869D01*
Y05088D01*
X049038D01*
Y05089D01*
X049027D01*
Y050901D01*
X049038D01*
Y050912D01*
X049059D01*
Y050901D01*
D02*
G37*
G36*
X049016Y05088D02*
Y050869D01*
Y050858D01*
X049038D01*
Y050848D01*
Y050837D01*
X049016D01*
Y050848D01*
Y050858D01*
X049005D01*
Y050869D01*
X048995D01*
Y05088D01*
Y05089D01*
X049016D01*
Y05088D01*
D02*
G37*
G36*
X049401Y050944D02*
Y050933D01*
X049412D01*
Y050923D01*
Y050912D01*
Y050901D01*
Y05089D01*
Y05088D01*
Y050869D01*
X049423D01*
Y050858D01*
X049433D01*
Y050848D01*
Y050837D01*
Y050826D01*
Y050816D01*
Y050805D01*
Y050794D01*
Y050784D01*
Y050773D01*
X049412D01*
Y050784D01*
Y050794D01*
Y050805D01*
Y050816D01*
Y050826D01*
Y050837D01*
Y050848D01*
X049401D01*
Y050858D01*
X049391D01*
Y050869D01*
Y05088D01*
Y05089D01*
Y050901D01*
Y050912D01*
Y050923D01*
Y050933D01*
Y050944D01*
Y050955D01*
X049401D01*
Y050944D01*
D02*
G37*
G36*
X049123Y050837D02*
Y050826D01*
X049102D01*
Y050816D01*
Y050805D01*
X049123D01*
Y050794D01*
Y050784D01*
Y050773D01*
X049112D01*
Y050784D01*
X049102D01*
Y050773D01*
X049091D01*
Y050762D01*
X04907D01*
Y050773D01*
X04908D01*
Y050784D01*
X049091D01*
Y050794D01*
Y050805D01*
X049048D01*
Y050816D01*
X049059D01*
Y050826D01*
X049091D01*
Y050837D01*
Y050848D01*
X049123D01*
Y050837D01*
D02*
G37*
G36*
X049412Y05073D02*
X049423D01*
Y050719D01*
X049401D01*
Y05073D01*
Y050741D01*
X049412D01*
Y05073D01*
D02*
G37*
G36*
X049123Y050741D02*
Y05073D01*
Y050719D01*
X049102D01*
Y05073D01*
X049091D01*
Y050741D01*
Y050751D01*
X049123D01*
Y050741D01*
D02*
G37*
G36*
X049155Y050698D02*
Y050687D01*
Y050677D01*
X049145D01*
Y050666D01*
X049123D01*
Y050677D01*
Y050687D01*
Y050698D01*
Y050709D01*
X049155D01*
Y050698D01*
D02*
G37*
G36*
X049166Y050644D02*
Y050634D01*
X049177D01*
Y050623D01*
Y050612D01*
X049166D01*
Y050602D01*
X049155D01*
Y050612D01*
Y050623D01*
Y050634D01*
Y050644D01*
Y050655D01*
X049166D01*
Y050644D01*
D02*
G37*
G36*
X049455Y050687D02*
Y050677D01*
Y050666D01*
Y050655D01*
X049466D01*
Y050644D01*
Y050634D01*
Y050623D01*
Y050612D01*
Y050602D01*
Y050591D01*
X049455D01*
Y05058D01*
Y05057D01*
Y050559D01*
Y050548D01*
Y050537D01*
Y050527D01*
Y050516D01*
Y050505D01*
Y050495D01*
Y050484D01*
Y050473D01*
Y050463D01*
Y050452D01*
Y050441D01*
X049444D01*
Y050452D01*
Y050463D01*
Y050473D01*
Y050484D01*
Y050495D01*
Y050505D01*
Y050516D01*
Y050527D01*
Y050537D01*
X049433D01*
Y050548D01*
Y050559D01*
Y05057D01*
Y05058D01*
Y050591D01*
Y050602D01*
Y050612D01*
Y050623D01*
Y050634D01*
Y050644D01*
Y050655D01*
Y050666D01*
Y050677D01*
X049444D01*
Y050687D01*
Y050698D01*
X049455D01*
Y050687D01*
D02*
G37*
G36*
X049391Y050441D02*
X04938D01*
Y05043D01*
Y05042D01*
X049369D01*
Y05043D01*
Y050441D01*
Y050452D01*
X049391D01*
Y050441D01*
D02*
G37*
G36*
X049305Y050484D02*
Y050473D01*
X049316D01*
Y050463D01*
Y050452D01*
Y050441D01*
X049305D01*
Y05043D01*
Y05042D01*
X049294D01*
Y05043D01*
X049284D01*
Y050441D01*
Y050452D01*
X049294D01*
Y050463D01*
Y050473D01*
Y050484D01*
Y050495D01*
X049305D01*
Y050484D01*
D02*
G37*
G36*
X049433Y050388D02*
Y050377D01*
Y050366D01*
Y050356D01*
Y050345D01*
Y050334D01*
Y050323D01*
Y050313D01*
Y050302D01*
Y050291D01*
Y050281D01*
Y05027D01*
X049423D01*
Y050281D01*
X049412D01*
Y050291D01*
Y050302D01*
Y050313D01*
Y050323D01*
Y050334D01*
Y050345D01*
Y050356D01*
Y050366D01*
Y050377D01*
X049423D01*
Y050388D01*
Y050398D01*
X049433D01*
Y050388D01*
D02*
G37*
G36*
X049391Y050313D02*
Y050302D01*
Y050291D01*
Y050281D01*
Y05027D01*
X049369D01*
Y050281D01*
Y050291D01*
Y050302D01*
Y050313D01*
X04938D01*
Y050323D01*
X049391D01*
Y050313D01*
D02*
G37*
G36*
X049187Y05057D02*
X049198D01*
Y050559D01*
Y050548D01*
X049219D01*
Y050537D01*
X04923D01*
Y050527D01*
Y050516D01*
Y050505D01*
Y050495D01*
Y050484D01*
Y050473D01*
X049219D01*
Y050463D01*
X04923D01*
Y050452D01*
Y050441D01*
X049219D01*
Y05043D01*
X04923D01*
Y05042D01*
Y050409D01*
Y050398D01*
Y050388D01*
Y050377D01*
Y050366D01*
Y050356D01*
Y050345D01*
X049219D01*
Y050334D01*
Y050323D01*
Y050313D01*
Y050302D01*
Y050291D01*
Y050281D01*
Y05027D01*
Y050259D01*
Y050249D01*
Y050238D01*
Y050227D01*
Y050216D01*
Y050206D01*
Y050195D01*
Y050184D01*
Y050174D01*
Y050163D01*
Y050152D01*
X049209D01*
Y050142D01*
X049198D01*
Y050152D01*
Y050163D01*
Y050174D01*
Y050184D01*
Y050195D01*
Y050206D01*
X049209D01*
Y050216D01*
Y050227D01*
Y050238D01*
Y050249D01*
Y050259D01*
Y05027D01*
Y050281D01*
Y050291D01*
Y050302D01*
Y050313D01*
Y050323D01*
Y050334D01*
X049198D01*
Y050345D01*
Y050356D01*
Y050366D01*
Y050377D01*
Y050388D01*
Y050398D01*
Y050409D01*
X049209D01*
Y05042D01*
Y05043D01*
Y050441D01*
Y050452D01*
Y050463D01*
Y050473D01*
X049198D01*
Y050484D01*
Y050495D01*
Y050505D01*
X049187D01*
Y050516D01*
X049177D01*
Y050527D01*
Y050537D01*
Y050548D01*
Y050559D01*
Y05057D01*
Y05058D01*
X049187D01*
Y05057D01*
D02*
G37*
G36*
X049284Y050174D02*
X049294D01*
Y050163D01*
Y050152D01*
Y050142D01*
X049284D01*
Y050131D01*
Y05012D01*
X049273D01*
Y050131D01*
X049262D01*
Y050142D01*
X049252D01*
Y050152D01*
Y050163D01*
Y050174D01*
X049262D01*
Y050184D01*
X049284D01*
Y050174D01*
D02*
G37*
G36*
X049348Y05012D02*
Y050109D01*
X049326D01*
Y05012D01*
Y050131D01*
X049348D01*
Y05012D01*
D02*
G37*
G36*
X049401Y050249D02*
X049412D01*
Y050238D01*
Y050227D01*
Y050216D01*
Y050206D01*
X049401D01*
Y050195D01*
Y050184D01*
X049391D01*
Y050174D01*
X04938D01*
Y050163D01*
Y050152D01*
Y050142D01*
Y050131D01*
Y05012D01*
Y050109D01*
Y050099D01*
X049359D01*
Y050109D01*
Y05012D01*
Y050131D01*
Y050142D01*
Y050152D01*
Y050163D01*
Y050174D01*
Y050184D01*
X049369D01*
Y050195D01*
X04938D01*
Y050206D01*
Y050216D01*
X049391D01*
Y050227D01*
Y050238D01*
Y050249D01*
Y050259D01*
X049401D01*
Y050249D01*
D02*
G37*
G36*
X049305Y050088D02*
Y050077D01*
Y050067D01*
X049294D01*
Y050077D01*
Y050088D01*
Y050099D01*
X049305D01*
Y050088D01*
D02*
G37*
G36*
X049359D02*
Y050077D01*
Y050067D01*
Y050056D01*
Y050045D01*
X049348D01*
Y050035D01*
X049337D01*
Y050045D01*
Y050056D01*
Y050067D01*
Y050077D01*
Y050088D01*
X049348D01*
Y050099D01*
X049359D01*
Y050088D01*
D02*
G37*
G36*
X049187Y050109D02*
X049198D01*
Y050099D01*
Y050088D01*
Y050077D01*
Y050067D01*
Y050056D01*
X049187D01*
Y050045D01*
Y050035D01*
X049177D01*
Y050045D01*
Y050056D01*
Y050067D01*
Y050077D01*
Y050088D01*
Y050099D01*
Y050109D01*
Y05012D01*
X049187D01*
Y050109D01*
D02*
G37*
G36*
X049337Y050024D02*
Y050013D01*
X049326D01*
Y050002D01*
Y049992D01*
Y049981D01*
X049305D01*
Y04997D01*
Y04996D01*
Y049949D01*
X049294D01*
Y049938D01*
X049284D01*
Y049949D01*
X049273D01*
Y04996D01*
Y04997D01*
Y049981D01*
Y049992D01*
Y050002D01*
Y050013D01*
X049294D01*
Y050002D01*
X049305D01*
Y050013D01*
X049316D01*
Y050024D01*
X049326D01*
Y050035D01*
X049337D01*
Y050024D01*
D02*
G37*
G36*
X04923Y050002D02*
Y049992D01*
Y049981D01*
Y04997D01*
X049219D01*
Y04996D01*
X049209D01*
Y049949D01*
X049198D01*
Y04996D01*
X049187D01*
Y04997D01*
Y049981D01*
Y049992D01*
X049198D01*
Y050002D01*
X049219D01*
Y050013D01*
X04923D01*
Y050002D01*
D02*
G37*
G36*
X049273Y049906D02*
X049284D01*
Y049895D01*
Y049885D01*
X049262D01*
Y049895D01*
Y049906D01*
Y049917D01*
X049273D01*
Y049906D01*
D02*
G37*
G36*
X04923Y049895D02*
X049241D01*
Y049885D01*
X049262D01*
Y049874D01*
Y049863D01*
X049252D01*
Y049853D01*
Y049842D01*
X04923D01*
Y049853D01*
Y049863D01*
X049219D01*
Y049874D01*
X049209D01*
Y049885D01*
Y049895D01*
Y049906D01*
X04923D01*
Y049895D01*
D02*
G37*
G36*
X049112Y049874D02*
Y049863D01*
Y049853D01*
Y049842D01*
X049102D01*
Y049853D01*
Y049863D01*
Y049874D01*
Y049885D01*
X049112D01*
Y049874D01*
D02*
G37*
G36*
X049177Y050024D02*
Y050013D01*
Y050002D01*
Y049992D01*
X049166D01*
Y049981D01*
Y04997D01*
Y04996D01*
Y049949D01*
Y049938D01*
X049155D01*
Y049928D01*
X049145D01*
Y049917D01*
Y049906D01*
Y049895D01*
X049155D01*
Y049885D01*
X049166D01*
Y049874D01*
X049177D01*
Y049863D01*
Y049853D01*
X049187D01*
Y049842D01*
X049209D01*
Y049831D01*
X04923D01*
Y049821D01*
Y04981D01*
Y049799D01*
X049209D01*
Y04981D01*
Y049821D01*
X049198D01*
Y049831D01*
X049187D01*
Y049821D01*
X049177D01*
Y049831D01*
Y049842D01*
X049155D01*
Y049853D01*
X049145D01*
Y049863D01*
Y049874D01*
X049134D01*
Y049885D01*
X049123D01*
Y049895D01*
Y049906D01*
Y049917D01*
Y049928D01*
Y049938D01*
X049134D01*
Y049949D01*
X049145D01*
Y04996D01*
X049155D01*
Y04997D01*
Y049981D01*
Y049992D01*
Y050002D01*
Y050013D01*
Y050024D01*
Y050035D01*
X049177D01*
Y050024D01*
D02*
G37*
G36*
X049091Y04981D02*
Y049799D01*
Y049788D01*
X04908D01*
Y049778D01*
X04907D01*
Y049788D01*
Y049799D01*
Y04981D01*
Y049821D01*
X049091D01*
Y04981D01*
D02*
G37*
G36*
X049187Y049799D02*
X049198D01*
Y049788D01*
X049209D01*
Y049778D01*
Y049767D01*
Y049756D01*
X049187D01*
Y049767D01*
Y049778D01*
X049177D01*
Y049788D01*
Y049799D01*
Y04981D01*
X049187D01*
Y049799D01*
D02*
G37*
G36*
X04907Y049767D02*
Y049756D01*
Y049746D01*
X049048D01*
Y049756D01*
Y049767D01*
Y049778D01*
X04907D01*
Y049767D01*
D02*
G37*
G36*
X049134Y049788D02*
X049145D01*
Y049778D01*
X049155D01*
Y049767D01*
Y049756D01*
X049177D01*
Y049746D01*
Y049735D01*
X049166D01*
Y049724D01*
X049155D01*
Y049735D01*
Y049746D01*
Y049756D01*
X049145D01*
Y049746D01*
X049123D01*
Y049756D01*
Y049767D01*
Y049778D01*
Y049788D01*
Y049799D01*
X049134D01*
Y049788D01*
D02*
G37*
G36*
X049155Y049714D02*
Y049703D01*
X049134D01*
Y049714D01*
Y049724D01*
X049155D01*
Y049714D01*
D02*
G37*
G36*
X049112Y049724D02*
Y049714D01*
Y049703D01*
X04908D01*
Y049714D01*
Y049724D01*
Y049735D01*
X049112D01*
Y049724D01*
D02*
G37*
G36*
X049048Y049714D02*
X049059D01*
Y049703D01*
X049048D01*
Y049692D01*
X049027D01*
Y049703D01*
Y049714D01*
Y049724D01*
X049048D01*
Y049714D01*
D02*
G37*
G36*
X049123Y049681D02*
Y049671D01*
Y04966D01*
X049102D01*
Y049671D01*
Y049681D01*
X049112D01*
Y049692D01*
X049123D01*
Y049681D01*
D02*
G37*
G36*
X049016D02*
Y049671D01*
X049005D01*
Y04966D01*
X048995D01*
Y049671D01*
Y049681D01*
Y049692D01*
X049016D01*
Y049681D01*
D02*
G37*
G36*
X049059Y04966D02*
Y049649D01*
X04907D01*
Y049639D01*
X049048D01*
Y049649D01*
X049038D01*
Y04966D01*
Y049671D01*
X049059D01*
Y04966D01*
D02*
G37*
G36*
X048984Y049649D02*
X048995D01*
Y049639D01*
Y049628D01*
Y049617D01*
X048973D01*
Y049607D01*
X048963D01*
Y049596D01*
Y049585D01*
X048941D01*
Y049596D01*
Y049607D01*
X048952D01*
Y049617D01*
X048963D01*
Y049628D01*
X048973D01*
Y049639D01*
Y049649D01*
Y04966D01*
X048984D01*
Y049649D01*
D02*
G37*
G36*
X048941Y049574D02*
Y049564D01*
X048931D01*
Y049553D01*
X04892D01*
Y049564D01*
Y049574D01*
Y049585D01*
X048941D01*
Y049574D01*
D02*
G37*
G36*
X049155Y0495D02*
Y049489D01*
X049177D01*
Y049478D01*
Y049468D01*
Y049457D01*
X049155D01*
Y049468D01*
X049123D01*
Y049478D01*
X049134D01*
Y049489D01*
Y0495D01*
X049145D01*
Y04951D01*
X049155D01*
Y0495D01*
D02*
G37*
G36*
X049112Y049446D02*
X049123D01*
Y049435D01*
Y049425D01*
X049112D01*
Y049435D01*
X04908D01*
Y049446D01*
X049091D01*
Y049457D01*
X049112D01*
Y049446D01*
D02*
G37*
G36*
X04907Y049425D02*
X04908D01*
Y049414D01*
Y049403D01*
X049038D01*
Y049414D01*
Y049425D01*
X049048D01*
Y049435D01*
X04907D01*
Y049425D01*
D02*
G37*
G36*
X049027Y049393D02*
X049038D01*
Y049382D01*
Y049371D01*
X049027D01*
Y049382D01*
X049016D01*
Y049393D01*
X049005D01*
Y049403D01*
X049027D01*
Y049393D01*
D02*
G37*
G36*
X049198Y049446D02*
Y049435D01*
Y049425D01*
X049219D01*
Y049414D01*
X04923D01*
Y049403D01*
Y049393D01*
X049209D01*
Y049382D01*
X049187D01*
Y049371D01*
Y049361D01*
Y04935D01*
X049177D01*
Y049339D01*
X049145D01*
Y04935D01*
X049134D01*
Y049361D01*
X049112D01*
Y049371D01*
X049102D01*
Y049382D01*
X049112D01*
Y049393D01*
X049134D01*
Y049403D01*
Y049414D01*
X049155D01*
Y049425D01*
X049166D01*
Y049435D01*
X049177D01*
Y049446D01*
X049187D01*
Y049457D01*
X049198D01*
Y049446D01*
D02*
G37*
G36*
X048984Y049361D02*
X049016D01*
Y04935D01*
X049005D01*
Y049339D01*
X048995D01*
Y04935D01*
X048984D01*
Y049361D01*
X048963D01*
Y049371D01*
X048984D01*
Y049361D01*
D02*
G37*
G36*
X049252Y049371D02*
X049262D01*
Y049361D01*
X049252D01*
Y04935D01*
Y049339D01*
X049273D01*
Y049328D01*
X049284D01*
Y049318D01*
Y049307D01*
X049262D01*
Y049318D01*
X049252D01*
Y049328D01*
Y049339D01*
X049219D01*
Y04935D01*
X04923D01*
Y049361D01*
Y049371D01*
Y049382D01*
X049252D01*
Y049371D01*
D02*
G37*
G36*
X049209Y049328D02*
X049219D01*
Y049318D01*
X049209D01*
Y049307D01*
X049187D01*
Y049318D01*
Y049328D01*
X049198D01*
Y049339D01*
X049209D01*
Y049328D01*
D02*
G37*
G36*
X048941Y049339D02*
X048952D01*
Y049328D01*
X048963D01*
Y049318D01*
Y049307D01*
Y049296D01*
X048941D01*
Y049307D01*
Y049318D01*
X048931D01*
Y049328D01*
X04892D01*
Y049318D01*
X048909D01*
Y049307D01*
X048898D01*
Y049296D01*
X048888D01*
Y049286D01*
X048866D01*
Y049296D01*
X048877D01*
Y049307D01*
X048888D01*
Y049318D01*
X048898D01*
Y049328D01*
X048909D01*
Y049339D01*
X04892D01*
Y04935D01*
X048941D01*
Y049339D01*
D02*
G37*
G36*
X048824Y049296D02*
X048813D01*
Y049286D01*
X048802D01*
Y049296D01*
Y049307D01*
X048824D01*
Y049296D01*
D02*
G37*
G36*
X048791Y049275D02*
Y049264D01*
X048781D01*
Y049275D01*
Y049286D01*
X048791D01*
Y049275D01*
D02*
G37*
G36*
X049219Y049264D02*
Y049254D01*
X049209D01*
Y049264D01*
X049198D01*
Y049275D01*
X049219D01*
Y049264D01*
D02*
G37*
G36*
X048931Y049275D02*
Y049264D01*
Y049254D01*
Y049243D01*
X048909D01*
Y049254D01*
X048898D01*
Y049264D01*
X048909D01*
Y049275D01*
Y049286D01*
X048931D01*
Y049275D01*
D02*
G37*
G36*
X049305Y049286D02*
Y049275D01*
X049294D01*
Y049264D01*
Y049254D01*
Y049243D01*
X049273D01*
Y049232D01*
X049241D01*
Y049243D01*
X04923D01*
Y049254D01*
Y049264D01*
X049241D01*
Y049275D01*
X049273D01*
Y049286D01*
X049284D01*
Y049296D01*
X049305D01*
Y049286D01*
D02*
G37*
G36*
X048866Y049264D02*
Y049254D01*
X048877D01*
Y049243D01*
X048888D01*
Y049232D01*
Y049221D01*
X048877D01*
Y049232D01*
X048845D01*
Y049243D01*
Y049254D01*
Y049264D01*
Y049275D01*
X048866D01*
Y049264D01*
D02*
G37*
G36*
X048834Y049221D02*
Y049211D01*
Y0492D01*
X048813D01*
Y049211D01*
Y049221D01*
X048824D01*
Y049232D01*
X048834D01*
Y049221D01*
D02*
G37*
G36*
X048781Y049254D02*
X04877D01*
Y049243D01*
Y049232D01*
X048759D01*
Y049221D01*
X048749D01*
Y049211D01*
X048738D01*
Y0492D01*
Y049189D01*
Y049179D01*
X048706D01*
Y049189D01*
X048674D01*
Y0492D01*
X04862D01*
Y049211D01*
Y049221D01*
X048631D01*
Y049232D01*
X048674D01*
Y049221D01*
Y049211D01*
X048695D01*
Y0492D01*
X048717D01*
Y049211D01*
X048727D01*
Y049221D01*
Y049232D01*
X048738D01*
Y049243D01*
X048749D01*
Y049254D01*
Y049264D01*
X048781D01*
Y049254D01*
D02*
G37*
G36*
X048963Y049221D02*
Y049211D01*
Y0492D01*
X048952D01*
Y049189D01*
X048941D01*
Y0492D01*
Y049211D01*
Y049221D01*
Y049232D01*
X048963D01*
Y049221D01*
D02*
G37*
G36*
X04862Y049189D02*
X048642D01*
Y049179D01*
X048652D01*
Y049168D01*
X048599D01*
Y049179D01*
X048588D01*
Y049189D01*
Y0492D01*
X04862D01*
Y049189D01*
D02*
G37*
G36*
X048802Y049179D02*
X048813D01*
Y049168D01*
Y049157D01*
Y049147D01*
X048791D01*
Y049157D01*
Y049168D01*
Y049179D01*
Y049189D01*
X048802D01*
Y049179D01*
D02*
G37*
G36*
X049241D02*
Y049168D01*
Y049157D01*
Y049147D01*
Y049136D01*
X049219D01*
Y049147D01*
X049209D01*
Y049157D01*
Y049168D01*
X049219D01*
Y049179D01*
Y049189D01*
X049241D01*
Y049179D01*
D02*
G37*
G36*
X048706Y049157D02*
X048717D01*
Y049147D01*
Y049136D01*
Y049125D01*
X048695D01*
Y049136D01*
X048684D01*
Y049147D01*
X048663D01*
Y049157D01*
Y049168D01*
X048706D01*
Y049157D01*
D02*
G37*
G36*
X049326Y049243D02*
Y049232D01*
X049337D01*
Y049221D01*
Y049211D01*
Y0492D01*
X049348D01*
Y049189D01*
X049359D01*
Y049179D01*
Y049168D01*
Y049157D01*
X049369D01*
Y049147D01*
X04938D01*
Y049136D01*
Y049125D01*
Y049114D01*
X049369D01*
Y049125D01*
X049359D01*
Y049136D01*
Y049147D01*
X049348D01*
Y049157D01*
Y049168D01*
X049337D01*
Y049179D01*
Y049189D01*
Y0492D01*
X049316D01*
Y049211D01*
X049305D01*
Y049221D01*
Y049232D01*
Y049243D01*
X049316D01*
Y049254D01*
X049326D01*
Y049243D01*
D02*
G37*
G36*
X048866Y049179D02*
X048877D01*
Y049168D01*
Y049157D01*
X048888D01*
Y049147D01*
X048898D01*
Y049136D01*
X048909D01*
Y049125D01*
Y049114D01*
X048888D01*
Y049125D01*
X048877D01*
Y049136D01*
X048866D01*
Y049147D01*
X048856D01*
Y049157D01*
X048845D01*
Y049168D01*
X048834D01*
Y049179D01*
Y049189D01*
X048866D01*
Y049179D01*
D02*
G37*
G36*
X048791Y049125D02*
Y049114D01*
Y049104D01*
X048781D01*
Y049093D01*
X04877D01*
Y049104D01*
Y049114D01*
Y049125D01*
Y049136D01*
X048791D01*
Y049125D01*
D02*
G37*
G36*
X049209Y049104D02*
X049219D01*
Y049093D01*
X049241D01*
Y049104D01*
X049273D01*
Y049093D01*
Y049082D01*
X049262D01*
Y049072D01*
X049241D01*
Y049082D01*
X049219D01*
Y049072D01*
Y049061D01*
Y04905D01*
X049209D01*
Y049061D01*
X049198D01*
Y049072D01*
X049187D01*
Y049082D01*
Y049093D01*
Y049104D01*
X049198D01*
Y049114D01*
X049209D01*
Y049104D01*
D02*
G37*
G36*
X04908Y049072D02*
Y049061D01*
X04907D01*
Y049072D01*
X049059D01*
Y049082D01*
X04908D01*
Y049072D01*
D02*
G37*
G36*
X048866Y049082D02*
X048877D01*
Y049072D01*
X048888D01*
Y049061D01*
X048866D01*
Y049072D01*
X048845D01*
Y049082D01*
Y049093D01*
X048866D01*
Y049082D01*
D02*
G37*
G36*
X048963Y049125D02*
Y049114D01*
Y049104D01*
X049027D01*
Y049093D01*
X048995D01*
Y049082D01*
X048984D01*
Y049072D01*
Y049061D01*
X048995D01*
Y04905D01*
X049005D01*
Y04904D01*
X049016D01*
Y049029D01*
Y049018D01*
X049005D01*
Y049007D01*
X048984D01*
Y049018D01*
Y049029D01*
Y04904D01*
Y04905D01*
Y049061D01*
X048963D01*
Y049072D01*
Y049082D01*
X048952D01*
Y049093D01*
X048941D01*
Y049104D01*
Y049114D01*
Y049125D01*
Y049136D01*
X048963D01*
Y049125D01*
D02*
G37*
G36*
X048888Y049018D02*
Y049007D01*
X048845D01*
Y049018D01*
X048856D01*
Y049029D01*
X048888D01*
Y049018D01*
D02*
G37*
G36*
X049102Y049029D02*
Y049018D01*
Y049007D01*
X049091D01*
Y048997D01*
Y048986D01*
X04908D01*
Y048975D01*
X049059D01*
Y048986D01*
Y048997D01*
Y049007D01*
X04907D01*
Y049018D01*
X04908D01*
Y049029D01*
X049091D01*
Y04904D01*
X049102D01*
Y049029D01*
D02*
G37*
G36*
X048759Y04905D02*
X048781D01*
Y04904D01*
Y049029D01*
X04877D01*
Y049018D01*
X048781D01*
Y049007D01*
X048791D01*
Y048997D01*
Y048986D01*
Y048975D01*
X048749D01*
Y048986D01*
X048738D01*
Y048997D01*
Y049007D01*
Y049018D01*
Y049029D01*
Y04904D01*
Y04905D01*
X048749D01*
Y049061D01*
X048759D01*
Y04905D01*
D02*
G37*
G36*
X048984Y048997D02*
Y048986D01*
X048973D01*
Y048975D01*
X048963D01*
Y048965D01*
X048834D01*
Y048975D01*
X048824D01*
Y048986D01*
X048941D01*
Y048997D01*
X048973D01*
Y049007D01*
X048984D01*
Y048997D01*
D02*
G37*
G36*
X049412Y049082D02*
Y049072D01*
Y049061D01*
Y04905D01*
X049401D01*
Y04904D01*
X049433D01*
Y049029D01*
Y049018D01*
Y049007D01*
Y048997D01*
Y048986D01*
X049444D01*
Y048975D01*
X049455D01*
Y048965D01*
X049444D01*
Y048954D01*
X049433D01*
Y048965D01*
Y048975D01*
Y048986D01*
X049423D01*
Y048997D01*
X049401D01*
Y048986D01*
X049391D01*
Y048975D01*
Y048965D01*
X04938D01*
Y048975D01*
Y048986D01*
Y048997D01*
Y049007D01*
X049391D01*
Y049018D01*
Y049029D01*
Y04904D01*
Y04905D01*
X04938D01*
Y049061D01*
Y049072D01*
X049391D01*
Y049082D01*
Y049093D01*
X049412D01*
Y049082D01*
D02*
G37*
G36*
X049038Y048965D02*
X049048D01*
Y048954D01*
X049038D01*
Y048943D01*
X049005D01*
Y048954D01*
X048995D01*
Y048965D01*
Y048975D01*
X049038D01*
Y048965D01*
D02*
G37*
G36*
X049412Y048943D02*
Y048933D01*
Y048922D01*
X049401D01*
Y048933D01*
X049391D01*
Y048943D01*
Y048954D01*
X049412D01*
Y048943D01*
D02*
G37*
G36*
X049145Y048954D02*
Y048943D01*
Y048933D01*
Y048922D01*
X049112D01*
Y048933D01*
X049102D01*
Y048943D01*
Y048954D01*
Y048965D01*
X049145D01*
Y048954D01*
D02*
G37*
G36*
X048738Y048965D02*
X048749D01*
Y048954D01*
X048759D01*
Y048943D01*
X048738D01*
Y048933D01*
X048727D01*
Y048922D01*
X048717D01*
Y048933D01*
Y048943D01*
Y048954D01*
Y048965D01*
Y048975D01*
X048738D01*
Y048965D01*
D02*
G37*
G36*
X049091Y048922D02*
Y048911D01*
X049112D01*
Y0489D01*
Y04889D01*
X049091D01*
Y0489D01*
X04908D01*
Y048911D01*
X049048D01*
Y048922D01*
Y048933D01*
X049091D01*
Y048922D01*
D02*
G37*
G36*
X049177Y0489D02*
X049187D01*
Y04889D01*
X049177D01*
Y048879D01*
X049166D01*
Y04889D01*
X049155D01*
Y0489D01*
Y048911D01*
X049177D01*
Y0489D01*
D02*
G37*
G36*
X049412Y048879D02*
Y048868D01*
X049401D01*
Y048879D01*
Y04889D01*
X049412D01*
Y048879D01*
D02*
G37*
G36*
X049273Y0489D02*
Y04889D01*
X049284D01*
Y048879D01*
Y048868D01*
X049252D01*
Y048879D01*
X049219D01*
Y04889D01*
Y0489D01*
X04923D01*
Y048911D01*
X049273D01*
Y0489D01*
D02*
G37*
G36*
X049476Y04889D02*
X049487D01*
Y048879D01*
Y048868D01*
X049476D01*
Y048858D01*
X049466D01*
Y048868D01*
Y048879D01*
Y04889D01*
Y0489D01*
X049476D01*
Y04889D01*
D02*
G37*
G36*
X049369Y048933D02*
X04938D01*
Y048922D01*
Y048911D01*
Y0489D01*
Y04889D01*
X049359D01*
Y048879D01*
X049348D01*
Y048868D01*
Y048858D01*
X049369D01*
Y048847D01*
X04938D01*
Y048836D01*
X049369D01*
Y048826D01*
X049348D01*
Y048836D01*
Y048847D01*
Y048858D01*
X049326D01*
Y048868D01*
Y048879D01*
Y04889D01*
X049348D01*
Y0489D01*
Y048911D01*
Y048922D01*
X049359D01*
Y048933D01*
Y048943D01*
X049369D01*
Y048933D01*
D02*
G37*
G36*
X04923Y048858D02*
X049252D01*
Y048847D01*
Y048836D01*
Y048826D01*
X049241D01*
Y048815D01*
X049219D01*
Y048826D01*
Y048836D01*
Y048847D01*
Y048858D01*
X049209D01*
Y048868D01*
X04923D01*
Y048858D01*
D02*
G37*
G36*
X049145Y048868D02*
Y048858D01*
X049166D01*
Y048847D01*
X049177D01*
Y048836D01*
X049187D01*
Y048826D01*
Y048815D01*
Y048804D01*
X049177D01*
Y048815D01*
Y048826D01*
X049155D01*
Y048836D01*
X049145D01*
Y048847D01*
Y048858D01*
X049123D01*
Y048868D01*
Y048879D01*
X049145D01*
Y048868D01*
D02*
G37*
G36*
X049316Y048836D02*
X049326D01*
Y048826D01*
X049348D01*
Y048815D01*
Y048804D01*
Y048793D01*
X049316D01*
Y048804D01*
X049305D01*
Y048815D01*
Y048826D01*
Y048836D01*
Y048847D01*
X049316D01*
Y048836D01*
D02*
G37*
G36*
X049219Y048793D02*
X049209D01*
Y048783D01*
Y048772D01*
Y048761D01*
X049198D01*
Y048772D01*
Y048783D01*
Y048793D01*
Y048804D01*
X049219D01*
Y048793D01*
D02*
G37*
G36*
X049508Y048815D02*
Y048804D01*
X049519D01*
Y048793D01*
Y048783D01*
Y048772D01*
Y048761D01*
Y048751D01*
X049498D01*
Y048761D01*
Y048772D01*
X049487D01*
Y048783D01*
Y048793D01*
Y048804D01*
Y048815D01*
X049498D01*
Y048826D01*
X049508D01*
Y048815D01*
D02*
G37*
G36*
X049305Y048783D02*
Y048772D01*
X049294D01*
Y048761D01*
X049284D01*
Y048751D01*
X049262D01*
Y048761D01*
Y048772D01*
X049273D01*
Y048783D01*
X049284D01*
Y048793D01*
X049305D01*
Y048783D01*
D02*
G37*
G36*
X049337Y048601D02*
Y04859D01*
Y048579D01*
X049326D01*
Y04859D01*
Y048601D01*
Y048612D01*
X049337D01*
Y048601D01*
D02*
G37*
G36*
X04953Y048729D02*
X04954D01*
Y048719D01*
Y048708D01*
Y048697D01*
X04953D01*
Y048686D01*
Y048676D01*
Y048665D01*
Y048654D01*
Y048644D01*
Y048633D01*
Y048622D01*
X049551D01*
Y048612D01*
X049562D01*
Y048601D01*
Y04859D01*
Y048579D01*
Y048569D01*
Y048558D01*
Y048547D01*
Y048537D01*
X049551D01*
Y048547D01*
X04954D01*
Y048558D01*
Y048569D01*
Y048579D01*
Y04859D01*
Y048601D01*
Y048612D01*
X04953D01*
Y048622D01*
X049508D01*
Y048633D01*
Y048644D01*
Y048654D01*
X049498D01*
Y048665D01*
Y048676D01*
Y048686D01*
X049519D01*
Y048697D01*
Y048708D01*
Y048719D01*
Y048729D01*
Y04874D01*
X04953D01*
Y048729D01*
D02*
G37*
G36*
X049498Y048526D02*
X049508D01*
Y048515D01*
Y048505D01*
X049498D01*
Y048494D01*
X049476D01*
Y048505D01*
Y048515D01*
Y048526D01*
Y048537D01*
X049498D01*
Y048526D01*
D02*
G37*
G36*
X049348Y048472D02*
Y048462D01*
X049337D01*
Y048451D01*
X049326D01*
Y04844D01*
Y04843D01*
X049316D01*
Y04844D01*
Y048451D01*
Y048462D01*
X049326D01*
Y048472D01*
Y048483D01*
X049348D01*
Y048472D01*
D02*
G37*
G36*
X049583Y048483D02*
Y048472D01*
Y048462D01*
Y048451D01*
Y04844D01*
Y04843D01*
Y048419D01*
Y048408D01*
X049573D01*
Y048419D01*
X049562D01*
Y04843D01*
Y04844D01*
Y048451D01*
Y048462D01*
Y048472D01*
Y048483D01*
X049573D01*
Y048494D01*
X049583D01*
Y048483D01*
D02*
G37*
G36*
X049252Y048729D02*
Y048719D01*
X049262D01*
Y048708D01*
Y048697D01*
Y048686D01*
Y048676D01*
Y048665D01*
Y048654D01*
Y048644D01*
X049273D01*
Y048633D01*
Y048622D01*
Y048612D01*
Y048601D01*
Y04859D01*
Y048579D01*
Y048569D01*
Y048558D01*
Y048547D01*
Y048537D01*
X049262D01*
Y048526D01*
Y048515D01*
Y048505D01*
Y048494D01*
X049252D01*
Y048483D01*
Y048472D01*
Y048462D01*
Y048451D01*
X049262D01*
Y04844D01*
Y04843D01*
Y048419D01*
Y048408D01*
Y048398D01*
X049252D01*
Y048408D01*
X049219D01*
Y048398D01*
Y048387D01*
X049209D01*
Y048376D01*
X049198D01*
Y048365D01*
X049187D01*
Y048355D01*
Y048344D01*
X049177D01*
Y048333D01*
X049145D01*
Y048344D01*
Y048355D01*
X049155D01*
Y048365D01*
X049177D01*
Y048376D01*
Y048387D01*
X049187D01*
Y048398D01*
X049198D01*
Y048408D01*
Y048419D01*
X049209D01*
Y04843D01*
Y04844D01*
X049219D01*
Y048451D01*
X04923D01*
Y048462D01*
Y048472D01*
Y048483D01*
Y048494D01*
X049241D01*
Y048505D01*
X049252D01*
Y048515D01*
Y048526D01*
Y048537D01*
Y048547D01*
Y048558D01*
Y048569D01*
Y048579D01*
Y04859D01*
Y048601D01*
Y048612D01*
Y048622D01*
Y048633D01*
Y048644D01*
Y048654D01*
Y048665D01*
Y048676D01*
Y048686D01*
X049241D01*
Y048697D01*
X04923D01*
Y048708D01*
Y048719D01*
Y048729D01*
Y04874D01*
X049252D01*
Y048729D01*
D02*
G37*
G36*
X049369Y048387D02*
Y048376D01*
Y048365D01*
Y048355D01*
X049348D01*
Y048365D01*
Y048376D01*
Y048387D01*
X049359D01*
Y048398D01*
X049369D01*
Y048387D01*
D02*
G37*
G36*
X049359Y048323D02*
X049369D01*
Y048312D01*
X04938D01*
Y048301D01*
X049369D01*
Y048291D01*
X049348D01*
Y048301D01*
Y048312D01*
Y048323D01*
Y048333D01*
X049359D01*
Y048323D01*
D02*
G37*
G36*
X049305Y048301D02*
Y048291D01*
X049294D01*
Y048301D01*
Y048312D01*
X049305D01*
Y048301D01*
D02*
G37*
G36*
X049273D02*
Y048291D01*
X049252D01*
Y048301D01*
Y048312D01*
X049273D01*
Y048301D01*
D02*
G37*
G36*
X049209D02*
Y048291D01*
X049187D01*
Y048301D01*
Y048312D01*
X049209D01*
Y048301D01*
D02*
G37*
G36*
X049112Y048291D02*
Y04828D01*
X04908D01*
Y048291D01*
X049091D01*
Y048301D01*
X049112D01*
Y048291D01*
D02*
G37*
G36*
X049519Y04828D02*
X04953D01*
Y048269D01*
X049519D01*
Y048258D01*
X049508D01*
Y048248D01*
X049487D01*
Y048258D01*
Y048269D01*
Y04828D01*
Y048291D01*
X049519D01*
Y04828D01*
D02*
G37*
G36*
X04908Y048258D02*
X04907D01*
Y048248D01*
X049048D01*
Y048258D01*
Y048269D01*
X04908D01*
Y048258D01*
D02*
G37*
G36*
X048888Y048216D02*
X048931D01*
Y048205D01*
Y048194D01*
Y048184D01*
X048877D01*
Y048194D01*
X048856D01*
Y048184D01*
Y048173D01*
X048845D01*
Y048162D01*
X048834D01*
Y048151D01*
Y048141D01*
X048813D01*
Y048151D01*
Y048162D01*
Y048173D01*
X048824D01*
Y048184D01*
X048834D01*
Y048194D01*
Y048205D01*
X048824D01*
Y048216D01*
Y048226D01*
X048834D01*
Y048216D01*
X048856D01*
Y048226D01*
X048888D01*
Y048216D01*
D02*
G37*
G36*
X048995Y048237D02*
X049038D01*
Y048226D01*
X049016D01*
Y048216D01*
X049005D01*
Y048205D01*
X048995D01*
Y048194D01*
X048984D01*
Y048184D01*
X048973D01*
Y048194D01*
X048963D01*
Y048205D01*
Y048216D01*
Y048226D01*
Y048237D01*
X048973D01*
Y048248D01*
X048995D01*
Y048237D01*
D02*
G37*
G36*
X048802Y048194D02*
Y048184D01*
X048791D01*
Y048194D01*
Y048205D01*
X048802D01*
Y048194D01*
D02*
G37*
G36*
X049466Y048162D02*
Y048151D01*
X049444D01*
Y048162D01*
X049455D01*
Y048173D01*
X049466D01*
Y048162D01*
D02*
G37*
G36*
X049594Y048376D02*
Y048365D01*
X049583D01*
Y048355D01*
Y048344D01*
Y048333D01*
X049594D01*
Y048323D01*
Y048312D01*
Y048301D01*
Y048291D01*
Y04828D01*
Y048269D01*
X049583D01*
Y048258D01*
Y048248D01*
Y048237D01*
Y048226D01*
Y048216D01*
Y048205D01*
Y048194D01*
X049562D01*
Y048184D01*
Y048173D01*
Y048162D01*
Y048151D01*
X049551D01*
Y048141D01*
X04954D01*
Y048151D01*
Y048162D01*
Y048173D01*
Y048184D01*
Y048194D01*
X049551D01*
Y048205D01*
X049562D01*
Y048216D01*
Y048226D01*
Y048237D01*
Y048248D01*
X049573D01*
Y048258D01*
Y048269D01*
Y04828D01*
Y048291D01*
Y048301D01*
Y048312D01*
Y048323D01*
Y048333D01*
Y048344D01*
Y048355D01*
Y048365D01*
Y048376D01*
Y048387D01*
X049594D01*
Y048376D01*
D02*
G37*
G36*
X049091Y048151D02*
Y048141D01*
X04908D01*
Y04813D01*
X049048D01*
Y048141D01*
X049016D01*
Y048151D01*
Y048162D01*
X049091D01*
Y048151D01*
D02*
G37*
G36*
X048781Y048162D02*
Y048151D01*
X048759D01*
Y048141D01*
Y04813D01*
X048749D01*
Y048119D01*
X048727D01*
Y04813D01*
X048717D01*
Y048141D01*
X048727D01*
Y048151D01*
X048749D01*
Y048162D01*
X048759D01*
Y048173D01*
X048781D01*
Y048162D01*
D02*
G37*
G36*
X04892Y048141D02*
X048952D01*
Y04813D01*
X048963D01*
Y048119D01*
Y048109D01*
X048931D01*
Y048119D01*
X04892D01*
Y04813D01*
Y048141D01*
X048909D01*
Y04813D01*
X048888D01*
Y048141D01*
X048877D01*
Y048151D01*
X04892D01*
Y048141D01*
D02*
G37*
G36*
X048802Y04813D02*
Y048119D01*
Y048109D01*
X048781D01*
Y048119D01*
Y04813D01*
X048791D01*
Y048141D01*
X048802D01*
Y04813D01*
D02*
G37*
G36*
X048706Y048109D02*
X048717D01*
Y048098D01*
X048727D01*
Y048087D01*
X048717D01*
Y048098D01*
X048674D01*
Y048087D01*
X048663D01*
Y048077D01*
X04862D01*
Y048066D01*
X048588D01*
Y048077D01*
X048599D01*
Y048087D01*
X048642D01*
Y048098D01*
X048663D01*
Y048109D01*
X048674D01*
Y048119D01*
X048706D01*
Y048109D01*
D02*
G37*
G36*
X04892Y048087D02*
X048931D01*
Y048077D01*
Y048066D01*
X048909D01*
Y048077D01*
X048898D01*
Y048087D01*
X048888D01*
Y048098D01*
X04892D01*
Y048087D01*
D02*
G37*
G36*
X049412Y048066D02*
X049391D01*
Y048055D01*
X049369D01*
Y048066D01*
X049359D01*
Y048077D01*
X049412D01*
Y048066D01*
D02*
G37*
G36*
X049187D02*
Y048055D01*
X049166D01*
Y048066D01*
Y048077D01*
X049187D01*
Y048066D01*
D02*
G37*
G36*
X048813Y048077D02*
Y048066D01*
Y048055D01*
X048824D01*
Y048045D01*
X048813D01*
Y048055D01*
X048791D01*
Y048066D01*
X04877D01*
Y048077D01*
X048759D01*
Y048087D01*
X048813D01*
Y048077D01*
D02*
G37*
G36*
X048556Y048055D02*
X048535D01*
Y048045D01*
X048513D01*
Y048055D01*
X048524D01*
Y048066D01*
X048556D01*
Y048055D01*
D02*
G37*
G36*
X049519Y048151D02*
X04953D01*
Y048141D01*
Y04813D01*
Y048119D01*
Y048109D01*
X04954D01*
Y048098D01*
X04953D01*
Y048087D01*
X049519D01*
Y048077D01*
X049508D01*
Y048066D01*
Y048055D01*
X049487D01*
Y048045D01*
Y048034D01*
X049476D01*
Y048045D01*
Y048055D01*
Y048066D01*
X049487D01*
Y048077D01*
Y048087D01*
X049498D01*
Y048098D01*
X049508D01*
Y048109D01*
X049498D01*
Y048119D01*
Y04813D01*
Y048141D01*
Y048151D01*
X049508D01*
Y048162D01*
X049519D01*
Y048151D01*
D02*
G37*
G36*
X049444Y048055D02*
Y048045D01*
Y048034D01*
X049423D01*
Y048045D01*
Y048055D01*
Y048066D01*
X049444D01*
Y048055D01*
D02*
G37*
G36*
X048963Y048045D02*
Y048034D01*
X048941D01*
Y048045D01*
Y048055D01*
X048963D01*
Y048045D01*
D02*
G37*
G36*
X048877Y048077D02*
Y048066D01*
X048888D01*
Y048055D01*
Y048045D01*
Y048034D01*
X048856D01*
Y048045D01*
Y048055D01*
X048845D01*
Y048066D01*
Y048077D01*
X048866D01*
Y048087D01*
X048877D01*
Y048077D01*
D02*
G37*
G36*
X048396Y048034D02*
X048449D01*
Y048023D01*
X048385D01*
Y048012D01*
X048342D01*
Y048023D01*
X048299D01*
Y048012D01*
X048267D01*
Y048023D01*
X048235D01*
Y048034D01*
X048214D01*
Y048045D01*
X048257D01*
Y048034D01*
X048321D01*
Y048045D01*
X048396D01*
Y048034D01*
D02*
G37*
G36*
X049284Y048055D02*
Y048045D01*
Y048034D01*
X049273D01*
Y048023D01*
X049262D01*
Y048034D01*
X049252D01*
Y048045D01*
Y048055D01*
X049262D01*
Y048066D01*
X049284D01*
Y048055D01*
D02*
G37*
G36*
X048856Y048023D02*
Y048012D01*
X048834D01*
Y048023D01*
Y048034D01*
X048856D01*
Y048023D01*
D02*
G37*
G36*
X047957Y048119D02*
X048D01*
Y048109D01*
Y048098D01*
X048043D01*
Y048087D01*
X048075D01*
Y048077D01*
Y048066D01*
X048085D01*
Y048055D01*
X048107D01*
Y048066D01*
X048192D01*
Y048055D01*
X04815D01*
Y048045D01*
X048139D01*
Y048034D01*
X04815D01*
Y048023D01*
X048171D01*
Y048012D01*
X048139D01*
Y048023D01*
Y048034D01*
X048128D01*
Y048023D01*
X048085D01*
Y048034D01*
Y048045D01*
Y048055D01*
X048064D01*
Y048066D01*
Y048077D01*
X048021D01*
Y048066D01*
X047989D01*
Y048077D01*
Y048087D01*
X048D01*
Y048098D01*
X047968D01*
Y048109D01*
X047946D01*
Y048119D01*
Y04813D01*
X047957D01*
Y048119D01*
D02*
G37*
G36*
X049412Y048012D02*
Y048002D01*
X049391D01*
Y048012D01*
Y048023D01*
X049412D01*
Y048012D01*
D02*
G37*
G36*
X049359D02*
Y048002D01*
X049348D01*
Y048012D01*
X049337D01*
Y048023D01*
X049359D01*
Y048012D01*
D02*
G37*
G36*
X049305Y047991D02*
X049294D01*
Y04798D01*
X049284D01*
Y047991D01*
Y048002D01*
X049305D01*
Y047991D01*
D02*
G37*
G36*
X048931Y048002D02*
Y047991D01*
X048941D01*
Y04798D01*
X04892D01*
Y047991D01*
X048909D01*
Y048002D01*
Y048012D01*
X048931D01*
Y048002D01*
D02*
G37*
G36*
X048706Y048012D02*
Y048002D01*
X048695D01*
Y047991D01*
X048652D01*
Y04798D01*
X048663D01*
Y04797D01*
X048642D01*
Y04798D01*
X048631D01*
Y047991D01*
X048642D01*
Y048002D01*
Y048012D01*
X048652D01*
Y048023D01*
X048706D01*
Y048012D01*
D02*
G37*
G36*
X048043Y048045D02*
X048053D01*
Y048034D01*
X048064D01*
Y048023D01*
X048085D01*
Y048012D01*
Y048002D01*
X048096D01*
Y047991D01*
X048117D01*
Y04798D01*
Y04797D01*
X048096D01*
Y04798D01*
Y047991D01*
X048075D01*
Y048002D01*
X048064D01*
Y048012D01*
X048053D01*
Y048023D01*
X048043D01*
Y048034D01*
X048032D01*
Y048045D01*
X048021D01*
Y048055D01*
X048043D01*
Y048045D01*
D02*
G37*
G36*
X048224Y04798D02*
X048246D01*
Y04797D01*
X048235D01*
Y047959D01*
X048224D01*
Y04797D01*
X048214D01*
Y04798D01*
Y047991D01*
X048224D01*
Y04798D01*
D02*
G37*
G36*
X049423Y04797D02*
X049412D01*
Y047959D01*
X049401D01*
Y047948D01*
X049369D01*
Y047959D01*
X04938D01*
Y04797D01*
Y04798D01*
X049423D01*
Y04797D01*
D02*
G37*
G36*
X048353D02*
Y047959D01*
X048342D01*
Y047948D01*
X048321D01*
Y047959D01*
Y04797D01*
Y04798D01*
X048353D01*
Y04797D01*
D02*
G37*
G36*
X04861Y048002D02*
X048599D01*
Y047991D01*
Y04798D01*
X04861D01*
Y04797D01*
X048631D01*
Y047959D01*
X048642D01*
Y047948D01*
X048631D01*
Y047938D01*
X04861D01*
Y047948D01*
X048599D01*
Y047959D01*
X048577D01*
Y04797D01*
X048567D01*
Y04798D01*
Y047991D01*
Y048002D01*
X048588D01*
Y048012D01*
X04861D01*
Y048002D01*
D02*
G37*
G36*
X048567Y047948D02*
Y047938D01*
X048599D01*
Y047927D01*
Y047916D01*
X048567D01*
Y047927D01*
X048556D01*
Y047938D01*
X048545D01*
Y047948D01*
Y047959D01*
X048567D01*
Y047948D01*
D02*
G37*
G36*
X048299Y047927D02*
Y047916D01*
X048289D01*
Y047927D01*
X048278D01*
Y047938D01*
X048299D01*
Y047927D01*
D02*
G37*
G36*
X048171Y047959D02*
X048182D01*
Y047948D01*
X048203D01*
Y047938D01*
X048214D01*
Y047927D01*
X048224D01*
Y047916D01*
X048182D01*
Y047927D01*
Y047938D01*
X04815D01*
Y047948D01*
X048139D01*
Y047959D01*
Y04797D01*
X048171D01*
Y047959D01*
D02*
G37*
G36*
X049252Y047948D02*
X049241D01*
Y047938D01*
Y047927D01*
X049219D01*
Y047916D01*
X049198D01*
Y047905D01*
X049177D01*
Y047916D01*
Y047927D01*
X049187D01*
Y047938D01*
X049198D01*
Y047948D01*
X049209D01*
Y047959D01*
X049252D01*
Y047948D01*
D02*
G37*
G36*
X048535Y047905D02*
X048545D01*
Y047895D01*
X048503D01*
Y047905D01*
Y047916D01*
X048535D01*
Y047905D01*
D02*
G37*
G36*
X048888Y047991D02*
Y04798D01*
Y04797D01*
X04892D01*
Y047959D01*
Y047948D01*
Y047938D01*
Y047927D01*
X048931D01*
Y047916D01*
X048963D01*
Y047905D01*
Y047895D01*
Y047884D01*
X048931D01*
Y047895D01*
X04892D01*
Y047905D01*
Y047916D01*
Y047927D01*
X048898D01*
Y047938D01*
Y047948D01*
X048888D01*
Y047959D01*
Y04797D01*
X048877D01*
Y04798D01*
X048866D01*
Y047991D01*
Y048002D01*
X048888D01*
Y047991D01*
D02*
G37*
G36*
X048289Y047895D02*
X048278D01*
Y047884D01*
X048246D01*
Y047895D01*
X048235D01*
Y047905D01*
X048289D01*
Y047895D01*
D02*
G37*
G36*
X049369Y047938D02*
Y047927D01*
X049359D01*
Y047916D01*
X049326D01*
Y047905D01*
Y047895D01*
X049305D01*
Y047884D01*
X049284D01*
Y047873D01*
Y047863D01*
X04923D01*
Y047873D01*
X049241D01*
Y047884D01*
X049273D01*
Y047895D01*
Y047905D01*
X049294D01*
Y047916D01*
X049316D01*
Y047927D01*
Y047938D01*
X049326D01*
Y047948D01*
X049369D01*
Y047938D01*
D02*
G37*
G36*
X048471Y047873D02*
Y047863D01*
X048299D01*
Y047873D01*
Y047884D01*
X048471D01*
Y047873D01*
D02*
G37*
G36*
X049177Y047863D02*
X049209D01*
Y047852D01*
X049219D01*
Y047841D01*
X049145D01*
Y047831D01*
X049091D01*
Y047841D01*
X049016D01*
Y047852D01*
Y047863D01*
X049166D01*
Y047873D01*
X049177D01*
Y047863D01*
D02*
G37*
%LPC*%
G36*
X04908Y051436D02*
X04907D01*
Y051425D01*
Y051415D01*
X04908D01*
Y051404D01*
Y051393D01*
X049102D01*
Y051404D01*
Y051415D01*
X04908D01*
Y051425D01*
Y051436D01*
D02*
G37*
G36*
X049187Y049414D02*
X049166D01*
Y049403D01*
Y049393D01*
X049187D01*
Y049403D01*
Y049414D01*
D02*
G37*
G36*
X049155Y049382D02*
X049145D01*
Y049371D01*
X049155D01*
Y049382D01*
D02*
G37*
%LPD*%
G36*
X047358Y051607D02*
Y051597D01*
X047336D01*
Y051586D01*
X047326D01*
Y051575D01*
Y051565D01*
X047315D01*
Y051554D01*
X047304D01*
Y051543D01*
Y051532D01*
X047283D01*
Y051543D01*
X047251D01*
Y051554D01*
X047283D01*
Y051565D01*
X047294D01*
Y051575D01*
Y051586D01*
X047315D01*
Y051597D01*
X047326D01*
Y051607D01*
X047336D01*
Y051618D01*
X047358D01*
Y051607D01*
D02*
G37*
G36*
X047219Y051522D02*
Y051511D01*
X047208D01*
Y0515D01*
X047197D01*
Y05149D01*
X047176D01*
Y0515D01*
Y051511D01*
X047197D01*
Y051522D01*
X047208D01*
Y051532D01*
X047219D01*
Y051522D01*
D02*
G37*
G36*
X047262D02*
X047272D01*
Y051511D01*
Y0515D01*
Y05149D01*
Y051479D01*
X047251D01*
Y05149D01*
X04724D01*
Y0515D01*
Y051511D01*
X047229D01*
Y051522D01*
Y051532D01*
X047262D01*
Y051522D01*
D02*
G37*
G36*
X04724Y051458D02*
Y051447D01*
Y051436D01*
X047251D01*
Y051425D01*
Y051415D01*
Y051404D01*
X047229D01*
Y051415D01*
Y051425D01*
Y051436D01*
Y051447D01*
X047197D01*
Y051458D01*
Y051468D01*
X04724D01*
Y051458D01*
D02*
G37*
G36*
X047058Y051372D02*
Y051361D01*
X047048D01*
Y051372D01*
Y051383D01*
X047058D01*
Y051372D01*
D02*
G37*
G36*
X047155Y051351D02*
Y05134D01*
Y051329D01*
Y051318D01*
X04709D01*
Y051329D01*
Y05134D01*
X047133D01*
Y051351D01*
X047144D01*
Y051361D01*
X047155D01*
Y051351D01*
D02*
G37*
G36*
X047048Y051329D02*
Y051318D01*
X04708D01*
Y051308D01*
Y051297D01*
Y051286D01*
X047048D01*
Y051297D01*
X047037D01*
Y051308D01*
X047026D01*
Y051318D01*
X047015D01*
Y051329D01*
Y05134D01*
X047048D01*
Y051329D01*
D02*
G37*
G36*
X047015Y051297D02*
Y051286D01*
X047026D01*
Y051276D01*
X046994D01*
Y051286D01*
Y051297D01*
Y051308D01*
X047015D01*
Y051297D01*
D02*
G37*
G36*
X047165Y051479D02*
Y051468D01*
X047155D01*
Y051458D01*
X047144D01*
Y051447D01*
Y051436D01*
X047165D01*
Y051447D01*
X047176D01*
Y051436D01*
Y051425D01*
X047187D01*
Y051415D01*
X047219D01*
Y051404D01*
Y051393D01*
Y051383D01*
X047229D01*
Y051372D01*
Y051361D01*
Y051351D01*
Y05134D01*
Y051329D01*
Y051318D01*
Y051308D01*
Y051297D01*
Y051286D01*
X047219D01*
Y051276D01*
Y051265D01*
Y051254D01*
X047187D01*
Y051244D01*
X047176D01*
Y051254D01*
X047165D01*
Y051265D01*
Y051276D01*
X047187D01*
Y051265D01*
X047197D01*
Y051276D01*
X047208D01*
Y051286D01*
X047197D01*
Y051297D01*
Y051308D01*
Y051318D01*
X047208D01*
Y051329D01*
X047197D01*
Y05134D01*
Y051351D01*
Y051361D01*
X047208D01*
Y051372D01*
Y051383D01*
Y051393D01*
X047187D01*
Y051404D01*
X047176D01*
Y051415D01*
X047155D01*
Y051404D01*
X047144D01*
Y051393D01*
X047133D01*
Y051404D01*
X047112D01*
Y051415D01*
X047101D01*
Y051404D01*
Y051393D01*
X04709D01*
Y051383D01*
X04708D01*
Y051393D01*
X047069D01*
Y051404D01*
Y051415D01*
X04709D01*
Y051425D01*
X047101D01*
Y051436D01*
X047112D01*
Y051447D01*
X047122D01*
Y051458D01*
X047133D01*
Y051468D01*
X047144D01*
Y051479D01*
X047155D01*
Y05149D01*
X047165D01*
Y051479D01*
D02*
G37*
G36*
X047133Y051276D02*
X047122D01*
Y051265D01*
X047112D01*
Y051276D01*
Y051286D01*
X047133D01*
Y051276D01*
D02*
G37*
G36*
X046983Y051265D02*
Y051254D01*
X046973D01*
Y051265D01*
Y051276D01*
X046983D01*
Y051265D01*
D02*
G37*
G36*
X047112Y051254D02*
X047122D01*
Y051244D01*
X047144D01*
Y051233D01*
Y051222D01*
X047112D01*
Y051233D01*
X04709D01*
Y051222D01*
Y051211D01*
Y051201D01*
X04708D01*
Y051211D01*
X047058D01*
Y051222D01*
Y051233D01*
Y051244D01*
X04709D01*
Y051254D01*
Y051265D01*
X047112D01*
Y051254D01*
D02*
G37*
G36*
X047026Y051233D02*
Y051222D01*
Y051211D01*
Y051201D01*
X047015D01*
Y051211D01*
X047005D01*
Y051222D01*
Y051233D01*
X047015D01*
Y051244D01*
X047026D01*
Y051233D01*
D02*
G37*
G36*
X046962Y051222D02*
Y051211D01*
X046973D01*
Y051201D01*
Y05119D01*
X046951D01*
Y051201D01*
X046941D01*
Y051211D01*
Y051222D01*
Y051233D01*
X046962D01*
Y051222D01*
D02*
G37*
G36*
X047026Y051179D02*
X047005D01*
Y051169D01*
X046994D01*
Y051179D01*
X046983D01*
Y05119D01*
X047026D01*
Y051179D01*
D02*
G37*
G36*
X046941Y051169D02*
Y051158D01*
Y051147D01*
X046951D01*
Y051137D01*
Y051126D01*
X046941D01*
Y051115D01*
X04693D01*
Y051126D01*
X046919D01*
Y051137D01*
Y051147D01*
X046908D01*
Y051158D01*
X046919D01*
Y051169D01*
Y051179D01*
X046941D01*
Y051169D01*
D02*
G37*
G36*
X046898Y051094D02*
Y051083D01*
Y051072D01*
X046887D01*
Y051083D01*
Y051094D01*
Y051104D01*
X046898D01*
Y051094D01*
D02*
G37*
G36*
X04846Y050088D02*
Y050077D01*
X048385D01*
Y050088D01*
Y050099D01*
X04846D01*
Y050088D01*
D02*
G37*
G36*
X048289D02*
X04831D01*
Y050077D01*
X048267D01*
Y050067D01*
X048214D01*
Y050077D01*
X048192D01*
Y050088D01*
X048214D01*
Y050099D01*
X048289D01*
Y050088D01*
D02*
G37*
G36*
X048117Y050056D02*
X04815D01*
Y050045D01*
X048117D01*
Y050056D01*
X048085D01*
Y050067D01*
X048117D01*
Y050056D01*
D02*
G37*
G36*
X048535Y050067D02*
X048556D01*
Y050056D01*
X048577D01*
Y050045D01*
Y050035D01*
X048545D01*
Y050045D01*
X048535D01*
Y050056D01*
X048513D01*
Y050067D01*
X048524D01*
Y050077D01*
X048535D01*
Y050067D01*
D02*
G37*
G36*
X047957Y050013D02*
X047968D01*
Y050002D01*
X047925D01*
Y050013D01*
X047936D01*
Y050024D01*
X047957D01*
Y050013D01*
D02*
G37*
G36*
X048642D02*
Y050002D01*
X048631D01*
Y049992D01*
X04862D01*
Y050002D01*
Y050013D01*
Y050024D01*
X048642D01*
Y050013D01*
D02*
G37*
G36*
X048117Y049992D02*
X048128D01*
Y049981D01*
Y04997D01*
X048117D01*
Y049981D01*
X048107D01*
Y049992D01*
Y050002D01*
X048117D01*
Y049992D01*
D02*
G37*
G36*
X04861Y04997D02*
Y04996D01*
Y049949D01*
X048588D01*
Y04996D01*
X048577D01*
Y04997D01*
Y049981D01*
X04861D01*
Y04997D01*
D02*
G37*
G36*
X047914Y049981D02*
X047903D01*
Y04997D01*
X047893D01*
Y04996D01*
Y049949D01*
X047871D01*
Y049938D01*
X04785D01*
Y049928D01*
X047818D01*
Y049938D01*
X047839D01*
Y049949D01*
X04785D01*
Y04996D01*
Y04997D01*
X047882D01*
Y049981D01*
X047893D01*
Y049992D01*
X047914D01*
Y049981D01*
D02*
G37*
G36*
X048588Y049917D02*
Y049906D01*
X048567D01*
Y049917D01*
Y049928D01*
X048588D01*
Y049917D01*
D02*
G37*
G36*
X047818D02*
Y049906D01*
X047807D01*
Y049895D01*
X047796D01*
Y049885D01*
X047786D01*
Y049895D01*
X047775D01*
Y049906D01*
X047786D01*
Y049917D01*
X047807D01*
Y049928D01*
X047818D01*
Y049917D01*
D02*
G37*
G36*
X048535Y049928D02*
Y049917D01*
X048545D01*
Y049906D01*
X048556D01*
Y049895D01*
X048567D01*
Y049885D01*
Y049874D01*
X048545D01*
Y049885D01*
X048535D01*
Y049895D01*
Y049906D01*
X048524D01*
Y049917D01*
Y049928D01*
Y049938D01*
X048535D01*
Y049928D01*
D02*
G37*
G36*
X047786Y049863D02*
X047775D01*
Y049853D01*
X047764D01*
Y049842D01*
X047743D01*
Y049853D01*
Y049863D01*
X047754D01*
Y049874D01*
X047786D01*
Y049863D01*
D02*
G37*
G36*
X048513Y049874D02*
X048524D01*
Y049863D01*
Y049853D01*
X048535D01*
Y049842D01*
Y049831D01*
X048524D01*
Y049842D01*
Y049853D01*
X048503D01*
Y049863D01*
X048492D01*
Y049874D01*
X048503D01*
Y049885D01*
X048513D01*
Y049874D01*
D02*
G37*
G36*
X047893Y049853D02*
Y049842D01*
Y049831D01*
X047861D01*
Y049842D01*
Y049853D01*
Y049863D01*
X047893D01*
Y049853D01*
D02*
G37*
G36*
X048481Y049831D02*
X048471D01*
Y049821D01*
X048449D01*
Y049831D01*
Y049842D01*
X048481D01*
Y049831D01*
D02*
G37*
G36*
X048385D02*
Y049821D01*
X048374D01*
Y049831D01*
Y049842D01*
X048385D01*
Y049831D01*
D02*
G37*
G36*
X048513Y049799D02*
Y049788D01*
X048492D01*
Y049799D01*
Y04981D01*
X048513D01*
Y049799D01*
D02*
G37*
G36*
X048406D02*
X048417D01*
Y049788D01*
X048396D01*
Y049799D01*
Y04981D01*
X048406D01*
Y049799D01*
D02*
G37*
G36*
X047807Y049788D02*
Y049778D01*
X047786D01*
Y049788D01*
X047796D01*
Y049799D01*
X047807D01*
Y049788D01*
D02*
G37*
G36*
X047732Y049821D02*
Y04981D01*
Y049799D01*
X047722D01*
Y049788D01*
Y049778D01*
X047711D01*
Y049767D01*
X047689D01*
Y049778D01*
Y049788D01*
Y049799D01*
X0477D01*
Y04981D01*
Y049821D01*
X047711D01*
Y049831D01*
X047732D01*
Y049821D01*
D02*
G37*
G36*
X048492Y049778D02*
Y049767D01*
X048481D01*
Y049756D01*
X04846D01*
Y049767D01*
X048471D01*
Y049778D01*
Y049788D01*
X048492D01*
Y049778D01*
D02*
G37*
G36*
X04846Y049746D02*
Y049735D01*
X048438D01*
Y049746D01*
Y049756D01*
X04846D01*
Y049746D01*
D02*
G37*
G36*
X047925D02*
X047936D01*
Y049735D01*
X047925D01*
Y049724D01*
X047893D01*
Y049735D01*
Y049746D01*
X047903D01*
Y049756D01*
X047925D01*
Y049746D01*
D02*
G37*
G36*
X048353Y049714D02*
Y049703D01*
X048331D01*
Y049714D01*
Y049724D01*
X048353D01*
Y049714D01*
D02*
G37*
G36*
X048257D02*
X048246D01*
Y049703D01*
X048224D01*
Y049714D01*
X048214D01*
Y049724D01*
X048257D01*
Y049714D01*
D02*
G37*
G36*
X048364Y049767D02*
Y049756D01*
X048385D01*
Y049746D01*
X048396D01*
Y049735D01*
X048406D01*
Y049724D01*
X048428D01*
Y049714D01*
Y049703D01*
X048417D01*
Y049692D01*
X048396D01*
Y049703D01*
Y049714D01*
X048406D01*
Y049724D01*
X048374D01*
Y049735D01*
X048364D01*
Y049746D01*
Y049756D01*
X048342D01*
Y049767D01*
Y049778D01*
X048364D01*
Y049767D01*
D02*
G37*
G36*
X047668Y049703D02*
X047679D01*
Y049692D01*
Y049681D01*
X047657D01*
Y049692D01*
Y049703D01*
Y049714D01*
X047668D01*
Y049703D01*
D02*
G37*
G36*
X04831Y049681D02*
Y049671D01*
Y04966D01*
X048289D01*
Y049671D01*
X048278D01*
Y049681D01*
X048267D01*
Y049692D01*
X04831D01*
Y049681D01*
D02*
G37*
G36*
X047722Y049671D02*
Y04966D01*
X0477D01*
Y049671D01*
X047711D01*
Y049681D01*
X047722D01*
Y049671D01*
D02*
G37*
G36*
X048235Y04966D02*
Y049649D01*
X048203D01*
Y04966D01*
Y049671D01*
X048235D01*
Y04966D01*
D02*
G37*
G36*
X048396Y049671D02*
X048385D01*
Y04966D01*
X048374D01*
Y049649D01*
X048364D01*
Y049639D01*
X048353D01*
Y049628D01*
X048331D01*
Y049639D01*
X048342D01*
Y049649D01*
X048353D01*
Y04966D01*
Y049671D01*
X048364D01*
Y049681D01*
X048396D01*
Y049671D01*
D02*
G37*
G36*
X048278Y049639D02*
Y049628D01*
X048267D01*
Y049617D01*
X048257D01*
Y049628D01*
X048246D01*
Y049639D01*
X048257D01*
Y049649D01*
X048278D01*
Y049639D01*
D02*
G37*
G36*
X048192Y049628D02*
Y049617D01*
X04816D01*
Y049628D01*
X04815D01*
Y049639D01*
X048192D01*
Y049628D01*
D02*
G37*
G36*
X0477Y049649D02*
Y049639D01*
X047689D01*
Y049628D01*
X047679D01*
Y049617D01*
X047668D01*
Y049607D01*
X047657D01*
Y049617D01*
Y049628D01*
Y049639D01*
X047668D01*
Y049649D01*
X047679D01*
Y04966D01*
X0477D01*
Y049649D01*
D02*
G37*
G36*
X048224Y049596D02*
Y049585D01*
X048203D01*
Y049596D01*
Y049607D01*
X048224D01*
Y049596D01*
D02*
G37*
G36*
X0477Y049585D02*
Y049574D01*
Y049564D01*
X047668D01*
Y049574D01*
Y049585D01*
X047679D01*
Y049596D01*
X0477D01*
Y049585D01*
D02*
G37*
G36*
X048257Y049564D02*
Y049553D01*
X048235D01*
Y049564D01*
X048224D01*
Y049574D01*
X048257D01*
Y049564D01*
D02*
G37*
G36*
X048171Y049553D02*
X048192D01*
Y049542D01*
X048203D01*
Y049532D01*
X04816D01*
Y049542D01*
X04815D01*
Y049553D01*
X04816D01*
Y049564D01*
X048171D01*
Y049553D01*
D02*
G37*
G36*
X047722D02*
X047732D01*
Y049542D01*
X047743D01*
Y049532D01*
X047711D01*
Y049542D01*
X0477D01*
Y049553D01*
X047711D01*
Y049564D01*
X047722D01*
Y049553D01*
D02*
G37*
G36*
X047914Y04951D02*
X047925D01*
Y0495D01*
X047882D01*
Y04951D01*
Y049521D01*
X047914D01*
Y04951D01*
D02*
G37*
G36*
X047807Y049521D02*
X047829D01*
Y04951D01*
X047807D01*
Y0495D01*
X047786D01*
Y04951D01*
X047775D01*
Y049521D01*
X047786D01*
Y049532D01*
X047807D01*
Y049521D01*
D02*
G37*
G36*
X048021Y049489D02*
Y049478D01*
X047968D01*
Y049489D01*
X047957D01*
Y0495D01*
X048021D01*
Y049489D01*
D02*
G37*
G36*
X04785Y048879D02*
X047839D01*
Y048868D01*
Y048858D01*
X047818D01*
Y048868D01*
X047807D01*
Y048879D01*
X047818D01*
Y04889D01*
X04785D01*
Y048879D01*
D02*
G37*
G36*
X047251Y049296D02*
Y049286D01*
X047208D01*
Y049296D01*
Y049307D01*
X047251D01*
Y049296D01*
D02*
G37*
G36*
X047294Y049264D02*
X047304D01*
Y049254D01*
Y049243D01*
X047294D01*
Y049254D01*
X047283D01*
Y049264D01*
X047272D01*
Y049275D01*
X047294D01*
Y049264D01*
D02*
G37*
G36*
X047133Y049243D02*
X047144D01*
Y049232D01*
Y049221D01*
X047133D01*
Y049211D01*
X047122D01*
Y049221D01*
X047112D01*
Y049232D01*
Y049243D01*
X047122D01*
Y049254D01*
X047133D01*
Y049243D01*
D02*
G37*
G36*
X047326Y049318D02*
Y049307D01*
X047336D01*
Y049296D01*
Y049286D01*
X047347D01*
Y049275D01*
X047358D01*
Y049264D01*
X047368D01*
Y049254D01*
X04739D01*
Y049243D01*
Y049232D01*
X047368D01*
Y049221D01*
X047358D01*
Y049211D01*
X047336D01*
Y0492D01*
Y049189D01*
X047315D01*
Y0492D01*
Y049211D01*
X047326D01*
Y049221D01*
X047336D01*
Y049232D01*
X047347D01*
Y049243D01*
Y049254D01*
Y049264D01*
X047336D01*
Y049275D01*
X047326D01*
Y049286D01*
X047315D01*
Y049296D01*
X047304D01*
Y049307D01*
Y049318D01*
X047294D01*
Y049328D01*
X047326D01*
Y049318D01*
D02*
G37*
G36*
X047197Y049264D02*
X047208D01*
Y049254D01*
X047229D01*
Y049243D01*
X04724D01*
Y049232D01*
X047251D01*
Y049221D01*
X047262D01*
Y049211D01*
X047272D01*
Y0492D01*
Y049189D01*
X047251D01*
Y0492D01*
X04724D01*
Y049211D01*
X047229D01*
Y049221D01*
X047208D01*
Y049232D01*
X047197D01*
Y049243D01*
X047187D01*
Y049254D01*
X047155D01*
Y049264D01*
Y049275D01*
X047197D01*
Y049264D01*
D02*
G37*
G36*
X047475Y049189D02*
Y049179D01*
X047454D01*
Y049189D01*
Y0492D01*
X047475D01*
Y049189D01*
D02*
G37*
G36*
X047058D02*
Y049179D01*
X047037D01*
Y049189D01*
Y0492D01*
X047058D01*
Y049189D01*
D02*
G37*
G36*
X047379Y049179D02*
Y049168D01*
X047368D01*
Y049157D01*
X047358D01*
Y049168D01*
X047347D01*
Y049179D01*
X047358D01*
Y049189D01*
X047379D01*
Y049179D01*
D02*
G37*
G36*
X04724Y049168D02*
Y049157D01*
X047208D01*
Y049168D01*
Y049179D01*
X04724D01*
Y049168D01*
D02*
G37*
G36*
X04709Y049211D02*
X047112D01*
Y0492D01*
Y049189D01*
X047133D01*
Y049179D01*
X047144D01*
Y049168D01*
X047133D01*
Y049157D01*
X047101D01*
Y049168D01*
Y049179D01*
X04709D01*
Y049189D01*
X04708D01*
Y0492D01*
X047069D01*
Y049211D01*
Y049221D01*
X04709D01*
Y049211D01*
D02*
G37*
G36*
X04755Y049157D02*
X04754D01*
Y049147D01*
X047518D01*
Y049157D01*
Y049168D01*
X04755D01*
Y049157D01*
D02*
G37*
G36*
X047336Y049147D02*
Y049136D01*
X047315D01*
Y049147D01*
Y049157D01*
X047336D01*
Y049147D01*
D02*
G37*
G36*
X047197Y049136D02*
Y049125D01*
X047165D01*
Y049136D01*
Y049147D01*
X047197D01*
Y049136D01*
D02*
G37*
G36*
X047101Y049147D02*
X04709D01*
Y049136D01*
X047069D01*
Y049125D01*
X047058D01*
Y049136D01*
Y049147D01*
Y049157D01*
X047101D01*
Y049147D01*
D02*
G37*
G36*
X046962Y049114D02*
X046973D01*
Y049104D01*
Y049093D01*
X046941D01*
Y049104D01*
Y049114D01*
Y049125D01*
X046962D01*
Y049114D01*
D02*
G37*
G36*
X047037Y049168D02*
Y049157D01*
X047015D01*
Y049147D01*
Y049136D01*
Y049125D01*
X047048D01*
Y049114D01*
Y049104D01*
X047037D01*
Y049093D01*
X047048D01*
Y049082D01*
X047058D01*
Y049072D01*
X047048D01*
Y049061D01*
X047037D01*
Y049072D01*
Y049082D01*
Y049093D01*
X047015D01*
Y049104D01*
Y049114D01*
Y049125D01*
X046973D01*
Y049136D01*
Y049147D01*
X046994D01*
Y049157D01*
X047005D01*
Y049168D01*
X047026D01*
Y049179D01*
X047037D01*
Y049168D01*
D02*
G37*
G36*
X047486Y049147D02*
Y049136D01*
X047508D01*
Y049125D01*
Y049114D01*
X047497D01*
Y049104D01*
X047486D01*
Y049093D01*
Y049082D01*
Y049072D01*
X047475D01*
Y049061D01*
Y04905D01*
X047465D01*
Y04904D01*
X047454D01*
Y04905D01*
Y049061D01*
X047443D01*
Y049072D01*
X047454D01*
Y049082D01*
Y049093D01*
X047465D01*
Y049104D01*
Y049114D01*
X047475D01*
Y049125D01*
Y049136D01*
X047465D01*
Y049147D01*
X047454D01*
Y049157D01*
X047486D01*
Y049147D01*
D02*
G37*
G36*
X047037Y04905D02*
Y04904D01*
X047015D01*
Y04905D01*
Y049061D01*
X047037D01*
Y04905D01*
D02*
G37*
G36*
X047336Y049029D02*
Y049018D01*
X047315D01*
Y049029D01*
Y04904D01*
X047336D01*
Y049029D01*
D02*
G37*
G36*
X047112Y049072D02*
Y049061D01*
X047101D01*
Y04905D01*
X04709D01*
Y04904D01*
Y049029D01*
X047069D01*
Y049018D01*
X047048D01*
Y049029D01*
Y04904D01*
X047058D01*
Y04905D01*
Y049061D01*
X04709D01*
Y049072D01*
Y049082D01*
X047112D01*
Y049072D01*
D02*
G37*
G36*
X047379Y049114D02*
Y049104D01*
Y049093D01*
Y049082D01*
X04739D01*
Y049072D01*
Y049061D01*
X047401D01*
Y04905D01*
Y04904D01*
X047411D01*
Y049029D01*
Y049018D01*
Y049007D01*
X047401D01*
Y048997D01*
Y048986D01*
X04739D01*
Y048975D01*
Y048965D01*
Y048954D01*
Y048943D01*
Y048933D01*
X047401D01*
Y048943D01*
X047411D01*
Y048954D01*
Y048965D01*
X047422D01*
Y048954D01*
X047433D01*
Y048943D01*
Y048933D01*
Y048922D01*
Y048911D01*
Y0489D01*
Y04889D01*
X047443D01*
Y048879D01*
X047454D01*
Y048868D01*
Y048858D01*
Y048847D01*
Y048836D01*
X047465D01*
Y048826D01*
Y048815D01*
Y048804D01*
Y048793D01*
Y048783D01*
X047475D01*
Y048772D01*
X047486D01*
Y048761D01*
X047433D01*
Y048751D01*
X047422D01*
Y04874D01*
X04739D01*
Y048729D01*
X047368D01*
Y04874D01*
X047347D01*
Y048751D01*
X047326D01*
Y048761D01*
Y048772D01*
X047336D01*
Y048761D01*
X047368D01*
Y048772D01*
X047422D01*
Y048783D01*
X047443D01*
Y048793D01*
X047433D01*
Y048804D01*
Y048815D01*
Y048826D01*
Y048836D01*
Y048847D01*
Y048858D01*
Y048868D01*
Y048879D01*
X047422D01*
Y04889D01*
X047411D01*
Y0489D01*
Y048911D01*
X047379D01*
Y048922D01*
Y048933D01*
Y048943D01*
Y048954D01*
X047368D01*
Y048965D01*
X047358D01*
Y048975D01*
X047347D01*
Y048986D01*
Y048997D01*
Y049007D01*
X047368D01*
Y048997D01*
X047379D01*
Y049007D01*
Y049018D01*
Y049029D01*
Y04904D01*
Y04905D01*
Y049061D01*
X047368D01*
Y049072D01*
Y049082D01*
Y049093D01*
Y049104D01*
X047358D01*
Y049114D01*
Y049125D01*
X047379D01*
Y049114D01*
D02*
G37*
G36*
X04709Y048997D02*
X047101D01*
Y048986D01*
X047112D01*
Y048975D01*
X047122D01*
Y048965D01*
Y048954D01*
Y048943D01*
X047112D01*
Y048933D01*
X047101D01*
Y048943D01*
X04709D01*
Y048954D01*
Y048965D01*
Y048975D01*
X04708D01*
Y048986D01*
X047069D01*
Y048997D01*
Y049007D01*
X04709D01*
Y048997D01*
D02*
G37*
G36*
X047347Y04889D02*
X047336D01*
Y048879D01*
X047326D01*
Y04889D01*
X047315D01*
Y0489D01*
X047347D01*
Y04889D01*
D02*
G37*
G36*
X047144Y048911D02*
Y0489D01*
Y04889D01*
Y048879D01*
X047122D01*
Y04889D01*
Y0489D01*
Y048911D01*
Y048922D01*
X047144D01*
Y048911D01*
D02*
G37*
G36*
X047229Y04889D02*
Y048879D01*
Y048868D01*
X047208D01*
Y048879D01*
X047197D01*
Y04889D01*
Y0489D01*
X047229D01*
Y04889D01*
D02*
G37*
G36*
X047358Y048836D02*
X047379D01*
Y048826D01*
X04739D01*
Y048815D01*
X047401D01*
Y048804D01*
Y048793D01*
X04739D01*
Y048783D01*
X047368D01*
Y048793D01*
X047358D01*
Y048804D01*
X047347D01*
Y048815D01*
X047326D01*
Y048826D01*
X047304D01*
Y048836D01*
X047315D01*
Y048847D01*
X047358D01*
Y048836D01*
D02*
G37*
G36*
X047165D02*
Y048826D01*
X047176D01*
Y048815D01*
Y048804D01*
Y048793D01*
Y048783D01*
Y048772D01*
Y048761D01*
Y048751D01*
Y04874D01*
Y048729D01*
X047262D01*
Y04874D01*
X047283D01*
Y048729D01*
X047304D01*
Y048719D01*
Y048708D01*
X04724D01*
Y048719D01*
X047219D01*
Y048708D01*
X047176D01*
Y048697D01*
X047165D01*
Y048686D01*
X047122D01*
Y048697D01*
X047155D01*
Y048708D01*
X047165D01*
Y048719D01*
X047155D01*
Y048729D01*
Y04874D01*
Y048751D01*
Y048761D01*
Y048772D01*
Y048783D01*
Y048793D01*
Y048804D01*
Y048815D01*
Y048826D01*
Y048836D01*
Y048847D01*
X047165D01*
Y048836D01*
D02*
G37*
D17*
X042504Y029021D02*
G03*
X042775Y028751I000423J000152D01*
G01*
X043478Y029169D02*
G03*
X043924Y028724I000449J000004D01*
G01*
X040177Y050994D02*
X048396Y042776D01*
Y028477D02*
X04869Y028183D01*
X040177Y050994D02*
Y052559D01*
X048396Y028477D02*
Y042776D01*
X04869Y02814D02*
Y028183D01*
X037795Y049587D02*
X037825D01*
X04024Y047171D01*
Y02684D02*
Y047171D01*
X037177Y051081D02*
Y052559D01*
Y051081D02*
X045478Y04278D01*
Y028722D02*
Y04278D01*
X033177Y052559D02*
Y0531D01*
X026516Y052982D02*
X026781Y053248D01*
X028119D02*
X028177Y053189D01*
Y052559D02*
Y053189D01*
X026781Y053248D02*
X028119D01*
X028627Y05351D02*
X029177Y05296D01*
X02654Y05351D02*
X028627D01*
X029177Y052559D02*
Y05296D01*
X05731Y020986D02*
Y02308D01*
X026516Y04688D02*
Y052982D01*
Y02933D02*
Y04688D01*
X027618Y047982D02*
Y048071D01*
X026516Y04688D02*
X027618Y047982D01*
X026783Y028947D02*
Y029063D01*
Y028947D02*
X02744Y028291D01*
X026516Y02933D02*
X026783Y029063D01*
X031177Y038103D02*
Y052559D01*
X032177Y036246D02*
Y052559D01*
X03171Y053D02*
X03194Y05323D01*
X03171Y029203D02*
Y053D01*
X05189Y02846D02*
Y029734D01*
X052184Y027458D02*
Y028166D01*
X05189Y02846D02*
X052184Y028166D01*
X025783Y026947D02*
X02623Y027393D01*
Y0532D01*
X02654Y05351D01*
X047835Y018533D02*
Y01895D01*
X047755Y01903D02*
X047835Y01895D01*
X0476Y01903D02*
X047755D01*
X04749Y01914D02*
X0476Y01903D01*
X04749Y01914D02*
Y020096D01*
X04824Y020846D01*
Y02164D01*
X04623Y02365D02*
X04824Y02164D01*
X04623Y02365D02*
Y02797D01*
X045478Y028722D02*
X04623Y02797D01*
X04815Y0176D02*
Y018533D01*
X047867Y017318D02*
X04815Y0176D01*
X047033Y017318D02*
X047867D01*
X04443Y01992D02*
X047033Y017318D01*
X043052Y01992D02*
X04443D01*
X04165Y021322D02*
X043052Y01992D01*
X04165Y021322D02*
Y02543D01*
X04024Y02684D02*
X04165Y02543D01*
X048465Y017195D02*
Y018533D01*
X048297Y017028D02*
X048465Y017195D01*
X043877Y017028D02*
X048297D01*
X04265Y018255D02*
X043877Y017028D01*
X04265Y018255D02*
Y01977D01*
X0378Y02462D02*
X04265Y01977D01*
X0378Y02462D02*
Y04861D01*
X04878Y018533D02*
Y018927D01*
X04839Y019316D02*
X04878Y018927D01*
X04839Y019316D02*
Y01989D01*
X032177Y036246D02*
X03505Y033374D01*
X052376Y03022D02*
X05538D01*
X05189Y029734D02*
X052376Y03022D01*
X055827Y027126D02*
Y029774D01*
X05538Y03022D02*
X055827Y029774D01*
Y027126D02*
X056201Y026752D01*
X056736D01*
X05773Y025758D01*
X05573D02*
X055785Y025703D01*
Y023501D02*
Y025703D01*
X056785Y023605D02*
Y025703D01*
X05673Y025758D02*
X056785Y025703D01*
X057785Y024419D02*
Y025703D01*
X05773Y025758D02*
X057785Y025703D01*
X05627Y022569D02*
X056742D01*
X05627Y022569D02*
X05627Y022569D01*
X056742D02*
X056791Y02252D01*
X05406Y024542D02*
Y027052D01*
X052818Y0233D02*
X05406Y024542D01*
X050669Y0233D02*
X052818D01*
X028334Y016329D02*
X049085D01*
X049685Y016929D02*
Y018493D01*
X049085Y016329D02*
X049685Y016929D01*
Y018493D02*
X049724Y018533D01*
X04676Y01842D02*
X04728Y01894D01*
X042158Y016692D02*
Y017045D01*
X048907Y016634D02*
X049409Y017136D01*
X042158Y016692D02*
X042217Y016634D01*
X048907D01*
X041007Y017045D02*
X042158D01*
X028063Y0166D02*
X028334Y016329D01*
X054173Y021614D02*
X054931D01*
X053Y020441D02*
X054173Y021614D01*
X054931D02*
X055226Y021319D01*
Y020612D02*
Y021319D01*
X055069Y021959D02*
X055683Y021345D01*
X055069Y021959D02*
Y022569D01*
X055683Y021172D02*
X055869Y020986D01*
X055683Y021172D02*
Y021345D01*
X055226Y020612D02*
X0556Y020238D01*
X055869Y020986D02*
X055908D01*
X053Y019555D02*
Y020441D01*
X054616Y022569D02*
X055069D01*
X052589Y019665D02*
Y020541D01*
X054616Y022569D01*
X054575Y02304D02*
X0557D01*
X052553Y021018D02*
X054575Y02304D01*
X051603Y021018D02*
X052553D01*
X055049Y024085D02*
Y02888D01*
X051716Y022106D02*
X053071D01*
X055049Y024085D01*
X051364Y022062D02*
X051672D01*
X051329Y022028D02*
X051364Y022062D01*
X051672D02*
X051716Y022106D01*
X051771Y022444D02*
X052956D01*
X054705Y024193D01*
X051379Y022393D02*
X05172D01*
X051771Y022444D01*
X051329Y022343D02*
X051379Y022393D01*
X050384Y015738D02*
X060908D01*
X06115Y01598D01*
X049974Y016148D02*
X050384Y015738D01*
X049974Y016148D02*
Y018259D01*
X049989Y018274D01*
Y018483D01*
X050039Y018533D01*
X050354Y016466D02*
Y018533D01*
Y016466D02*
X05044Y01638D01*
X05389Y027882D02*
X05439Y027382D01*
X05389Y027882D02*
Y0294D01*
X05439Y02439D02*
Y027382D01*
X053343Y02777D02*
Y029173D01*
Y02777D02*
X05406Y027052D01*
X055049Y02888D02*
X055343Y029173D01*
X052904Y022904D02*
X05439Y02439D01*
X054702Y027708D02*
X054705Y027667D01*
X054592Y028954D02*
X054623Y028927D01*
X054343Y029173D02*
X054592Y028954D01*
X054705Y024193D02*
Y027667D01*
X054629Y028841D02*
X054702Y027708D01*
X054623Y028927D02*
X054629Y028841D01*
X051147Y022904D02*
X052904D01*
X048465Y023903D02*
X050418Y025856D01*
X048465Y023003D02*
Y023903D01*
X040927Y026898D02*
X04259Y025235D01*
X040927Y026898D02*
Y029173D01*
X04259Y02131D02*
Y025235D01*
X041927Y029173D02*
X042352D01*
X044537Y022845D02*
X044555Y022828D01*
X042775Y028751D02*
X044537Y026988D01*
X042352Y029173D02*
X042504Y029021D01*
X044537Y022845D02*
Y026988D01*
X044555Y021804D02*
Y022828D01*
X044409Y021659D02*
X044555Y021804D01*
X044409Y020961D02*
Y021659D01*
Y020961D02*
X045862Y019508D01*
X045217Y020955D02*
X045571Y0206D01*
X043924Y028724D02*
X045217Y027431D01*
Y020955D02*
Y027431D01*
X045837Y021713D02*
X046859D01*
X045581Y021969D02*
Y027707D01*
Y021969D02*
X045837Y021713D01*
X045787Y021171D02*
X045896D01*
X046122Y021398D02*
X046859D01*
X045896Y021171D02*
X046122Y021398D01*
X046014Y0206D02*
X046446Y021033D01*
X046809D01*
X045571Y0206D02*
X046014D01*
X044872Y020824D02*
X045558Y020138D01*
X046809Y021033D02*
X046859Y021083D01*
X044872Y020824D02*
Y027228D01*
X04378Y02012D02*
X044967D01*
X045894Y019193D01*
X045558Y020138D02*
X046859D01*
X042927Y029173D02*
X044872Y027228D01*
X04421Y029078D02*
X045581Y027707D01*
X045915Y022145D02*
Y027887D01*
X044996Y028806D02*
X045915Y027887D01*
Y022145D02*
X046032Y022028D01*
X043441Y029207D02*
X04345Y029197D01*
X04345Y029197D01*
X04343Y029218D02*
X043441Y029207D01*
X043459Y029188D02*
X043459Y029188D01*
X043451Y029197D02*
X043451Y029197D01*
X04345Y029197D02*
X043451Y029197D01*
X04343Y029218D02*
Y03368D01*
X043459Y029188D02*
X043478Y029169D01*
X043451Y029197D02*
X043459Y029188D01*
X04343Y029218D02*
X04343D01*
X043927Y029173D02*
X044023Y029078D01*
X04421D01*
X044927Y029173D02*
X044996Y029105D01*
Y028806D02*
Y029105D01*
X047539Y02756D02*
X04754Y02756D01*
X047539Y023715D02*
X047835Y02342D01*
X047539Y023715D02*
Y02756D01*
X04815Y02567D02*
X048336Y025856D01*
X048615D01*
X04815Y023003D02*
Y02567D01*
X051778Y021398D02*
X05207Y02169D01*
X051329Y021398D02*
X051778D01*
X05091Y021713D02*
Y022666D01*
X051147Y022904D01*
X051379Y021033D02*
X051588D01*
X051329Y021083D02*
X051379Y021033D01*
X051588D02*
X051603Y021018D01*
X051854Y018931D02*
X052589Y019665D01*
X050669Y01853D02*
X051975D01*
X053Y019555D01*
X050939Y018931D02*
X051854D01*
X049409Y017136D02*
Y018533D01*
X0569Y020986D02*
X057188D01*
X055908D02*
X0569D01*
X049409Y0188D02*
Y019097D01*
Y018533D02*
Y0188D01*
X0534Y01935D02*
X0542Y01855D01*
X055817Y022923D02*
Y02347D01*
X057821Y020237D02*
X058465D01*
X055261Y020238D02*
X0556D01*
X02744Y023656D02*
Y028291D01*
X029204Y020728D02*
X030066D01*
X028806Y02033D02*
X029204Y020728D01*
X049409Y0188D02*
X049559Y01895D01*
X05092D01*
X050939Y018931D01*
X04728Y020453D02*
X047834Y021006D01*
X046859Y020453D02*
X04728D01*
X057785Y024419D02*
X0592Y023005D01*
Y02272D02*
Y023005D01*
Y02272D02*
X0594Y02252D01*
X059783D01*
X024197Y02367D02*
Y028361D01*
X024783Y028947D01*
X030066Y019979D02*
X0304D01*
X0305Y020409D01*
X035502Y025411D01*
X0543Y020985D02*
X054626D01*
X0542Y020885D02*
X0543Y020985D01*
X0542Y01855D02*
Y020885D01*
Y01855D02*
X055089Y017661D01*
Y01628D02*
Y017661D01*
X04789Y020117D02*
X04878Y020925D01*
X04789Y019426D02*
Y020117D01*
X050669Y01853D02*
Y018533D01*
X0556Y020238D02*
X055908D01*
X054626Y020237D02*
X055261Y020238D01*
X050669Y023003D02*
Y0233D01*
X050354Y023003D02*
Y02388D01*
X05153Y025056D01*
X05008Y019943D02*
Y02194D01*
Y019943D02*
X051329Y019823D01*
X0504Y020138D02*
X051329D01*
X05028Y020258D02*
X0504Y020138D01*
X05028Y020258D02*
Y02098D01*
X05059Y02129D01*
X047835Y023003D02*
Y02342D01*
X045894Y019193D02*
X046859D01*
X04259Y02131D02*
X04378Y02012D01*
X050039Y023003D02*
Y024295D01*
X049724Y023003D02*
Y02352D01*
X04957Y023674D02*
X049724Y02352D01*
X04914Y023674D02*
X04957D01*
X049409Y020101D02*
X04968Y01983D01*
X049409Y020101D02*
Y023003D01*
X04735Y02143D02*
X0476Y02168D01*
X04735Y0209D02*
Y02143D01*
X047218Y020768D02*
X04735Y0209D01*
X046859Y020768D02*
X047218D01*
X033047Y05323D02*
X033177Y0531D01*
X03194Y05323D02*
X033047D01*
X03171Y029203D02*
X035502Y025411D01*
X051329Y020453D02*
X051897D01*
X05193Y02042D01*
X04728Y01894D02*
Y0197D01*
X047157Y019823D02*
X04728Y0197D01*
X046859Y019823D02*
X047157D01*
X04752Y01806D02*
X04766Y01792D01*
X04752Y01806D02*
Y018533D01*
X046032Y022028D02*
X046859D01*
X049094Y018533D02*
Y019012D01*
X04889Y019216D02*
X049094Y019012D01*
X04889Y019216D02*
Y020814D01*
X04878Y020925D02*
X04889Y020814D01*
X04878Y020925D02*
Y023003D01*
X049094Y019412D02*
X049409Y019097D01*
X049094Y019412D02*
Y023003D01*
X045862Y019508D02*
X046859D01*
X060561Y018479D02*
Y019272D01*
Y018479D02*
X06115Y01789D01*
Y01598D02*
Y01789D01*
X05771Y02057D02*
X05784Y02044D01*
X057188Y02057D02*
X05771D01*
X057188Y020238D02*
Y02057D01*
X050418Y025856D02*
X053115D01*
X05069Y020668D02*
X05079Y020768D01*
X051329D01*
X055817Y022569D02*
Y022923D01*
X0557Y02304D02*
X055817Y022923D01*
X05412Y02963D02*
X05484D01*
X05389Y0294D02*
X05412Y02963D01*
X05091Y021713D02*
X051329D01*
X056785Y023605D02*
X05731Y02308D01*
X057188Y020986D02*
X05731D01*
X05676Y020846D02*
X0569Y020986D01*
X05676Y01926D02*
Y020846D01*
Y01926D02*
X0572Y01882D01*
X0588D01*
X05923Y01925D01*
Y020846D01*
X05937Y020986D01*
X059748D01*
X028063Y0166D02*
Y017033D01*
X027393D02*
X028063D01*
X02695Y01659D02*
X027393Y017033D01*
X025786Y01659D02*
X02695D01*
X025289Y017087D02*
X025786Y01659D01*
X059783Y02252D02*
X060505D01*
X061025Y022D01*
Y020985D02*
Y022D01*
X026306Y02033D02*
Y022144D01*
X02478Y02367D02*
X026306Y022144D01*
X024197Y02367D02*
X02478D01*
X02744Y023656D02*
X0284D01*
X028806Y02325D01*
Y02033D02*
Y02325D01*
X054626Y019983D02*
Y020237D01*
Y019983D02*
X055089Y01952D01*
Y019272D02*
Y01952D01*
X028806Y018675D02*
Y02033D01*
Y018675D02*
X028811Y01867D01*
Y017033D02*
Y01867D01*
Y017033D02*
X031997D01*
X03231Y01672D01*
X038085D01*
X03841Y017045D01*
X041007D01*
X058465Y020985D02*
X058885D01*
X05932Y02142D01*
X060165D01*
X0606Y020985D01*
X061025D01*
X055089Y01628D02*
X057844D01*
X060561D01*
X026306Y018707D02*
Y02033D01*
X026289Y01869D02*
X026306Y018707D01*
X026289Y017087D02*
Y01869D01*
X050847Y027458D02*
X052184D01*
X05084Y027451D02*
X050847Y027458D01*
X049523Y027451D02*
X05084D01*
X055785Y023501D02*
X055817Y02347D01*
Y022569D02*
X05627D01*
X048775Y02673D02*
Y027451D01*
X048615Y02657D02*
X048775Y02673D01*
X048615Y025856D02*
Y02657D01*
X061025Y019984D02*
Y020237D01*
X060561Y01952D02*
X061025Y019984D01*
X060561Y019272D02*
Y01952D01*
X060381Y020237D02*
X061025D01*
X06038Y020238D02*
X060381Y020237D01*
X059748Y020238D02*
X06038D01*
X052932Y026743D02*
Y027458D01*
Y026743D02*
X053115Y02656D01*
Y025856D02*
Y02656D01*
X058465Y020061D02*
Y020237D01*
X057844Y01944D02*
X058465Y020061D01*
X057844Y019272D02*
Y01944D01*
X05782Y020238D02*
X057821Y020237D01*
X057188Y020238D02*
X05782D01*
X044072Y023053D02*
Y023759D01*
Y023053D02*
X044105Y02302D01*
Y022316D02*
Y02302D01*
X043088Y023037D02*
Y023759D01*
Y023037D02*
X043105Y02302D01*
Y022316D02*
Y02302D01*
X026154Y023656D02*
X026692D01*
X02614Y02367D02*
X026154Y023656D01*
X025617Y02367D02*
X02614D01*
X042105Y018574D02*
Y019316D01*
Y018574D02*
X042158Y01852D01*
Y017793D02*
Y01852D01*
X041105Y018598D02*
Y019316D01*
X041007Y0185D02*
X041105Y018598D01*
X041007Y017793D02*
Y0185D01*
D22*
X048615Y025856D02*
D03*
X053115D02*
D03*
D23*
X044072Y023759D02*
D03*
X043088D02*
D03*
D24*
X04752Y018533D02*
D03*
X047835D02*
D03*
X04815D02*
D03*
X048465D02*
D03*
X04878D02*
D03*
X049094D02*
D03*
X049409D02*
D03*
X049724D02*
D03*
X050039D02*
D03*
X050354D02*
D03*
X050669D02*
D03*
Y023003D02*
D03*
X050354D02*
D03*
X050039D02*
D03*
X049724D02*
D03*
X049409D02*
D03*
X049094D02*
D03*
X04878D02*
D03*
X048465D02*
D03*
X04815D02*
D03*
X047835D02*
D03*
X04752D02*
D03*
D25*
X051329Y019193D02*
D03*
Y019508D02*
D03*
Y019823D02*
D03*
Y020138D02*
D03*
Y020453D02*
D03*
Y020768D02*
D03*
Y021083D02*
D03*
Y021398D02*
D03*
Y021713D02*
D03*
Y022028D02*
D03*
Y022343D02*
D03*
X046859D02*
D03*
Y022028D02*
D03*
Y021713D02*
D03*
Y021398D02*
D03*
Y021083D02*
D03*
Y020768D02*
D03*
Y020453D02*
D03*
Y020138D02*
D03*
Y019823D02*
D03*
Y019508D02*
D03*
Y019193D02*
D03*
D26*
X059783Y02252D02*
D03*
X056791D02*
D03*
D27*
X055089Y01628D02*
D03*
Y019272D02*
D03*
X057844Y01628D02*
D03*
Y019272D02*
D03*
X060561Y01628D02*
D03*
Y019272D02*
D03*
D28*
X026692Y023656D02*
D03*
X02744D02*
D03*
X028063Y017033D02*
D03*
X028811D02*
D03*
X055817Y022569D02*
D03*
X055069D02*
D03*
X052932Y027458D02*
D03*
X052184D02*
D03*
X048775Y027451D02*
D03*
X049523D02*
D03*
D29*
X055908Y020238D02*
D03*
Y020986D02*
D03*
X057188Y020238D02*
D03*
Y020986D02*
D03*
X059748Y020238D02*
D03*
Y020986D02*
D03*
X042158Y017793D02*
D03*
Y017045D02*
D03*
X041007Y017793D02*
D03*
Y017045D02*
D03*
X054626Y020985D02*
D03*
Y020237D02*
D03*
X058465Y020985D02*
D03*
Y020237D02*
D03*
X061025Y020985D02*
D03*
Y020237D02*
D03*
X030066Y019979D02*
D03*
Y020728D02*
D03*
D30*
X024197Y02367D02*
D03*
X025617D02*
D03*
D50*
X027207Y052549D02*
D03*
X05573Y025758D02*
D03*
D51*
X028207Y052549D02*
D03*
X029207D02*
D03*
X030207D02*
D03*
X031207D02*
D03*
X032207D02*
D03*
X033207D02*
D03*
X034207D02*
D03*
X035207D02*
D03*
X036207D02*
D03*
X037207D02*
D03*
X038207D02*
D03*
X039207D02*
D03*
X040207D02*
D03*
X041207D02*
D03*
X042207D02*
D03*
X05773Y025758D02*
D03*
X05673D02*
D03*
X05873D02*
D03*
X05973D02*
D03*
X06073D02*
D03*
D52*
X024783Y028947D02*
D03*
X025783Y026947D02*
D03*
X026783Y028947D02*
D03*
D53*
X041927Y029173D02*
D03*
X048927D02*
D03*
X047927D02*
D03*
X046927D02*
D03*
X045927D02*
D03*
X044927D02*
D03*
X043927D02*
D03*
X042927D02*
D03*
X059343D02*
D03*
X052343D02*
D03*
X053343D02*
D03*
X054343D02*
D03*
X055343D02*
D03*
X056343D02*
D03*
X057343D02*
D03*
X058343D02*
D03*
X026289Y017087D02*
D03*
X025289D02*
D03*
D54*
X040927Y029173D02*
D03*
X060343D02*
D03*
X024289Y017087D02*
D03*
D55*
X027806Y01833D02*
D03*
D56*
X026306Y02033D02*
D03*
X028806D02*
D03*
D57*
X044105Y022316D02*
D03*
D58*
X043105D02*
D03*
X042105D02*
D03*
X041105D02*
D03*
X044105Y019316D02*
D03*
X043105D02*
D03*
X042105D02*
D03*
X041105D02*
D03*
D59*
X035502Y017411D02*
D03*
D60*
Y025411D02*
D03*
D61*
X037795Y049587D02*
D03*
X0378Y04861D02*
D03*
X027618Y048071D02*
D03*
X04839Y01989D02*
D03*
X04869Y02814D02*
D03*
X04676Y01842D02*
D03*
X05044Y01638D02*
D03*
X045787Y021171D02*
D03*
X05207Y02169D02*
D03*
X03505Y033374D02*
D03*
X047834Y021006D02*
D03*
X0534Y01935D02*
D03*
X04789Y019426D02*
D03*
X05153Y025056D02*
D03*
X05008Y02194D02*
D03*
X05059Y02129D02*
D03*
X04754Y02756D02*
D03*
X050039Y024295D02*
D03*
X04914Y023674D02*
D03*
X04968Y01983D02*
D03*
X04343Y03368D02*
D03*
X031177Y038103D02*
D03*
X0476Y02168D02*
D03*
X05193Y02042D02*
D03*
X04766Y01792D02*
D03*
X05784Y02044D02*
D03*
X05069Y020668D02*
D03*
X05484Y02963D02*
D03*
M02*
