G04*
G04 #@! TF.GenerationSoftware,Altium Limited,Altium Designer,21.0.8 (223)*
G04*
G04 Layer_Color=128*
%FSTAX24Y24*%
%MOIN*%
G70*
G04*
G04 #@! TF.SameCoordinates,EDDFCF6A-67A3-46E2-8177-59DA37980891*
G04*
G04*
G04 #@! TF.FilePolarity,Positive*
G04*
G01*
G75*
%ADD63C,0.0020*%
G36*
X048331Y051779D02*
Y051768D01*
X048321D01*
Y051779D01*
X04831D01*
Y051789D01*
X048331D01*
Y051779D01*
D02*
G37*
G36*
X047957D02*
X047968D01*
Y051768D01*
X047946D01*
Y051779D01*
X047914D01*
Y051768D01*
X047903D01*
Y051757D01*
X047936D01*
Y051746D01*
Y051736D01*
Y051725D01*
X047903D01*
Y051736D01*
Y051746D01*
Y051757D01*
X047882D01*
Y051768D01*
X047861D01*
Y051779D01*
X047829D01*
Y051768D01*
X047807D01*
Y051757D01*
X047743D01*
Y051746D01*
X047732D01*
Y051736D01*
X047764D01*
Y051725D01*
Y051714D01*
X047775D01*
Y051704D01*
Y051693D01*
X047764D01*
Y051704D01*
X047754D01*
Y051714D01*
X047732D01*
Y051725D01*
Y051736D01*
X047711D01*
Y051746D01*
X047689D01*
Y051757D01*
X047679D01*
Y051768D01*
X047786D01*
Y051779D01*
X047807D01*
Y051789D01*
X047957D01*
Y051779D01*
D02*
G37*
G36*
X048289D02*
X048299D01*
Y051768D01*
X048289D01*
Y051757D01*
X048257D01*
Y051768D01*
X048139D01*
Y051779D01*
X048128D01*
Y051789D01*
X048289D01*
Y051779D01*
D02*
G37*
G36*
X04831Y051746D02*
Y051736D01*
X048299D01*
Y051746D01*
Y051757D01*
X04831D01*
Y051746D01*
D02*
G37*
G36*
X048D02*
Y051736D01*
X047968D01*
Y051746D01*
Y051757D01*
X048D01*
Y051746D01*
D02*
G37*
G36*
X048631Y051704D02*
Y051693D01*
X048567D01*
Y051704D01*
Y051714D01*
X048631D01*
Y051704D01*
D02*
G37*
G36*
X048449Y051757D02*
X04846D01*
Y051746D01*
X048481D01*
Y051736D01*
X048556D01*
Y051725D01*
X048545D01*
Y051714D01*
X048535D01*
Y051704D01*
Y051693D01*
X048513D01*
Y051704D01*
X048492D01*
Y051714D01*
X048471D01*
Y051725D01*
X04846D01*
Y051736D01*
X048428D01*
Y051746D01*
X048353D01*
Y051757D01*
Y051768D01*
X048449D01*
Y051757D01*
D02*
G37*
G36*
X04785Y051746D02*
X047861D01*
Y051736D01*
Y051725D01*
X047893D01*
Y051714D01*
X047903D01*
Y051704D01*
X047893D01*
Y051693D01*
X047861D01*
Y051704D01*
Y051714D01*
Y051725D01*
X047818D01*
Y051736D01*
Y051746D01*
X047829D01*
Y051757D01*
X04785D01*
Y051746D01*
D02*
G37*
G36*
X048107Y051779D02*
Y051768D01*
Y051757D01*
X048085D01*
Y051746D01*
Y051736D01*
X048117D01*
Y051746D01*
X048128D01*
Y051736D01*
X048171D01*
Y051746D01*
Y051757D01*
X048192D01*
Y051746D01*
Y051736D01*
X048214D01*
Y051746D01*
X048224D01*
Y051736D01*
Y051725D01*
Y051714D01*
X048278D01*
Y051704D01*
X048267D01*
Y051693D01*
X048257D01*
Y051682D01*
X048235D01*
Y051693D01*
X048224D01*
Y051704D01*
X048214D01*
Y051714D01*
X048192D01*
Y051725D01*
X048171D01*
Y051714D01*
X048085D01*
Y051725D01*
X048064D01*
Y051714D01*
X048032D01*
Y051704D01*
X048021D01*
Y051693D01*
X04801D01*
Y051682D01*
X047978D01*
Y051693D01*
Y051704D01*
X04801D01*
Y051714D01*
X048021D01*
Y051725D01*
X048032D01*
Y051736D01*
X048053D01*
Y051746D01*
X048064D01*
Y051757D01*
X048075D01*
Y051768D01*
Y051779D01*
X048085D01*
Y051789D01*
X048107D01*
Y051779D01*
D02*
G37*
G36*
X04831Y051672D02*
X048299D01*
Y051661D01*
X048278D01*
Y051672D01*
Y051682D01*
X04831D01*
Y051672D01*
D02*
G37*
G36*
X047957Y051704D02*
X047946D01*
Y051693D01*
Y051682D01*
X047968D01*
Y051672D01*
Y051661D01*
X047936D01*
Y051672D01*
Y051682D01*
X047914D01*
Y051693D01*
X047936D01*
Y051704D01*
Y051714D01*
X047957D01*
Y051704D01*
D02*
G37*
G36*
X047796Y051682D02*
X047807D01*
Y051672D01*
X047818D01*
Y051661D01*
X047807D01*
Y05165D01*
X047796D01*
Y051661D01*
X047786D01*
Y051672D01*
Y051682D01*
Y051693D01*
X047796D01*
Y051682D01*
D02*
G37*
G36*
X048684D02*
X048695D01*
Y051672D01*
X048706D01*
Y051661D01*
X048759D01*
Y05165D01*
Y051639D01*
X048717D01*
Y05165D01*
X048706D01*
Y051661D01*
X048663D01*
Y051672D01*
X048642D01*
Y051682D01*
X048663D01*
Y051693D01*
X048684D01*
Y051682D01*
D02*
G37*
G36*
X048802Y051629D02*
X048813D01*
Y051618D01*
X048791D01*
Y051607D01*
X04877D01*
Y051618D01*
Y051629D01*
X048781D01*
Y051639D01*
X048802D01*
Y051629D01*
D02*
G37*
G36*
X04861Y051618D02*
X048599D01*
Y051607D01*
X048588D01*
Y051618D01*
X048577D01*
Y051629D01*
X04861D01*
Y051618D01*
D02*
G37*
G36*
X048353Y051661D02*
Y05165D01*
Y051639D01*
Y051629D01*
X048374D01*
Y051618D01*
Y051607D01*
X048353D01*
Y051618D01*
Y051629D01*
X048342D01*
Y051639D01*
X048321D01*
Y05165D01*
Y051661D01*
Y051672D01*
X048353D01*
Y051661D01*
D02*
G37*
G36*
X047839D02*
X04785D01*
Y05165D01*
X047839D01*
Y051639D01*
Y051629D01*
Y051618D01*
X047829D01*
Y051607D01*
Y051597D01*
X047818D01*
Y051607D01*
X047807D01*
Y051618D01*
X047818D01*
Y051629D01*
Y051639D01*
Y05165D01*
X047829D01*
Y051661D01*
Y051672D01*
X047839D01*
Y051661D01*
D02*
G37*
G36*
X04877Y051597D02*
Y051586D01*
X048759D01*
Y051597D01*
Y051607D01*
X04877D01*
Y051597D01*
D02*
G37*
G36*
X048717Y051607D02*
X048706D01*
Y051597D01*
X048674D01*
Y051586D01*
X048652D01*
Y051597D01*
Y051607D01*
X048663D01*
Y051618D01*
X048717D01*
Y051607D01*
D02*
G37*
G36*
X048856D02*
Y051597D01*
Y051586D01*
X048845D01*
Y051575D01*
X048813D01*
Y051586D01*
Y051597D01*
Y051607D01*
X048824D01*
Y051618D01*
X048856D01*
Y051607D01*
D02*
G37*
G36*
X048567Y051586D02*
Y051575D01*
X048556D01*
Y051586D01*
X048545D01*
Y051597D01*
X048567D01*
Y051586D01*
D02*
G37*
G36*
X047903Y05165D02*
X047925D01*
Y051639D01*
X047914D01*
Y051629D01*
X047903D01*
Y051618D01*
X047893D01*
Y051607D01*
X047871D01*
Y051597D01*
X047861D01*
Y051586D01*
Y051575D01*
X04785D01*
Y051565D01*
X047829D01*
Y051575D01*
Y051586D01*
X047839D01*
Y051597D01*
X04785D01*
Y051607D01*
X047861D01*
Y051618D01*
Y051629D01*
X047871D01*
Y051639D01*
X047882D01*
Y05165D01*
Y051661D01*
X047903D01*
Y05165D01*
D02*
G37*
G36*
X048941Y051554D02*
X048952D01*
Y051543D01*
X04892D01*
Y051554D01*
Y051565D01*
X048941D01*
Y051554D01*
D02*
G37*
G36*
X048428Y051597D02*
X04846D01*
Y051586D01*
X048481D01*
Y051575D01*
Y051565D01*
Y051554D01*
X04846D01*
Y051543D01*
X048449D01*
Y051554D01*
Y051565D01*
X048438D01*
Y051575D01*
Y051586D01*
X048417D01*
Y051597D01*
X048406D01*
Y051607D01*
X048428D01*
Y051597D01*
D02*
G37*
G36*
X047358Y051607D02*
Y051597D01*
X047336D01*
Y051586D01*
X047326D01*
Y051575D01*
Y051565D01*
X047315D01*
Y051554D01*
X047304D01*
Y051543D01*
Y051532D01*
X047283D01*
Y051543D01*
X047251D01*
Y051554D01*
X047283D01*
Y051565D01*
X047294D01*
Y051575D01*
Y051586D01*
X047315D01*
Y051597D01*
X047326D01*
Y051607D01*
X047336D01*
Y051618D01*
X047358D01*
Y051607D01*
D02*
G37*
G36*
X047219Y051522D02*
Y051511D01*
X047208D01*
Y0515D01*
X047197D01*
Y05149D01*
X047176D01*
Y0515D01*
Y051511D01*
X047197D01*
Y051522D01*
X047208D01*
Y051532D01*
X047219D01*
Y051522D01*
D02*
G37*
G36*
X048513Y051532D02*
X048524D01*
Y051522D01*
Y051511D01*
X048503D01*
Y0515D01*
Y05149D01*
X048492D01*
Y051479D01*
X048471D01*
Y05149D01*
Y0515D01*
X048481D01*
Y051511D01*
X048492D01*
Y051522D01*
X048503D01*
Y051532D01*
Y051543D01*
X048513D01*
Y051532D01*
D02*
G37*
G36*
X047262Y051522D02*
X047272D01*
Y051511D01*
Y0515D01*
Y05149D01*
Y051479D01*
X047251D01*
Y05149D01*
X04724D01*
Y0515D01*
Y051511D01*
X047229D01*
Y051522D01*
Y051532D01*
X047262D01*
Y051522D01*
D02*
G37*
G36*
X048984D02*
Y051511D01*
X049005D01*
Y0515D01*
X049016D01*
Y05149D01*
Y051479D01*
X049038D01*
Y051468D01*
Y051458D01*
X049005D01*
Y051468D01*
X048995D01*
Y051479D01*
X048973D01*
Y05149D01*
Y0515D01*
X048984D01*
Y051511D01*
X048952D01*
Y051522D01*
Y051532D01*
X048984D01*
Y051522D01*
D02*
G37*
G36*
X048428Y051543D02*
X048438D01*
Y051532D01*
Y051522D01*
X048449D01*
Y051511D01*
Y0515D01*
Y05149D01*
Y051479D01*
Y051468D01*
X04846D01*
Y051458D01*
Y051447D01*
X048449D01*
Y051458D01*
X048438D01*
Y051468D01*
Y051479D01*
X048428D01*
Y05149D01*
Y0515D01*
Y051511D01*
X048417D01*
Y051522D01*
X048406D01*
Y051532D01*
Y051543D01*
Y051554D01*
X048428D01*
Y051543D01*
D02*
G37*
G36*
X048545Y05149D02*
Y051479D01*
Y051468D01*
Y051458D01*
Y051447D01*
Y051436D01*
X048524D01*
Y051447D01*
Y051458D01*
Y051468D01*
Y051479D01*
Y05149D01*
X048535D01*
Y0515D01*
X048545D01*
Y05149D01*
D02*
G37*
G36*
X04724Y051458D02*
Y051447D01*
Y051436D01*
X047251D01*
Y051425D01*
Y051415D01*
Y051404D01*
X047229D01*
Y051415D01*
Y051425D01*
Y051436D01*
Y051447D01*
X047197D01*
Y051458D01*
Y051468D01*
X04724D01*
Y051458D01*
D02*
G37*
G36*
X048973Y051425D02*
Y051415D01*
X048984D01*
Y051404D01*
X049016D01*
Y051393D01*
X049027D01*
Y051383D01*
Y051372D01*
X048995D01*
Y051383D01*
X048984D01*
Y051393D01*
Y051404D01*
X048963D01*
Y051415D01*
Y051425D01*
Y051436D01*
X048973D01*
Y051425D01*
D02*
G37*
G36*
X04908Y051447D02*
Y051436D01*
X049102D01*
Y051425D01*
Y051415D01*
X049134D01*
Y051404D01*
Y051393D01*
X049123D01*
Y051383D01*
X049102D01*
Y051372D01*
Y051361D01*
X04908D01*
Y051372D01*
Y051383D01*
Y051393D01*
X049059D01*
Y051404D01*
X049048D01*
Y051415D01*
X049038D01*
Y051425D01*
X049027D01*
Y051436D01*
Y051447D01*
X049048D01*
Y051458D01*
X04908D01*
Y051447D01*
D02*
G37*
G36*
X047058Y051372D02*
Y051361D01*
X047048D01*
Y051372D01*
Y051383D01*
X047058D01*
Y051372D01*
D02*
G37*
G36*
X049155D02*
Y051361D01*
X049166D01*
Y051351D01*
X049177D01*
Y05134D01*
X049155D01*
Y051351D01*
Y051361D01*
X049134D01*
Y051372D01*
Y051383D01*
X049155D01*
Y051372D01*
D02*
G37*
G36*
X048545Y051329D02*
Y051318D01*
X048524D01*
Y051329D01*
Y05134D01*
X048545D01*
Y051329D01*
D02*
G37*
G36*
X047155Y051351D02*
Y05134D01*
Y051329D01*
Y051318D01*
X04709D01*
Y051329D01*
Y05134D01*
X047133D01*
Y051351D01*
X047144D01*
Y051361D01*
X047155D01*
Y051351D01*
D02*
G37*
G36*
X049198Y051318D02*
Y051308D01*
X049187D01*
Y051297D01*
X049177D01*
Y051286D01*
X049166D01*
Y051297D01*
X049155D01*
Y051308D01*
Y051318D01*
X049177D01*
Y051329D01*
X049198D01*
Y051318D01*
D02*
G37*
G36*
X047048Y051329D02*
Y051318D01*
X04708D01*
Y051308D01*
Y051297D01*
Y051286D01*
X047048D01*
Y051297D01*
X047037D01*
Y051308D01*
X047026D01*
Y051318D01*
X047015D01*
Y051329D01*
Y05134D01*
X047048D01*
Y051329D01*
D02*
G37*
G36*
X047015Y051297D02*
Y051286D01*
X047026D01*
Y051276D01*
X046994D01*
Y051286D01*
Y051297D01*
Y051308D01*
X047015D01*
Y051297D01*
D02*
G37*
G36*
X048471Y051393D02*
X048481D01*
Y051383D01*
Y051372D01*
Y051361D01*
Y051351D01*
Y05134D01*
Y051329D01*
Y051318D01*
Y051308D01*
Y051297D01*
Y051286D01*
Y051276D01*
X048471D01*
Y051265D01*
X04846D01*
Y051276D01*
Y051286D01*
Y051297D01*
Y051308D01*
Y051318D01*
Y051329D01*
Y05134D01*
Y051351D01*
Y051361D01*
Y051372D01*
Y051383D01*
Y051393D01*
Y051404D01*
X048471D01*
Y051393D01*
D02*
G37*
G36*
X0477Y05134D02*
X047722D01*
Y051329D01*
Y051318D01*
Y051308D01*
Y051297D01*
X047711D01*
Y051286D01*
Y051276D01*
X0477D01*
Y051265D01*
X047668D01*
Y051276D01*
X047657D01*
Y051286D01*
Y051297D01*
Y051308D01*
Y051318D01*
Y051329D01*
X047668D01*
Y05134D01*
X047679D01*
Y051351D01*
X0477D01*
Y05134D01*
D02*
G37*
G36*
X047165Y051479D02*
Y051468D01*
X047155D01*
Y051458D01*
X047144D01*
Y051447D01*
Y051436D01*
X047165D01*
Y051447D01*
X047176D01*
Y051436D01*
Y051425D01*
X047187D01*
Y051415D01*
X047219D01*
Y051404D01*
Y051393D01*
Y051383D01*
X047229D01*
Y051372D01*
Y051361D01*
Y051351D01*
Y05134D01*
Y051329D01*
Y051318D01*
Y051308D01*
Y051297D01*
Y051286D01*
X047219D01*
Y051276D01*
Y051265D01*
Y051254D01*
X047187D01*
Y051244D01*
X047176D01*
Y051254D01*
X047165D01*
Y051265D01*
Y051276D01*
X047187D01*
Y051265D01*
X047197D01*
Y051276D01*
X047208D01*
Y051286D01*
X047197D01*
Y051297D01*
Y051308D01*
Y051318D01*
X047208D01*
Y051329D01*
X047197D01*
Y05134D01*
Y051351D01*
Y051361D01*
X047208D01*
Y051372D01*
Y051383D01*
Y051393D01*
X047187D01*
Y051404D01*
X047176D01*
Y051415D01*
X047155D01*
Y051404D01*
X047144D01*
Y051393D01*
X047133D01*
Y051404D01*
X047112D01*
Y051415D01*
X047101D01*
Y051404D01*
Y051393D01*
X04709D01*
Y051383D01*
X04708D01*
Y051393D01*
X047069D01*
Y051404D01*
Y051415D01*
X04709D01*
Y051425D01*
X047101D01*
Y051436D01*
X047112D01*
Y051447D01*
X047122D01*
Y051458D01*
X047133D01*
Y051468D01*
X047144D01*
Y051479D01*
X047155D01*
Y05149D01*
X047165D01*
Y051479D01*
D02*
G37*
G36*
X047133Y051276D02*
X047122D01*
Y051265D01*
X047112D01*
Y051276D01*
Y051286D01*
X047133D01*
Y051276D01*
D02*
G37*
G36*
X046983Y051265D02*
Y051254D01*
X046973D01*
Y051265D01*
Y051276D01*
X046983D01*
Y051265D01*
D02*
G37*
G36*
X048524D02*
Y051254D01*
Y051244D01*
X048513D01*
Y051233D01*
Y051222D01*
X048524D01*
Y051211D01*
X048513D01*
Y051201D01*
X048428D01*
Y051211D01*
Y051222D01*
X048438D01*
Y051233D01*
X048449D01*
Y051222D01*
X048503D01*
Y051233D01*
Y051244D01*
Y051254D01*
Y051265D01*
Y051276D01*
X048524D01*
Y051265D01*
D02*
G37*
G36*
X047112Y051254D02*
X047122D01*
Y051244D01*
X047144D01*
Y051233D01*
Y051222D01*
X047112D01*
Y051233D01*
X04709D01*
Y051222D01*
Y051211D01*
Y051201D01*
X04708D01*
Y051211D01*
X047058D01*
Y051222D01*
Y051233D01*
Y051244D01*
X04709D01*
Y051254D01*
Y051265D01*
X047112D01*
Y051254D01*
D02*
G37*
G36*
X049177Y051211D02*
Y051201D01*
X049155D01*
Y051211D01*
X049166D01*
Y051222D01*
X049177D01*
Y051211D01*
D02*
G37*
G36*
X047026Y051233D02*
Y051222D01*
Y051211D01*
Y051201D01*
X047015D01*
Y051211D01*
X047005D01*
Y051222D01*
Y051233D01*
X047015D01*
Y051244D01*
X047026D01*
Y051233D01*
D02*
G37*
G36*
X046962Y051222D02*
Y051211D01*
X046973D01*
Y051201D01*
Y05119D01*
X046951D01*
Y051201D01*
X046941D01*
Y051211D01*
Y051222D01*
Y051233D01*
X046962D01*
Y051222D01*
D02*
G37*
G36*
X049252Y051201D02*
X049241D01*
Y05119D01*
Y051179D01*
X049209D01*
Y05119D01*
Y051201D01*
X049219D01*
Y051211D01*
X049252D01*
Y051201D01*
D02*
G37*
G36*
X048556Y05119D02*
X048588D01*
Y051179D01*
X048524D01*
Y05119D01*
Y051201D01*
X048556D01*
Y05119D01*
D02*
G37*
G36*
X047026Y051179D02*
X047005D01*
Y051169D01*
X046994D01*
Y051179D01*
X046983D01*
Y05119D01*
X047026D01*
Y051179D01*
D02*
G37*
G36*
X048652Y051158D02*
Y051147D01*
X04861D01*
Y051158D01*
Y051169D01*
X048652D01*
Y051158D01*
D02*
G37*
G36*
X049177Y051147D02*
Y051137D01*
X049166D01*
Y051147D01*
Y051158D01*
X049177D01*
Y051147D01*
D02*
G37*
G36*
X048888D02*
X04892D01*
Y051137D01*
X048931D01*
Y051126D01*
X048898D01*
Y051137D01*
X048888D01*
Y051126D01*
X048866D01*
Y051137D01*
Y051147D01*
X048856D01*
Y051158D01*
X048888D01*
Y051147D01*
D02*
G37*
G36*
X046941Y051169D02*
Y051158D01*
Y051147D01*
X046951D01*
Y051137D01*
Y051126D01*
X046941D01*
Y051115D01*
X04693D01*
Y051126D01*
X046919D01*
Y051137D01*
Y051147D01*
X046908D01*
Y051158D01*
X046919D01*
Y051169D01*
Y051179D01*
X046941D01*
Y051169D01*
D02*
G37*
G36*
X048813Y051137D02*
X048824D01*
Y051126D01*
Y051115D01*
X048802D01*
Y051104D01*
X048791D01*
Y051115D01*
Y051126D01*
Y051137D01*
X048802D01*
Y051147D01*
X048813D01*
Y051137D01*
D02*
G37*
G36*
X04923Y051286D02*
Y051276D01*
X049241D01*
Y051265D01*
Y051254D01*
X049252D01*
Y051244D01*
X049262D01*
Y051233D01*
X049273D01*
Y051222D01*
Y051211D01*
Y051201D01*
X049284D01*
Y05119D01*
X049294D01*
Y051179D01*
X049305D01*
Y051169D01*
X049294D01*
Y051158D01*
X049284D01*
Y051147D01*
Y051137D01*
X049326D01*
Y051126D01*
Y051115D01*
Y051104D01*
X049316D01*
Y051094D01*
X049284D01*
Y051104D01*
Y051115D01*
Y051126D01*
Y051137D01*
X049252D01*
Y051147D01*
X049241D01*
Y051158D01*
X049252D01*
Y051169D01*
Y051179D01*
X049273D01*
Y05119D01*
Y051201D01*
X049262D01*
Y051211D01*
X049252D01*
Y051222D01*
X049241D01*
Y051233D01*
Y051244D01*
Y051254D01*
X049209D01*
Y051265D01*
X049198D01*
Y051276D01*
Y051286D01*
X049209D01*
Y051297D01*
X04923D01*
Y051286D01*
D02*
G37*
G36*
X048727Y051137D02*
Y051126D01*
X048749D01*
Y051115D01*
X048759D01*
Y051104D01*
X048781D01*
Y051094D01*
Y051083D01*
Y051072D01*
X048759D01*
Y051083D01*
Y051094D01*
X048738D01*
Y051104D01*
X048727D01*
Y051115D01*
X048717D01*
Y051126D01*
X048674D01*
Y051137D01*
X048684D01*
Y051147D01*
X048727D01*
Y051137D01*
D02*
G37*
G36*
X046898Y051094D02*
Y051083D01*
Y051072D01*
X046887D01*
Y051083D01*
Y051094D01*
Y051104D01*
X046898D01*
Y051094D01*
D02*
G37*
G36*
X049219Y051115D02*
Y051104D01*
X049209D01*
Y051094D01*
X049198D01*
Y051083D01*
Y051072D01*
X049187D01*
Y051062D01*
X049166D01*
Y051072D01*
X049155D01*
Y051083D01*
X049166D01*
Y051094D01*
X049177D01*
Y051104D01*
X049187D01*
Y051115D01*
X049198D01*
Y051126D01*
X049219D01*
Y051115D01*
D02*
G37*
G36*
X049359Y051072D02*
Y051062D01*
Y051051D01*
X049337D01*
Y051062D01*
Y051072D01*
Y051083D01*
X049359D01*
Y051072D01*
D02*
G37*
G36*
X049273Y051062D02*
Y051051D01*
X049262D01*
Y051062D01*
X049252D01*
Y051072D01*
X049273D01*
Y051062D01*
D02*
G37*
G36*
X048856Y051094D02*
Y051083D01*
X048834D01*
Y051072D01*
Y051062D01*
Y051051D01*
X048802D01*
Y051062D01*
X048813D01*
Y051072D01*
Y051083D01*
X048824D01*
Y051094D01*
X048834D01*
Y051104D01*
X048856D01*
Y051094D01*
D02*
G37*
G36*
X048931Y051072D02*
Y051062D01*
Y051051D01*
X04892D01*
Y05104D01*
X048898D01*
Y05103D01*
X048888D01*
Y051019D01*
Y051008D01*
Y050997D01*
X048866D01*
Y051008D01*
Y051019D01*
X048845D01*
Y05103D01*
Y05104D01*
X048877D01*
Y051051D01*
X048898D01*
Y051062D01*
X048909D01*
Y051072D01*
Y051083D01*
X048931D01*
Y051072D01*
D02*
G37*
G36*
X04938Y051008D02*
Y050997D01*
Y050987D01*
Y050976D01*
Y050965D01*
X049369D01*
Y050976D01*
X049337D01*
Y050965D01*
Y050955D01*
X049294D01*
Y050965D01*
Y050976D01*
X049305D01*
Y050987D01*
X049337D01*
Y050997D01*
X049348D01*
Y051008D01*
X049359D01*
Y051019D01*
X04938D01*
Y051008D01*
D02*
G37*
G36*
X047615Y051094D02*
X047636D01*
Y051083D01*
X047647D01*
Y051072D01*
X047657D01*
Y051062D01*
Y051051D01*
Y05104D01*
Y05103D01*
Y051019D01*
Y051008D01*
Y050997D01*
X047647D01*
Y050987D01*
Y050976D01*
X047636D01*
Y050965D01*
X047625D01*
Y050955D01*
X04754D01*
Y050965D01*
X047529D01*
Y050976D01*
X047518D01*
Y050987D01*
Y050997D01*
X047508D01*
Y051008D01*
Y051019D01*
X047497D01*
Y05103D01*
Y05104D01*
X047508D01*
Y051051D01*
Y051062D01*
X047518D01*
Y051072D01*
Y051083D01*
X047529D01*
Y051094D01*
X04755D01*
Y051104D01*
X047615D01*
Y051094D01*
D02*
G37*
G36*
X049091Y050933D02*
Y050923D01*
Y050912D01*
X049059D01*
Y050923D01*
Y050933D01*
X04907D01*
Y050944D01*
X049091D01*
Y050933D01*
D02*
G37*
G36*
X04892Y050976D02*
X048941D01*
Y050965D01*
X048952D01*
Y050955D01*
X048963D01*
Y050944D01*
X048973D01*
Y050933D01*
X048995D01*
Y050923D01*
Y050912D01*
Y050901D01*
X048963D01*
Y050912D01*
X048952D01*
Y050923D01*
Y050933D01*
X048941D01*
Y050944D01*
X04892D01*
Y050955D01*
Y050965D01*
X048898D01*
Y050976D01*
Y050987D01*
X04892D01*
Y050976D01*
D02*
G37*
G36*
X049059Y050901D02*
Y05089D01*
Y05088D01*
X04908D01*
Y050869D01*
X049091D01*
Y050858D01*
X04908D01*
Y050848D01*
X04907D01*
Y050858D01*
X049059D01*
Y050869D01*
Y05088D01*
X049038D01*
Y05089D01*
X049027D01*
Y050901D01*
X049038D01*
Y050912D01*
X049059D01*
Y050901D01*
D02*
G37*
G36*
X049016Y05088D02*
Y050869D01*
Y050858D01*
X049038D01*
Y050848D01*
Y050837D01*
X049016D01*
Y050848D01*
Y050858D01*
X049005D01*
Y050869D01*
X048995D01*
Y05088D01*
Y05089D01*
X049016D01*
Y05088D01*
D02*
G37*
G36*
X049401Y050944D02*
Y050933D01*
X049412D01*
Y050923D01*
Y050912D01*
Y050901D01*
Y05089D01*
Y05088D01*
Y050869D01*
X049423D01*
Y050858D01*
X049433D01*
Y050848D01*
Y050837D01*
Y050826D01*
Y050816D01*
Y050805D01*
Y050794D01*
Y050784D01*
Y050773D01*
X049412D01*
Y050784D01*
Y050794D01*
Y050805D01*
Y050816D01*
Y050826D01*
Y050837D01*
Y050848D01*
X049401D01*
Y050858D01*
X049391D01*
Y050869D01*
Y05088D01*
Y05089D01*
Y050901D01*
Y050912D01*
Y050923D01*
Y050933D01*
Y050944D01*
Y050955D01*
X049401D01*
Y050944D01*
D02*
G37*
G36*
X049123Y050837D02*
Y050826D01*
X049102D01*
Y050816D01*
Y050805D01*
X049123D01*
Y050794D01*
Y050784D01*
Y050773D01*
X049112D01*
Y050784D01*
X049102D01*
Y050773D01*
X049091D01*
Y050762D01*
X04907D01*
Y050773D01*
X04908D01*
Y050784D01*
X049091D01*
Y050794D01*
Y050805D01*
X049048D01*
Y050816D01*
X049059D01*
Y050826D01*
X049091D01*
Y050837D01*
Y050848D01*
X049123D01*
Y050837D01*
D02*
G37*
G36*
X049412Y05073D02*
X049423D01*
Y050719D01*
X049401D01*
Y05073D01*
Y050741D01*
X049412D01*
Y05073D01*
D02*
G37*
G36*
X049123Y050741D02*
Y05073D01*
Y050719D01*
X049102D01*
Y05073D01*
X049091D01*
Y050741D01*
Y050751D01*
X049123D01*
Y050741D01*
D02*
G37*
G36*
X049155Y050698D02*
Y050687D01*
Y050677D01*
X049145D01*
Y050666D01*
X049123D01*
Y050677D01*
Y050687D01*
Y050698D01*
Y050709D01*
X049155D01*
Y050698D01*
D02*
G37*
G36*
X049166Y050644D02*
Y050634D01*
X049177D01*
Y050623D01*
Y050612D01*
X049166D01*
Y050602D01*
X049155D01*
Y050612D01*
Y050623D01*
Y050634D01*
Y050644D01*
Y050655D01*
X049166D01*
Y050644D01*
D02*
G37*
G36*
X049455Y050687D02*
Y050677D01*
Y050666D01*
Y050655D01*
X049466D01*
Y050644D01*
Y050634D01*
Y050623D01*
Y050612D01*
Y050602D01*
Y050591D01*
X049455D01*
Y05058D01*
Y05057D01*
Y050559D01*
Y050548D01*
Y050537D01*
Y050527D01*
Y050516D01*
Y050505D01*
Y050495D01*
Y050484D01*
Y050473D01*
Y050463D01*
Y050452D01*
Y050441D01*
X049444D01*
Y050452D01*
Y050463D01*
Y050473D01*
Y050484D01*
Y050495D01*
Y050505D01*
Y050516D01*
Y050527D01*
Y050537D01*
X049433D01*
Y050548D01*
Y050559D01*
Y05057D01*
Y05058D01*
Y050591D01*
Y050602D01*
Y050612D01*
Y050623D01*
Y050634D01*
Y050644D01*
Y050655D01*
Y050666D01*
Y050677D01*
X049444D01*
Y050687D01*
Y050698D01*
X049455D01*
Y050687D01*
D02*
G37*
G36*
X049391Y050441D02*
X04938D01*
Y05043D01*
Y05042D01*
X049369D01*
Y05043D01*
Y050441D01*
Y050452D01*
X049391D01*
Y050441D01*
D02*
G37*
G36*
X049305Y050484D02*
Y050473D01*
X049316D01*
Y050463D01*
Y050452D01*
Y050441D01*
X049305D01*
Y05043D01*
Y05042D01*
X049294D01*
Y05043D01*
X049284D01*
Y050441D01*
Y050452D01*
X049294D01*
Y050463D01*
Y050473D01*
Y050484D01*
Y050495D01*
X049305D01*
Y050484D01*
D02*
G37*
G36*
X049433Y050388D02*
Y050377D01*
Y050366D01*
Y050356D01*
Y050345D01*
Y050334D01*
Y050323D01*
Y050313D01*
Y050302D01*
Y050291D01*
Y050281D01*
Y05027D01*
X049423D01*
Y050281D01*
X049412D01*
Y050291D01*
Y050302D01*
Y050313D01*
Y050323D01*
Y050334D01*
Y050345D01*
Y050356D01*
Y050366D01*
Y050377D01*
X049423D01*
Y050388D01*
Y050398D01*
X049433D01*
Y050388D01*
D02*
G37*
G36*
X049391Y050313D02*
Y050302D01*
Y050291D01*
Y050281D01*
Y05027D01*
X049369D01*
Y050281D01*
Y050291D01*
Y050302D01*
Y050313D01*
X04938D01*
Y050323D01*
X049391D01*
Y050313D01*
D02*
G37*
G36*
X049187Y05057D02*
X049198D01*
Y050559D01*
Y050548D01*
X049219D01*
Y050537D01*
X04923D01*
Y050527D01*
Y050516D01*
Y050505D01*
Y050495D01*
Y050484D01*
Y050473D01*
X049219D01*
Y050463D01*
X04923D01*
Y050452D01*
Y050441D01*
X049219D01*
Y05043D01*
X04923D01*
Y05042D01*
Y050409D01*
Y050398D01*
Y050388D01*
Y050377D01*
Y050366D01*
Y050356D01*
Y050345D01*
X049219D01*
Y050334D01*
Y050323D01*
Y050313D01*
Y050302D01*
Y050291D01*
Y050281D01*
Y05027D01*
Y050259D01*
Y050249D01*
Y050238D01*
Y050227D01*
Y050216D01*
Y050206D01*
Y050195D01*
Y050184D01*
Y050174D01*
Y050163D01*
Y050152D01*
X049209D01*
Y050142D01*
X049198D01*
Y050152D01*
Y050163D01*
Y050174D01*
Y050184D01*
Y050195D01*
Y050206D01*
X049209D01*
Y050216D01*
Y050227D01*
Y050238D01*
Y050249D01*
Y050259D01*
Y05027D01*
Y050281D01*
Y050291D01*
Y050302D01*
Y050313D01*
Y050323D01*
Y050334D01*
X049198D01*
Y050345D01*
Y050356D01*
Y050366D01*
Y050377D01*
Y050388D01*
Y050398D01*
Y050409D01*
X049209D01*
Y05042D01*
Y05043D01*
Y050441D01*
Y050452D01*
Y050463D01*
Y050473D01*
X049198D01*
Y050484D01*
Y050495D01*
Y050505D01*
X049187D01*
Y050516D01*
X049177D01*
Y050527D01*
Y050537D01*
Y050548D01*
Y050559D01*
Y05057D01*
Y05058D01*
X049187D01*
Y05057D01*
D02*
G37*
G36*
X049284Y050174D02*
X049294D01*
Y050163D01*
Y050152D01*
Y050142D01*
X049284D01*
Y050131D01*
Y05012D01*
X049273D01*
Y050131D01*
X049262D01*
Y050142D01*
X049252D01*
Y050152D01*
Y050163D01*
Y050174D01*
X049262D01*
Y050184D01*
X049284D01*
Y050174D01*
D02*
G37*
G36*
X049348Y05012D02*
Y050109D01*
X049326D01*
Y05012D01*
Y050131D01*
X049348D01*
Y05012D01*
D02*
G37*
G36*
X049401Y050249D02*
X049412D01*
Y050238D01*
Y050227D01*
Y050216D01*
Y050206D01*
X049401D01*
Y050195D01*
Y050184D01*
X049391D01*
Y050174D01*
X04938D01*
Y050163D01*
Y050152D01*
Y050142D01*
Y050131D01*
Y05012D01*
Y050109D01*
Y050099D01*
X049359D01*
Y050109D01*
Y05012D01*
Y050131D01*
Y050142D01*
Y050152D01*
Y050163D01*
Y050174D01*
Y050184D01*
X049369D01*
Y050195D01*
X04938D01*
Y050206D01*
Y050216D01*
X049391D01*
Y050227D01*
Y050238D01*
Y050249D01*
Y050259D01*
X049401D01*
Y050249D01*
D02*
G37*
G36*
X04846Y050088D02*
Y050077D01*
X048385D01*
Y050088D01*
Y050099D01*
X04846D01*
Y050088D01*
D02*
G37*
G36*
X049305D02*
Y050077D01*
Y050067D01*
X049294D01*
Y050077D01*
Y050088D01*
Y050099D01*
X049305D01*
Y050088D01*
D02*
G37*
G36*
X048289D02*
X04831D01*
Y050077D01*
X048267D01*
Y050067D01*
X048214D01*
Y050077D01*
X048192D01*
Y050088D01*
X048214D01*
Y050099D01*
X048289D01*
Y050088D01*
D02*
G37*
G36*
X048117Y050056D02*
X04815D01*
Y050045D01*
X048117D01*
Y050056D01*
X048085D01*
Y050067D01*
X048117D01*
Y050056D01*
D02*
G37*
G36*
X049359Y050088D02*
Y050077D01*
Y050067D01*
Y050056D01*
Y050045D01*
X049348D01*
Y050035D01*
X049337D01*
Y050045D01*
Y050056D01*
Y050067D01*
Y050077D01*
Y050088D01*
X049348D01*
Y050099D01*
X049359D01*
Y050088D01*
D02*
G37*
G36*
X049187Y050109D02*
X049198D01*
Y050099D01*
Y050088D01*
Y050077D01*
Y050067D01*
Y050056D01*
X049187D01*
Y050045D01*
Y050035D01*
X049177D01*
Y050045D01*
Y050056D01*
Y050067D01*
Y050077D01*
Y050088D01*
Y050099D01*
Y050109D01*
Y05012D01*
X049187D01*
Y050109D01*
D02*
G37*
G36*
X048535Y050067D02*
X048556D01*
Y050056D01*
X048577D01*
Y050045D01*
Y050035D01*
X048545D01*
Y050045D01*
X048535D01*
Y050056D01*
X048513D01*
Y050067D01*
X048524D01*
Y050077D01*
X048535D01*
Y050067D01*
D02*
G37*
G36*
X049337Y050024D02*
Y050013D01*
X049326D01*
Y050002D01*
Y049992D01*
Y049981D01*
X049305D01*
Y04997D01*
Y04996D01*
Y049949D01*
X049294D01*
Y049938D01*
X049284D01*
Y049949D01*
X049273D01*
Y04996D01*
Y04997D01*
Y049981D01*
Y049992D01*
Y050002D01*
Y050013D01*
X049294D01*
Y050002D01*
X049305D01*
Y050013D01*
X049316D01*
Y050024D01*
X049326D01*
Y050035D01*
X049337D01*
Y050024D01*
D02*
G37*
G36*
X047957Y050013D02*
X047968D01*
Y050002D01*
X047925D01*
Y050013D01*
X047936D01*
Y050024D01*
X047957D01*
Y050013D01*
D02*
G37*
G36*
X048642D02*
Y050002D01*
X048631D01*
Y049992D01*
X04862D01*
Y050002D01*
Y050013D01*
Y050024D01*
X048642D01*
Y050013D01*
D02*
G37*
G36*
X048117Y049992D02*
X048128D01*
Y049981D01*
Y04997D01*
X048117D01*
Y049981D01*
X048107D01*
Y049992D01*
Y050002D01*
X048117D01*
Y049992D01*
D02*
G37*
G36*
X04923Y050002D02*
Y049992D01*
Y049981D01*
Y04997D01*
X049219D01*
Y04996D01*
X049209D01*
Y049949D01*
X049198D01*
Y04996D01*
X049187D01*
Y04997D01*
Y049981D01*
Y049992D01*
X049198D01*
Y050002D01*
X049219D01*
Y050013D01*
X04923D01*
Y050002D01*
D02*
G37*
G36*
X04861Y04997D02*
Y04996D01*
Y049949D01*
X048588D01*
Y04996D01*
X048577D01*
Y04997D01*
Y049981D01*
X04861D01*
Y04997D01*
D02*
G37*
G36*
X047914Y049981D02*
X047903D01*
Y04997D01*
X047893D01*
Y04996D01*
Y049949D01*
X047871D01*
Y049938D01*
X04785D01*
Y049928D01*
X047818D01*
Y049938D01*
X047839D01*
Y049949D01*
X04785D01*
Y04996D01*
Y04997D01*
X047882D01*
Y049981D01*
X047893D01*
Y049992D01*
X047914D01*
Y049981D01*
D02*
G37*
G36*
X048588Y049917D02*
Y049906D01*
X048567D01*
Y049917D01*
Y049928D01*
X048588D01*
Y049917D01*
D02*
G37*
G36*
X049273Y049906D02*
X049284D01*
Y049895D01*
Y049885D01*
X049262D01*
Y049895D01*
Y049906D01*
Y049917D01*
X049273D01*
Y049906D01*
D02*
G37*
G36*
X047818Y049917D02*
Y049906D01*
X047807D01*
Y049895D01*
X047796D01*
Y049885D01*
X047786D01*
Y049895D01*
X047775D01*
Y049906D01*
X047786D01*
Y049917D01*
X047807D01*
Y049928D01*
X047818D01*
Y049917D01*
D02*
G37*
G36*
X048535Y049928D02*
Y049917D01*
X048545D01*
Y049906D01*
X048556D01*
Y049895D01*
X048567D01*
Y049885D01*
Y049874D01*
X048545D01*
Y049885D01*
X048535D01*
Y049895D01*
Y049906D01*
X048524D01*
Y049917D01*
Y049928D01*
Y049938D01*
X048535D01*
Y049928D01*
D02*
G37*
G36*
X04923Y049895D02*
X049241D01*
Y049885D01*
X049262D01*
Y049874D01*
Y049863D01*
X049252D01*
Y049853D01*
Y049842D01*
X04923D01*
Y049853D01*
Y049863D01*
X049219D01*
Y049874D01*
X049209D01*
Y049885D01*
Y049895D01*
Y049906D01*
X04923D01*
Y049895D01*
D02*
G37*
G36*
X049112Y049874D02*
Y049863D01*
Y049853D01*
Y049842D01*
X049102D01*
Y049853D01*
Y049863D01*
Y049874D01*
Y049885D01*
X049112D01*
Y049874D01*
D02*
G37*
G36*
X047786Y049863D02*
X047775D01*
Y049853D01*
X047764D01*
Y049842D01*
X047743D01*
Y049853D01*
Y049863D01*
X047754D01*
Y049874D01*
X047786D01*
Y049863D01*
D02*
G37*
G36*
X048513Y049874D02*
X048524D01*
Y049863D01*
Y049853D01*
X048535D01*
Y049842D01*
Y049831D01*
X048524D01*
Y049842D01*
Y049853D01*
X048503D01*
Y049863D01*
X048492D01*
Y049874D01*
X048503D01*
Y049885D01*
X048513D01*
Y049874D01*
D02*
G37*
G36*
X047893Y049853D02*
Y049842D01*
Y049831D01*
X047861D01*
Y049842D01*
Y049853D01*
Y049863D01*
X047893D01*
Y049853D01*
D02*
G37*
G36*
X048481Y049831D02*
X048471D01*
Y049821D01*
X048449D01*
Y049831D01*
Y049842D01*
X048481D01*
Y049831D01*
D02*
G37*
G36*
X048385D02*
Y049821D01*
X048374D01*
Y049831D01*
Y049842D01*
X048385D01*
Y049831D01*
D02*
G37*
G36*
X049177Y050024D02*
Y050013D01*
Y050002D01*
Y049992D01*
X049166D01*
Y049981D01*
Y04997D01*
Y04996D01*
Y049949D01*
Y049938D01*
X049155D01*
Y049928D01*
X049145D01*
Y049917D01*
Y049906D01*
Y049895D01*
X049155D01*
Y049885D01*
X049166D01*
Y049874D01*
X049177D01*
Y049863D01*
Y049853D01*
X049187D01*
Y049842D01*
X049209D01*
Y049831D01*
X04923D01*
Y049821D01*
Y04981D01*
Y049799D01*
X049209D01*
Y04981D01*
Y049821D01*
X049198D01*
Y049831D01*
X049187D01*
Y049821D01*
X049177D01*
Y049831D01*
Y049842D01*
X049155D01*
Y049853D01*
X049145D01*
Y049863D01*
Y049874D01*
X049134D01*
Y049885D01*
X049123D01*
Y049895D01*
Y049906D01*
Y049917D01*
Y049928D01*
Y049938D01*
X049134D01*
Y049949D01*
X049145D01*
Y04996D01*
X049155D01*
Y04997D01*
Y049981D01*
Y049992D01*
Y050002D01*
Y050013D01*
Y050024D01*
Y050035D01*
X049177D01*
Y050024D01*
D02*
G37*
G36*
X048513Y049799D02*
Y049788D01*
X048492D01*
Y049799D01*
Y04981D01*
X048513D01*
Y049799D01*
D02*
G37*
G36*
X048406D02*
X048417D01*
Y049788D01*
X048396D01*
Y049799D01*
Y04981D01*
X048406D01*
Y049799D01*
D02*
G37*
G36*
X049091Y04981D02*
Y049799D01*
Y049788D01*
X04908D01*
Y049778D01*
X04907D01*
Y049788D01*
Y049799D01*
Y04981D01*
Y049821D01*
X049091D01*
Y04981D01*
D02*
G37*
G36*
X047807Y049788D02*
Y049778D01*
X047786D01*
Y049788D01*
X047796D01*
Y049799D01*
X047807D01*
Y049788D01*
D02*
G37*
G36*
X047732Y049821D02*
Y04981D01*
Y049799D01*
X047722D01*
Y049788D01*
Y049778D01*
X047711D01*
Y049767D01*
X047689D01*
Y049778D01*
Y049788D01*
Y049799D01*
X0477D01*
Y04981D01*
Y049821D01*
X047711D01*
Y049831D01*
X047732D01*
Y049821D01*
D02*
G37*
G36*
X049187Y049799D02*
X049198D01*
Y049788D01*
X049209D01*
Y049778D01*
Y049767D01*
Y049756D01*
X049187D01*
Y049767D01*
Y049778D01*
X049177D01*
Y049788D01*
Y049799D01*
Y04981D01*
X049187D01*
Y049799D01*
D02*
G37*
G36*
X048492Y049778D02*
Y049767D01*
X048481D01*
Y049756D01*
X04846D01*
Y049767D01*
X048471D01*
Y049778D01*
Y049788D01*
X048492D01*
Y049778D01*
D02*
G37*
G36*
X04907Y049767D02*
Y049756D01*
Y049746D01*
X049048D01*
Y049756D01*
Y049767D01*
Y049778D01*
X04907D01*
Y049767D01*
D02*
G37*
G36*
X04846Y049746D02*
Y049735D01*
X048438D01*
Y049746D01*
Y049756D01*
X04846D01*
Y049746D01*
D02*
G37*
G36*
X049134Y049788D02*
X049145D01*
Y049778D01*
X049155D01*
Y049767D01*
Y049756D01*
X049177D01*
Y049746D01*
Y049735D01*
X049166D01*
Y049724D01*
X049155D01*
Y049735D01*
Y049746D01*
Y049756D01*
X049145D01*
Y049746D01*
X049123D01*
Y049756D01*
Y049767D01*
Y049778D01*
Y049788D01*
Y049799D01*
X049134D01*
Y049788D01*
D02*
G37*
G36*
X047925Y049746D02*
X047936D01*
Y049735D01*
X047925D01*
Y049724D01*
X047893D01*
Y049735D01*
Y049746D01*
X047903D01*
Y049756D01*
X047925D01*
Y049746D01*
D02*
G37*
G36*
X049155Y049714D02*
Y049703D01*
X049134D01*
Y049714D01*
Y049724D01*
X049155D01*
Y049714D01*
D02*
G37*
G36*
X049112Y049724D02*
Y049714D01*
Y049703D01*
X04908D01*
Y049714D01*
Y049724D01*
Y049735D01*
X049112D01*
Y049724D01*
D02*
G37*
G36*
X048353Y049714D02*
Y049703D01*
X048331D01*
Y049714D01*
Y049724D01*
X048353D01*
Y049714D01*
D02*
G37*
G36*
X048257D02*
X048246D01*
Y049703D01*
X048224D01*
Y049714D01*
X048214D01*
Y049724D01*
X048257D01*
Y049714D01*
D02*
G37*
G36*
X049048D02*
X049059D01*
Y049703D01*
X049048D01*
Y049692D01*
X049027D01*
Y049703D01*
Y049714D01*
Y049724D01*
X049048D01*
Y049714D01*
D02*
G37*
G36*
X048364Y049767D02*
Y049756D01*
X048385D01*
Y049746D01*
X048396D01*
Y049735D01*
X048406D01*
Y049724D01*
X048428D01*
Y049714D01*
Y049703D01*
X048417D01*
Y049692D01*
X048396D01*
Y049703D01*
Y049714D01*
X048406D01*
Y049724D01*
X048374D01*
Y049735D01*
X048364D01*
Y049746D01*
Y049756D01*
X048342D01*
Y049767D01*
Y049778D01*
X048364D01*
Y049767D01*
D02*
G37*
G36*
X047668Y049703D02*
X047679D01*
Y049692D01*
Y049681D01*
X047657D01*
Y049692D01*
Y049703D01*
Y049714D01*
X047668D01*
Y049703D01*
D02*
G37*
G36*
X049123Y049681D02*
Y049671D01*
Y04966D01*
X049102D01*
Y049671D01*
Y049681D01*
X049112D01*
Y049692D01*
X049123D01*
Y049681D01*
D02*
G37*
G36*
X049016D02*
Y049671D01*
X049005D01*
Y04966D01*
X048995D01*
Y049671D01*
Y049681D01*
Y049692D01*
X049016D01*
Y049681D01*
D02*
G37*
G36*
X04831D02*
Y049671D01*
Y04966D01*
X048289D01*
Y049671D01*
X048278D01*
Y049681D01*
X048267D01*
Y049692D01*
X04831D01*
Y049681D01*
D02*
G37*
G36*
X047722Y049671D02*
Y04966D01*
X0477D01*
Y049671D01*
X047711D01*
Y049681D01*
X047722D01*
Y049671D01*
D02*
G37*
G36*
X048235Y04966D02*
Y049649D01*
X048203D01*
Y04966D01*
Y049671D01*
X048235D01*
Y04966D01*
D02*
G37*
G36*
X049059D02*
Y049649D01*
X04907D01*
Y049639D01*
X049048D01*
Y049649D01*
X049038D01*
Y04966D01*
Y049671D01*
X049059D01*
Y04966D01*
D02*
G37*
G36*
X048396Y049671D02*
X048385D01*
Y04966D01*
X048374D01*
Y049649D01*
X048364D01*
Y049639D01*
X048353D01*
Y049628D01*
X048331D01*
Y049639D01*
X048342D01*
Y049649D01*
X048353D01*
Y04966D01*
Y049671D01*
X048364D01*
Y049681D01*
X048396D01*
Y049671D01*
D02*
G37*
G36*
X048278Y049639D02*
Y049628D01*
X048267D01*
Y049617D01*
X048257D01*
Y049628D01*
X048246D01*
Y049639D01*
X048257D01*
Y049649D01*
X048278D01*
Y049639D01*
D02*
G37*
G36*
X048192Y049628D02*
Y049617D01*
X04816D01*
Y049628D01*
X04815D01*
Y049639D01*
X048192D01*
Y049628D01*
D02*
G37*
G36*
X0477Y049649D02*
Y049639D01*
X047689D01*
Y049628D01*
X047679D01*
Y049617D01*
X047668D01*
Y049607D01*
X047657D01*
Y049617D01*
Y049628D01*
Y049639D01*
X047668D01*
Y049649D01*
X047679D01*
Y04966D01*
X0477D01*
Y049649D01*
D02*
G37*
G36*
X048984D02*
X048995D01*
Y049639D01*
Y049628D01*
Y049617D01*
X048973D01*
Y049607D01*
X048963D01*
Y049596D01*
Y049585D01*
X048941D01*
Y049596D01*
Y049607D01*
X048952D01*
Y049617D01*
X048963D01*
Y049628D01*
X048973D01*
Y049639D01*
Y049649D01*
Y04966D01*
X048984D01*
Y049649D01*
D02*
G37*
G36*
X048224Y049596D02*
Y049585D01*
X048203D01*
Y049596D01*
Y049607D01*
X048224D01*
Y049596D01*
D02*
G37*
G36*
X0477Y049585D02*
Y049574D01*
Y049564D01*
X047668D01*
Y049574D01*
Y049585D01*
X047679D01*
Y049596D01*
X0477D01*
Y049585D01*
D02*
G37*
G36*
X048941Y049574D02*
Y049564D01*
X048931D01*
Y049553D01*
X04892D01*
Y049564D01*
Y049574D01*
Y049585D01*
X048941D01*
Y049574D01*
D02*
G37*
G36*
X048257Y049564D02*
Y049553D01*
X048235D01*
Y049564D01*
X048224D01*
Y049574D01*
X048257D01*
Y049564D01*
D02*
G37*
G36*
X048171Y049553D02*
X048192D01*
Y049542D01*
X048203D01*
Y049532D01*
X04816D01*
Y049542D01*
X04815D01*
Y049553D01*
X04816D01*
Y049564D01*
X048171D01*
Y049553D01*
D02*
G37*
G36*
X047722D02*
X047732D01*
Y049542D01*
X047743D01*
Y049532D01*
X047711D01*
Y049542D01*
X0477D01*
Y049553D01*
X047711D01*
Y049564D01*
X047722D01*
Y049553D01*
D02*
G37*
G36*
X047914Y04951D02*
X047925D01*
Y0495D01*
X047882D01*
Y04951D01*
Y049521D01*
X047914D01*
Y04951D01*
D02*
G37*
G36*
X047807Y049521D02*
X047829D01*
Y04951D01*
X047807D01*
Y0495D01*
X047786D01*
Y04951D01*
X047775D01*
Y049521D01*
X047786D01*
Y049532D01*
X047807D01*
Y049521D01*
D02*
G37*
G36*
X048021Y049489D02*
Y049478D01*
X047968D01*
Y049489D01*
X047957D01*
Y0495D01*
X048021D01*
Y049489D01*
D02*
G37*
G36*
X049155Y0495D02*
Y049489D01*
X049177D01*
Y049478D01*
Y049468D01*
Y049457D01*
X049155D01*
Y049468D01*
X049123D01*
Y049478D01*
X049134D01*
Y049489D01*
Y0495D01*
X049145D01*
Y04951D01*
X049155D01*
Y0495D01*
D02*
G37*
G36*
X049112Y049446D02*
X049123D01*
Y049435D01*
Y049425D01*
X049112D01*
Y049435D01*
X04908D01*
Y049446D01*
X049091D01*
Y049457D01*
X049112D01*
Y049446D01*
D02*
G37*
G36*
X04907Y049425D02*
X04908D01*
Y049414D01*
Y049403D01*
X049038D01*
Y049414D01*
Y049425D01*
X049048D01*
Y049435D01*
X04907D01*
Y049425D01*
D02*
G37*
G36*
X049027Y049393D02*
X049038D01*
Y049382D01*
Y049371D01*
X049027D01*
Y049382D01*
X049016D01*
Y049393D01*
X049005D01*
Y049403D01*
X049027D01*
Y049393D01*
D02*
G37*
G36*
X049198Y049446D02*
Y049435D01*
Y049425D01*
X049219D01*
Y049414D01*
X04923D01*
Y049403D01*
Y049393D01*
X049209D01*
Y049382D01*
X049187D01*
Y049371D01*
Y049361D01*
Y04935D01*
X049177D01*
Y049339D01*
X049145D01*
Y04935D01*
X049134D01*
Y049361D01*
X049112D01*
Y049371D01*
X049102D01*
Y049382D01*
X049112D01*
Y049393D01*
X049134D01*
Y049403D01*
Y049414D01*
X049155D01*
Y049425D01*
X049166D01*
Y049435D01*
X049177D01*
Y049446D01*
X049187D01*
Y049457D01*
X049198D01*
Y049446D01*
D02*
G37*
G36*
X048984Y049361D02*
X049016D01*
Y04935D01*
X049005D01*
Y049339D01*
X048995D01*
Y04935D01*
X048984D01*
Y049361D01*
X048963D01*
Y049371D01*
X048984D01*
Y049361D01*
D02*
G37*
G36*
X049252Y049371D02*
X049262D01*
Y049361D01*
X049252D01*
Y04935D01*
Y049339D01*
X049273D01*
Y049328D01*
X049284D01*
Y049318D01*
Y049307D01*
X049262D01*
Y049318D01*
X049252D01*
Y049328D01*
Y049339D01*
X049219D01*
Y04935D01*
X04923D01*
Y049361D01*
Y049371D01*
Y049382D01*
X049252D01*
Y049371D01*
D02*
G37*
G36*
X049209Y049328D02*
X049219D01*
Y049318D01*
X049209D01*
Y049307D01*
X049187D01*
Y049318D01*
Y049328D01*
X049198D01*
Y049339D01*
X049209D01*
Y049328D01*
D02*
G37*
G36*
X048941Y049339D02*
X048952D01*
Y049328D01*
X048963D01*
Y049318D01*
Y049307D01*
Y049296D01*
X048941D01*
Y049307D01*
Y049318D01*
X048931D01*
Y049328D01*
X04892D01*
Y049318D01*
X048909D01*
Y049307D01*
X048898D01*
Y049296D01*
X048888D01*
Y049286D01*
X048866D01*
Y049296D01*
X048877D01*
Y049307D01*
X048888D01*
Y049318D01*
X048898D01*
Y049328D01*
X048909D01*
Y049339D01*
X04892D01*
Y04935D01*
X048941D01*
Y049339D01*
D02*
G37*
G36*
X048824Y049296D02*
X048813D01*
Y049286D01*
X048802D01*
Y049296D01*
Y049307D01*
X048824D01*
Y049296D01*
D02*
G37*
G36*
X047251D02*
Y049286D01*
X047208D01*
Y049296D01*
Y049307D01*
X047251D01*
Y049296D01*
D02*
G37*
G36*
X048791Y049275D02*
Y049264D01*
X048781D01*
Y049275D01*
Y049286D01*
X048791D01*
Y049275D01*
D02*
G37*
G36*
X049219Y049264D02*
Y049254D01*
X049209D01*
Y049264D01*
X049198D01*
Y049275D01*
X049219D01*
Y049264D01*
D02*
G37*
G36*
X048931Y049275D02*
Y049264D01*
Y049254D01*
Y049243D01*
X048909D01*
Y049254D01*
X048898D01*
Y049264D01*
X048909D01*
Y049275D01*
Y049286D01*
X048931D01*
Y049275D01*
D02*
G37*
G36*
X047294Y049264D02*
X047304D01*
Y049254D01*
Y049243D01*
X047294D01*
Y049254D01*
X047283D01*
Y049264D01*
X047272D01*
Y049275D01*
X047294D01*
Y049264D01*
D02*
G37*
G36*
X049305Y049286D02*
Y049275D01*
X049294D01*
Y049264D01*
Y049254D01*
Y049243D01*
X049273D01*
Y049232D01*
X049241D01*
Y049243D01*
X04923D01*
Y049254D01*
Y049264D01*
X049241D01*
Y049275D01*
X049273D01*
Y049286D01*
X049284D01*
Y049296D01*
X049305D01*
Y049286D01*
D02*
G37*
G36*
X048866Y049264D02*
Y049254D01*
X048877D01*
Y049243D01*
X048888D01*
Y049232D01*
Y049221D01*
X048877D01*
Y049232D01*
X048845D01*
Y049243D01*
Y049254D01*
Y049264D01*
Y049275D01*
X048866D01*
Y049264D01*
D02*
G37*
G36*
X047133Y049243D02*
X047144D01*
Y049232D01*
Y049221D01*
X047133D01*
Y049211D01*
X047122D01*
Y049221D01*
X047112D01*
Y049232D01*
Y049243D01*
X047122D01*
Y049254D01*
X047133D01*
Y049243D01*
D02*
G37*
G36*
X048834Y049221D02*
Y049211D01*
Y0492D01*
X048813D01*
Y049211D01*
Y049221D01*
X048824D01*
Y049232D01*
X048834D01*
Y049221D01*
D02*
G37*
G36*
X048781Y049254D02*
X04877D01*
Y049243D01*
Y049232D01*
X048759D01*
Y049221D01*
X048749D01*
Y049211D01*
X048738D01*
Y0492D01*
Y049189D01*
Y049179D01*
X048706D01*
Y049189D01*
X048674D01*
Y0492D01*
X04862D01*
Y049211D01*
Y049221D01*
X048631D01*
Y049232D01*
X048674D01*
Y049221D01*
Y049211D01*
X048695D01*
Y0492D01*
X048717D01*
Y049211D01*
X048727D01*
Y049221D01*
Y049232D01*
X048738D01*
Y049243D01*
X048749D01*
Y049254D01*
Y049264D01*
X048781D01*
Y049254D01*
D02*
G37*
G36*
X048963Y049221D02*
Y049211D01*
Y0492D01*
X048952D01*
Y049189D01*
X048941D01*
Y0492D01*
Y049211D01*
Y049221D01*
Y049232D01*
X048963D01*
Y049221D01*
D02*
G37*
G36*
X047326Y049318D02*
Y049307D01*
X047336D01*
Y049296D01*
Y049286D01*
X047347D01*
Y049275D01*
X047358D01*
Y049264D01*
X047368D01*
Y049254D01*
X04739D01*
Y049243D01*
Y049232D01*
X047368D01*
Y049221D01*
X047358D01*
Y049211D01*
X047336D01*
Y0492D01*
Y049189D01*
X047315D01*
Y0492D01*
Y049211D01*
X047326D01*
Y049221D01*
X047336D01*
Y049232D01*
X047347D01*
Y049243D01*
Y049254D01*
Y049264D01*
X047336D01*
Y049275D01*
X047326D01*
Y049286D01*
X047315D01*
Y049296D01*
X047304D01*
Y049307D01*
Y049318D01*
X047294D01*
Y049328D01*
X047326D01*
Y049318D01*
D02*
G37*
G36*
X047197Y049264D02*
X047208D01*
Y049254D01*
X047229D01*
Y049243D01*
X04724D01*
Y049232D01*
X047251D01*
Y049221D01*
X047262D01*
Y049211D01*
X047272D01*
Y0492D01*
Y049189D01*
X047251D01*
Y0492D01*
X04724D01*
Y049211D01*
X047229D01*
Y049221D01*
X047208D01*
Y049232D01*
X047197D01*
Y049243D01*
X047187D01*
Y049254D01*
X047155D01*
Y049264D01*
Y049275D01*
X047197D01*
Y049264D01*
D02*
G37*
G36*
X047475Y049189D02*
Y049179D01*
X047454D01*
Y049189D01*
Y0492D01*
X047475D01*
Y049189D01*
D02*
G37*
G36*
X047058D02*
Y049179D01*
X047037D01*
Y049189D01*
Y0492D01*
X047058D01*
Y049189D01*
D02*
G37*
G36*
X04862D02*
X048642D01*
Y049179D01*
X048652D01*
Y049168D01*
X048599D01*
Y049179D01*
X048588D01*
Y049189D01*
Y0492D01*
X04862D01*
Y049189D01*
D02*
G37*
G36*
X047379Y049179D02*
Y049168D01*
X047368D01*
Y049157D01*
X047358D01*
Y049168D01*
X047347D01*
Y049179D01*
X047358D01*
Y049189D01*
X047379D01*
Y049179D01*
D02*
G37*
G36*
X04724Y049168D02*
Y049157D01*
X047208D01*
Y049168D01*
Y049179D01*
X04724D01*
Y049168D01*
D02*
G37*
G36*
X04709Y049211D02*
X047112D01*
Y0492D01*
Y049189D01*
X047133D01*
Y049179D01*
X047144D01*
Y049168D01*
X047133D01*
Y049157D01*
X047101D01*
Y049168D01*
Y049179D01*
X04709D01*
Y049189D01*
X04708D01*
Y0492D01*
X047069D01*
Y049211D01*
Y049221D01*
X04709D01*
Y049211D01*
D02*
G37*
G36*
X048802Y049179D02*
X048813D01*
Y049168D01*
Y049157D01*
Y049147D01*
X048791D01*
Y049157D01*
Y049168D01*
Y049179D01*
Y049189D01*
X048802D01*
Y049179D01*
D02*
G37*
G36*
X04755Y049157D02*
X04754D01*
Y049147D01*
X047518D01*
Y049157D01*
Y049168D01*
X04755D01*
Y049157D01*
D02*
G37*
G36*
X049241Y049179D02*
Y049168D01*
Y049157D01*
Y049147D01*
Y049136D01*
X049219D01*
Y049147D01*
X049209D01*
Y049157D01*
Y049168D01*
X049219D01*
Y049179D01*
Y049189D01*
X049241D01*
Y049179D01*
D02*
G37*
G36*
X047336Y049147D02*
Y049136D01*
X047315D01*
Y049147D01*
Y049157D01*
X047336D01*
Y049147D01*
D02*
G37*
G36*
X048706Y049157D02*
X048717D01*
Y049147D01*
Y049136D01*
Y049125D01*
X048695D01*
Y049136D01*
X048684D01*
Y049147D01*
X048663D01*
Y049157D01*
Y049168D01*
X048706D01*
Y049157D01*
D02*
G37*
G36*
X047197Y049136D02*
Y049125D01*
X047165D01*
Y049136D01*
Y049147D01*
X047197D01*
Y049136D01*
D02*
G37*
G36*
X047101Y049147D02*
X04709D01*
Y049136D01*
X047069D01*
Y049125D01*
X047058D01*
Y049136D01*
Y049147D01*
Y049157D01*
X047101D01*
Y049147D01*
D02*
G37*
G36*
X049326Y049243D02*
Y049232D01*
X049337D01*
Y049221D01*
Y049211D01*
Y0492D01*
X049348D01*
Y049189D01*
X049359D01*
Y049179D01*
Y049168D01*
Y049157D01*
X049369D01*
Y049147D01*
X04938D01*
Y049136D01*
Y049125D01*
Y049114D01*
X049369D01*
Y049125D01*
X049359D01*
Y049136D01*
Y049147D01*
X049348D01*
Y049157D01*
Y049168D01*
X049337D01*
Y049179D01*
Y049189D01*
Y0492D01*
X049316D01*
Y049211D01*
X049305D01*
Y049221D01*
Y049232D01*
Y049243D01*
X049316D01*
Y049254D01*
X049326D01*
Y049243D01*
D02*
G37*
G36*
X048866Y049179D02*
X048877D01*
Y049168D01*
Y049157D01*
X048888D01*
Y049147D01*
X048898D01*
Y049136D01*
X048909D01*
Y049125D01*
Y049114D01*
X048888D01*
Y049125D01*
X048877D01*
Y049136D01*
X048866D01*
Y049147D01*
X048856D01*
Y049157D01*
X048845D01*
Y049168D01*
X048834D01*
Y049179D01*
Y049189D01*
X048866D01*
Y049179D01*
D02*
G37*
G36*
X048791Y049125D02*
Y049114D01*
Y049104D01*
X048781D01*
Y049093D01*
X04877D01*
Y049104D01*
Y049114D01*
Y049125D01*
Y049136D01*
X048791D01*
Y049125D01*
D02*
G37*
G36*
X046962Y049114D02*
X046973D01*
Y049104D01*
Y049093D01*
X046941D01*
Y049104D01*
Y049114D01*
Y049125D01*
X046962D01*
Y049114D01*
D02*
G37*
G36*
X049209Y049104D02*
X049219D01*
Y049093D01*
X049241D01*
Y049104D01*
X049273D01*
Y049093D01*
Y049082D01*
X049262D01*
Y049072D01*
X049241D01*
Y049082D01*
X049219D01*
Y049072D01*
Y049061D01*
Y04905D01*
X049209D01*
Y049061D01*
X049198D01*
Y049072D01*
X049187D01*
Y049082D01*
Y049093D01*
Y049104D01*
X049198D01*
Y049114D01*
X049209D01*
Y049104D01*
D02*
G37*
G36*
X04908Y049072D02*
Y049061D01*
X04907D01*
Y049072D01*
X049059D01*
Y049082D01*
X04908D01*
Y049072D01*
D02*
G37*
G36*
X048866Y049082D02*
X048877D01*
Y049072D01*
X048888D01*
Y049061D01*
X048866D01*
Y049072D01*
X048845D01*
Y049082D01*
Y049093D01*
X048866D01*
Y049082D01*
D02*
G37*
G36*
X047037Y049168D02*
Y049157D01*
X047015D01*
Y049147D01*
Y049136D01*
Y049125D01*
X047048D01*
Y049114D01*
Y049104D01*
X047037D01*
Y049093D01*
X047048D01*
Y049082D01*
X047058D01*
Y049072D01*
X047048D01*
Y049061D01*
X047037D01*
Y049072D01*
Y049082D01*
Y049093D01*
X047015D01*
Y049104D01*
Y049114D01*
Y049125D01*
X046973D01*
Y049136D01*
Y049147D01*
X046994D01*
Y049157D01*
X047005D01*
Y049168D01*
X047026D01*
Y049179D01*
X047037D01*
Y049168D01*
D02*
G37*
G36*
X047486Y049147D02*
Y049136D01*
X047508D01*
Y049125D01*
Y049114D01*
X047497D01*
Y049104D01*
X047486D01*
Y049093D01*
Y049082D01*
Y049072D01*
X047475D01*
Y049061D01*
Y04905D01*
X047465D01*
Y04904D01*
X047454D01*
Y04905D01*
Y049061D01*
X047443D01*
Y049072D01*
X047454D01*
Y049082D01*
Y049093D01*
X047465D01*
Y049104D01*
Y049114D01*
X047475D01*
Y049125D01*
Y049136D01*
X047465D01*
Y049147D01*
X047454D01*
Y049157D01*
X047486D01*
Y049147D01*
D02*
G37*
G36*
X047037Y04905D02*
Y04904D01*
X047015D01*
Y04905D01*
Y049061D01*
X047037D01*
Y04905D01*
D02*
G37*
G36*
X047336Y049029D02*
Y049018D01*
X047315D01*
Y049029D01*
Y04904D01*
X047336D01*
Y049029D01*
D02*
G37*
G36*
X047112Y049072D02*
Y049061D01*
X047101D01*
Y04905D01*
X04709D01*
Y04904D01*
Y049029D01*
X047069D01*
Y049018D01*
X047048D01*
Y049029D01*
Y04904D01*
X047058D01*
Y04905D01*
Y049061D01*
X04709D01*
Y049072D01*
Y049082D01*
X047112D01*
Y049072D01*
D02*
G37*
G36*
X048963Y049125D02*
Y049114D01*
Y049104D01*
X049027D01*
Y049093D01*
X048995D01*
Y049082D01*
X048984D01*
Y049072D01*
Y049061D01*
X048995D01*
Y04905D01*
X049005D01*
Y04904D01*
X049016D01*
Y049029D01*
Y049018D01*
X049005D01*
Y049007D01*
X048984D01*
Y049018D01*
Y049029D01*
Y04904D01*
Y04905D01*
Y049061D01*
X048963D01*
Y049072D01*
Y049082D01*
X048952D01*
Y049093D01*
X048941D01*
Y049104D01*
Y049114D01*
Y049125D01*
Y049136D01*
X048963D01*
Y049125D01*
D02*
G37*
G36*
X048888Y049018D02*
Y049007D01*
X048845D01*
Y049018D01*
X048856D01*
Y049029D01*
X048888D01*
Y049018D01*
D02*
G37*
G36*
X047379Y049114D02*
Y049104D01*
Y049093D01*
Y049082D01*
X04739D01*
Y049072D01*
Y049061D01*
X047401D01*
Y04905D01*
Y04904D01*
X047411D01*
Y049029D01*
Y049018D01*
Y049007D01*
X047401D01*
Y048997D01*
Y048986D01*
X04739D01*
Y048975D01*
Y048965D01*
Y048954D01*
Y048943D01*
Y048933D01*
X047401D01*
Y048943D01*
X047411D01*
Y048954D01*
Y048965D01*
X047422D01*
Y048954D01*
X047433D01*
Y048943D01*
Y048933D01*
Y048922D01*
Y048911D01*
Y0489D01*
Y04889D01*
X047443D01*
Y048879D01*
X047454D01*
Y048868D01*
Y048858D01*
Y048847D01*
Y048836D01*
X047465D01*
Y048826D01*
Y048815D01*
Y048804D01*
Y048793D01*
Y048783D01*
X047475D01*
Y048772D01*
X047486D01*
Y048761D01*
X047433D01*
Y048751D01*
X047422D01*
Y04874D01*
X04739D01*
Y048729D01*
X047368D01*
Y04874D01*
X047347D01*
Y048751D01*
X047326D01*
Y048761D01*
Y048772D01*
X047336D01*
Y048761D01*
X047368D01*
Y048772D01*
X047422D01*
Y048783D01*
X047443D01*
Y048793D01*
X047433D01*
Y048804D01*
Y048815D01*
Y048826D01*
Y048836D01*
Y048847D01*
Y048858D01*
Y048868D01*
Y048879D01*
X047422D01*
Y04889D01*
X047411D01*
Y0489D01*
Y048911D01*
X047379D01*
Y048922D01*
Y048933D01*
Y048943D01*
Y048954D01*
X047368D01*
Y048965D01*
X047358D01*
Y048975D01*
X047347D01*
Y048986D01*
Y048997D01*
Y049007D01*
X047368D01*
Y048997D01*
X047379D01*
Y049007D01*
Y049018D01*
Y049029D01*
Y04904D01*
Y04905D01*
Y049061D01*
X047368D01*
Y049072D01*
Y049082D01*
Y049093D01*
Y049104D01*
X047358D01*
Y049114D01*
Y049125D01*
X047379D01*
Y049114D01*
D02*
G37*
G36*
X049102Y049029D02*
Y049018D01*
Y049007D01*
X049091D01*
Y048997D01*
Y048986D01*
X04908D01*
Y048975D01*
X049059D01*
Y048986D01*
Y048997D01*
Y049007D01*
X04907D01*
Y049018D01*
X04908D01*
Y049029D01*
X049091D01*
Y04904D01*
X049102D01*
Y049029D01*
D02*
G37*
G36*
X048759Y04905D02*
X048781D01*
Y04904D01*
Y049029D01*
X04877D01*
Y049018D01*
X048781D01*
Y049007D01*
X048791D01*
Y048997D01*
Y048986D01*
Y048975D01*
X048749D01*
Y048986D01*
X048738D01*
Y048997D01*
Y049007D01*
Y049018D01*
Y049029D01*
Y04904D01*
Y04905D01*
X048749D01*
Y049061D01*
X048759D01*
Y04905D01*
D02*
G37*
G36*
X048984Y048997D02*
Y048986D01*
X048973D01*
Y048975D01*
X048963D01*
Y048965D01*
X048834D01*
Y048975D01*
X048824D01*
Y048986D01*
X048941D01*
Y048997D01*
X048973D01*
Y049007D01*
X048984D01*
Y048997D01*
D02*
G37*
G36*
X049412Y049082D02*
Y049072D01*
Y049061D01*
Y04905D01*
X049401D01*
Y04904D01*
X049433D01*
Y049029D01*
Y049018D01*
Y049007D01*
Y048997D01*
Y048986D01*
X049444D01*
Y048975D01*
X049455D01*
Y048965D01*
X049444D01*
Y048954D01*
X049433D01*
Y048965D01*
Y048975D01*
Y048986D01*
X049423D01*
Y048997D01*
X049401D01*
Y048986D01*
X049391D01*
Y048975D01*
Y048965D01*
X04938D01*
Y048975D01*
Y048986D01*
Y048997D01*
Y049007D01*
X049391D01*
Y049018D01*
Y049029D01*
Y04904D01*
Y04905D01*
X04938D01*
Y049061D01*
Y049072D01*
X049391D01*
Y049082D01*
Y049093D01*
X049412D01*
Y049082D01*
D02*
G37*
G36*
X049038Y048965D02*
X049048D01*
Y048954D01*
X049038D01*
Y048943D01*
X049005D01*
Y048954D01*
X048995D01*
Y048965D01*
Y048975D01*
X049038D01*
Y048965D01*
D02*
G37*
G36*
X04709Y048997D02*
X047101D01*
Y048986D01*
X047112D01*
Y048975D01*
X047122D01*
Y048965D01*
Y048954D01*
Y048943D01*
X047112D01*
Y048933D01*
X047101D01*
Y048943D01*
X04709D01*
Y048954D01*
Y048965D01*
Y048975D01*
X04708D01*
Y048986D01*
X047069D01*
Y048997D01*
Y049007D01*
X04709D01*
Y048997D01*
D02*
G37*
G36*
X049412Y048943D02*
Y048933D01*
Y048922D01*
X049401D01*
Y048933D01*
X049391D01*
Y048943D01*
Y048954D01*
X049412D01*
Y048943D01*
D02*
G37*
G36*
X049145Y048954D02*
Y048943D01*
Y048933D01*
Y048922D01*
X049112D01*
Y048933D01*
X049102D01*
Y048943D01*
Y048954D01*
Y048965D01*
X049145D01*
Y048954D01*
D02*
G37*
G36*
X048738Y048965D02*
X048749D01*
Y048954D01*
X048759D01*
Y048943D01*
X048738D01*
Y048933D01*
X048727D01*
Y048922D01*
X048717D01*
Y048933D01*
Y048943D01*
Y048954D01*
Y048965D01*
Y048975D01*
X048738D01*
Y048965D01*
D02*
G37*
G36*
X049091Y048922D02*
Y048911D01*
X049112D01*
Y0489D01*
Y04889D01*
X049091D01*
Y0489D01*
X04908D01*
Y048911D01*
X049048D01*
Y048922D01*
Y048933D01*
X049091D01*
Y048922D01*
D02*
G37*
G36*
X049177Y0489D02*
X049187D01*
Y04889D01*
X049177D01*
Y048879D01*
X049166D01*
Y04889D01*
X049155D01*
Y0489D01*
Y048911D01*
X049177D01*
Y0489D01*
D02*
G37*
G36*
X047347Y04889D02*
X047336D01*
Y048879D01*
X047326D01*
Y04889D01*
X047315D01*
Y0489D01*
X047347D01*
Y04889D01*
D02*
G37*
G36*
X047144Y048911D02*
Y0489D01*
Y04889D01*
Y048879D01*
X047122D01*
Y04889D01*
Y0489D01*
Y048911D01*
Y048922D01*
X047144D01*
Y048911D01*
D02*
G37*
G36*
X049412Y048879D02*
Y048868D01*
X049401D01*
Y048879D01*
Y04889D01*
X049412D01*
Y048879D01*
D02*
G37*
G36*
X049273Y0489D02*
Y04889D01*
X049284D01*
Y048879D01*
Y048868D01*
X049252D01*
Y048879D01*
X049219D01*
Y04889D01*
Y0489D01*
X04923D01*
Y048911D01*
X049273D01*
Y0489D01*
D02*
G37*
G36*
X047229Y04889D02*
Y048879D01*
Y048868D01*
X047208D01*
Y048879D01*
X047197D01*
Y04889D01*
Y0489D01*
X047229D01*
Y04889D01*
D02*
G37*
G36*
X049476D02*
X049487D01*
Y048879D01*
Y048868D01*
X049476D01*
Y048858D01*
X049466D01*
Y048868D01*
Y048879D01*
Y04889D01*
Y0489D01*
X049476D01*
Y04889D01*
D02*
G37*
G36*
X04785Y048879D02*
X047839D01*
Y048868D01*
Y048858D01*
X047818D01*
Y048868D01*
X047807D01*
Y048879D01*
X047818D01*
Y04889D01*
X04785D01*
Y048879D01*
D02*
G37*
G36*
X049369Y048933D02*
X04938D01*
Y048922D01*
Y048911D01*
Y0489D01*
Y04889D01*
X049359D01*
Y048879D01*
X049348D01*
Y048868D01*
Y048858D01*
X049369D01*
Y048847D01*
X04938D01*
Y048836D01*
X049369D01*
Y048826D01*
X049348D01*
Y048836D01*
Y048847D01*
Y048858D01*
X049326D01*
Y048868D01*
Y048879D01*
Y04889D01*
X049348D01*
Y0489D01*
Y048911D01*
Y048922D01*
X049359D01*
Y048933D01*
Y048943D01*
X049369D01*
Y048933D01*
D02*
G37*
G36*
X04923Y048858D02*
X049252D01*
Y048847D01*
Y048836D01*
Y048826D01*
X049241D01*
Y048815D01*
X049219D01*
Y048826D01*
Y048836D01*
Y048847D01*
Y048858D01*
X049209D01*
Y048868D01*
X04923D01*
Y048858D01*
D02*
G37*
G36*
X049145Y048868D02*
Y048858D01*
X049166D01*
Y048847D01*
X049177D01*
Y048836D01*
X049187D01*
Y048826D01*
Y048815D01*
Y048804D01*
X049177D01*
Y048815D01*
Y048826D01*
X049155D01*
Y048836D01*
X049145D01*
Y048847D01*
Y048858D01*
X049123D01*
Y048868D01*
Y048879D01*
X049145D01*
Y048868D01*
D02*
G37*
G36*
X049316Y048836D02*
X049326D01*
Y048826D01*
X049348D01*
Y048815D01*
Y048804D01*
Y048793D01*
X049316D01*
Y048804D01*
X049305D01*
Y048815D01*
Y048826D01*
Y048836D01*
Y048847D01*
X049316D01*
Y048836D01*
D02*
G37*
G36*
X047358D02*
X047379D01*
Y048826D01*
X04739D01*
Y048815D01*
X047401D01*
Y048804D01*
Y048793D01*
X04739D01*
Y048783D01*
X047368D01*
Y048793D01*
X047358D01*
Y048804D01*
X047347D01*
Y048815D01*
X047326D01*
Y048826D01*
X047304D01*
Y048836D01*
X047315D01*
Y048847D01*
X047358D01*
Y048836D01*
D02*
G37*
G36*
X049219Y048793D02*
X049209D01*
Y048783D01*
Y048772D01*
Y048761D01*
X049198D01*
Y048772D01*
Y048783D01*
Y048793D01*
Y048804D01*
X049219D01*
Y048793D01*
D02*
G37*
G36*
X049508Y048815D02*
Y048804D01*
X049519D01*
Y048793D01*
Y048783D01*
Y048772D01*
Y048761D01*
Y048751D01*
X049498D01*
Y048761D01*
Y048772D01*
X049487D01*
Y048783D01*
Y048793D01*
Y048804D01*
Y048815D01*
X049498D01*
Y048826D01*
X049508D01*
Y048815D01*
D02*
G37*
G36*
X049305Y048783D02*
Y048772D01*
X049294D01*
Y048761D01*
X049284D01*
Y048751D01*
X049262D01*
Y048761D01*
Y048772D01*
X049273D01*
Y048783D01*
X049284D01*
Y048793D01*
X049305D01*
Y048783D01*
D02*
G37*
G36*
X047165Y048836D02*
Y048826D01*
X047176D01*
Y048815D01*
Y048804D01*
Y048793D01*
Y048783D01*
Y048772D01*
Y048761D01*
Y048751D01*
Y04874D01*
Y048729D01*
X047262D01*
Y04874D01*
X047283D01*
Y048729D01*
X047304D01*
Y048719D01*
Y048708D01*
X04724D01*
Y048719D01*
X047219D01*
Y048708D01*
X047176D01*
Y048697D01*
X047165D01*
Y048686D01*
X047122D01*
Y048697D01*
X047155D01*
Y048708D01*
X047165D01*
Y048719D01*
X047155D01*
Y048729D01*
Y04874D01*
Y048751D01*
Y048761D01*
Y048772D01*
Y048783D01*
Y048793D01*
Y048804D01*
Y048815D01*
Y048826D01*
Y048836D01*
Y048847D01*
X047165D01*
Y048836D01*
D02*
G37*
G36*
X049337Y048601D02*
Y04859D01*
Y048579D01*
X049326D01*
Y04859D01*
Y048601D01*
Y048612D01*
X049337D01*
Y048601D01*
D02*
G37*
G36*
X04953Y048729D02*
X04954D01*
Y048719D01*
Y048708D01*
Y048697D01*
X04953D01*
Y048686D01*
Y048676D01*
Y048665D01*
Y048654D01*
Y048644D01*
Y048633D01*
Y048622D01*
X049551D01*
Y048612D01*
X049562D01*
Y048601D01*
Y04859D01*
Y048579D01*
Y048569D01*
Y048558D01*
Y048547D01*
Y048537D01*
X049551D01*
Y048547D01*
X04954D01*
Y048558D01*
Y048569D01*
Y048579D01*
Y04859D01*
Y048601D01*
Y048612D01*
X04953D01*
Y048622D01*
X049508D01*
Y048633D01*
Y048644D01*
Y048654D01*
X049498D01*
Y048665D01*
Y048676D01*
Y048686D01*
X049519D01*
Y048697D01*
Y048708D01*
Y048719D01*
Y048729D01*
Y04874D01*
X04953D01*
Y048729D01*
D02*
G37*
G36*
X049498Y048526D02*
X049508D01*
Y048515D01*
Y048505D01*
X049498D01*
Y048494D01*
X049476D01*
Y048505D01*
Y048515D01*
Y048526D01*
Y048537D01*
X049498D01*
Y048526D01*
D02*
G37*
G36*
X049348Y048472D02*
Y048462D01*
X049337D01*
Y048451D01*
X049326D01*
Y04844D01*
Y04843D01*
X049316D01*
Y04844D01*
Y048451D01*
Y048462D01*
X049326D01*
Y048472D01*
Y048483D01*
X049348D01*
Y048472D01*
D02*
G37*
G36*
X049583Y048483D02*
Y048472D01*
Y048462D01*
Y048451D01*
Y04844D01*
Y04843D01*
Y048419D01*
Y048408D01*
X049573D01*
Y048419D01*
X049562D01*
Y04843D01*
Y04844D01*
Y048451D01*
Y048462D01*
Y048472D01*
Y048483D01*
X049573D01*
Y048494D01*
X049583D01*
Y048483D01*
D02*
G37*
G36*
X049252Y048729D02*
Y048719D01*
X049262D01*
Y048708D01*
Y048697D01*
Y048686D01*
Y048676D01*
Y048665D01*
Y048654D01*
Y048644D01*
X049273D01*
Y048633D01*
Y048622D01*
Y048612D01*
Y048601D01*
Y04859D01*
Y048579D01*
Y048569D01*
Y048558D01*
Y048547D01*
Y048537D01*
X049262D01*
Y048526D01*
Y048515D01*
Y048505D01*
Y048494D01*
X049252D01*
Y048483D01*
Y048472D01*
Y048462D01*
Y048451D01*
X049262D01*
Y04844D01*
Y04843D01*
Y048419D01*
Y048408D01*
Y048398D01*
X049252D01*
Y048408D01*
X049219D01*
Y048398D01*
Y048387D01*
X049209D01*
Y048376D01*
X049198D01*
Y048365D01*
X049187D01*
Y048355D01*
Y048344D01*
X049177D01*
Y048333D01*
X049145D01*
Y048344D01*
Y048355D01*
X049155D01*
Y048365D01*
X049177D01*
Y048376D01*
Y048387D01*
X049187D01*
Y048398D01*
X049198D01*
Y048408D01*
Y048419D01*
X049209D01*
Y04843D01*
Y04844D01*
X049219D01*
Y048451D01*
X04923D01*
Y048462D01*
Y048472D01*
Y048483D01*
Y048494D01*
X049241D01*
Y048505D01*
X049252D01*
Y048515D01*
Y048526D01*
Y048537D01*
Y048547D01*
Y048558D01*
Y048569D01*
Y048579D01*
Y04859D01*
Y048601D01*
Y048612D01*
Y048622D01*
Y048633D01*
Y048644D01*
Y048654D01*
Y048665D01*
Y048676D01*
Y048686D01*
X049241D01*
Y048697D01*
X04923D01*
Y048708D01*
Y048719D01*
Y048729D01*
Y04874D01*
X049252D01*
Y048729D01*
D02*
G37*
G36*
X049369Y048387D02*
Y048376D01*
Y048365D01*
Y048355D01*
X049348D01*
Y048365D01*
Y048376D01*
Y048387D01*
X049359D01*
Y048398D01*
X049369D01*
Y048387D01*
D02*
G37*
G36*
X049359Y048323D02*
X049369D01*
Y048312D01*
X04938D01*
Y048301D01*
X049369D01*
Y048291D01*
X049348D01*
Y048301D01*
Y048312D01*
Y048323D01*
Y048333D01*
X049359D01*
Y048323D01*
D02*
G37*
G36*
X049305Y048301D02*
Y048291D01*
X049294D01*
Y048301D01*
Y048312D01*
X049305D01*
Y048301D01*
D02*
G37*
G36*
X049273D02*
Y048291D01*
X049252D01*
Y048301D01*
Y048312D01*
X049273D01*
Y048301D01*
D02*
G37*
G36*
X049209D02*
Y048291D01*
X049187D01*
Y048301D01*
Y048312D01*
X049209D01*
Y048301D01*
D02*
G37*
G36*
X049112Y048291D02*
Y04828D01*
X04908D01*
Y048291D01*
X049091D01*
Y048301D01*
X049112D01*
Y048291D01*
D02*
G37*
G36*
X049519Y04828D02*
X04953D01*
Y048269D01*
X049519D01*
Y048258D01*
X049508D01*
Y048248D01*
X049487D01*
Y048258D01*
Y048269D01*
Y04828D01*
Y048291D01*
X049519D01*
Y04828D01*
D02*
G37*
G36*
X04908Y048258D02*
X04907D01*
Y048248D01*
X049048D01*
Y048258D01*
Y048269D01*
X04908D01*
Y048258D01*
D02*
G37*
G36*
X048888Y048216D02*
X048931D01*
Y048205D01*
Y048194D01*
Y048184D01*
X048877D01*
Y048194D01*
X048856D01*
Y048184D01*
Y048173D01*
X048845D01*
Y048162D01*
X048834D01*
Y048151D01*
Y048141D01*
X048813D01*
Y048151D01*
Y048162D01*
Y048173D01*
X048824D01*
Y048184D01*
X048834D01*
Y048194D01*
Y048205D01*
X048824D01*
Y048216D01*
Y048226D01*
X048834D01*
Y048216D01*
X048856D01*
Y048226D01*
X048888D01*
Y048216D01*
D02*
G37*
G36*
X048995Y048237D02*
X049038D01*
Y048226D01*
X049016D01*
Y048216D01*
X049005D01*
Y048205D01*
X048995D01*
Y048194D01*
X048984D01*
Y048184D01*
X048973D01*
Y048194D01*
X048963D01*
Y048205D01*
Y048216D01*
Y048226D01*
Y048237D01*
X048973D01*
Y048248D01*
X048995D01*
Y048237D01*
D02*
G37*
G36*
X048802Y048194D02*
Y048184D01*
X048791D01*
Y048194D01*
Y048205D01*
X048802D01*
Y048194D01*
D02*
G37*
G36*
X049466Y048162D02*
Y048151D01*
X049444D01*
Y048162D01*
X049455D01*
Y048173D01*
X049466D01*
Y048162D01*
D02*
G37*
G36*
X049594Y048376D02*
Y048365D01*
X049583D01*
Y048355D01*
Y048344D01*
Y048333D01*
X049594D01*
Y048323D01*
Y048312D01*
Y048301D01*
Y048291D01*
Y04828D01*
Y048269D01*
X049583D01*
Y048258D01*
Y048248D01*
Y048237D01*
Y048226D01*
Y048216D01*
Y048205D01*
Y048194D01*
X049562D01*
Y048184D01*
Y048173D01*
Y048162D01*
Y048151D01*
X049551D01*
Y048141D01*
X04954D01*
Y048151D01*
Y048162D01*
Y048173D01*
Y048184D01*
Y048194D01*
X049551D01*
Y048205D01*
X049562D01*
Y048216D01*
Y048226D01*
Y048237D01*
Y048248D01*
X049573D01*
Y048258D01*
Y048269D01*
Y04828D01*
Y048291D01*
Y048301D01*
Y048312D01*
Y048323D01*
Y048333D01*
Y048344D01*
Y048355D01*
Y048365D01*
Y048376D01*
Y048387D01*
X049594D01*
Y048376D01*
D02*
G37*
G36*
X049091Y048151D02*
Y048141D01*
X04908D01*
Y04813D01*
X049048D01*
Y048141D01*
X049016D01*
Y048151D01*
Y048162D01*
X049091D01*
Y048151D01*
D02*
G37*
G36*
X048781Y048162D02*
Y048151D01*
X048759D01*
Y048141D01*
Y04813D01*
X048749D01*
Y048119D01*
X048727D01*
Y04813D01*
X048717D01*
Y048141D01*
X048727D01*
Y048151D01*
X048749D01*
Y048162D01*
X048759D01*
Y048173D01*
X048781D01*
Y048162D01*
D02*
G37*
G36*
X04892Y048141D02*
X048952D01*
Y04813D01*
X048963D01*
Y048119D01*
Y048109D01*
X048931D01*
Y048119D01*
X04892D01*
Y04813D01*
Y048141D01*
X048909D01*
Y04813D01*
X048888D01*
Y048141D01*
X048877D01*
Y048151D01*
X04892D01*
Y048141D01*
D02*
G37*
G36*
X048802Y04813D02*
Y048119D01*
Y048109D01*
X048781D01*
Y048119D01*
Y04813D01*
X048791D01*
Y048141D01*
X048802D01*
Y04813D01*
D02*
G37*
G36*
X048706Y048109D02*
X048717D01*
Y048098D01*
X048727D01*
Y048087D01*
X048717D01*
Y048098D01*
X048674D01*
Y048087D01*
X048663D01*
Y048077D01*
X04862D01*
Y048066D01*
X048588D01*
Y048077D01*
X048599D01*
Y048087D01*
X048642D01*
Y048098D01*
X048663D01*
Y048109D01*
X048674D01*
Y048119D01*
X048706D01*
Y048109D01*
D02*
G37*
G36*
X04892Y048087D02*
X048931D01*
Y048077D01*
Y048066D01*
X048909D01*
Y048077D01*
X048898D01*
Y048087D01*
X048888D01*
Y048098D01*
X04892D01*
Y048087D01*
D02*
G37*
G36*
X049412Y048066D02*
X049391D01*
Y048055D01*
X049369D01*
Y048066D01*
X049359D01*
Y048077D01*
X049412D01*
Y048066D01*
D02*
G37*
G36*
X049187D02*
Y048055D01*
X049166D01*
Y048066D01*
Y048077D01*
X049187D01*
Y048066D01*
D02*
G37*
G36*
X048813Y048077D02*
Y048066D01*
Y048055D01*
X048824D01*
Y048045D01*
X048813D01*
Y048055D01*
X048791D01*
Y048066D01*
X04877D01*
Y048077D01*
X048759D01*
Y048087D01*
X048813D01*
Y048077D01*
D02*
G37*
G36*
X048556Y048055D02*
X048535D01*
Y048045D01*
X048513D01*
Y048055D01*
X048524D01*
Y048066D01*
X048556D01*
Y048055D01*
D02*
G37*
G36*
X049519Y048151D02*
X04953D01*
Y048141D01*
Y04813D01*
Y048119D01*
Y048109D01*
X04954D01*
Y048098D01*
X04953D01*
Y048087D01*
X049519D01*
Y048077D01*
X049508D01*
Y048066D01*
Y048055D01*
X049487D01*
Y048045D01*
Y048034D01*
X049476D01*
Y048045D01*
Y048055D01*
Y048066D01*
X049487D01*
Y048077D01*
Y048087D01*
X049498D01*
Y048098D01*
X049508D01*
Y048109D01*
X049498D01*
Y048119D01*
Y04813D01*
Y048141D01*
Y048151D01*
X049508D01*
Y048162D01*
X049519D01*
Y048151D01*
D02*
G37*
G36*
X049444Y048055D02*
Y048045D01*
Y048034D01*
X049423D01*
Y048045D01*
Y048055D01*
Y048066D01*
X049444D01*
Y048055D01*
D02*
G37*
G36*
X048963Y048045D02*
Y048034D01*
X048941D01*
Y048045D01*
Y048055D01*
X048963D01*
Y048045D01*
D02*
G37*
G36*
X048877Y048077D02*
Y048066D01*
X048888D01*
Y048055D01*
Y048045D01*
Y048034D01*
X048856D01*
Y048045D01*
Y048055D01*
X048845D01*
Y048066D01*
Y048077D01*
X048866D01*
Y048087D01*
X048877D01*
Y048077D01*
D02*
G37*
G36*
X048396Y048034D02*
X048449D01*
Y048023D01*
X048385D01*
Y048012D01*
X048342D01*
Y048023D01*
X048299D01*
Y048012D01*
X048267D01*
Y048023D01*
X048235D01*
Y048034D01*
X048214D01*
Y048045D01*
X048257D01*
Y048034D01*
X048321D01*
Y048045D01*
X048396D01*
Y048034D01*
D02*
G37*
G36*
X049284Y048055D02*
Y048045D01*
Y048034D01*
X049273D01*
Y048023D01*
X049262D01*
Y048034D01*
X049252D01*
Y048045D01*
Y048055D01*
X049262D01*
Y048066D01*
X049284D01*
Y048055D01*
D02*
G37*
G36*
X048856Y048023D02*
Y048012D01*
X048834D01*
Y048023D01*
Y048034D01*
X048856D01*
Y048023D01*
D02*
G37*
G36*
X047957Y048119D02*
X048D01*
Y048109D01*
Y048098D01*
X048043D01*
Y048087D01*
X048075D01*
Y048077D01*
Y048066D01*
X048085D01*
Y048055D01*
X048107D01*
Y048066D01*
X048192D01*
Y048055D01*
X04815D01*
Y048045D01*
X048139D01*
Y048034D01*
X04815D01*
Y048023D01*
X048171D01*
Y048012D01*
X048139D01*
Y048023D01*
Y048034D01*
X048128D01*
Y048023D01*
X048085D01*
Y048034D01*
Y048045D01*
Y048055D01*
X048064D01*
Y048066D01*
Y048077D01*
X048021D01*
Y048066D01*
X047989D01*
Y048077D01*
Y048087D01*
X048D01*
Y048098D01*
X047968D01*
Y048109D01*
X047946D01*
Y048119D01*
Y04813D01*
X047957D01*
Y048119D01*
D02*
G37*
G36*
X049412Y048012D02*
Y048002D01*
X049391D01*
Y048012D01*
Y048023D01*
X049412D01*
Y048012D01*
D02*
G37*
G36*
X049359D02*
Y048002D01*
X049348D01*
Y048012D01*
X049337D01*
Y048023D01*
X049359D01*
Y048012D01*
D02*
G37*
G36*
X049305Y047991D02*
X049294D01*
Y04798D01*
X049284D01*
Y047991D01*
Y048002D01*
X049305D01*
Y047991D01*
D02*
G37*
G36*
X048931Y048002D02*
Y047991D01*
X048941D01*
Y04798D01*
X04892D01*
Y047991D01*
X048909D01*
Y048002D01*
Y048012D01*
X048931D01*
Y048002D01*
D02*
G37*
G36*
X048706Y048012D02*
Y048002D01*
X048695D01*
Y047991D01*
X048652D01*
Y04798D01*
X048663D01*
Y04797D01*
X048642D01*
Y04798D01*
X048631D01*
Y047991D01*
X048642D01*
Y048002D01*
Y048012D01*
X048652D01*
Y048023D01*
X048706D01*
Y048012D01*
D02*
G37*
G36*
X048043Y048045D02*
X048053D01*
Y048034D01*
X048064D01*
Y048023D01*
X048085D01*
Y048012D01*
Y048002D01*
X048096D01*
Y047991D01*
X048117D01*
Y04798D01*
Y04797D01*
X048096D01*
Y04798D01*
Y047991D01*
X048075D01*
Y048002D01*
X048064D01*
Y048012D01*
X048053D01*
Y048023D01*
X048043D01*
Y048034D01*
X048032D01*
Y048045D01*
X048021D01*
Y048055D01*
X048043D01*
Y048045D01*
D02*
G37*
G36*
X048224Y04798D02*
X048246D01*
Y04797D01*
X048235D01*
Y047959D01*
X048224D01*
Y04797D01*
X048214D01*
Y04798D01*
Y047991D01*
X048224D01*
Y04798D01*
D02*
G37*
G36*
X049423Y04797D02*
X049412D01*
Y047959D01*
X049401D01*
Y047948D01*
X049369D01*
Y047959D01*
X04938D01*
Y04797D01*
Y04798D01*
X049423D01*
Y04797D01*
D02*
G37*
G36*
X048353D02*
Y047959D01*
X048342D01*
Y047948D01*
X048321D01*
Y047959D01*
Y04797D01*
Y04798D01*
X048353D01*
Y04797D01*
D02*
G37*
G36*
X04861Y048002D02*
X048599D01*
Y047991D01*
Y04798D01*
X04861D01*
Y04797D01*
X048631D01*
Y047959D01*
X048642D01*
Y047948D01*
X048631D01*
Y047938D01*
X04861D01*
Y047948D01*
X048599D01*
Y047959D01*
X048577D01*
Y04797D01*
X048567D01*
Y04798D01*
Y047991D01*
Y048002D01*
X048588D01*
Y048012D01*
X04861D01*
Y048002D01*
D02*
G37*
G36*
X048567Y047948D02*
Y047938D01*
X048599D01*
Y047927D01*
Y047916D01*
X048567D01*
Y047927D01*
X048556D01*
Y047938D01*
X048545D01*
Y047948D01*
Y047959D01*
X048567D01*
Y047948D01*
D02*
G37*
G36*
X048299Y047927D02*
Y047916D01*
X048289D01*
Y047927D01*
X048278D01*
Y047938D01*
X048299D01*
Y047927D01*
D02*
G37*
G36*
X048171Y047959D02*
X048182D01*
Y047948D01*
X048203D01*
Y047938D01*
X048214D01*
Y047927D01*
X048224D01*
Y047916D01*
X048182D01*
Y047927D01*
Y047938D01*
X04815D01*
Y047948D01*
X048139D01*
Y047959D01*
Y04797D01*
X048171D01*
Y047959D01*
D02*
G37*
G36*
X049252Y047948D02*
X049241D01*
Y047938D01*
Y047927D01*
X049219D01*
Y047916D01*
X049198D01*
Y047905D01*
X049177D01*
Y047916D01*
Y047927D01*
X049187D01*
Y047938D01*
X049198D01*
Y047948D01*
X049209D01*
Y047959D01*
X049252D01*
Y047948D01*
D02*
G37*
G36*
X048535Y047905D02*
X048545D01*
Y047895D01*
X048503D01*
Y047905D01*
Y047916D01*
X048535D01*
Y047905D01*
D02*
G37*
G36*
X048888Y047991D02*
Y04798D01*
Y04797D01*
X04892D01*
Y047959D01*
Y047948D01*
Y047938D01*
Y047927D01*
X048931D01*
Y047916D01*
X048963D01*
Y047905D01*
Y047895D01*
Y047884D01*
X048931D01*
Y047895D01*
X04892D01*
Y047905D01*
Y047916D01*
Y047927D01*
X048898D01*
Y047938D01*
Y047948D01*
X048888D01*
Y047959D01*
Y04797D01*
X048877D01*
Y04798D01*
X048866D01*
Y047991D01*
Y048002D01*
X048888D01*
Y047991D01*
D02*
G37*
G36*
X048289Y047895D02*
X048278D01*
Y047884D01*
X048246D01*
Y047895D01*
X048235D01*
Y047905D01*
X048289D01*
Y047895D01*
D02*
G37*
G36*
X049369Y047938D02*
Y047927D01*
X049359D01*
Y047916D01*
X049326D01*
Y047905D01*
Y047895D01*
X049305D01*
Y047884D01*
X049284D01*
Y047873D01*
Y047863D01*
X04923D01*
Y047873D01*
X049241D01*
Y047884D01*
X049273D01*
Y047895D01*
Y047905D01*
X049294D01*
Y047916D01*
X049316D01*
Y047927D01*
Y047938D01*
X049326D01*
Y047948D01*
X049369D01*
Y047938D01*
D02*
G37*
G36*
X048471Y047873D02*
Y047863D01*
X048299D01*
Y047873D01*
Y047884D01*
X048471D01*
Y047873D01*
D02*
G37*
G36*
X049177Y047863D02*
X049209D01*
Y047852D01*
X049219D01*
Y047841D01*
X049145D01*
Y047831D01*
X049091D01*
Y047841D01*
X049016D01*
Y047852D01*
Y047863D01*
X049166D01*
Y047873D01*
X049177D01*
Y047863D01*
D02*
G37*
%LPC*%
G36*
X04908Y051436D02*
X04907D01*
Y051425D01*
Y051415D01*
X04908D01*
Y051404D01*
Y051393D01*
X049102D01*
Y051404D01*
Y051415D01*
X04908D01*
Y051425D01*
Y051436D01*
D02*
G37*
G36*
X049187Y049414D02*
X049166D01*
Y049403D01*
Y049393D01*
X049187D01*
Y049403D01*
Y049414D01*
D02*
G37*
G36*
X049155Y049382D02*
X049145D01*
Y049371D01*
X049155D01*
Y049382D01*
D02*
G37*
%LPD*%
D63*
X02699Y052549D02*
X027423D01*
X027207Y052333D02*
Y052766D01*
X02799Y052549D02*
X028423D01*
X028207Y052333D02*
Y052766D01*
X02899Y052549D02*
X029423D01*
X029207Y052333D02*
Y052766D01*
X02999Y052549D02*
X030423D01*
X030207Y052333D02*
Y052766D01*
X03099Y052549D02*
X031423D01*
X031207Y052333D02*
Y052766D01*
X03199Y052549D02*
X032423D01*
X032207Y052333D02*
Y052766D01*
X03299Y052549D02*
X033423D01*
X033207Y052333D02*
Y052766D01*
X03399Y052549D02*
X034423D01*
X034207Y052333D02*
Y052766D01*
X03499Y052549D02*
X035423D01*
X035207Y052333D02*
Y052766D01*
X03599Y052549D02*
X036423D01*
X036207Y052333D02*
Y052766D01*
X03699Y052549D02*
X037423D01*
X037207Y052333D02*
Y052766D01*
X03799Y052549D02*
X038423D01*
X038207Y052333D02*
Y052766D01*
X03899Y052549D02*
X039423D01*
X039207Y052333D02*
Y052766D01*
X03999Y052549D02*
X040423D01*
X040207Y052333D02*
Y052766D01*
X04099Y052549D02*
X041423D01*
X041207Y052333D02*
Y052766D01*
X04199Y052549D02*
X042423D01*
X042207Y052333D02*
Y052766D01*
X057573Y025758D02*
X057888D01*
X05773Y0256D02*
Y025915D01*
X055573Y025758D02*
X055888D01*
X05573Y0256D02*
Y025915D01*
X056573Y025758D02*
X056888D01*
X05673Y0256D02*
Y025915D01*
X058573Y025758D02*
X058888D01*
X05873Y0256D02*
Y025915D01*
X059573Y025758D02*
X059888D01*
X05973Y0256D02*
Y025915D01*
X060573Y025758D02*
X060888D01*
X06073Y0256D02*
Y025915D01*
X024608Y028947D02*
X024958D01*
X024783Y028772D02*
Y029122D01*
X025608Y026947D02*
X025958D01*
X025783Y026772D02*
Y027122D01*
X026608Y028947D02*
X026958D01*
X026783Y028772D02*
Y029122D01*
X041726Y029173D02*
X042128D01*
X041927Y028972D02*
Y029374D01*
X048726Y029173D02*
X049128D01*
X048927Y028972D02*
Y029374D01*
X047726Y029173D02*
X048128D01*
X047927Y028972D02*
Y029374D01*
X046726Y029173D02*
X047128D01*
X046927Y028972D02*
Y029374D01*
X045726Y029173D02*
X046128D01*
X045927Y028972D02*
Y029374D01*
X044726Y029173D02*
X045128D01*
X044927Y028972D02*
Y029374D01*
X043726Y029173D02*
X044128D01*
X043927Y028972D02*
Y029374D01*
X042726Y029173D02*
X043128D01*
X042927Y028972D02*
Y029374D01*
X040726Y029173D02*
X041128D01*
X040927Y028972D02*
Y029374D01*
X059142Y029173D02*
X059543D01*
X059343Y028972D02*
Y029374D01*
X052142Y029173D02*
X052543D01*
X052343Y028972D02*
Y029374D01*
X053142Y029173D02*
X053543D01*
X053343Y028972D02*
Y029374D01*
X054142Y029173D02*
X054543D01*
X054343Y028972D02*
Y029374D01*
X055142Y029173D02*
X055543D01*
X055343Y028972D02*
Y029374D01*
X056142Y029173D02*
X056543D01*
X056343Y028972D02*
Y029374D01*
X057142Y029173D02*
X057543D01*
X057343Y028972D02*
Y029374D01*
X058142Y029173D02*
X058543D01*
X058343Y028972D02*
Y029374D01*
X060142Y029173D02*
X060543D01*
X060343Y028972D02*
Y029374D01*
X027511Y01833D02*
X028101D01*
X027806Y018035D02*
Y018625D01*
X026011Y02033D02*
X026601D01*
X026306Y020035D02*
Y020625D01*
X028511Y02033D02*
X029101D01*
X028806Y020035D02*
Y020625D01*
X04395Y022316D02*
X04426D01*
X044105Y022161D02*
Y022471D01*
X04295Y022316D02*
X04326D01*
X043105Y022161D02*
Y022471D01*
X04195Y022316D02*
X04226D01*
X042105Y022161D02*
Y022471D01*
X04095Y022316D02*
X04126D01*
X041105Y022161D02*
Y022471D01*
X04395Y019316D02*
X04426D01*
X044105Y019161D02*
Y019471D01*
X04295Y019316D02*
X04326D01*
X043105Y019161D02*
Y019471D01*
X04195Y019316D02*
X04226D01*
X042105Y019161D02*
Y019471D01*
X04095Y019316D02*
X04126D01*
X041105Y019161D02*
Y019471D01*
X026089Y017087D02*
X02649D01*
X026289Y016886D02*
Y017287D01*
X025089Y017087D02*
X02549D01*
X025289Y016886D02*
Y017287D01*
X024089Y017087D02*
X02449D01*
X024289Y016886D02*
Y017287D01*
X035277Y017411D02*
X035727D01*
X035502Y017186D02*
Y017636D01*
X035277Y025411D02*
X035727D01*
X035502Y025186D02*
Y025636D01*
X037655Y049587D02*
X037935D01*
X037795Y049447D02*
Y049727D01*
X03766Y04861D02*
X03794D01*
X0378Y04847D02*
Y04875D01*
X027478Y048071D02*
X027758D01*
X027618Y047931D02*
Y048211D01*
X04825Y01989D02*
X04853D01*
X04839Y01975D02*
Y02003D01*
X04855Y02814D02*
X04883D01*
X04869Y028D02*
Y02828D01*
X04662Y01842D02*
X0469D01*
X04676Y01828D02*
Y01856D01*
X0503Y01638D02*
X05058D01*
X05044Y01624D02*
Y01652D01*
X045647Y021171D02*
X045927D01*
X045787Y021031D02*
Y021311D01*
X05193Y02169D02*
X05221D01*
X05207Y02155D02*
Y02183D01*
X03491Y033374D02*
X03519D01*
X03505Y033234D02*
Y033514D01*
X047694Y021006D02*
X047974D01*
X047834Y020866D02*
Y021146D01*
X05326Y01935D02*
X05354D01*
X0534Y01921D02*
Y01949D01*
X04775Y019426D02*
X04803D01*
X04789Y019286D02*
Y019566D01*
X05139Y025056D02*
X05167D01*
X05153Y024916D02*
Y025196D01*
X04994Y02194D02*
X05022D01*
X05008Y0218D02*
Y02208D01*
X05045Y02129D02*
X05073D01*
X05059Y02115D02*
Y02143D01*
X0474Y02756D02*
X04768D01*
X04754Y02742D02*
Y0277D01*
X049899Y024295D02*
X050179D01*
X050039Y024155D02*
Y024435D01*
X049Y023674D02*
X04928D01*
X04914Y023534D02*
Y023814D01*
X04954Y01983D02*
X04982D01*
X04968Y01969D02*
Y01997D01*
X04329Y03368D02*
X04357D01*
X04343Y03354D02*
Y03382D01*
X031037Y038103D02*
X031317D01*
X031177Y037963D02*
Y038243D01*
X04746Y02168D02*
X04774D01*
X0476Y02154D02*
Y02182D01*
X05179Y02042D02*
X05207D01*
X05193Y02028D02*
Y02056D01*
X04752Y01792D02*
X0478D01*
X04766Y01778D02*
Y01806D01*
X0577Y02044D02*
X05798D01*
X05784Y0203D02*
Y02058D01*
X05055Y020668D02*
X05083D01*
X05069Y020528D02*
Y020808D01*
X0547Y02963D02*
X05498D01*
X05484Y02949D02*
Y02977D01*
M02*
