M48
;Layer_Color=9474304
;FILE_FORMAT=2:4
INCH,LZ
;TYPE=PLATED
T1F00S00C0.0280
T2F00S00C0.0310
T3F00S00C0.0315
T4F00S00C0.0350
T5F00S00C0.0402
T6F00S00C0.0433
T7F00S00C0.0450
%
T01
X04766Y01792
X04789Y019426
X04839Y01989
X04968Y01983
X05069Y020668
X05059Y02129
X05008Y02194
X05207Y02169
X05193Y02042
X0534Y01935
X05784Y02044
X047834Y021006
X0476Y02168
X04914Y023674
X050039Y024295
X05153Y025056
X04869Y02814
X04754Y02756
X05484Y02963
X05044Y01638
X04676Y01842
X045787Y021171
X031177Y038103
X03505Y033374
X04343Y03368
X0378Y04861
X037795Y049587
X027618Y048071
T02
X041105Y019316
X042105
X043105
X044105
Y022316
X043105
X042105
X041105
T03
X05573Y025758
X05673
X05773
X05873
X05973
X06073
T04
X025783Y026947
X024783Y028947
X026783
T05
X046927Y029173
X047927
X048927
X052343
X053343
X054343
X055343
X056343
X057343
X058343
X059343
X060343
X045927
X044927
X043927
X042927
X041927
X040927
X026289Y017087
X025289
X024289
T06
X032207Y052549
X033207
X034207
X035207
X036207
X037207
X038207
X039207
X040207
X041207
X042207
X031207
X030207
X029207
X028207
X027207
T07
X035502Y017411
Y025411
M30
