G04*
G04 #@! TF.GenerationSoftware,Altium Limited,Altium Designer,21.0.8 (223)*
G04*
G04 Layer_Color=8388736*
%FSTAX24Y24*%
%MOIN*%
G70*
G04*
G04 #@! TF.SameCoordinates,EDDFCF6A-67A3-46E2-8177-59DA37980891*
G04*
G04*
G04 #@! TF.FilePolarity,Negative*
G04*
G01*
G75*
%ADD24R,0.0200X0.0530*%
%ADD25R,0.0530X0.0200*%
%ADD31R,0.1655X0.0552*%
%ADD32R,0.0474X0.0789*%
%ADD33R,0.0671X0.0474*%
%ADD34R,0.0474X0.0671*%
%ADD35R,0.0552X0.0631*%
%ADD36R,0.0631X0.0552*%
%ADD37R,0.0680X0.0730*%
%ADD38R,0.0710X0.0710*%
%ADD39C,0.0710*%
%ADD40C,0.0830*%
%ADD41C,0.0678*%
%ADD42R,0.0678X0.0678*%
%ADD43R,0.1680X0.1080*%
%ADD44R,0.1080X0.1680*%
%ADD45R,0.0680X0.0980*%
%ADD46O,0.0680X0.0980*%
%ADD47R,0.1080X0.1080*%
%ADD48C,0.1080*%
%ADD49C,0.0580*%
D24*
X04752Y018533D02*
D03*
X047835D02*
D03*
X04815D02*
D03*
X048465D02*
D03*
X04878D02*
D03*
X049094D02*
D03*
X049409D02*
D03*
X049724D02*
D03*
X050039D02*
D03*
X050354D02*
D03*
X050669D02*
D03*
Y023003D02*
D03*
X050354D02*
D03*
X050039D02*
D03*
X049724D02*
D03*
X049409D02*
D03*
X049094D02*
D03*
X04878D02*
D03*
X048465D02*
D03*
X04815D02*
D03*
X047835D02*
D03*
X04752D02*
D03*
D25*
X051329Y019193D02*
D03*
Y019508D02*
D03*
Y019823D02*
D03*
Y020138D02*
D03*
Y020453D02*
D03*
Y020768D02*
D03*
Y021083D02*
D03*
Y021398D02*
D03*
Y021713D02*
D03*
Y022028D02*
D03*
Y022343D02*
D03*
X046859D02*
D03*
Y022028D02*
D03*
Y021713D02*
D03*
Y021398D02*
D03*
Y021083D02*
D03*
Y020768D02*
D03*
Y020453D02*
D03*
Y020138D02*
D03*
Y019823D02*
D03*
Y019508D02*
D03*
Y019193D02*
D03*
D31*
X048615Y025856D02*
D03*
X053115D02*
D03*
D32*
X044072Y023759D02*
D03*
X043088D02*
D03*
D33*
X059783Y02252D02*
D03*
X056791D02*
D03*
D34*
X055089Y01628D02*
D03*
Y019272D02*
D03*
X057844Y01628D02*
D03*
Y019272D02*
D03*
X060561Y01628D02*
D03*
Y019272D02*
D03*
D35*
X026692Y023656D02*
D03*
X02744D02*
D03*
X028063Y017033D02*
D03*
X028811D02*
D03*
X055817Y022569D02*
D03*
X055069D02*
D03*
X052932Y027458D02*
D03*
X052184D02*
D03*
X048775Y027451D02*
D03*
X049523D02*
D03*
D36*
X055908Y020238D02*
D03*
Y020986D02*
D03*
X057188Y020238D02*
D03*
Y020986D02*
D03*
X059748Y020238D02*
D03*
Y020986D02*
D03*
X042158Y017793D02*
D03*
Y017045D02*
D03*
X041007Y017793D02*
D03*
Y017045D02*
D03*
X054626Y020985D02*
D03*
Y020237D02*
D03*
X058465Y020985D02*
D03*
Y020237D02*
D03*
X061025Y020985D02*
D03*
Y020237D02*
D03*
X030066Y019979D02*
D03*
Y020728D02*
D03*
D37*
X024197Y02367D02*
D03*
X025617D02*
D03*
D38*
X027207Y052549D02*
D03*
X05573Y025758D02*
D03*
D39*
X028207Y052549D02*
D03*
X029207D02*
D03*
X030207D02*
D03*
X031207D02*
D03*
X032207D02*
D03*
X033207D02*
D03*
X034207D02*
D03*
X035207D02*
D03*
X036207D02*
D03*
X037207D02*
D03*
X038207D02*
D03*
X039207D02*
D03*
X040207D02*
D03*
X041207D02*
D03*
X042207D02*
D03*
X05773Y025758D02*
D03*
X05673D02*
D03*
X05873D02*
D03*
X05973D02*
D03*
X06073D02*
D03*
D40*
X024783Y028947D02*
D03*
X025783Y026947D02*
D03*
X026783Y028947D02*
D03*
D41*
X041927Y029173D02*
D03*
X048927D02*
D03*
X047927D02*
D03*
X046927D02*
D03*
X045927D02*
D03*
X044927D02*
D03*
X043927D02*
D03*
X042927D02*
D03*
X059343D02*
D03*
X052343D02*
D03*
X053343D02*
D03*
X054343D02*
D03*
X055343D02*
D03*
X056343D02*
D03*
X057343D02*
D03*
X058343D02*
D03*
X026289Y017087D02*
D03*
X025289D02*
D03*
D42*
X040927Y029173D02*
D03*
X060343D02*
D03*
X024289Y017087D02*
D03*
D43*
X027806Y01833D02*
D03*
D44*
X026306Y02033D02*
D03*
X028806D02*
D03*
D45*
X044105Y022316D02*
D03*
D46*
X043105D02*
D03*
X042105D02*
D03*
X041105D02*
D03*
X044105Y019316D02*
D03*
X043105D02*
D03*
X042105D02*
D03*
X041105D02*
D03*
D47*
X035502Y017411D02*
D03*
D48*
Y025411D02*
D03*
D49*
X037795Y049587D02*
D03*
X0378Y04861D02*
D03*
X027618Y048071D02*
D03*
X04839Y01989D02*
D03*
X04869Y02814D02*
D03*
X04676Y01842D02*
D03*
X05044Y01638D02*
D03*
X045787Y021171D02*
D03*
X05207Y02169D02*
D03*
X03505Y033374D02*
D03*
X047834Y021006D02*
D03*
X0534Y01935D02*
D03*
X04789Y019426D02*
D03*
X05153Y025056D02*
D03*
X05008Y02194D02*
D03*
X05059Y02129D02*
D03*
X04754Y02756D02*
D03*
X050039Y024295D02*
D03*
X04914Y023674D02*
D03*
X04968Y01983D02*
D03*
X04343Y03368D02*
D03*
X031177Y038103D02*
D03*
X0476Y02168D02*
D03*
X05193Y02042D02*
D03*
X04766Y01792D02*
D03*
X05784Y02044D02*
D03*
X05069Y020668D02*
D03*
X05484Y02963D02*
D03*
M02*
