G04*
G04 #@! TF.GenerationSoftware,Altium Limited,Altium Designer,21.0.8 (223)*
G04*
G04 Layer_Color=8421504*
%FSTAX24Y24*%
%MOIN*%
G70*
G04*
G04 #@! TF.SameCoordinates,EDDFCF6A-67A3-46E2-8177-59DA37980891*
G04*
G04*
G04 #@! TF.FilePolarity,Positive*
G04*
G01*
G75*
%ADD22R,0.1575X0.0472*%
%ADD23R,0.0394X0.0709*%
%ADD24R,0.0200X0.0530*%
%ADD25R,0.0530X0.0200*%
%ADD26R,0.0591X0.0394*%
%ADD27R,0.0394X0.0591*%
%ADD28R,0.0472X0.0551*%
%ADD29R,0.0551X0.0472*%
%ADD30R,0.0600X0.0650*%
D22*
X048615Y025856D02*
D03*
X053115D02*
D03*
D23*
X044072Y023759D02*
D03*
X043088D02*
D03*
D24*
X04752Y018533D02*
D03*
X047835D02*
D03*
X04815D02*
D03*
X048465D02*
D03*
X04878D02*
D03*
X049094D02*
D03*
X049409D02*
D03*
X049724D02*
D03*
X050039D02*
D03*
X050354D02*
D03*
X050669D02*
D03*
Y023003D02*
D03*
X050354D02*
D03*
X050039D02*
D03*
X049724D02*
D03*
X049409D02*
D03*
X049094D02*
D03*
X04878D02*
D03*
X048465D02*
D03*
X04815D02*
D03*
X047835D02*
D03*
X04752D02*
D03*
D25*
X051329Y019193D02*
D03*
Y019508D02*
D03*
Y019823D02*
D03*
Y020138D02*
D03*
Y020453D02*
D03*
Y020768D02*
D03*
Y021083D02*
D03*
Y021398D02*
D03*
Y021713D02*
D03*
Y022028D02*
D03*
Y022343D02*
D03*
X046859D02*
D03*
Y022028D02*
D03*
Y021713D02*
D03*
Y021398D02*
D03*
Y021083D02*
D03*
Y020768D02*
D03*
Y020453D02*
D03*
Y020138D02*
D03*
Y019823D02*
D03*
Y019508D02*
D03*
Y019193D02*
D03*
D26*
X059783Y02252D02*
D03*
X056791D02*
D03*
D27*
X055089Y01628D02*
D03*
Y019272D02*
D03*
X057844Y01628D02*
D03*
Y019272D02*
D03*
X060561Y01628D02*
D03*
Y019272D02*
D03*
D28*
X026692Y023656D02*
D03*
X02744D02*
D03*
X028063Y017033D02*
D03*
X028811D02*
D03*
X055817Y022569D02*
D03*
X055069D02*
D03*
X052932Y027458D02*
D03*
X052184D02*
D03*
X048775Y027451D02*
D03*
X049523D02*
D03*
D29*
X055908Y020238D02*
D03*
Y020986D02*
D03*
X057188Y020238D02*
D03*
Y020986D02*
D03*
X059748Y020238D02*
D03*
Y020986D02*
D03*
X042158Y017793D02*
D03*
Y017045D02*
D03*
X041007Y017793D02*
D03*
Y017045D02*
D03*
X054626Y020985D02*
D03*
Y020237D02*
D03*
X058465Y020985D02*
D03*
Y020237D02*
D03*
X061025Y020985D02*
D03*
Y020237D02*
D03*
X030066Y019979D02*
D03*
Y020728D02*
D03*
D30*
X024197Y02367D02*
D03*
X025617D02*
D03*
M02*
