G04*
G04 #@! TF.GenerationSoftware,Altium Limited,Altium Designer,21.0.8 (223)*
G04*
G04 Layer_Color=255*
%FSTAX24Y24*%
%MOIN*%
G70*
G04*
G04 #@! TF.SameCoordinates,EDDFCF6A-67A3-46E2-8177-59DA37980891*
G04*
G04*
G04 #@! TF.FilePolarity,Positive*
G04*
G01*
G75*
%ADD50R,0.0630X0.0630*%
%ADD51C,0.0630*%
%ADD52C,0.0750*%
%ADD53C,0.0598*%
%ADD54R,0.0598X0.0598*%
%ADD55R,0.1600X0.1000*%
%ADD56R,0.1000X0.1600*%
%ADD57R,0.0600X0.0900*%
%ADD58O,0.0600X0.0900*%
%ADD59R,0.1000X0.1000*%
%ADD60C,0.1000*%
D50*
X027207Y052549D02*
D03*
X05573Y025758D02*
D03*
D51*
X028207Y052549D02*
D03*
X029207D02*
D03*
X030207D02*
D03*
X031207D02*
D03*
X032207D02*
D03*
X033207D02*
D03*
X034207D02*
D03*
X035207D02*
D03*
X036207D02*
D03*
X037207D02*
D03*
X038207D02*
D03*
X039207D02*
D03*
X040207D02*
D03*
X041207D02*
D03*
X042207D02*
D03*
X05773Y025758D02*
D03*
X05673D02*
D03*
X05873D02*
D03*
X05973D02*
D03*
X06073D02*
D03*
D52*
X024783Y028947D02*
D03*
X025783Y026947D02*
D03*
X026783Y028947D02*
D03*
D53*
X041927Y029173D02*
D03*
X048927D02*
D03*
X047927D02*
D03*
X046927D02*
D03*
X045927D02*
D03*
X044927D02*
D03*
X043927D02*
D03*
X042927D02*
D03*
X059343D02*
D03*
X052343D02*
D03*
X053343D02*
D03*
X054343D02*
D03*
X055343D02*
D03*
X056343D02*
D03*
X057343D02*
D03*
X058343D02*
D03*
X026289Y017087D02*
D03*
X025289D02*
D03*
D54*
X040927Y029173D02*
D03*
X060343D02*
D03*
X024289Y017087D02*
D03*
D55*
X027806Y01833D02*
D03*
D56*
X026306Y02033D02*
D03*
X028806D02*
D03*
D57*
X044105Y022316D02*
D03*
D58*
X043105D02*
D03*
X042105D02*
D03*
X041105D02*
D03*
X044105Y019316D02*
D03*
X043105D02*
D03*
X042105D02*
D03*
X041105D02*
D03*
D59*
X035502Y017411D02*
D03*
D60*
Y025411D02*
D03*
M02*
